<svg width="420" height="433" viewBox="0 0 420 433" fill="none" xmlns="http://www.w3.org/2000/svg">
<path d="M149.052 19.7982C150.258 15.3677 152.603 11.3311 155.855 8.09079C159.106 4.85046 163.15 2.51971 167.583 1.3313C172.016 0.142883 176.682 0.138185 181.117 1.31779C185.552 2.49711 189.601 4.81963 192.859 8.05321L275.618 90.2205L392.093 84.5704C396.675 84.3509 401.236 85.3371 405.316 87.4307C409.399 89.5242 412.864 92.6519 415.36 96.5021C417.859 100.352 419.305 104.79 419.555 109.374C419.804 113.957 418.848 118.526 416.783 122.625L364.246 226.776L405.627 335.847C407.258 340.144 407.733 344.79 407.006 349.328C406.281 353.862 404.378 358.13 401.488 361.699C398.599 365.268 394.824 368.018 390.541 369.674C386.258 371.326 381.615 371.828 377.077 371.124L261.837 353.302L170.943 426.391C167.365 429.271 163.095 431.158 158.558 431.868C154.022 432.578 149.379 432.088 145.093 430.442C140.807 428.795 137.027 426.051 134.131 422.488C131.235 418.921 129.325 414.66 128.591 410.125L109.924 294.961L12.387 231.068C8.54487 228.552 5.42936 225.074 3.35137 220.977C1.27309 216.882 0.305083 212.312 0.544151 207.725C0.782926 203.137 2.22027 198.694 4.71245 194.834C7.20463 190.977 10.6645 187.84 14.7469 185.738L118.441 132.361L149.052 19.7982Z" fill="url(#paint0_linear_2170_10498)"/>
<defs>
<linearGradient id="paint0_linear_2170_10498" x1="35.6765" y1="0.436448" x2="433.097" y2="30.1606" gradientUnits="userSpaceOnUse">
<stop stop-color="#95C2E7" stop-opacity="0.91"/>
<stop offset="1" stop-color="#3884C3"/>
</linearGradient>
</defs>
</svg>
