<svg width="420" height="433" viewBox="0 0 420 433" fill="none" xmlns="http://www.w3.org/2000/svg">
<path d="M227.366 8.12161C230.625 4.88774 234.673 2.56551 239.108 1.3859C243.543 0.206583 248.21 0.211278 252.643 1.39969C257.075 2.5881 261.117 4.91856 264.37 8.15889C267.62 11.3992 269.967 15.4361 271.173 19.8663L301.785 132.429L405.479 185.808C409.557 187.91 413.012 191.045 415.503 194.901C417.99 198.755 419.427 203.199 419.665 207.78C419.905 212.365 418.94 216.932 416.867 221.026C414.79 225.121 411.68 228.599 407.844 231.114L310.301 295.029L291.633 410.192C290.9 414.727 288.99 418.989 286.095 422.555C283.199 426.121 279.418 428.862 275.133 430.509C270.844 432.155 266.204 432.648 261.666 431.938C257.131 431.228 252.86 429.338 249.281 426.458L158.388 353.369L43.1482 371.194C38.6103 371.895 33.9668 371.396 29.6841 369.741C25.4014 368.089 21.6262 365.338 18.7368 361.766C15.8475 358.197 13.9438 353.933 13.2193 349.395C12.4918 344.857 12.967 340.211 14.5979 335.917L55.9788 226.844L3.43645 122.714C1.3655 118.614 0.406296 114.042 0.655631 109.455C0.902033 104.868 2.34822 100.426 4.84744 96.5729C7.34373 92.7194 10.8109 89.5894 14.8971 87.4952C18.9833 85.4013 23.5476 84.4161 28.1324 84.6385L144.607 90.2886L227.366 8.12161Z" fill="url(#paint0_linear_2170_10504)"/>
<defs>
<linearGradient id="paint0_linear_2170_10504" x1="35.7848" y1="0.504807" x2="433.205" y2="30.2288" gradientUnits="userSpaceOnUse">
<stop stop-color="#95C2E7" stop-opacity="0.91"/>
<stop offset="1" stop-color="#3884C3"/>
</linearGradient>
</defs>
</svg>
