<svg width="30" height="24" viewBox="0 0 30 24" fill="none" xmlns="http://www.w3.org/2000/svg">
<g clip-path="url(#clip0_2319_39)">
<path fill-rule="evenodd" clip-rule="evenodd" d="M28.5317 1.34471C29.0701 1.88378 29.3725 2.6145 29.3725 3.37638C29.3725 4.13826 29.0701 4.86898 28.5317 5.40805L11.2817 22.6581C10.7426 23.1965 10.0119 23.4989 9.25 23.4989C8.48812 23.4989 7.7574 23.1965 7.21833 22.6581L1.46833 16.9081C0.960495 16.3631 0.684023 15.6422 0.697164 14.8974C0.710306 14.1526 1.01204 13.4419 1.53878 12.9152C2.06553 12.3884 2.77618 12.0867 3.521 12.0736C4.26582 12.0604 4.98666 12.3369 5.53167 12.8447L9.25 16.5631L24.4683 1.34471C25.0074 0.806316 25.7381 0.503906 26.5 0.503906C27.2619 0.503906 27.9926 0.806316 28.5317 1.34471Z" fill="url(#paint0_linear_2319_39)"/>
</g>
<defs>
<linearGradient id="paint0_linear_2319_39" x1="3.10308" y1="0.503902" x2="30.1984" y2="3.10744" gradientUnits="userSpaceOnUse">
<stop stop-color="#95C2E7" stop-opacity="0.91"/>
<stop offset="1" stop-color="#3884C3"/>
</linearGradient>
<clipPath id="clip0_2319_39">
<rect width="30" height="24" fill="white"/>
</clipPath>
</defs>
</svg>
