<svg width="450" height="600" viewBox="0 0 450 600" fill="none" xmlns="http://www.w3.org/2000/svg">
<path d="M136.245 345.646C138.198 348.958 141.521 352.568 145.193 351.432C146.786 350.943 147.974 349.641 149.026 348.359C153.292 343.167 156.74 337.307 159.208 331.057C160.974 326.594 162.115 321.146 159.245 317.302C156.76 313.974 152.25 313.135 148.313 311.833C145.031 310.75 141.911 309.198 138.594 308.224C130.25 305.776 121.818 309.016 125.469 318.224C129.135 327.469 131.13 336.943 136.245 345.646Z" fill="#514039"/>
<mask id="mask0_2437_4509" style="mask-type:luminance" maskUnits="userSpaceOnUse" x="85" y="189" width="278" height="238">
<path d="M85.333 189.333H362.666V426.63H85.333V189.333Z" fill="white"/>
</mask>
<g mask="url(#mask0_2437_4509)">
<path d="M343.083 295.031C339.094 286.422 334.339 278.198 328.875 270.432C322.964 262.031 316.135 253.896 308.495 246.714C302.745 238.979 295.818 232.172 287.792 226.781C267.349 213.063 239.797 209.479 217.464 219.839C213.396 221.755 209.51 224.078 205.604 226.344C202.323 228.255 198.99 230.125 195.526 231.688C195.24 228.286 194.755 224.911 193.469 221.755C193.453 221.714 193.427 221.677 193.411 221.635C196.042 218.813 197.458 214.859 197.13 210.995C196.812 207.219 194.547 203.302 190.87 202.375C188.354 201.74 184.604 202.88 181.12 204.911C176.922 201.26 172.156 198.245 167.094 196.063C148.396 187.969 124.891 187.505 108.38 200.245C106.281 201.859 104.354 203.667 102.526 205.568C98.3177 203.521 93.4843 203.313 89.75 206.531C86.776 209.099 85.3958 213.38 86.3125 217.203C86.9948 220.047 88.8593 222.469 91.2031 224.25C90.1041 227.745 89.4114 231.37 89.2864 235.089C89.2395 235.344 89.1875 235.599 89.1406 235.859C84.875 260.646 93.2135 286.724 108.818 306.484C110.052 308.042 111.307 309.547 112.646 311.021C114.094 312.688 115.599 314.276 117.182 315.833C118.797 317.5 120.464 319.057 122.187 320.589C122.651 321 123.141 321.411 123.635 321.818C125.083 323.104 126.557 324.307 128.062 325.427C128.146 325.484 128.224 325.563 128.281 325.62C140.88 335.484 155.448 342.922 170.62 348.089C180.432 351.422 190.49 353.854 200.714 355.604C213.255 357.734 225.969 358.854 238.677 359.318C240.755 359.401 242.859 359.458 244.937 359.51C259.474 359.813 274.234 359.349 288.12 355.031C296.646 352.354 304.844 348.036 311.51 342.135C314.87 345.474 318.333 348.75 321.411 352.271C337.156 370.281 342.677 394.797 347.24 418.302C347.458 419.427 347.703 420.599 348.089 421.693C348.359 422.484 348.719 423.224 349.208 423.906C350.385 425.521 352.542 426.615 354.401 425.901C356.562 425.083 357.297 422.484 357.734 420.219C365.609 378.505 361.042 333.682 343.083 295.031Z" fill="#6D5B55"/>
</g>
<path d="M239.084 346.635C230.86 339.75 220.526 335.87 210.167 333.109C206.422 332.099 202.651 331.224 198.88 330.349C193.714 329.146 188.578 327.943 183.521 326.411C182.016 325.974 180.511 325.51 179.011 324.99C168.844 321.49 159 316.104 152.417 307.635C147.25 300.938 144.354 292.083 145.693 283.635C145.849 282.63 146.099 281.641 146.38 280.656C154.136 279.99 161.834 278 169.224 274.943C178 271.307 186.115 265.594 191.198 257.589C192.729 255.156 193.959 252.474 194.782 249.714C194.724 249.604 194.646 249.526 194.589 249.417C192.047 245.422 186.688 244.219 181.964 244.495C177.235 244.766 172.532 246.135 167.802 245.833C160.344 245.344 153.511 240.724 146.047 240.833C140.5 240.917 135.36 243.594 129.922 244.578C128.485 244.839 127.037 244.953 125.589 245.005C122.396 244.911 119.209 244.719 116.037 244.333C110.214 243.62 104.422 242.281 98.9794 240.068C95.5888 238.672 93.0211 236.677 90.2867 234.708C90.1774 234.656 90.0992 234.573 90.0159 234.547C89.8232 234.38 89.6617 234.271 89.469 234.135C89.3336 234.708 89.2503 235.281 89.1409 235.859C89.0576 236.266 89.0055 236.677 88.9482 237.115C85.1513 261.521 93.4846 287.052 108.818 306.484C110.052 308.042 111.308 309.547 112.646 311.021C114.094 312.688 115.625 314.302 117.183 315.833C118.797 317.5 120.464 319.057 122.188 320.589C122.651 321 123.141 321.411 123.636 321.818C125.084 323.021 126.615 324.198 128.063 325.427C128.146 325.484 128.224 325.563 128.282 325.62C140.88 335.484 155.448 342.922 170.62 348.089C180.433 351.422 190.49 353.854 200.714 355.604C207.516 356.75 214.375 357.625 221.24 358.229C227.032 358.745 232.854 359.099 238.677 359.318C240.943 358.036 242.912 356.313 243.188 353.828C243.485 350.984 241.302 348.495 239.084 346.635Z" fill="#D3BEAF"/>
<path d="M158.573 252.552C157.412 253.37 156.198 254.135 154.823 254.531C153.552 254.896 152.261 254.99 150.948 254.906C149.625 254.818 148.412 254.453 147.292 253.745C147.079 253.615 146.891 253.443 146.698 253.276C145.172 254.609 143.261 255.505 141.266 255.755C137.948 256.167 135.079 254.896 132.334 253.167C131.724 252.786 132.12 251.839 132.818 252.016C134.563 252.464 136.401 252.672 138.204 252.589C139.698 252.516 141.204 252.38 142.599 251.786C143.745 251.297 144.761 250.505 145.407 249.432C145.896 248.62 146.021 247.745 146.23 246.87C144.48 246.432 142.724 245.063 141.381 244.297C140.459 243.771 139.448 243.406 138.526 242.875C137.605 242.344 136.74 241.604 136.375 240.604C135.552 238.385 137.464 237.089 139.427 237.104C139.474 237.104 139.521 237.104 139.573 237.109C140.641 237.151 141.677 237.443 142.735 237.609C146.547 238.198 150.448 237.057 154.292 237.422C155.454 237.531 156.818 237.974 157.115 239.104C157.365 240.073 156.651 241.057 155.802 241.589C154.959 242.125 153.959 242.375 153.099 242.896C152.214 243.443 151.526 244.25 150.813 245.01C150.396 245.448 149.948 245.849 149.464 246.203C149.49 246.276 149.526 246.349 149.547 246.422C149.964 247.719 149.49 249.266 148.901 250.479C148.938 250.505 148.98 250.531 149.016 250.563C149.094 250.625 149.136 250.656 149.167 250.677C149.183 250.688 149.302 250.776 149.323 250.792C149.709 251.052 150.125 251.271 150.552 251.464C151.042 251.682 151.094 251.76 151.615 251.901C152.589 252.172 153.693 252.146 154.688 252.021C155.839 251.87 156.954 251.698 158.063 251.344C158.823 251.099 159.146 252.146 158.573 252.552ZM161.401 228.708C162.615 230.281 165.099 230.693 166.74 229.573C167.521 229.042 168.094 228.214 168.323 227.297C168.735 225.625 167.891 223.734 166.375 222.922C162.698 220.932 158.834 225.38 161.401 228.708ZM120.302 222.526C118.792 223.344 117.948 225.234 118.36 226.901C118.589 227.823 119.162 228.646 119.943 229.182C121.584 230.302 124.068 229.891 125.282 228.318C127.849 224.984 123.985 220.536 120.302 222.526Z" fill="#3A2B26"/>
<path d="M233.047 353.005C232.198 350.547 227.115 349.37 225.313 348.823C218.313 346.745 210.198 345.953 204.787 340.542C201.995 337.755 200.328 334.037 198.88 330.349C193.714 329.146 188.578 327.943 183.521 326.412C179.802 327.859 176.141 329.443 172.313 330.594C167.011 332.177 161.188 332.781 155.834 331.057C151.24 329.583 146.787 325.375 143.011 322.339C134.568 315.615 126.886 307.99 119.782 299.87C117.485 297.245 115.214 294.516 113.797 291.344C112.537 288.526 111.391 283.115 112.974 280.193C113.677 278.875 115.089 278.208 116.683 277.906C120.073 279.552 123.615 280.844 127.203 281.651C132.641 282.875 138.104 282.958 143.427 281.141C144.526 280.766 144.245 279.344 143.167 279.214C131.776 277.797 120.094 277.037 110.219 270.526C104.276 266.604 99.2294 261.349 95.3024 255.375C91.8388 249.037 89.943 241.88 90.2867 234.708C90.2867 234.406 90.2867 234.135 90.318 233.833C90.2086 234.083 90.0992 234.302 90.0159 234.547C89.6305 235.391 89.2763 236.24 88.9482 237.115C85.1513 261.521 93.4846 287.052 108.818 306.484C110.052 308.042 111.308 309.547 112.646 311.021C114.094 312.688 115.625 314.302 117.183 315.833C118.797 317.5 120.464 319.057 122.188 320.589C122.651 321 123.141 321.412 123.636 321.818C125.084 323.021 126.615 324.198 128.063 325.427C128.146 325.484 128.224 325.563 128.282 325.62C140.88 335.484 155.448 342.922 170.62 348.089C180.433 351.422 190.49 353.854 200.714 355.604C207.516 356.75 214.375 357.625 221.24 358.229C223.698 357.927 232.391 357.188 233.099 354.318C233.209 353.854 233.183 353.417 233.047 353.005Z" fill="#C1A999"/>
<path d="M259.109 363.083C247.521 363.594 235.437 363.057 224.896 367.906C222.854 368.844 220.854 369.995 218.635 370.349C216.411 370.703 213.833 370.042 212.693 368.104C211.547 366.167 212.818 363.057 215.068 363.083C212.677 363.906 210.088 364.74 207.682 363.984C205.271 363.234 203.49 360.125 204.99 358.094C204.161 360.438 200.172 359.984 199.255 357.672C198.344 355.365 199.911 352.682 202.068 351.458C204.229 350.234 206.807 350.083 209.281 349.891C234.01 347.964 257.661 338.823 279.724 327.484C284.682 324.932 290.354 322.198 295.599 324.089C301.234 326.115 303.906 333.198 302.333 338.974C300.338 346.328 291.38 352.927 285.13 356.75C277.411 361.469 267.979 362.688 259.109 363.083ZM119.01 358.87C118.141 359.057 117.245 359.141 116.312 359.094C114.854 359.021 113.271 359.026 112.109 359.906C110.948 360.786 110.661 362.875 111.927 363.594C110.901 364.469 111.635 366.323 112.891 366.818C113.875 367.203 114.849 366.979 115.838 366.771C116.948 366.542 116.713 366.563 117.51 367.099C119.156 368.208 121.042 368.266 122.958 367.75C124.906 367.224 126.703 366.24 128.641 365.688C132.583 364.563 136.792 365.292 140.88 365.042C144.229 364.833 147.031 363.62 150.198 362.875C153.76 362.042 157.24 361.026 160.661 359.745C167.385 357.234 173.797 353.969 180.182 350.714C184.349 348.594 188.661 346.344 191.453 342.589C193.677 339.594 194.724 335.901 195.63 332.276C197.516 324.776 199.026 317.078 198.635 309.354C198.245 301.63 195.797 293.797 190.609 288.063C185.781 282.729 178.984 279.714 172.016 278.365C165.844 277.177 156.823 280.464 151.641 284.885C148.766 287.339 147.167 286.495 146.547 290.224C145.203 298.286 145.74 306.536 145.229 314.698C144.781 321.906 143.203 328.443 139.854 334.839C138.536 337.354 137.99 340.031 136.5 342.49C134.63 345.578 132.448 348.49 129.984 351.125C126.979 354.328 123.365 357.922 119.01 358.87Z" fill="#6D5B55"/>
<path d="M166.927 240.719C163.5 241.609 160.068 242.479 156.636 243.354C156.146 243.479 155.969 242.776 156.427 242.615C159.776 241.432 163.167 240.422 166.625 239.625C168.292 239.245 169.959 238.885 171.63 238.547C173.266 238.214 175.094 237.641 176.776 237.76C177 237.776 177.141 238.104 176.901 238.219C175.38 238.948 173.531 239.125 171.896 239.5C170.235 239.885 168.578 240.292 166.927 240.719ZM173.797 243.734C172.011 243.818 170.229 243.99 168.453 244.172C165.037 244.516 161.646 244.969 158.261 245.536C157.729 245.625 157.849 246.531 158.386 246.479C161.87 246.12 165.36 245.802 168.849 245.557C170.563 245.437 172.281 245.354 174 245.224C175.526 245.109 177.339 245.245 178.75 244.578C179.068 244.427 178.927 244 178.656 243.896C177.198 243.333 175.328 243.667 173.797 243.734ZM137.646 243.906C134.167 242.469 130.521 241.474 126.839 240.682C125.037 240.292 123.219 239.958 121.391 239.687C119.854 239.464 117.709 238.839 116.224 239.391C115.964 239.484 115.886 239.844 116.146 239.995C116.797 240.385 117.537 240.437 118.281 240.521C119.276 240.63 120.271 240.755 121.261 240.901C123.089 241.167 124.906 241.495 126.714 241.885C130.328 242.661 133.86 243.74 137.396 244.812C137.99 244.99 138.188 244.13 137.646 243.906ZM135.219 245.578C131.729 245.021 128.229 244.552 124.709 244.25C122.979 244.099 121.255 243.974 119.526 243.875C118.662 243.828 117.797 243.776 116.932 243.755C116.198 243.734 115.391 243.656 114.724 243.995C114.505 244.109 114.422 244.479 114.672 244.62C115.912 245.323 117.828 245.026 119.224 245.078C121.021 245.151 122.818 245.245 124.61 245.365C128.13 245.609 131.651 245.911 135.156 246.323C135.636 246.38 135.688 245.651 135.219 245.578ZM161.927 218.859C163.016 218.687 164.063 218.781 165.084 219.016C165.625 219.141 166.146 219.339 166.672 219.526C166.714 219.542 167.156 219.708 166.906 219.609C167.078 219.677 167.245 219.771 167.422 219.828C167.615 219.885 167.823 219.891 168.021 219.906C168.104 219.917 168.432 219.953 168.485 219.953C169.203 219.979 169.787 219.073 169.349 218.448C169.11 218.109 168.839 217.807 168.495 217.573C168.182 217.354 167.761 217.24 167.391 217.13C166.724 216.937 166.005 216.88 165.313 216.885C163.99 216.891 162.677 217.255 161.5 217.849C161.255 217.969 161.167 218.302 161.271 218.542C161.391 218.812 161.646 218.906 161.927 218.859ZM118.625 218.906C118.714 218.891 118.797 218.875 118.886 218.859C119.026 218.839 119.057 218.833 118.974 218.844C119.339 218.792 119.682 218.708 120.042 218.604C120.615 218.443 121.297 218.25 121.802 218.198C122.459 218.125 123.115 218.13 123.771 218.078C124.427 218.031 125.042 218.016 125.688 218.172C126.172 218.286 126.521 217.578 126.042 217.328C125.391 216.995 124.74 216.661 124.063 216.385C123.36 216.099 122.49 216.042 121.735 216.047C120.969 216.057 120.151 216.12 119.412 216.323C119.026 216.427 118.62 216.573 118.292 216.797C118.115 216.911 117.927 217.036 117.766 217.177C117.49 217.411 117.412 217.661 117.37 218.01C117.328 218.318 117.568 218.604 117.802 218.766C118.063 218.943 118.323 218.953 118.625 218.906ZM102.578 213.141C101.172 211.417 99.1825 210.13 96.9846 209.781C95.2033 209.5 93.2919 209.88 91.8023 210.917C90.2971 211.969 90.2554 214.187 90.4585 215.87C90.7346 218.167 91.8075 221.521 94.0731 222.625C94.4637 222.812 94.8856 222.911 95.271 223.13C95.7294 223.385 96.2242 224 96.8127 223.917C98.1148 223.729 96.7137 222.172 97.2398 221.526C97.4898 221.214 98.0054 221.24 98.2762 220.948C98.5939 220.599 98.4012 220.021 98.5939 219.589C98.9117 218.88 100.047 218.922 100.432 218.25C100.578 218 100.594 217.687 100.776 217.469C101.136 217.042 101.823 217.245 102.37 217.135C103.162 216.979 103.646 216.094 103.594 215.292C103.552 214.604 103.219 213.979 102.802 213.422C102.729 213.328 102.656 213.234 102.578 213.141ZM193.026 219.953C195.448 220.13 195.432 211.792 195.307 210.224C195.292 210.042 195.266 209.844 195.136 209.719C194.969 209.557 194.677 209.589 194.485 209.734C194.297 209.875 194.182 210.094 194.084 210.307C193.49 211.583 190.297 219.75 193.026 219.953ZM198.099 305.187C196.959 298.234 194.912 291.604 192.078 285.167C191.823 284.589 190.88 285 191.063 285.594C193.068 292.193 194.547 299.021 195.453 305.859C195.891 309.193 196.214 312.536 196.339 315.896C196.459 319.198 196.031 322.656 196.901 325.875C197.12 326.698 198.172 326.573 198.443 325.875C199.693 322.672 199.323 318.948 199.156 315.583C198.99 312.104 198.662 308.62 198.099 305.187ZM266.891 339.719C263.625 339.615 260.354 339.839 257.104 340.151C255.604 340.292 254.11 340.479 252.625 340.698C247.334 337.24 242.547 333.661 239.604 327.854C236.453 321.63 235.12 314.271 234.37 307.401C234.292 306.667 233.162 306.63 233.198 307.401C233.584 315.042 233.469 322.672 237.099 329.651C239.646 334.557 244.136 339.271 249.49 341.245C245.828 341.927 242.209 342.839 238.693 344.094C238.12 344.302 238.344 345.177 238.948 345.021C245.005 343.474 251.162 342.312 257.417 342.005C260.365 341.859 263.313 341.943 266.261 342.094C269.026 342.234 272.531 343.021 275.219 342.208C275.682 342.068 275.755 341.453 275.349 341.193C273.063 339.729 269.521 339.802 266.891 339.719ZM194.813 234.839C195.12 236.849 195.078 238.937 194.927 240.969C194.854 241.964 194.787 242.953 194.677 243.943C194.589 244.76 194.505 245.969 195.063 246.646C195.182 246.792 195.422 246.792 195.578 246.708C196.427 246.255 196.698 244.802 196.776 243.943C196.87 242.922 196.912 241.885 196.834 240.859C196.672 238.719 196.172 236.682 195.557 234.63C195.412 234.146 194.745 234.359 194.813 234.839ZM340.599 342.865C337.959 334.422 334.5 326.224 330.308 318.422C330.854 314.75 331.12 311.031 331.047 307.328C330.834 296.187 327.308 285.974 321.427 276.583C321.047 275.974 320.141 276.51 320.469 277.146C325.203 286.271 327.198 297.104 327.276 307.328C327.297 309.437 327.183 311.542 326.99 313.635C326.12 319.078 324.542 324.359 321.901 329.229C319.25 334.151 315.677 338.448 311.511 342.135C314.87 345.474 318.334 348.75 321.412 352.271C337.156 370.281 342.677 394.797 347.24 418.302C347.459 419.427 347.703 420.599 348.089 421.693C348.115 421.422 348.115 421.146 348.141 420.875C349.781 394.661 348.443 367.932 340.599 342.865Z" fill="#514039"/>
</svg>
