<svg width="450" height="600" viewBox="0 0 450 600" fill="none" xmlns="http://www.w3.org/2000/svg">
<mask id="mask0_2437_3379" style="mask-type:luminance" maskUnits="userSpaceOnUse" x="84" y="204" width="300" height="171">
<path d="M84 204H384V374.667H84V204Z" fill="white"/>
</mask>
<g mask="url(#mask0_2437_3379)">
<mask id="mask1_2437_3379" style="mask-type:luminance" maskUnits="userSpaceOnUse" x="59" y="164" width="347" height="261">
<path d="M110.782 164.771L405.443 250.932L354.641 424.656L59.9795 338.495L110.782 164.771Z" fill="white"/>
</mask>
<g mask="url(#mask1_2437_3379)">
<mask id="mask2_2437_3379" style="mask-type:luminance" maskUnits="userSpaceOnUse" x="59" y="164" width="347" height="261">
<path d="M110.782 164.771L405.443 250.932L354.641 424.656L59.9795 338.495L110.782 164.771Z" fill="white"/>
</mask>
<g mask="url(#mask2_2437_3379)">
<mask id="mask3_2437_3379" style="mask-type:luminance" maskUnits="userSpaceOnUse" x="59" y="164" width="347" height="261">
<path d="M110.782 164.771L405.443 250.932L354.641 424.656L59.9795 338.495L110.782 164.771Z" fill="white"/>
</mask>
<g mask="url(#mask3_2437_3379)">
<mask id="mask4_2437_3379" style="mask-type:luminance" maskUnits="userSpaceOnUse" x="60" y="187" width="339" height="238">
<path d="M104.464 187.141L398.709 273.182L354.375 424.781L60.1357 338.74L104.464 187.141Z" fill="white"/>
</mask>
<g mask="url(#mask4_2437_3379)">
<mask id="mask5_2437_3379" style="mask-type:luminance" maskUnits="userSpaceOnUse" x="60" y="187" width="339" height="238">
<path d="M104.464 187.141L398.709 273.182L354.417 424.641L60.1777 338.599L104.464 187.141Z" fill="white"/>
</mask>
<g mask="url(#mask5_2437_3379)">
<path d="M207.688 260.583C208.735 262.62 209.808 264.604 210.927 266.516C220.917 283.526 235.714 299.031 254.401 306.745C271.662 313.87 297.209 314.87 312.729 302.859C312.729 302.859 301.417 266.208 327.365 252.807C327.365 252.807 354.849 271.828 332.584 303.568C332.584 303.568 353.959 292.359 383.094 326.573C383.094 326.573 336.282 353.484 317.787 316.5C318.157 317.24 306.381 326.135 305.584 326.771C297.636 333.115 289.537 338.703 280.756 343.849C267.823 351.422 254.448 358.245 240.724 364.276C217.245 374.594 191.948 377.531 167.214 369.885C120.125 355.333 80.4847 308.313 85.266 257.693C86.8649 240.813 93.3441 226.12 107.396 216.026C119.844 207.083 136.485 202.505 151.62 206.286C165.365 209.719 177.735 215.865 187.584 226.156C196.453 235.432 201.636 248.813 207.688 260.583Z" fill="#1A9CC7"/>
</g>
</g>
</g>
</g>
</g>
</g>
<mask id="mask6_2437_3379" style="mask-type:luminance" maskUnits="userSpaceOnUse" x="188" y="193" width="24" height="19">
<path d="M188 193.333H212V212H188V193.333Z" fill="white"/>
</mask>
<g mask="url(#mask6_2437_3379)">
<mask id="mask7_2437_3379" style="mask-type:luminance" maskUnits="userSpaceOnUse" x="59" y="164" width="347" height="261">
<path d="M110.782 164.771L405.443 250.932L354.641 424.656L59.9795 338.495L110.782 164.771Z" fill="white"/>
</mask>
<g mask="url(#mask7_2437_3379)">
<mask id="mask8_2437_3379" style="mask-type:luminance" maskUnits="userSpaceOnUse" x="59" y="164" width="347" height="261">
<path d="M110.782 164.771L405.443 250.932L354.641 424.656L59.9795 338.495L110.782 164.771Z" fill="white"/>
</mask>
<g mask="url(#mask8_2437_3379)">
<mask id="mask9_2437_3379" style="mask-type:luminance" maskUnits="userSpaceOnUse" x="59" y="164" width="347" height="261">
<path d="M110.782 164.771L405.443 250.932L354.641 424.656L59.9795 338.495L110.782 164.771Z" fill="white"/>
</mask>
<g mask="url(#mask9_2437_3379)">
<path d="M199.048 205.948C200.605 205.167 202.329 204.5 204.001 203.854C206.99 202.698 209.355 201.792 210.235 200.484C211.704 198.313 212.094 196.667 211.433 195.443C210.683 194.057 208.725 193.443 205.282 193.495C199.381 193.583 190.105 208.615 188.896 210.615C188.73 210.807 188.73 210.912 188.73 211.063L188.725 211.51L189.12 211.719L189.548 211.917L190.048 211.573L190.068 211.537C190.699 211.047 194.318 208.323 199.048 205.948Z" fill="#87D0E8"/>
</g>
</g>
</g>
</g>
<mask id="mask10_2437_3379" style="mask-type:luminance" maskUnits="userSpaceOnUse" x="189" y="212" width="22" height="12">
<path d="M189.333 212H210.666V224H189.333V212Z" fill="white"/>
</mask>
<g mask="url(#mask10_2437_3379)">
<mask id="mask11_2437_3379" style="mask-type:luminance" maskUnits="userSpaceOnUse" x="59" y="164" width="347" height="261">
<path d="M110.781 164.771L405.442 250.932L354.64 424.656L59.9785 338.495L110.781 164.771Z" fill="white"/>
</mask>
<g mask="url(#mask11_2437_3379)">
<mask id="mask12_2437_3379" style="mask-type:luminance" maskUnits="userSpaceOnUse" x="59" y="164" width="347" height="261">
<path d="M110.781 164.771L405.442 250.932L354.64 424.656L59.9785 338.495L110.781 164.771Z" fill="white"/>
</mask>
<g mask="url(#mask12_2437_3379)">
<mask id="mask13_2437_3379" style="mask-type:luminance" maskUnits="userSpaceOnUse" x="59" y="164" width="347" height="261">
<path d="M110.781 164.771L405.442 250.932L354.64 424.656L59.9785 338.495L110.781 164.771Z" fill="white"/>
</mask>
<g mask="url(#mask13_2437_3379)">
<path d="M208.312 215.177C204.895 210.261 194.275 213.646 191.103 214.802C190.733 214.932 190.509 215.313 190.572 215.698C190.624 216.011 190.853 216.266 191.155 216.354C191.218 216.375 191.285 216.386 191.353 216.386C193.187 216.458 196.864 218.636 199.822 220.386C201.275 221.24 202.53 221.984 203.483 222.443C203.744 222.568 204.009 222.667 204.275 222.745C206.02 223.255 207.89 222.813 208.952 221.568C209.582 220.823 210.78 218.724 208.312 215.177Z" fill="#87D0E8"/>
</g>
</g>
</g>
</g>
<mask id="mask14_2437_3379" style="mask-type:luminance" maskUnits="userSpaceOnUse" x="178" y="192" width="13" height="18">
<path d="M178.667 192H190.667V209.333H178.667V192Z" fill="white"/>
</mask>
<g mask="url(#mask14_2437_3379)">
<mask id="mask15_2437_3379" style="mask-type:luminance" maskUnits="userSpaceOnUse" x="59" y="164" width="347" height="261">
<path d="M110.782 164.771L405.443 250.932L354.641 424.656L59.9795 338.495L110.782 164.771Z" fill="white"/>
</mask>
<g mask="url(#mask15_2437_3379)">
<mask id="mask16_2437_3379" style="mask-type:luminance" maskUnits="userSpaceOnUse" x="59" y="164" width="347" height="261">
<path d="M110.782 164.771L405.443 250.932L354.641 424.656L59.9795 338.495L110.782 164.771Z" fill="white"/>
</mask>
<g mask="url(#mask16_2437_3379)">
<mask id="mask17_2437_3379" style="mask-type:luminance" maskUnits="userSpaceOnUse" x="59" y="164" width="347" height="261">
<path d="M110.782 164.771L405.443 250.932L354.641 424.656L59.9795 338.495L110.782 164.771Z" fill="white"/>
</mask>
<g mask="url(#mask17_2437_3379)">
<path d="M184.542 193.234C182.401 193.474 180.396 194.932 179.969 196.557C179.693 197.609 180.094 198.609 181.068 199.313C181.745 199.802 182.469 200.229 183.162 200.651C185.818 202.245 187.782 203.427 186.849 206.63C186.792 206.823 186.719 207.021 186.646 207.229C186.49 207.635 186.672 208.078 187.068 208.26C187.11 208.281 187.146 208.292 187.188 208.307C187.547 208.412 187.938 208.26 188.131 207.927C189.323 205.823 191.839 200.453 189.485 195.943C188.469 193.99 186.667 193 184.542 193.234Z" fill="#87D0E8"/>
</g>
</g>
</g>
</g>
<mask id="mask18_2437_3379" style="mask-type:luminance" maskUnits="userSpaceOnUse" x="142" y="245" width="13" height="13">
<path d="M142.667 245.333H154.667V257.333H142.667V245.333Z" fill="white"/>
</mask>
<g mask="url(#mask18_2437_3379)">
<mask id="mask19_2437_3379" style="mask-type:luminance" maskUnits="userSpaceOnUse" x="59" y="164" width="347" height="261">
<path d="M110.782 164.771L405.443 250.932L354.641 424.656L59.9795 338.495L110.782 164.771Z" fill="white"/>
</mask>
<g mask="url(#mask19_2437_3379)">
<mask id="mask20_2437_3379" style="mask-type:luminance" maskUnits="userSpaceOnUse" x="59" y="164" width="347" height="261">
<path d="M110.782 164.771L405.443 250.932L354.641 424.656L59.9795 338.495L110.782 164.771Z" fill="white"/>
</mask>
<g mask="url(#mask20_2437_3379)">
<mask id="mask21_2437_3379" style="mask-type:luminance" maskUnits="userSpaceOnUse" x="59" y="164" width="347" height="261">
<path d="M110.782 164.771L405.443 250.932L354.641 424.656L59.9795 338.495L110.782 164.771Z" fill="white"/>
</mask>
<g mask="url(#mask21_2437_3379)">
<path d="M148.303 256.427C147.85 256.297 147.402 256.099 146.959 255.844C143.917 254.063 142.949 251.688 144.22 249.161C144.829 247.958 145.803 246.776 147.042 245.745C147.355 245.484 147.824 245.526 148.084 245.839C148.345 246.151 148.303 246.615 147.99 246.875C146.907 247.781 146.058 248.802 145.542 249.828C144.641 251.604 145.371 253.203 147.704 254.568C148.188 254.854 148.933 255.182 149.73 255.146C150.886 255.089 151.928 254.313 153.074 253.385C153.386 253.125 153.855 253.172 154.11 253.49C154.371 253.807 154.324 254.266 154.011 254.526C152.97 255.375 151.542 256.536 149.803 256.62C149.313 256.641 148.808 256.578 148.303 256.427Z" fill="black"/>
</g>
</g>
</g>
</g>
<mask id="mask22_2437_3379" style="mask-type:luminance" maskUnits="userSpaceOnUse" x="204" y="270" width="44" height="44">
<path d="M204 270.667H248V313.333H204V270.667Z" fill="white"/>
</mask>
<g mask="url(#mask22_2437_3379)">
<mask id="mask23_2437_3379" style="mask-type:luminance" maskUnits="userSpaceOnUse" x="59" y="164" width="347" height="261">
<path d="M110.782 164.771L405.443 250.932L354.641 424.656L59.9795 338.495L110.782 164.771Z" fill="white"/>
</mask>
<g mask="url(#mask23_2437_3379)">
<mask id="mask24_2437_3379" style="mask-type:luminance" maskUnits="userSpaceOnUse" x="59" y="164" width="347" height="261">
<path d="M110.782 164.771L405.443 250.932L354.641 424.656L59.9795 338.495L110.782 164.771Z" fill="white"/>
</mask>
<g mask="url(#mask24_2437_3379)">
<mask id="mask25_2437_3379" style="mask-type:luminance" maskUnits="userSpaceOnUse" x="59" y="164" width="347" height="261">
<path d="M110.782 164.771L405.443 250.932L354.641 424.656L59.9795 338.495L110.782 164.771Z" fill="white"/>
</mask>
<g mask="url(#mask25_2437_3379)">
<path d="M246.896 312.063C246.891 312.063 246.881 312.057 246.875 312.057C231.542 307.026 220.823 296.563 214.532 288.672C207.724 280.125 204.48 272.651 204.448 272.578C204.287 272.203 204.459 271.771 204.834 271.609C205.209 271.448 205.641 271.625 205.808 272C205.839 272.073 209.021 279.396 215.714 287.786C221.881 295.505 232.365 305.745 247.334 310.656C247.719 310.781 247.933 311.198 247.808 311.589C247.683 311.969 247.276 312.177 246.896 312.063Z" fill="#87D0E8"/>
</g>
</g>
</g>
</g>
<mask id="mask26_2437_3379" style="mask-type:luminance" maskUnits="userSpaceOnUse" x="322" y="262" width="12" height="37">
<path d="M322.667 262.667H333.334V298.667H322.667V262.667Z" fill="white"/>
</mask>
<g mask="url(#mask26_2437_3379)">
<mask id="mask27_2437_3379" style="mask-type:luminance" maskUnits="userSpaceOnUse" x="59" y="164" width="347" height="261">
<path d="M110.782 164.771L405.443 250.932L354.641 424.656L59.9795 338.495L110.782 164.771Z" fill="white"/>
</mask>
<g mask="url(#mask27_2437_3379)">
<mask id="mask28_2437_3379" style="mask-type:luminance" maskUnits="userSpaceOnUse" x="59" y="164" width="347" height="261">
<path d="M110.782 164.771L405.443 250.932L354.641 424.656L59.9795 338.495L110.782 164.771Z" fill="white"/>
</mask>
<g mask="url(#mask28_2437_3379)">
<mask id="mask29_2437_3379" style="mask-type:luminance" maskUnits="userSpaceOnUse" x="59" y="164" width="347" height="261">
<path d="M110.782 164.771L405.443 250.932L354.641 424.656L59.9795 338.495L110.782 164.771Z" fill="white"/>
</mask>
<g mask="url(#mask29_2437_3379)">
<path d="M324.345 298.104C324.272 298.083 324.204 298.047 324.141 297.99C323.907 297.792 323.881 297.443 324.084 297.214C329.975 290.453 332.214 282.844 330.746 274.604C329.647 268.427 326.761 264.193 326.73 264.151C326.558 263.901 326.621 263.557 326.871 263.385C327.121 263.208 327.47 263.271 327.647 263.526C327.766 263.703 330.678 267.969 331.829 274.365C332.897 280.281 332.558 289.172 324.923 297.938C324.772 298.104 324.548 298.167 324.345 298.104Z" fill="#87D0E8"/>
</g>
</g>
</g>
</g>
<mask id="mask30_2437_3379" style="mask-type:luminance" maskUnits="userSpaceOnUse" x="334" y="309" width="34" height="17">
<path d="M334.667 309.333H368V325.333H334.667V309.333Z" fill="white"/>
</mask>
<g mask="url(#mask30_2437_3379)">
<mask id="mask31_2437_3379" style="mask-type:luminance" maskUnits="userSpaceOnUse" x="59" y="164" width="347" height="261">
<path d="M110.782 164.771L405.443 250.932L354.641 424.656L59.9795 338.495L110.782 164.771Z" fill="white"/>
</mask>
<g mask="url(#mask31_2437_3379)">
<mask id="mask32_2437_3379" style="mask-type:luminance" maskUnits="userSpaceOnUse" x="59" y="164" width="347" height="261">
<path d="M110.782 164.771L405.443 250.932L354.641 424.656L59.9795 338.495L110.782 164.771Z" fill="white"/>
</mask>
<g mask="url(#mask32_2437_3379)">
<mask id="mask33_2437_3379" style="mask-type:luminance" maskUnits="userSpaceOnUse" x="59" y="164" width="347" height="261">
<path d="M110.782 164.771L405.443 250.932L354.641 424.656L59.9795 338.495L110.782 164.771Z" fill="white"/>
</mask>
<g mask="url(#mask33_2437_3379)">
<path d="M366.657 325.287C366.532 325.25 366.423 325.172 366.345 325.057C359.714 315.016 351.714 311.885 346.173 311.031C340.152 310.104 335.631 311.568 335.584 311.583C335.292 311.682 334.98 311.526 334.886 311.234C334.787 310.943 334.943 310.635 335.23 310.537C335.423 310.474 340.011 308.974 346.282 309.932C352.063 310.813 360.397 314.047 367.272 324.448C367.438 324.708 367.371 325.047 367.115 325.219C366.975 325.307 366.808 325.328 366.657 325.287Z" fill="#87D0E8"/>
</g>
</g>
</g>
</g>
<mask id="mask34_2437_3379" style="mask-type:luminance" maskUnits="userSpaceOnUse" x="84" y="238" width="235" height="137">
<path d="M84 238.667H318.667V374.667H84V238.667Z" fill="white"/>
</mask>
<g mask="url(#mask34_2437_3379)">
<mask id="mask35_2437_3379" style="mask-type:luminance" maskUnits="userSpaceOnUse" x="59" y="164" width="347" height="261">
<path d="M110.782 164.771L405.443 250.932L354.641 424.656L59.9795 338.495L110.782 164.771Z" fill="white"/>
</mask>
<g mask="url(#mask35_2437_3379)">
<mask id="mask36_2437_3379" style="mask-type:luminance" maskUnits="userSpaceOnUse" x="59" y="164" width="347" height="261">
<path d="M110.782 164.771L405.443 250.932L354.641 424.656L59.9795 338.495L110.782 164.771Z" fill="white"/>
</mask>
<g mask="url(#mask36_2437_3379)">
<mask id="mask37_2437_3379" style="mask-type:luminance" maskUnits="userSpaceOnUse" x="59" y="164" width="347" height="261">
<path d="M110.782 164.771L405.443 250.932L354.641 424.656L59.9795 338.495L110.782 164.771Z" fill="white"/>
</mask>
<g mask="url(#mask37_2437_3379)">
<mask id="mask38_2437_3379" style="mask-type:luminance" maskUnits="userSpaceOnUse" x="60" y="237" width="262" height="170">
<path d="M89.6305 237.875L321.344 305.635L291.849 406.495L60.1357 338.739L89.6305 237.875Z" fill="white"/>
</mask>
<g mask="url(#mask38_2437_3379)">
<mask id="mask39_2437_3379" style="mask-type:luminance" maskUnits="userSpaceOnUse" x="60" y="237" width="262" height="170">
<path d="M89.6309 237.875L321.344 305.635L291.891 406.354L60.1777 338.599L89.6309 237.875Z" fill="white"/>
</mask>
<g mask="url(#mask39_2437_3379)">
<path d="M317.782 316.599L317.787 316.5C301.568 330.005 244.828 345.375 236.917 346.203C229 347.026 208.615 349.042 189.797 338.047C170.979 327.052 150.073 303.937 145.443 299.578C140.818 295.219 124.693 266.969 120.979 260.391C117.261 253.807 108.24 243.849 96.1357 240.417C93.6566 239.713 91.3701 239.526 89.3024 239.656C87.167 245.271 85.8701 251.328 85.266 257.693C80.4847 308.312 120.125 355.333 167.214 369.885C191.948 377.531 217.245 374.594 240.724 364.276C254.448 358.245 267.823 351.422 280.756 343.849C289.537 338.703 297.636 333.114 305.584 326.771C306.354 326.156 317.386 317.823 317.782 316.599Z" fill="#87D0E8"/>
</g>
</g>
</g>
</g>
</g>
</g>
<mask id="mask40_2437_3379" style="mask-type:luminance" maskUnits="userSpaceOnUse" x="93" y="240" width="221" height="126">
<path d="M93.333 240H313.333V365.333H93.333V240Z" fill="white"/>
</mask>
<g mask="url(#mask40_2437_3379)">
<mask id="mask41_2437_3379" style="mask-type:luminance" maskUnits="userSpaceOnUse" x="59" y="164" width="347" height="261">
<path d="M110.781 164.771L405.442 250.932L354.64 424.656L59.9785 338.495L110.781 164.771Z" fill="white"/>
</mask>
<g mask="url(#mask41_2437_3379)">
<mask id="mask42_2437_3379" style="mask-type:luminance" maskUnits="userSpaceOnUse" x="59" y="164" width="347" height="261">
<path d="M110.781 164.771L405.442 250.932L354.64 424.656L59.9785 338.495L110.781 164.771Z" fill="white"/>
</mask>
<g mask="url(#mask42_2437_3379)">
<mask id="mask43_2437_3379" style="mask-type:luminance" maskUnits="userSpaceOnUse" x="59" y="164" width="347" height="261">
<path d="M110.781 164.771L405.442 250.932L354.64 424.656L59.9785 338.495L110.781 164.771Z" fill="white"/>
</mask>
<g mask="url(#mask43_2437_3379)">
<path d="M311.687 321.302C310.338 322.099 308.958 322.859 307.573 323.604C305.526 325.182 303.427 326.771 301.286 328.214C295.599 332.042 289.682 335.688 283.703 339.047C271.417 345.953 258.786 351.677 246.161 356.068C245.734 356.219 245.302 356.365 244.87 356.51C227.286 362.505 212.765 364.891 199.172 364.037C183.156 363.026 165.614 358.5 154.474 352.5C142.255 345.922 124.26 331.813 116.724 322.896C109.37 314.203 102.844 301.057 99.255 287.734C96.6665 278.125 95.2707 268.161 95.2238 258.911C95.1769 250.354 97.1561 244.313 98.5103 241.188C98.2811 241.104 98.0467 241.021 97.8123 240.943C96.4217 244.167 94.4373 250.297 94.4842 258.917C94.5363 268.224 95.9373 278.255 98.5415 287.927C102.156 301.349 108.739 314.599 116.156 323.37C123.745 332.344 141.838 346.537 154.12 353.151C158.807 355.672 164.614 357.938 170.963 359.792C179.828 362.385 189.739 364.182 199.125 364.771C212.823 365.635 227.432 363.234 245.109 357.208C245.542 357.063 245.974 356.912 246.406 356.76C259.073 352.359 271.739 346.615 284.062 339.693C290.062 336.323 295.995 332.667 301.703 328.828C304.224 327.13 306.682 325.229 309.062 323.391C310.078 322.609 311.109 321.813 312.146 321.031C312.099 321.057 312.052 321.089 312.005 321.115L311.687 321.302Z" fill="white"/>
</g>
</g>
</g>
</g>
<mask id="mask44_2437_3379" style="mask-type:luminance" maskUnits="userSpaceOnUse" x="108" y="248" width="199" height="108">
<path d="M108 248H306.667V356H108V248Z" fill="white"/>
</mask>
<g mask="url(#mask44_2437_3379)">
<mask id="mask45_2437_3379" style="mask-type:luminance" maskUnits="userSpaceOnUse" x="59" y="164" width="347" height="261">
<path d="M110.782 164.771L405.443 250.932L354.641 424.656L59.9795 338.495L110.782 164.771Z" fill="white"/>
</mask>
<g mask="url(#mask45_2437_3379)">
<mask id="mask46_2437_3379" style="mask-type:luminance" maskUnits="userSpaceOnUse" x="59" y="164" width="347" height="261">
<path d="M110.782 164.771L405.443 250.932L354.641 424.656L59.9795 338.495L110.782 164.771Z" fill="white"/>
</mask>
<g mask="url(#mask46_2437_3379)">
<mask id="mask47_2437_3379" style="mask-type:luminance" maskUnits="userSpaceOnUse" x="59" y="164" width="347" height="261">
<path d="M110.782 164.771L405.443 250.932L354.641 424.656L59.9795 338.495L110.782 164.771Z" fill="white"/>
</mask>
<g mask="url(#mask47_2437_3379)">
<path d="M256.172 347.979C255.657 348.156 255.141 348.328 254.625 348.495C230.125 356.484 205.844 357.24 183.787 350.792C180.641 349.87 177.537 348.802 174.485 347.589C164.594 343.656 156.375 337.234 150.313 332.078C128.844 313.828 108.964 293.229 108.829 266.297C108.802 261.021 109.219 254.682 112.151 249.625C111.964 249.453 111.776 249.287 111.584 249.12C108.5 254.344 108.063 260.875 108.089 266.302C108.151 278.995 112.558 291.208 121.547 303.641C129.75 314.974 140.448 324.662 149.834 332.641C155.938 337.828 164.224 344.297 174.214 348.271C198.808 358.057 226.693 358.375 254.855 349.193C255.375 349.026 255.896 348.854 256.412 348.677C273.829 342.797 290.282 333.969 305.724 324.594C303.089 325.958 300.417 327.24 297.735 328.479C284.568 336.104 270.704 343.073 256.172 347.979Z" fill="white"/>
</g>
</g>
</g>
</g>
<mask id="mask48_2437_3379" style="mask-type:luminance" maskUnits="userSpaceOnUse" x="118" y="260" width="201" height="92">
<path d="M118.667 260H318.667V352H118.667V260Z" fill="white"/>
</mask>
<g mask="url(#mask48_2437_3379)">
<mask id="mask49_2437_3379" style="mask-type:luminance" maskUnits="userSpaceOnUse" x="59" y="164" width="347" height="261">
<path d="M110.782 164.771L405.443 250.932L354.641 424.656L59.9795 338.495L110.782 164.771Z" fill="white"/>
</mask>
<g mask="url(#mask49_2437_3379)">
<mask id="mask50_2437_3379" style="mask-type:luminance" maskUnits="userSpaceOnUse" x="59" y="164" width="347" height="261">
<path d="M110.782 164.771L405.443 250.932L354.641 424.656L59.9795 338.495L110.782 164.771Z" fill="white"/>
</mask>
<g mask="url(#mask50_2437_3379)">
<mask id="mask51_2437_3379" style="mask-type:luminance" maskUnits="userSpaceOnUse" x="59" y="164" width="347" height="261">
<path d="M110.782 164.771L405.443 250.932L354.641 424.656L59.9795 338.495L110.782 164.771Z" fill="white"/>
</mask>
<g mask="url(#mask51_2437_3379)">
<path d="M317.782 316.599L317.787 316.5C314.485 319.25 309.496 322.078 303.584 324.849C298.194 327.557 292.673 329.969 287.266 332.323C284.063 333.714 280.751 335.156 277.511 336.641C247.891 350.219 224.079 354.12 202.579 348.917C189.115 345.662 176.11 339.276 164.975 330.448C149.032 317.813 127.048 297.865 120.261 270.708C119.345 267.042 120.298 263.755 121.501 261.313C121.339 261.031 121.194 260.771 121.063 260.536C119.699 263.13 118.516 266.771 119.542 270.88C122.47 282.604 128.173 293.615 136.98 304.557C143.928 313.188 152.938 321.849 164.516 331.026C174.558 338.984 186.11 344.979 198.162 348.5C199.569 348.912 200.985 349.292 202.407 349.635C214.22 352.49 227.22 352.552 241.037 349.807C252.334 347.563 264.365 343.479 277.824 337.307C281.053 335.828 284.36 334.391 287.563 332.995C290.923 331.531 294.334 330.042 297.735 328.479C300.417 327.24 303.089 325.958 305.725 324.594C306.345 324.271 306.959 323.938 307.574 323.604C308.959 322.859 310.339 322.099 311.688 321.302L312.006 321.115C312.053 321.089 312.1 321.057 312.147 321.031C313.22 320.401 314.298 319.755 315.329 319.042C316.688 317.88 317.667 316.953 317.782 316.599Z" fill="white"/>
</g>
</g>
</g>
</g>
<mask id="mask52_2437_3379" style="mask-type:luminance" maskUnits="userSpaceOnUse" x="96" y="225" width="62" height="53">
<path d="M96 225.333H157.333V277.333H96V225.333Z" fill="white"/>
</mask>
<g mask="url(#mask52_2437_3379)">
<mask id="mask53_2437_3379" style="mask-type:luminance" maskUnits="userSpaceOnUse" x="59" y="164" width="347" height="261">
<path d="M110.782 164.771L405.443 250.932L354.641 424.656L59.9795 338.495L110.782 164.771Z" fill="white"/>
</mask>
<g mask="url(#mask53_2437_3379)">
<mask id="mask54_2437_3379" style="mask-type:luminance" maskUnits="userSpaceOnUse" x="59" y="164" width="347" height="261">
<path d="M110.782 164.771L405.443 250.932L354.641 424.656L59.9795 338.495L110.782 164.771Z" fill="white"/>
</mask>
<g mask="url(#mask54_2437_3379)">
<mask id="mask55_2437_3379" style="mask-type:luminance" maskUnits="userSpaceOnUse" x="59" y="164" width="347" height="261">
<path d="M110.782 164.771L405.443 250.932L354.641 424.656L59.9795 338.495L110.782 164.771Z" fill="white"/>
</mask>
<g mask="url(#mask55_2437_3379)">
<path d="M130.162 252.245C130.37 252.797 130.589 253.365 130.813 253.953C131.782 256.464 132.532 258.745 133.188 260.755C134.824 265.755 136.006 269.37 138.975 271.5C140.141 272.344 141.313 272.943 142.516 273.297C146.271 274.396 150.334 273.073 155.62 269.224C155.719 269.464 155.803 269.714 155.87 269.974C156.324 271.755 155.907 273.599 154.62 275.469C154.511 275.635 154.553 275.865 154.719 275.979C154.751 276.005 154.787 276.021 154.824 276.031C154.975 276.073 155.141 276.021 155.235 275.885C156.646 273.833 157.1 271.786 156.584 269.792C155.558 265.797 151.048 263.479 150.855 263.385C150.673 263.292 150.454 263.365 150.36 263.547C150.266 263.729 150.339 263.953 150.521 264.042C150.558 264.063 153.803 265.729 155.303 268.542C148.48 273.557 144.001 274.214 139.407 270.906C136.631 268.906 135.48 265.396 133.891 260.526C133.23 258.505 132.48 256.214 131.506 253.688C131.277 253.104 131.063 252.536 130.855 251.99C127.928 244.307 126.162 239.667 114.813 231.677C109.558 227.974 103.006 226.297 97.2767 225.578C97.0996 225.802 96.9277 226.026 96.7559 226.25C102.485 226.927 109.105 228.563 114.386 232.276C125.553 240.141 127.287 244.698 130.162 252.245Z" fill="black"/>
</g>
</g>
</g>
</g>
<mask id="mask56_2437_3379" style="mask-type:luminance" maskUnits="userSpaceOnUse" x="149" y="288" width="30" height="60">
<path d="M149.333 288H178.666V348H149.333V288Z" fill="white"/>
</mask>
<g mask="url(#mask56_2437_3379)">
<mask id="mask57_2437_3379" style="mask-type:luminance" maskUnits="userSpaceOnUse" x="59" y="164" width="347" height="261">
<path d="M110.781 164.771L405.442 250.932L354.64 424.656L59.9785 338.495L110.781 164.771Z" fill="white"/>
</mask>
<g mask="url(#mask57_2437_3379)">
<mask id="mask58_2437_3379" style="mask-type:luminance" maskUnits="userSpaceOnUse" x="59" y="164" width="347" height="261">
<path d="M110.781 164.771L405.442 250.932L354.64 424.656L59.9785 338.495L110.781 164.771Z" fill="white"/>
</mask>
<g mask="url(#mask58_2437_3379)">
<mask id="mask59_2437_3379" style="mask-type:luminance" maskUnits="userSpaceOnUse" x="59" y="164" width="347" height="261">
<path d="M110.781 164.771L405.442 250.932L354.64 424.656L59.9785 338.495L110.781 164.771Z" fill="white"/>
</mask>
<g mask="url(#mask59_2437_3379)">
<path d="M157.531 288.073C157.531 288.073 131.817 325.964 173.182 347.427C173.182 347.427 190.187 314.297 157.531 288.073Z" fill="#0D8FBA"/>
</g>
</g>
</g>
</g>
<mask id="mask60_2437_3379" style="mask-type:luminance" maskUnits="userSpaceOnUse" x="166" y="308" width="9" height="31">
<path d="M166.667 308H174.667V338.667H166.667V308Z" fill="white"/>
</mask>
<g mask="url(#mask60_2437_3379)">
<mask id="mask61_2437_3379" style="mask-type:luminance" maskUnits="userSpaceOnUse" x="59" y="164" width="347" height="261">
<path d="M110.782 164.771L405.443 250.932L354.641 424.656L59.9795 338.495L110.782 164.771Z" fill="white"/>
</mask>
<g mask="url(#mask61_2437_3379)">
<mask id="mask62_2437_3379" style="mask-type:luminance" maskUnits="userSpaceOnUse" x="59" y="164" width="347" height="261">
<path d="M110.782 164.771L405.443 250.932L354.641 424.656L59.9795 338.495L110.782 164.771Z" fill="white"/>
</mask>
<g mask="url(#mask62_2437_3379)">
<mask id="mask63_2437_3379" style="mask-type:luminance" maskUnits="userSpaceOnUse" x="59" y="164" width="347" height="261">
<path d="M110.782 164.771L405.443 250.932L354.641 424.656L59.9795 338.495L110.782 164.771Z" fill="white"/>
</mask>
<g mask="url(#mask63_2437_3379)">
<path d="M169.75 338.115C169.688 338.099 169.625 338.073 169.568 338.036C169.219 337.828 169.11 337.375 169.323 337.026C175.839 326.339 167.781 309.583 167.703 309.411C167.521 309.047 167.672 308.604 168.042 308.427C168.406 308.25 168.849 308.406 169.031 308.771C169.38 309.484 177.516 326.427 170.583 337.792C170.406 338.083 170.063 338.208 169.75 338.115Z" fill="#87D0E8"/>
</g>
</g>
</g>
</g>
</svg>
