<svg width="450" height="600" viewBox="0 0 450 600" fill="none" xmlns="http://www.w3.org/2000/svg">
<path d="M166.021 224.875C169.188 225.521 172.292 227.396 175.516 227.51C179.443 227.63 181.552 223.589 183.662 220.953C189.995 213.109 197.438 206.083 205.641 200.224C207.573 198.818 209.86 196.885 209.271 194.604C208.688 192.026 205.287 191.5 202.651 191.677C180.735 192.906 159.459 202.568 144.104 218.203C142.344 219.958 140.589 222.594 141.875 224.703C143.047 226.635 145.802 226.578 148.031 226.224C153.948 225.287 159.927 223.651 166.021 224.875ZM279.485 263.292C280.13 259.896 280.25 256.557 280.422 253.162C280.542 250.88 281.36 249.589 283.526 248.771C290.037 246.193 297.422 245.37 304.334 246.073C305.094 246.135 305.974 246.37 306.271 247.073C306.563 247.714 306.151 248.474 305.74 249.063C298.474 259.953 289.448 269.615 279.136 277.578C278.198 278.281 276.849 279.042 275.912 278.339C274.854 277.578 275.323 275.938 275.854 274.766C277.552 271.078 278.724 267.214 279.485 263.292Z" fill="#F4AEA8"/>
<mask id="mask0_2437_3697" style="mask-type:luminance" maskUnits="userSpaceOnUse" x="81" y="172" width="288" height="257">
<path d="M81.6611 172.057H368.661V428.896H81.6611V172.057Z" fill="white"/>
</mask>
<g mask="url(#mask0_2437_3697)">
<path d="M368.687 240.922C368.63 242.036 368.276 242.911 367.687 243.677C367.281 244.203 366.812 244.609 366.223 245.021C363.822 246.604 360.13 247.13 357.078 247.13C332 247.245 307.031 251.463 283.234 259.193C273.739 270.203 262.312 279.51 249.593 286.599C249.067 286.891 248.484 287.239 247.838 287.182C246.489 287.125 245.609 285.542 245.843 284.255C246.02 282.906 246.901 281.797 247.776 280.802C250.416 277.521 252.76 274.01 254.869 270.375C209.802 291.167 170.651 324.833 144.807 367.234C125.463 393.641 150.489 394.401 137.89 422.219C137.593 422.745 137.364 423.271 137.067 423.682C136.598 424.505 136.072 425.203 135.546 425.792C133.671 427.896 131.619 428.833 129.625 428.896C129.218 428.896 128.807 428.896 128.338 428.776C126.286 428.427 124.468 427.078 123.239 424.911C122.942 424.385 122.708 423.859 122.479 423.271C121.77 421.401 121.479 419.115 121.656 416.536C124.177 400.26 118.317 397.271 107.765 405.526C104.661 407.932 101.203 409.63 97.8641 410.625C96.8068 410.974 95.6922 411.208 94.6975 411.385C89.5985 412.323 85.1402 411.562 82.9735 409.396C82.6818 409.099 82.3902 408.75 82.2131 408.401C81.3902 406.937 81.4527 405 82.6245 402.599C82.8589 402.193 83.0933 401.724 83.385 401.37C83.8537 400.667 84.437 400.026 85.0829 399.38C94.5204 389.896 119.192 388.078 123.531 347.672C133.145 291.167 151.25 230.146 199.192 194.542C239.161 161.286 322.27 160.989 335.161 220.484C342.604 223.531 368.567 232.432 368.687 240.922Z" fill="#FFC3BB"/>
</g>
<path d="M318.984 217.557C318.984 220.016 317.99 221.948 316.76 221.948C315.531 221.948 314.531 219.958 314.531 217.557C314.531 215.156 315.531 213.167 316.76 213.167C317.99 213.167 318.984 215.156 318.984 217.557Z" fill="#1F3E47"/>
<mask id="mask1_2437_3697" style="mask-type:luminance" maskUnits="userSpaceOnUse" x="81" y="176" width="287" height="253">
<path d="M81.6611 176.156H367.666V428.896H81.6611V176.156Z" fill="white"/>
</mask>
<g mask="url(#mask1_2437_3697)">
<path d="M247.484 193.786C245.551 193.786 245.551 196.828 247.484 196.828C249.421 196.828 249.421 193.786 247.484 193.786ZM277.958 189.682C275.676 189.682 275.676 193.198 277.958 193.198C280.187 193.198 280.187 189.682 277.958 189.682ZM279.307 176.156C277.202 176.156 277.202 179.438 279.307 179.438C281.421 179.438 281.421 176.156 279.307 176.156ZM306.854 190.328C305.567 190.328 305.567 192.318 306.854 192.318C308.145 192.26 308.145 190.328 306.854 190.328ZM291.322 190.62C287.281 190.62 287.281 196.885 291.322 196.885C295.307 196.885 295.307 190.62 291.322 190.62ZM222.281 192.203C219.411 192.203 219.411 196.651 222.281 196.651C225.156 196.714 225.156 192.203 222.281 192.203ZM199.781 200.87C198.312 200.87 198.312 203.151 199.781 203.151C201.301 203.151 201.301 200.87 199.781 200.87ZM214.432 186.635C211.265 186.635 211.265 191.557 214.432 191.557C217.593 191.557 217.593 186.635 214.432 186.635ZM232.598 181.25C230.14 181.25 230.14 185.057 232.598 185.057C235.062 185.057 235.062 181.25 232.598 181.25ZM256.275 184.474C253.755 184.474 253.697 188.453 256.275 188.453C258.854 188.453 258.854 184.474 256.275 184.474ZM253.52 176.802C251.822 176.802 251.822 179.38 253.52 179.38C255.223 179.38 255.223 176.802 253.52 176.802ZM242.505 183.594C238.635 183.594 238.577 189.625 242.505 189.625C246.432 189.625 246.432 183.594 242.505 183.594ZM267.88 176.51C265.536 176.51 265.536 180.198 267.88 180.198C270.223 180.198 270.223 176.51 267.88 176.51ZM269.52 183.479C265.89 183.479 265.89 189.156 269.52 189.156C273.156 189.156 273.213 183.479 269.52 183.479ZM292.145 182.714C291.265 182.714 291.208 184.12 292.145 184.12C293.025 184.12 293.025 182.714 292.145 182.714ZM127.926 395.807C127.926 395.458 127.635 395.224 127.281 395.224C126.932 395.224 126.697 395.516 126.697 395.865C126.989 405.12 125.525 414.547 122.479 423.333C122.708 423.917 122.942 424.443 123.239 424.969C126.577 415.661 128.161 405.646 127.926 395.807ZM133.374 392.88C133.374 392.531 133.083 392.297 132.734 392.297C132.38 392.297 132.145 392.589 132.145 392.938C132.848 404.885 131.499 417.182 128.275 428.776C128.687 428.833 129.098 428.896 129.567 428.896C132.791 417.24 134.077 404.885 133.374 392.88ZM136.484 390.771C136.421 390.422 136.13 390.188 135.781 390.245C135.426 390.302 135.192 390.594 135.249 390.948C137.067 402.37 137.13 414.198 135.426 425.729C135.958 425.146 136.484 424.443 136.952 423.625C138.359 412.729 138.239 401.604 136.484 390.771ZM122.536 392.005C122.359 391.708 121.947 391.651 121.656 391.885L94.64 411.443C95.6921 411.266 96.7441 410.974 97.8014 410.682L122.359 392.938C122.708 392.646 122.77 392.234 122.536 392.005ZM119.958 388.255C119.781 387.964 119.369 387.906 119.077 388.078C107.473 395.927 95.0462 402.776 82.2129 408.401C82.39 408.75 82.6816 409.099 82.9733 409.396C95.8118 403.771 108.176 396.979 119.781 389.073C120.072 388.901 120.135 388.547 119.958 388.255ZM117.374 381.464C117.14 381.172 116.791 381.172 116.499 381.344C106.947 388.724 96.2754 394.813 85.0254 399.38C84.3796 400.026 83.8535 400.667 83.3275 401.37C95.4577 396.688 107.005 390.245 117.202 382.339C117.551 382.104 117.614 381.755 117.374 381.464ZM320.864 235.068C321.624 233.839 322.327 232.724 322.385 232.604C322.562 232.313 322.499 231.906 322.208 231.729C321.916 231.552 321.505 231.609 321.327 231.906C321.327 231.964 318.692 236.063 317.64 237.172C317.406 237.411 317.406 237.818 317.697 238.052C317.812 238.167 317.989 238.229 318.104 238.229C318.281 238.229 318.458 238.167 318.577 238.052C318.984 237.641 319.572 236.823 320.156 236.005C320.218 236.063 320.275 236.12 320.395 236.177C333.406 242.094 347.588 245.078 361.827 245.078C363.291 245.078 364.76 245.021 366.166 244.964C366.749 244.609 367.218 244.146 367.63 243.615C351.687 244.609 335.515 241.682 320.864 235.068ZM292.614 246.781C289.682 251.172 286.52 255.328 283.062 259.307C304.864 252.224 327.604 248.125 350.338 247.307C329.77 244.026 310.432 244.146 292.614 246.781ZM262.077 253.979C260.202 259.661 257.739 265.167 254.755 270.375C204.645 293.271 161.682 332.036 137.421 381.229C135.895 371.974 158.52 334.323 175.395 313.417C193.687 290.755 223.338 266.688 262.077 253.979Z" fill="#FFE2E1"/>
</g>
</svg>
