<svg width="450" height="600" viewBox="0 0 450 600" fill="none" xmlns="http://www.w3.org/2000/svg">
<path d="M247.083 270.906C246.438 270.906 245.781 270.729 245.188 270.365C243.505 269.318 242.99 267.104 244.036 265.417C248.5 258.24 252.052 250.51 254.594 242.448C255.188 240.552 257.208 239.505 259.099 240.099C260.995 240.698 262.042 242.714 261.448 244.604C258.729 253.24 254.922 261.521 250.141 269.208C249.458 270.307 248.286 270.906 247.083 270.906Z" fill="#F1453A"/>
<path d="M198.365 272.406C197.167 272.406 195.99 271.807 195.313 270.714C190.526 263.021 186.724 254.74 184 246.104C183.406 244.214 184.458 242.198 186.349 241.599C188.245 241.005 190.266 242.057 190.859 243.948C193.396 252.01 196.948 259.74 201.417 266.922C202.464 268.604 201.943 270.818 200.26 271.865C199.667 272.234 199.01 272.406 198.365 272.406Z" fill="#F1453A"/>
<path d="M199.781 264.198C199.469 263.656 199.161 263.12 198.859 262.573C198.865 262.568 198.87 262.568 198.87 262.568C199.172 263.115 199.479 263.656 199.792 264.193C199.786 264.198 199.786 264.198 199.781 264.198Z" fill="#E7E7E6"/>
<path d="M192.729 266.333C192.438 265.813 192.151 265.292 191.87 264.766C194.146 263.953 196.474 263.219 198.859 262.573C199.161 263.12 199.469 263.656 199.781 264.198C197.375 264.828 195.021 265.542 192.729 266.333Z" fill="#DD4032"/>
<path d="M245.609 262.802C245.604 262.802 245.604 262.802 245.599 262.797C245.922 262.24 246.24 261.677 246.552 261.115C246.557 261.115 246.562 261.12 246.562 261.12C246.25 261.682 245.932 262.24 245.609 262.802Z" fill="#E7E7E6"/>
<path d="M252.896 264.505C250.521 263.854 248.083 263.281 245.609 262.802C245.932 262.24 246.25 261.682 246.563 261.12C249.016 261.62 251.422 262.208 253.781 262.88C253.49 263.422 253.198 263.964 252.896 264.505Z" fill="#DD4032"/>
<path d="M294.26 306.531C299.323 307.01 304.661 307.49 310.062 308.828C312.755 309.49 315.469 310.401 318.062 311.604C320.656 312.807 323.167 314.328 325.427 316.234C326.557 317.182 327.63 318.224 328.599 319.359C329.547 320.5 330.437 321.688 331.182 322.938C332.698 325.432 333.797 328.068 334.615 330.703C336.224 335.99 336.812 341.234 337.354 346.307C337.521 347.896 336.37 349.323 334.781 349.49C333.271 349.651 331.901 348.615 331.63 347.141L331.625 347.12C330.729 342.156 329.771 337.302 328.078 332.969C327.224 330.807 326.182 328.802 324.917 327.042C324.297 326.156 323.589 325.359 322.859 324.599C322.12 323.854 321.307 323.182 320.443 322.557C318.719 321.313 316.766 320.313 314.682 319.536C312.599 318.76 310.427 318.198 308.151 317.818C303.594 317.042 298.75 316.938 293.677 316.839C290.823 316.786 288.552 314.432 288.604 311.578C288.656 308.724 291.016 306.453 293.87 306.505C294 306.51 294.141 306.521 294.26 306.531Z" fill="#F1453A"/>
<path d="M285.552 325.333C290.552 326.234 295.839 327.161 301.104 328.948C303.724 329.828 306.354 330.958 308.828 332.375C311.313 333.786 313.677 335.505 315.766 337.589C316.807 338.625 317.781 339.745 318.651 340.953C319.495 342.167 320.281 343.417 320.917 344.719C322.214 347.318 323.083 350.026 323.677 352.714C324.833 358.099 324.979 363.359 325.094 368.464C325.125 369.938 323.948 371.167 322.469 371.198C321.063 371.229 319.885 370.177 319.745 368.802L319.74 368.786C319.229 363.76 318.646 358.839 317.281 354.365C315.911 349.896 313.719 346.026 310.432 343.333C308.792 341.958 306.917 340.802 304.896 339.87C302.875 338.932 300.745 338.203 298.5 337.651C294.016 336.526 289.193 336.052 284.135 335.563C281.297 335.292 279.214 332.766 279.484 329.927C279.76 327.083 282.286 325 285.125 325.276C285.266 325.286 285.417 325.307 285.552 325.333Z" fill="#F1453A"/>
<mask id="mask0_2437_3788" style="mask-type:luminance" maskUnits="userSpaceOnUse" x="261" y="333" width="45" height="50">
<path d="M261.333 333.333H305.333V382.885H261.333V333.333Z" fill="white"/>
</mask>
<g mask="url(#mask0_2437_3788)">
<path d="M268.339 334.75C273.271 335.969 278.484 337.229 283.62 339.349C286.182 340.396 288.729 341.698 291.109 343.26C293.495 344.828 295.745 346.698 297.693 348.906C298.667 350.005 299.563 351.188 300.354 352.448C301.125 353.708 301.818 355.005 302.37 356.349C303.5 359.021 304.193 361.776 304.615 364.49C305.417 369.932 305.224 375.193 305.01 380.292C304.953 381.74 303.724 382.87 302.271 382.807C300.896 382.745 299.813 381.641 299.755 380.292V380.276C299.557 375.229 299.281 370.276 298.203 365.719C297.109 361.172 295.162 357.167 292.042 354.271C290.495 352.792 288.688 351.521 286.734 350.464C284.771 349.401 282.693 348.542 280.479 347.844C276.073 346.443 271.292 345.667 266.276 344.87C263.458 344.417 261.536 341.771 261.984 338.948C262.438 336.13 265.089 334.208 267.906 334.661C268.047 334.682 268.198 334.714 268.339 334.75Z" fill="#F1453A"/>
</g>
<path d="M334.474 349.505H334.469C333.109 349.505 331.922 348.542 331.646 347.203H331.641C331.641 347.198 331.641 347.193 331.641 347.188C331.641 347.177 331.635 347.167 331.635 347.161C331.635 347.156 331.63 347.146 331.63 347.141L331.625 347.12C330.729 342.156 329.771 337.302 328.078 332.969C327.224 330.807 326.182 328.802 324.917 327.042C324.297 326.156 323.589 325.359 322.859 324.599C322.12 323.854 321.307 323.182 320.443 322.557C320.422 322.542 320.406 322.526 320.385 322.516C318.672 321.292 316.74 320.302 314.682 319.536C312.599 318.76 310.427 318.198 308.151 317.818C307.083 317.635 305.995 317.49 304.896 317.375C304.854 316.714 304.792 316.057 304.714 315.401C306.786 315.536 308.812 315.75 310.776 316.083C313.062 316.469 315.234 317.026 317.318 317.807C319.396 318.583 321.349 319.583 323.073 320.823C323.937 321.448 324.75 322.125 325.49 322.865C326.219 323.625 326.927 324.422 327.552 325.313C328.818 327.073 329.859 329.078 330.708 331.234C332.401 335.573 333.365 340.422 334.26 345.391L334.266 345.406C334.516 346.776 335.714 347.771 337.104 347.771C337.109 347.771 337.12 347.771 337.125 347.771C336.729 348.672 335.885 349.349 334.849 349.484H334.844C334.844 349.484 334.839 349.484 334.833 349.484C334.823 349.484 334.818 349.484 334.807 349.484C334.802 349.49 334.802 349.49 334.797 349.49C334.797 349.49 334.797 349.49 334.792 349.49C334.792 349.49 334.786 349.49 334.781 349.49C334.776 349.49 334.771 349.49 334.766 349.49C334.667 349.5 334.568 349.505 334.474 349.505Z" fill="#DD4032"/>
<path d="M322.406 371.203C321.042 371.198 319.906 370.172 319.745 368.839V368.833C319.745 368.823 319.745 368.813 319.745 368.802L319.74 368.786C319.229 363.76 318.646 358.839 317.281 354.365C315.911 349.896 313.719 346.026 310.432 343.333C308.792 341.958 306.917 340.802 304.896 339.87C303.766 339.344 302.594 338.885 301.391 338.484C301.708 337.734 302 336.979 302.271 336.219C304.104 336.724 305.849 337.359 307.531 338.141C309.547 339.073 311.427 340.229 313.063 341.604C316.349 344.297 318.542 348.167 319.911 352.635C321.276 357.109 321.859 362.031 322.37 367.052L322.375 367.073C322.51 368.38 323.594 369.396 324.922 369.453C324.552 370.448 323.609 371.167 322.484 371.198C322.484 371.198 322.484 371.198 322.479 371.198C322.479 371.198 322.474 371.198 322.469 371.198C322.464 371.198 322.464 371.198 322.458 371.198C322.443 371.198 322.427 371.203 322.406 371.203Z" fill="#DD4032"/>
<mask id="mask1_2437_3788" style="mask-type:luminance" maskUnits="userSpaceOnUse" x="290" y="350" width="16" height="33">
<path d="M290.667 350.667H305.333V382.885H290.667V350.667Z" fill="white"/>
</mask>
<g mask="url(#mask1_2437_3788)">
<path d="M302.385 382.807C302.349 382.807 302.307 382.807 302.271 382.807C300.896 382.745 299.812 381.641 299.755 380.292V380.276C299.557 375.229 299.281 370.276 298.203 365.719C297.109 361.172 295.161 357.167 292.042 354.271C291.896 354.13 291.745 353.99 291.589 353.854C292.266 353.094 292.922 352.323 293.552 351.542C293.937 351.859 294.312 352.193 294.672 352.542C297.792 355.432 299.74 359.443 300.833 363.99C301.911 368.547 302.187 373.5 302.385 378.542V378.563C302.443 379.896 303.505 380.99 304.859 381.068C304.75 381.37 304.589 381.646 304.385 381.885H304.38C304.38 381.891 304.38 381.891 304.38 381.896C304.375 381.896 304.375 381.896 304.375 381.896C304.375 381.901 304.37 381.901 304.37 381.906C304.365 381.911 304.365 381.911 304.359 381.911C304.359 381.917 304.359 381.917 304.359 381.917C304.359 381.922 304.354 381.922 304.354 381.922C304.354 381.922 304.349 381.922 304.349 381.927C304.349 381.927 304.349 381.927 304.344 381.927C304.344 381.932 304.344 381.932 304.344 381.932C304.339 381.932 304.339 381.938 304.339 381.938C304.339 381.938 304.333 381.943 304.333 381.948H304.328C303.849 382.479 303.151 382.807 302.385 382.807Z" fill="#DD4032"/>
</g>
<path d="M278.349 293.625C277.193 293.625 276.078 292.995 275.51 291.901C274.698 290.339 275.313 288.411 276.875 287.604C295.781 277.792 312.036 263.255 323.885 245.568C324.865 244.104 326.849 243.708 328.307 244.688C329.776 245.667 330.167 247.651 329.188 249.115C316.745 267.698 299.672 282.964 279.813 293.26C279.344 293.505 278.844 293.625 278.349 293.625Z" fill="#F1453A"/>
<mask id="mask2_2437_3788" style="mask-type:luminance" maskUnits="userSpaceOnUse" x="298" y="217" width="57" height="57">
<path d="M298.667 217.885H354.667V273.333H298.667V217.885Z" fill="white"/>
</mask>
<g mask="url(#mask2_2437_3788)">
<path d="M321.531 221.693L324.625 240.208C325.109 243.099 328.542 244.38 330.802 242.521L345.302 230.583C347.161 229.047 349.995 229.583 351.115 231.724C354.62 238.464 355.365 246.609 352.469 254.281C347.021 268.729 330.224 276 315.948 270.109C302.198 264.438 295.328 248.839 300.578 234.807C303.443 227.156 309.328 221.526 316.375 218.75C318.63 217.859 321.13 219.307 321.531 221.693Z" fill="#F1453A"/>
</g>
<path d="M315.859 270.073C315.849 270.068 315.839 270.063 315.833 270.063C315.839 270.068 315.849 270.068 315.859 270.073Z" fill="#E7E7E6"/>
<path d="M326.318 272.156H326.313C322.839 272.156 319.323 271.5 315.948 270.109C315.932 270.104 315.922 270.099 315.911 270.094C315.906 270.089 315.901 270.089 315.901 270.089C315.891 270.083 315.88 270.078 315.87 270.078C315.87 270.073 315.865 270.073 315.859 270.073C315.849 270.068 315.839 270.068 315.833 270.063C315.833 270.057 315.828 270.057 315.823 270.057C315.813 270.052 315.797 270.047 315.786 270.042H315.781C315.771 270.036 315.76 270.031 315.75 270.026C315.745 270.026 315.74 270.021 315.74 270.021C315.729 270.016 315.724 270.016 315.714 270.01C315.708 270.005 315.703 270.005 315.698 270.005C315.693 270 315.682 269.995 315.677 269.995C315.672 269.99 315.667 269.99 315.661 269.99C315.651 269.984 315.646 269.979 315.635 269.979C315.625 269.974 315.615 269.969 315.609 269.969C315.604 269.964 315.599 269.964 315.594 269.958C315.589 269.958 315.578 269.953 315.573 269.948C315.568 269.948 315.563 269.948 315.557 269.943C315.552 269.943 315.542 269.938 315.536 269.932C315.531 269.932 315.531 269.932 315.526 269.932C310.266 267.661 306.047 263.922 303.161 259.38C305.531 261.589 308.318 263.417 311.469 264.719C314.849 266.115 318.365 266.771 321.839 266.771C333.057 266.771 343.828 259.922 347.99 248.896C350.417 242.464 350.281 235.708 348.115 229.724C349.318 229.839 350.458 230.51 351.083 231.672C351.089 231.672 351.089 231.677 351.094 231.682V231.688C351.094 231.688 351.099 231.693 351.099 231.698C351.099 231.698 351.099 231.698 351.099 231.703C351.104 231.703 351.104 231.708 351.109 231.714C351.109 231.719 351.115 231.724 351.115 231.724C353.151 235.641 354.255 240.031 354.255 244.531C354.255 247.771 353.682 251.068 352.469 254.281C352.458 254.307 352.448 254.333 352.438 254.359C348.26 265.339 337.51 272.156 326.318 272.156Z" fill="#DD4032"/>
<path d="M158.052 316.839C152.979 316.938 148.135 317.042 143.583 317.818C141.302 318.198 139.13 318.76 137.047 319.536C134.964 320.313 133.01 321.313 131.286 322.557C130.422 323.182 129.615 323.854 128.87 324.599C128.141 325.359 127.432 326.156 126.812 327.042C125.547 328.802 124.505 330.807 123.651 332.969C121.958 337.302 121 342.156 120.104 347.12L120.099 347.13C119.818 348.703 118.312 349.745 116.74 349.458C115.24 349.188 114.219 347.797 114.375 346.307C114.917 341.234 115.505 335.99 117.115 330.703C117.932 328.068 119.026 325.432 120.547 322.938C121.292 321.688 122.182 320.5 123.13 319.359C124.099 318.224 125.172 317.182 126.302 316.234C128.562 314.328 131.068 312.807 133.667 311.604C136.26 310.401 138.974 309.49 141.667 308.828C147.068 307.49 152.406 307.01 157.469 306.531C160.307 306.26 162.833 308.344 163.104 311.187C163.375 314.026 161.292 316.547 158.448 316.818C158.318 316.828 158.177 316.839 158.052 316.839Z" fill="#F1453A"/>
<path d="M117.255 349.505C117.083 349.505 116.911 349.49 116.74 349.458C116.734 349.458 116.729 349.458 116.724 349.458C115.74 349.276 114.958 348.604 114.594 347.74C114.911 347.953 115.281 348.104 115.682 348.177C115.854 348.208 116.026 348.224 116.198 348.224C117.568 348.224 118.786 347.245 119.042 345.849V345.839C119.943 340.875 120.896 336.026 122.594 331.682C123.443 329.531 124.484 327.521 125.75 325.76C126.375 324.875 127.083 324.078 127.813 323.318C128.552 322.573 129.365 321.896 130.229 321.276C131.953 320.036 133.906 319.031 135.984 318.255C138.068 317.474 140.24 316.917 142.521 316.536C143.276 316.406 144.047 316.297 144.818 316.198C144.771 316.677 144.734 317.156 144.703 317.641C144.328 317.693 143.953 317.755 143.583 317.818C141.302 318.198 139.13 318.76 137.047 319.536C134.99 320.302 133.063 321.292 131.344 322.516C131.323 322.526 131.307 322.542 131.286 322.557C130.422 323.182 129.615 323.854 128.87 324.599C128.141 325.359 127.432 326.156 126.813 327.042C125.547 328.802 124.505 330.807 123.651 332.969C121.958 337.302 121 342.156 120.104 347.12L120.099 347.13C120.099 347.135 120.099 347.146 120.099 347.151C120.094 347.167 120.089 347.177 120.089 347.193C120.083 347.208 120.083 347.224 120.078 347.234C119.781 348.573 118.594 349.505 117.26 349.505H117.255Z" fill="#DD4032"/>
<path d="M167.594 335.563C162.542 336.052 157.719 336.526 153.229 337.651C150.984 338.203 148.854 338.932 146.833 339.87C144.813 340.802 142.938 341.958 141.297 343.333C138.01 346.026 135.818 349.896 134.448 354.365C133.083 358.839 132.5 363.76 131.99 368.786V368.792C131.839 370.266 130.521 371.339 129.047 371.188C127.651 371.042 126.609 369.844 126.641 368.464C126.75 363.359 126.901 358.099 128.052 352.714C128.646 350.026 129.516 347.318 130.813 344.719C131.453 343.417 132.234 342.167 133.078 340.953C133.948 339.745 134.922 338.625 135.964 337.589C138.052 335.505 140.417 333.786 142.901 332.375C145.38 330.958 148.005 329.828 150.63 328.948C155.891 327.161 161.177 326.234 166.177 325.333C168.99 324.823 171.677 326.688 172.182 329.5C172.693 332.307 170.828 334.995 168.021 335.5C167.88 335.526 167.729 335.547 167.594 335.563Z" fill="#F1453A"/>
<path d="M129.323 371.203C129.234 371.203 129.141 371.198 129.047 371.188C129.047 371.188 129.042 371.188 129.036 371.182C129.031 371.182 129.026 371.182 129.021 371.182C129.016 371.182 129.01 371.182 129.01 371.182C129.005 371.182 129 371.182 128.995 371.182C127.906 371.047 127.057 370.266 126.76 369.271C127.047 369.417 127.359 369.516 127.703 369.552C127.792 369.563 127.885 369.563 127.979 369.563C129.333 369.563 130.5 368.536 130.641 367.156L130.646 367.151C131.151 362.125 131.74 357.203 133.099 352.729C134.474 348.26 136.661 344.391 139.953 341.703C141.589 340.323 143.464 339.172 145.484 338.234C146.224 337.891 146.979 337.578 147.75 337.286C147.99 337.911 148.245 338.531 148.51 339.151C147.943 339.375 147.385 339.615 146.833 339.87C144.812 340.802 142.937 341.958 141.297 343.333C138.01 346.026 135.818 349.896 134.448 354.365C133.083 358.839 132.5 363.76 131.99 368.786V368.792C131.99 368.797 131.984 368.802 131.984 368.813C131.984 368.818 131.984 368.823 131.984 368.833C131.984 368.844 131.984 368.854 131.984 368.865C131.807 370.208 130.661 371.198 129.328 371.203C129.323 371.203 129.323 371.203 129.323 371.203Z" fill="#DD4032"/>
<mask id="mask3_2437_3788" style="mask-type:luminance" maskUnits="userSpaceOnUse" x="145" y="333" width="46" height="50">
<path d="M145.333 333.333H190.667V382.885H145.333V333.333Z" fill="white"/>
</mask>
<g mask="url(#mask3_2437_3788)">
<path d="M185.453 344.87C180.443 345.667 175.656 346.443 171.25 347.844C169.036 348.542 166.958 349.401 165 350.464C163.042 351.521 161.234 352.792 159.687 354.271C156.568 357.167 154.62 361.172 153.526 365.719C152.448 370.276 152.172 375.229 151.974 380.276V380.281C151.917 381.734 150.698 382.865 149.245 382.807C147.865 382.75 146.776 381.641 146.719 380.292C146.505 375.193 146.312 369.932 147.115 364.49C147.536 361.776 148.229 359.021 149.359 356.349C149.911 355.005 150.609 353.708 151.375 352.448C152.161 351.188 153.062 350.005 154.036 348.906C155.984 346.698 158.234 344.828 160.62 343.26C163 341.698 165.547 340.396 168.109 339.349C173.245 337.229 178.458 335.969 183.391 334.75C186.167 334.057 188.969 335.75 189.656 338.521C190.344 341.292 188.656 344.089 185.88 344.781C185.745 344.813 185.594 344.844 185.453 344.87Z" fill="#F1453A"/>
</g>
<mask id="mask4_2437_3788" style="mask-type:luminance" maskUnits="userSpaceOnUse" x="146" y="353" width="14" height="30">
<path d="M146.667 353.333H160V382.885H146.667V353.333Z" fill="white"/>
</mask>
<g mask="url(#mask4_2437_3788)">
<path d="M149.349 382.807C149.313 382.807 149.276 382.807 149.245 382.807C149.24 382.807 149.24 382.807 149.234 382.807C149.234 382.807 149.234 382.807 149.229 382.807C149.224 382.807 149.224 382.807 149.219 382.807H149.214H149.208C149.203 382.807 149.193 382.807 149.188 382.802C149.182 382.802 149.182 382.802 149.177 382.802H149.172C149.167 382.802 149.167 382.802 149.167 382.802H149.161C149.161 382.802 149.156 382.802 149.151 382.802C149.151 382.802 149.151 382.802 149.146 382.802C149.141 382.802 149.141 382.802 149.135 382.802C148.344 382.734 147.656 382.318 147.214 381.708C147.313 381.724 147.411 381.745 147.51 381.75C147.547 381.75 147.583 381.75 147.615 381.75C149.021 381.75 150.188 380.641 150.245 379.224V379.219C150.443 374.172 150.714 369.219 151.792 364.662C152.854 360.245 154.724 356.339 157.688 353.464C158.125 353.958 158.563 354.443 159.016 354.927C156.286 357.76 154.542 361.51 153.526 365.719C152.448 370.276 152.172 375.229 151.974 380.276V380.281C151.974 380.287 151.974 380.287 151.974 380.292C151.974 380.313 151.974 380.333 151.974 380.354C151.88 381.734 150.734 382.807 149.354 382.807C149.349 382.807 149.349 382.807 149.349 382.807Z" fill="#DD4032"/>
</g>
<path d="M171.484 295.641C170.99 295.641 170.484 295.526 170.016 295.281C150.161 284.984 133.089 269.719 120.641 251.135C119.661 249.672 120.052 247.688 121.521 246.708C122.984 245.729 124.969 246.12 125.948 247.583C137.797 265.276 154.052 279.813 172.958 289.62C174.521 290.432 175.13 292.359 174.318 293.922C173.75 295.016 172.635 295.641 171.484 295.641Z" fill="#F1453A"/>
<path d="M128.422 223.953L125.328 242.469C124.844 245.359 121.411 246.641 119.151 244.776L104.656 232.839C102.792 231.302 99.9531 231.839 98.8385 233.984C95.3333 240.724 94.5937 248.865 97.4844 256.542C102.932 270.984 119.729 278.255 134.005 272.365C147.76 266.693 154.625 251.094 149.375 237.063C146.51 229.417 140.625 223.781 133.578 221.005C131.323 220.12 128.823 221.563 128.422 223.953Z" fill="#F1453A"/>
<path d="M123.641 274.411C122.516 274.411 121.396 274.344 120.286 274.214C122.672 273.922 125.052 273.318 127.365 272.365C141.12 266.693 147.984 251.094 142.729 237.063C140.198 230.292 135.292 225.104 129.307 222.078C130.026 221.245 131.083 220.74 132.203 220.74C132.562 220.74 132.927 220.792 133.292 220.906C133.297 220.906 133.297 220.906 133.302 220.906C133.396 220.938 133.484 220.969 133.578 221.005C140.516 223.74 146.328 229.24 149.24 236.703C149.281 236.823 149.328 236.943 149.375 237.063C150.568 240.255 151.135 243.531 151.141 246.745C151.146 254.51 147.859 261.953 142.156 267.188C140.583 268.625 138.828 269.901 136.906 270.969C135.979 271.484 135.01 271.948 134.005 272.365C130.63 273.755 127.115 274.411 123.641 274.411Z" fill="#DD4032"/>
<path d="M201.052 241.51C201.052 249.625 194.469 256.198 186.354 256.198C178.234 256.198 171.656 249.625 171.656 241.51C171.656 233.396 178.234 226.823 186.354 226.823C194.469 226.823 201.052 233.396 201.052 241.51Z" fill="#F1453A"/>
<path d="M201.052 241.458C201.052 241.448 201.052 241.432 201.052 241.417C201.052 241.432 201.052 241.443 201.052 241.458ZM201.047 241.078C201.042 241.073 201.042 241.068 201.042 241.063C201.042 241.068 201.047 241.073 201.047 241.078ZM201.042 240.984C201.042 240.979 201.042 240.979 201.042 240.974C201.042 240.974 201.042 240.979 201.042 240.984ZM201.036 240.891C201.036 240.885 201.036 240.885 201.036 240.88C201.036 240.885 201.036 240.891 201.036 240.891Z" fill="#E7E7E6"/>
<path d="M186.354 256.198C186.344 256.198 186.333 256.198 186.323 256.198H186.318C186.307 256.198 186.302 256.198 186.292 256.198C186.292 256.198 186.292 256.198 186.286 256.198C186.271 256.198 186.25 256.198 186.229 256.198C186.229 256.198 186.229 256.198 186.224 256.198C186.214 256.198 186.208 256.198 186.198 256.198C183.599 256.172 181.167 255.469 179.057 254.26C180.823 255.01 182.771 255.432 184.813 255.432C192.932 255.432 199.51 248.854 199.51 240.74C199.51 235.281 196.531 230.526 192.109 227.99C197.089 230.109 200.656 234.901 201.021 240.557C201.021 240.578 201.021 240.604 201.026 240.625C201.026 240.635 201.026 240.641 201.026 240.646C201.026 240.661 201.026 240.677 201.026 240.698C201.026 240.703 201.026 240.708 201.031 240.714C201.031 240.714 201.031 240.714 201.031 240.719C201.031 240.734 201.031 240.75 201.031 240.766V240.771C201.031 240.776 201.031 240.781 201.031 240.781C201.031 240.786 201.031 240.786 201.031 240.792C201.031 240.797 201.036 240.802 201.036 240.813C201.036 240.818 201.036 240.818 201.036 240.823C201.036 240.823 201.036 240.828 201.036 240.833C201.036 240.839 201.036 240.839 201.036 240.844C201.036 240.849 201.036 240.849 201.036 240.854C201.036 240.859 201.036 240.859 201.036 240.859C201.036 240.87 201.036 240.875 201.036 240.88C201.036 240.885 201.036 240.885 201.036 240.891C201.036 240.896 201.036 240.901 201.036 240.901C201.036 240.906 201.036 240.911 201.036 240.911C201.036 240.917 201.036 240.922 201.042 240.927C201.042 240.927 201.042 240.932 201.042 240.938C201.042 240.938 201.042 240.943 201.042 240.948C201.042 240.953 201.042 240.958 201.042 240.964C201.042 240.964 201.042 240.969 201.042 240.974C201.042 240.979 201.042 240.979 201.042 240.984C201.042 240.99 201.042 240.99 201.042 240.995C201.042 241 201.042 241.005 201.042 241.005C201.042 241.01 201.042 241.016 201.042 241.016C201.042 241.026 201.042 241.026 201.042 241.031C201.042 241.036 201.042 241.036 201.042 241.042C201.042 241.047 201.042 241.052 201.042 241.057V241.063C201.042 241.068 201.042 241.073 201.047 241.078C201.047 241.083 201.047 241.083 201.047 241.083C201.047 241.094 201.047 241.099 201.047 241.104C201.047 241.109 201.047 241.109 201.047 241.115C201.047 241.115 201.047 241.12 201.047 241.125C201.047 241.13 201.047 241.13 201.047 241.135C201.047 241.141 201.047 241.146 201.047 241.151V241.156C201.047 241.161 201.047 241.172 201.047 241.177C201.047 241.177 201.047 241.182 201.047 241.188C201.047 241.188 201.047 241.193 201.047 241.198V241.203C201.047 241.214 201.047 241.219 201.047 241.224C201.047 241.234 201.047 241.24 201.047 241.25C201.047 241.25 201.047 241.25 201.047 241.255C201.047 241.26 201.047 241.266 201.047 241.271C201.047 241.271 201.047 241.271 201.047 241.276C201.047 241.281 201.047 241.286 201.047 241.297C201.047 241.302 201.047 241.313 201.047 241.318C201.047 241.323 201.052 241.323 201.052 241.328C201.052 241.333 201.052 241.333 201.052 241.339C201.052 241.344 201.052 241.344 201.052 241.349C201.052 241.354 201.052 241.359 201.052 241.365C201.052 241.375 201.052 241.38 201.052 241.391V241.396C201.052 241.401 201.052 241.406 201.052 241.411V241.417C201.052 241.432 201.052 241.448 201.052 241.458C201.052 241.464 201.052 241.464 201.052 241.469C201.052 241.474 201.052 241.479 201.052 241.484V241.49C201.052 241.495 201.052 241.505 201.052 241.51C201.052 246.609 198.453 251.099 194.51 253.734C192.531 255.057 190.214 255.906 187.719 256.135C187.271 256.182 186.813 256.198 186.354 256.198Z" fill="#DD4032"/>
<path d="M198.286 241.51C198.286 248.099 192.943 253.438 186.354 253.438C179.76 253.438 174.417 248.099 174.417 241.51C174.417 234.922 179.76 229.583 186.354 229.583C192.943 229.583 198.286 234.922 198.286 241.51Z" fill="white"/>
<path d="M198.276 241.036V241.031C198.276 241.031 198.276 241.031 198.276 241.036ZM198.26 240.74V240.734C198.26 240.74 198.26 240.74 198.26 240.74Z" fill="#DD4032"/>
<path d="M186.354 253.438C186.344 253.438 186.339 253.438 186.333 253.438C186.328 253.438 186.328 253.438 186.328 253.438C186.323 253.438 186.312 253.438 186.307 253.438C186.307 253.438 186.307 253.438 186.302 253.438C186.297 253.438 186.292 253.438 186.292 253.438C186.286 253.438 186.286 253.438 186.286 253.438C186.276 253.438 186.271 253.438 186.266 253.438C186.266 253.438 186.266 253.438 186.26 253.438C184.375 253.427 182.594 252.969 181.016 252.177C182.318 252.667 183.724 252.932 185.198 252.932C191.786 252.932 197.13 247.594 197.13 241.005C197.13 236.339 194.448 232.297 190.536 230.339C194.818 231.938 197.927 235.927 198.255 240.677C198.255 240.677 198.255 240.677 198.255 240.682C198.26 240.698 198.26 240.719 198.26 240.734V240.74C198.266 240.755 198.266 240.776 198.266 240.792C198.266 240.797 198.266 240.797 198.266 240.797C198.266 240.807 198.266 240.818 198.266 240.823C198.266 240.828 198.266 240.828 198.266 240.828C198.266 240.839 198.271 240.844 198.271 240.854C198.271 240.865 198.271 240.875 198.271 240.88C198.271 240.885 198.271 240.885 198.271 240.885C198.271 240.906 198.271 240.922 198.271 240.943C198.271 240.943 198.276 240.943 198.276 240.948C198.276 240.964 198.276 240.984 198.276 241C198.276 241.005 198.276 241.005 198.276 241.005C198.276 241.016 198.276 241.026 198.276 241.031V241.036C198.276 241.042 198.276 241.052 198.276 241.057C198.276 241.063 198.276 241.063 198.276 241.063C198.281 241.073 198.281 241.083 198.281 241.094C198.281 241.094 198.281 241.094 198.281 241.099C198.281 241.104 198.281 241.109 198.281 241.12C198.281 241.12 198.281 241.12 198.281 241.125C198.281 241.13 198.281 241.141 198.281 241.151C198.281 241.151 198.281 241.151 198.281 241.156C198.281 241.167 198.281 241.172 198.281 241.182C198.281 241.193 198.281 241.198 198.281 241.208V241.214C198.281 241.224 198.281 241.234 198.281 241.24V241.245C198.286 241.25 198.286 241.26 198.286 241.271C198.286 241.281 198.286 241.292 198.286 241.302C198.286 241.313 198.286 241.323 198.286 241.328V241.333C198.286 241.344 198.286 241.349 198.286 241.359C198.286 241.359 198.286 241.359 198.286 241.365C198.286 241.37 198.286 241.38 198.286 241.385C198.286 241.391 198.286 241.391 198.286 241.391C198.286 241.401 198.286 241.411 198.286 241.422C198.286 241.432 198.286 241.438 198.286 241.448C198.286 241.458 198.286 241.469 198.286 241.479V241.484C198.286 241.495 198.286 241.5 198.286 241.51C198.286 248.099 192.943 253.438 186.354 253.438Z" fill="#E7E7E6"/>
<path d="M195.198 241.51C195.198 246.391 191.24 250.349 186.354 250.349C181.469 250.349 177.51 246.391 177.51 241.51C177.51 236.63 181.469 232.672 186.354 232.672C191.24 232.672 195.198 236.63 195.198 241.51Z" fill="#1E393F"/>
<path d="M186.354 250.349C186.349 250.349 186.339 250.349 186.333 250.349H186.328C185.396 250.344 184.5 250.198 183.661 249.927C183.891 249.948 184.13 249.964 184.37 249.964C189.25 249.964 193.208 246.005 193.208 241.125C193.208 237.182 190.625 233.844 187.057 232.708C191.542 233.063 195.083 236.75 195.193 241.292C195.193 241.297 195.193 241.302 195.193 241.307C195.193 241.313 195.193 241.313 195.193 241.318V241.323C195.193 241.328 195.193 241.328 195.193 241.333C195.193 241.333 195.193 241.333 195.193 241.339C195.193 241.339 195.193 241.344 195.193 241.349C195.193 241.349 195.193 241.354 195.193 241.359C195.193 241.359 195.193 241.359 195.193 241.365V241.37C195.193 241.375 195.193 241.375 195.193 241.38C195.193 241.38 195.193 241.38 195.193 241.385V241.391C195.193 241.396 195.193 241.396 195.193 241.401V241.406C195.193 241.411 195.193 241.411 195.193 241.411C195.193 241.417 195.193 241.417 195.193 241.422V241.427C195.193 241.432 195.193 241.432 195.193 241.432C195.193 241.438 195.193 241.438 195.193 241.438C195.193 241.443 195.193 241.443 195.193 241.448C195.193 241.448 195.193 241.453 195.198 241.453C195.198 241.458 195.198 241.458 195.198 241.464V241.469C195.198 241.474 195.198 241.474 195.198 241.479C195.198 241.479 195.198 241.479 195.198 241.484C195.198 241.49 195.198 241.49 195.198 241.495C195.198 241.5 195.198 241.505 195.198 241.51C195.198 246.391 191.24 250.349 186.354 250.349Z" fill="#1C3337"/>
<path d="M186.354 236.479C186.354 238.578 184.646 240.286 182.547 240.286C180.443 240.286 178.734 238.578 178.734 236.479C178.734 234.375 180.443 232.672 182.547 232.672C184.646 232.672 186.354 234.375 186.354 236.479Z" fill="white"/>
<path d="M182.547 240.286C182.542 240.286 182.536 240.286 182.536 240.286C182.057 240.286 181.599 240.193 181.177 240.031C181.286 240.036 181.396 240.047 181.51 240.047C183.615 240.047 185.318 238.339 185.318 236.24C185.318 234.62 184.302 233.24 182.88 232.693C184.635 232.844 186.047 234.182 186.307 235.906C186.312 235.911 186.312 235.911 186.312 235.917C186.312 235.917 186.312 235.917 186.312 235.922C186.312 235.922 186.312 235.922 186.312 235.927V235.932V235.938C186.312 235.943 186.312 235.943 186.312 235.943C186.318 235.948 186.318 235.948 186.318 235.948C186.318 235.953 186.318 235.953 186.318 235.958C186.318 235.964 186.318 235.964 186.318 235.969C186.344 236.135 186.354 236.307 186.354 236.479C186.354 238.443 184.87 240.057 182.958 240.266C182.823 240.281 182.682 240.286 182.547 240.286Z" fill="#E7E7E6"/>
<path d="M272.891 238.75C272.891 246.859 266.307 253.438 258.193 253.438C250.073 253.438 243.495 246.859 243.495 238.75C243.495 230.635 250.073 224.057 258.193 224.057C266.307 224.057 272.891 230.635 272.891 238.75Z" fill="#F1453A"/>
<path d="M258.193 253.438C258.182 253.438 258.172 253.438 258.161 253.438H258.156C258.146 253.438 258.141 253.438 258.135 253.438C258.13 253.438 258.125 253.438 258.125 253.438C258.109 253.438 258.089 253.438 258.068 253.438C258.068 253.438 258.069 253.438 258.062 253.438C258.058 253.438 258.047 253.438 258.036 253.438C255.437 253.411 253.005 252.703 250.896 251.5C252.661 252.25 254.609 252.667 256.651 252.667C264.771 252.667 271.349 246.089 271.349 237.979C271.349 232.521 268.37 227.76 263.948 225.229C268.969 227.37 272.552 232.214 272.865 237.932V237.938C272.865 237.943 272.87 237.948 272.87 237.953C272.87 237.969 272.87 237.99 272.87 238.005C272.87 238.01 272.87 238.016 272.87 238.021C272.87 238.026 272.87 238.026 272.87 238.026C272.87 238.036 272.87 238.047 272.875 238.057C272.875 238.063 272.875 238.068 272.875 238.073V238.078C272.875 238.083 272.875 238.089 272.875 238.094V238.099C272.875 238.104 272.875 238.115 272.875 238.12C272.875 238.125 272.875 238.125 272.875 238.13C272.875 238.135 272.875 238.135 272.875 238.141C272.875 238.146 272.875 238.151 272.875 238.151C272.875 238.156 272.875 238.161 272.875 238.161C272.875 238.167 272.88 238.167 272.88 238.172C272.88 238.177 272.88 238.182 272.88 238.188C272.88 238.193 272.88 238.198 272.88 238.203C272.88 238.203 272.88 238.208 272.88 238.214C272.88 238.214 272.88 238.219 272.88 238.224C272.88 238.224 272.88 238.229 272.88 238.234C272.88 238.24 272.88 238.24 272.88 238.245C272.88 238.25 272.88 238.25 272.88 238.255C272.88 238.26 272.88 238.266 272.88 238.271C272.88 238.276 272.88 238.276 272.88 238.281C272.88 238.286 272.88 238.292 272.88 238.292C272.88 238.297 272.88 238.297 272.88 238.302C272.88 238.307 272.88 238.313 272.88 238.318C272.885 238.318 272.885 238.323 272.885 238.323C272.885 238.333 272.885 238.333 272.885 238.344V238.349C272.885 238.354 272.885 238.359 272.885 238.365C272.885 238.365 272.885 238.37 272.885 238.375C272.885 238.38 272.885 238.385 272.885 238.391C272.885 238.391 272.885 238.391 272.885 238.396C272.885 238.401 272.885 238.406 272.885 238.411C272.885 238.417 272.885 238.417 272.885 238.422C272.885 238.427 272.885 238.432 272.885 238.438V238.443C272.885 238.448 272.885 238.453 272.885 238.464C272.885 238.474 272.885 238.479 272.885 238.484C272.885 238.49 272.885 238.49 272.885 238.495C272.885 238.495 272.885 238.5 272.885 238.505C272.885 238.51 272.885 238.51 272.885 238.516C272.885 238.521 272.885 238.526 272.885 238.536C272.885 238.542 272.885 238.552 272.885 238.557V238.563C272.885 238.568 272.885 238.573 272.891 238.578V238.583C272.891 238.594 272.891 238.599 272.891 238.604C272.891 238.615 272.891 238.62 272.891 238.63C272.891 238.63 272.891 238.63 272.891 238.635C272.891 238.641 272.891 238.646 272.891 238.651V238.656C272.891 238.672 272.891 238.682 272.891 238.698C272.891 238.703 272.891 238.703 272.891 238.703C272.891 238.714 272.891 238.719 272.891 238.724C272.891 238.724 272.891 238.724 272.891 238.729C272.891 238.734 272.891 238.74 272.891 238.75C272.891 246.859 266.307 253.438 258.193 253.438Z" fill="#DD4032"/>
<path d="M270.125 238.75C270.125 245.339 264.781 250.677 258.193 250.677C251.599 250.677 246.255 245.339 246.255 238.75C246.255 232.161 251.599 226.823 258.193 226.823C264.781 226.823 270.125 232.161 270.125 238.75Z" fill="white"/>
<path d="M258.193 250.677C258.182 250.677 258.177 250.677 258.172 250.677C258.167 250.677 258.167 250.677 258.167 250.677C258.161 250.677 258.151 250.677 258.146 250.677C258.146 250.677 258.146 250.677 258.141 250.677C258.135 250.677 258.13 250.677 258.125 250.677C258.125 250.677 258.125 250.677 258.12 250.677C258.115 250.677 258.109 250.677 258.104 250.677C258.104 250.677 258.104 250.677 258.099 250.677C256.214 250.661 254.432 250.208 252.854 249.417C254.156 249.906 255.563 250.172 257.036 250.172C263.625 250.172 268.969 244.833 268.969 238.245C268.969 233.573 266.281 229.536 262.375 227.573C266.714 229.198 269.859 233.276 270.109 238.125C270.109 238.146 270.109 238.161 270.109 238.182C270.115 238.203 270.115 238.219 270.115 238.24V238.245C270.115 238.25 270.115 238.26 270.115 238.271C270.115 238.281 270.115 238.292 270.115 238.297C270.115 238.302 270.115 238.302 270.115 238.302C270.12 238.313 270.12 238.323 270.12 238.333C270.12 238.339 270.12 238.349 270.12 238.359C270.12 238.37 270.12 238.38 270.12 238.391C270.12 238.391 270.12 238.391 270.12 238.396C270.12 238.401 270.12 238.411 270.12 238.417C270.12 238.427 270.12 238.438 270.12 238.448V238.453C270.12 238.469 270.12 238.49 270.125 238.505V238.51C270.125 238.521 270.125 238.531 270.125 238.536C270.125 238.542 270.125 238.542 270.125 238.542C270.125 238.552 270.125 238.557 270.125 238.568C270.125 238.568 270.125 238.568 270.125 238.573C270.125 238.578 270.125 238.589 270.125 238.599C270.125 238.599 270.125 238.599 270.125 238.604C270.125 238.609 270.125 238.62 270.125 238.625C270.125 238.63 270.125 238.63 270.125 238.63C270.125 238.641 270.125 238.651 270.125 238.656V238.661C270.125 238.667 270.125 238.677 270.125 238.688C270.125 238.698 270.125 238.708 270.125 238.719C270.125 238.719 270.125 238.719 270.125 238.724C270.125 238.729 270.125 238.74 270.125 238.75C270.125 245.339 264.781 250.677 258.193 250.677Z" fill="#E7E7E6"/>
<path d="M267.031 238.75C267.031 243.63 263.073 247.589 258.193 247.589C253.307 247.589 249.349 243.63 249.349 238.75C249.349 233.87 253.307 229.911 258.193 229.911C263.073 229.911 267.031 233.87 267.031 238.75Z" fill="#1E393F"/>
<path d="M258.193 247.589C258.188 247.589 258.177 247.589 258.172 247.589H258.167C257.234 247.583 256.339 247.438 255.5 247.167C255.729 247.182 255.964 247.203 256.203 247.203C261.089 247.203 265.047 243.245 265.047 238.365C265.047 234.422 262.464 231.083 258.896 229.948C263.375 230.302 266.922 233.99 267.031 238.531C267.031 238.536 267.031 238.542 267.031 238.542V238.547C267.031 238.552 267.031 238.552 267.031 238.557C267.031 238.557 267.031 238.557 267.031 238.563V238.568C267.031 238.573 267.031 238.573 267.031 238.573C267.031 238.578 267.031 238.578 267.031 238.583C267.031 238.583 267.031 238.583 267.031 238.589V238.594C267.031 238.599 267.031 238.599 267.031 238.604V238.609V238.615C267.031 238.62 267.031 238.62 267.031 238.625V238.63C267.031 238.635 267.031 238.635 267.031 238.635C267.031 238.641 267.031 238.641 267.031 238.646V238.651C267.031 238.656 267.031 238.656 267.031 238.656C267.031 238.661 267.031 238.661 267.031 238.661C267.031 238.667 267.031 238.672 267.031 238.672V238.677C267.031 238.682 267.031 238.682 267.031 238.688V238.693C267.031 238.698 267.031 238.698 267.031 238.703C267.031 238.703 267.031 238.703 267.031 238.708C267.031 238.708 267.031 238.714 267.031 238.719C267.031 238.719 267.031 238.719 267.031 238.724C267.031 238.724 267.031 238.729 267.031 238.734C267.031 238.74 267.031 238.745 267.031 238.75C267.031 243.63 263.073 247.589 258.193 247.589Z" fill="#1C3337"/>
<path d="M258.193 233.719C258.193 235.818 256.484 237.521 254.385 237.521C252.281 237.521 250.573 235.818 250.573 233.719C250.573 231.615 252.281 229.911 254.385 229.911C256.484 229.911 258.193 231.615 258.193 233.719Z" fill="white"/>
<path d="M254.385 237.521C254.38 237.521 254.375 237.521 254.37 237.521C253.891 237.521 253.437 237.427 253.016 237.266C253.125 237.276 253.234 237.281 253.349 237.281C255.453 237.281 257.156 235.578 257.156 233.474C257.156 231.859 256.141 230.479 254.719 229.927C256.474 230.083 257.885 231.422 258.146 233.146C258.151 233.151 258.151 233.151 258.151 233.156C258.151 233.161 258.151 233.161 258.151 233.167V233.172V233.177V233.182L258.156 233.188C258.156 233.193 258.156 233.193 258.156 233.193V233.198C258.156 233.198 258.156 233.203 258.156 233.208C258.182 233.375 258.193 233.547 258.193 233.719C258.193 235.682 256.708 237.297 254.797 237.5C254.661 237.516 254.521 237.521 254.385 237.521Z" fill="#E7E7E6"/>
<path d="M159.021 354.932C159.021 354.927 159.016 354.927 159.016 354.927C159.234 354.703 159.458 354.484 159.688 354.271C159.458 354.484 159.234 354.703 159.021 354.932Z" fill="#E7E7E6"/>
<path d="M157.687 353.464C156.391 351.984 155.177 350.458 154.052 348.885C154.406 348.484 154.776 348.089 155.151 347.708C156.26 349.344 157.469 350.932 158.766 352.479C158.49 352.714 158.219 352.958 157.953 353.214C157.865 353.297 157.776 353.38 157.687 353.464Z" fill="#DD4032"/>
<path d="M159.016 354.927C158.562 354.443 158.125 353.958 157.688 353.464C157.776 353.38 157.865 353.297 157.953 353.214C158.219 352.958 158.49 352.714 158.766 352.479C159.182 352.969 159.604 353.458 160.036 353.943C159.922 354.052 159.802 354.161 159.688 354.271C159.458 354.484 159.234 354.703 159.016 354.927Z" fill="#C83B2E"/>
<path d="M148.51 339.151C149.057 338.932 149.609 338.729 150.172 338.536C150.172 338.542 150.172 338.542 150.172 338.542C149.609 338.734 149.057 338.932 148.51 339.151Z" fill="#E7E7E6"/>
<path d="M147.75 337.286C146.943 335.198 146.281 333.063 145.781 330.885C146.359 330.609 146.943 330.354 147.531 330.109C148.005 332.349 148.646 334.547 149.443 336.698C148.87 336.885 148.307 337.078 147.75 337.286Z" fill="#DD4032"/>
<path d="M148.51 339.151C148.245 338.531 147.99 337.911 147.75 337.286C148.307 337.078 148.87 336.885 149.443 336.698C149.672 337.318 149.917 337.932 150.172 338.536C149.609 338.729 149.057 338.932 148.51 339.151Z" fill="#C83B2E"/>
<path d="M144.703 317.646V317.641C145.344 317.547 145.99 317.464 146.641 317.391C146.641 317.396 146.641 317.396 146.641 317.401C145.99 317.469 145.344 317.552 144.703 317.646Z" fill="#E7E7E6"/>
<path d="M144.818 316.198C145.099 313.359 145.635 310.573 146.422 307.849C147.099 307.74 147.766 307.635 148.432 307.536C147.62 310.292 147.057 313.115 146.766 315.995C146.109 316.052 145.464 316.12 144.818 316.198Z" fill="#DD4032"/>
<path d="M144.703 317.641C144.734 317.156 144.771 316.677 144.818 316.198C145.464 316.12 146.109 316.052 146.766 315.995C146.714 316.458 146.677 316.922 146.641 317.391C145.99 317.464 145.344 317.547 144.703 317.641Z" fill="#C83B2E"/>
<path d="M163.187 283.984C162.214 283.365 161.25 282.729 160.302 282.083C161.255 282.729 162.219 283.365 163.193 283.984C163.187 283.984 163.193 283.984 163.187 283.984Z" fill="#E7E7E6"/>
<path d="M158.766 288.724C157.792 288.089 156.823 287.443 155.865 286.781C157.25 285.161 158.729 283.599 160.302 282.083C161.25 282.729 162.214 283.365 163.187 283.984C161.615 285.505 160.141 287.089 158.766 288.724Z" fill="#DD4032"/>
<path d="M286.365 282.141C287.339 281.521 288.302 280.891 289.255 280.25H289.26C288.302 280.891 287.339 281.521 286.365 282.141Z" fill="#E7E7E6"/>
<path d="M291.026 286.729C289.573 285.141 288.016 283.609 286.365 282.141C287.339 281.521 288.302 280.891 289.26 280.25C290.896 281.714 292.448 283.229 293.906 284.802C292.953 285.458 291.995 286.099 291.026 286.729Z" fill="#DD4032"/>
<path d="M305.01 320.604C305.01 353.568 269.536 380.292 225.771 380.292C182.005 380.292 146.531 353.568 146.531 320.604C146.531 287.635 182.005 260.917 225.771 260.917C269.536 260.917 305.01 287.635 305.01 320.604Z" fill="#F1453A"/>
<path d="M225.625 380.292C225.615 380.292 225.599 380.292 225.589 380.292C225.604 380.292 225.615 380.292 225.625 380.292ZM225.563 380.292C225.552 380.292 225.542 380.292 225.526 380.292C225.536 380.292 225.552 380.292 225.563 380.292ZM225.156 380.286C225.156 380.286 225.146 380.286 225.141 380.286C225.146 380.286 225.151 380.286 225.156 380.286ZM225.104 380.286C225.094 380.286 225.083 380.286 225.078 380.286C225.089 380.286 225.094 380.286 225.104 380.286ZM224.984 380.286C224.974 380.286 224.969 380.286 224.958 380.286C224.964 380.286 224.974 380.286 224.984 380.286ZM224.458 380.281H224.453C224.458 380.281 224.453 380.281 224.458 380.281ZM305.01 320.354C305.01 320.344 305.01 320.328 305.01 320.318C305.01 320.328 305.01 320.339 305.01 320.354ZM305.01 320.214C305.01 320.198 305.01 320.188 305.01 320.172C305.01 320.188 305.01 320.203 305.01 320.214ZM305.01 319.969C305.005 319.958 305.005 319.948 305.005 319.932C305.005 319.943 305.005 319.958 305.01 319.969ZM305.005 319.922C305.005 319.911 305.005 319.901 305.005 319.885C305.005 319.896 305.005 319.911 305.005 319.922ZM305.005 319.828C305.005 319.813 305.005 319.802 305.005 319.786C305.005 319.802 305.005 319.818 305.005 319.828ZM305.005 319.771C305.005 319.76 305.005 319.755 305.005 319.745C305.005 319.755 305.005 319.766 305.005 319.771ZM305 319.484C305 319.474 305 319.464 305 319.458C305 319.469 305 319.474 305 319.484ZM304.995 319.286C304.995 319.281 304.995 319.271 304.99 319.266C304.995 319.276 304.995 319.281 304.995 319.286ZM304.99 319.25C304.99 319.234 304.99 319.224 304.99 319.208C304.99 319.224 304.99 319.24 304.99 319.25ZM304.99 319.151C304.99 319.135 304.99 319.125 304.99 319.115C304.99 319.125 304.99 319.141 304.99 319.151ZM304.984 319C304.984 318.99 304.984 318.99 304.984 318.979C304.984 318.984 304.984 318.99 304.984 319ZM304.984 318.958C304.979 318.943 304.979 318.938 304.979 318.922C304.979 318.938 304.979 318.948 304.984 318.958ZM304.974 318.766C304.974 318.755 304.974 318.755 304.974 318.745C304.974 318.75 304.974 318.76 304.974 318.766ZM304.964 318.474V318.469C304.964 318.474 304.964 318.474 304.964 318.474ZM304.964 318.417C304.958 318.411 304.958 318.406 304.958 318.406C304.958 318.411 304.958 318.411 304.964 318.417Z" fill="#E7E7E6"/>
<path d="M225.771 380.292C225.75 380.292 225.734 380.292 225.708 380.292C225.703 380.292 225.698 380.292 225.693 380.292C225.677 380.292 225.661 380.292 225.651 380.292C225.641 380.292 225.635 380.292 225.625 380.292C225.615 380.292 225.604 380.292 225.589 380.292C225.578 380.292 225.573 380.292 225.562 380.292C225.552 380.292 225.536 380.292 225.526 380.292C225.516 380.292 225.51 380.292 225.5 380.292C225.49 380.292 225.479 380.292 225.469 380.292C225.458 380.292 225.448 380.292 225.437 380.292C225.427 380.292 225.417 380.292 225.406 380.292C225.396 380.292 225.391 380.292 225.38 380.292C225.365 380.292 225.354 380.292 225.344 380.292C225.333 380.292 225.323 380.292 225.318 380.292C225.307 380.292 225.297 380.292 225.286 380.292C225.24 380.286 225.203 380.286 225.156 380.286C225.151 380.286 225.146 380.286 225.141 380.286C225.125 380.286 225.115 380.286 225.104 380.286C225.094 380.286 225.089 380.286 225.078 380.286C225.068 380.286 225.057 380.286 225.042 380.286C225.036 380.286 225.026 380.286 225.016 380.286C225.005 380.286 224.995 380.286 224.984 380.286C224.974 380.286 224.964 380.286 224.958 380.286C224.943 380.286 224.932 380.286 224.922 380.286C224.911 380.286 224.906 380.286 224.901 380.286C224.885 380.286 224.875 380.286 224.859 380.286C224.854 380.286 224.849 380.286 224.844 380.286C224.828 380.286 224.812 380.286 224.797 380.286C224.703 380.286 224.609 380.286 224.51 380.281C224.495 380.281 224.479 380.281 224.458 380.281C224.453 380.281 224.458 380.281 224.453 380.281C224.437 380.281 224.417 380.281 224.401 380.281C205.375 380.036 187.984 374.74 174.49 366.099C186.135 371.167 199.656 374.073 214.073 374.073C257.839 374.073 293.318 347.349 293.318 314.385C293.318 296.156 282.458 279.833 265.354 268.885C288.203 278.828 303.849 297.115 304.953 318.214V318.219C304.953 318.25 304.953 318.281 304.958 318.313C304.958 318.313 304.958 318.313 304.958 318.318C304.958 318.344 304.958 318.375 304.958 318.406C304.958 318.406 304.958 318.411 304.964 318.417C304.964 318.432 304.964 318.453 304.964 318.469V318.474C304.964 318.484 304.964 318.49 304.964 318.5C304.964 318.505 304.964 318.51 304.964 318.516C304.964 318.531 304.964 318.542 304.964 318.557C304.964 318.563 304.964 318.568 304.964 318.573C304.964 318.583 304.969 318.589 304.969 318.599V318.609C304.969 318.625 304.969 318.641 304.969 318.656C304.969 318.661 304.969 318.667 304.969 318.667C304.969 318.677 304.969 318.688 304.974 318.693C304.974 318.698 304.974 318.703 304.974 318.703C304.974 318.719 304.974 318.734 304.974 318.745C304.974 318.755 304.974 318.755 304.974 318.766C304.974 318.776 304.974 318.776 304.974 318.786C304.974 318.792 304.974 318.797 304.974 318.807C304.979 318.818 304.979 318.828 304.979 318.839C304.979 318.849 304.979 318.854 304.979 318.859C304.979 318.87 304.979 318.875 304.979 318.885C304.979 318.891 304.979 318.896 304.979 318.901C304.979 318.906 304.979 318.917 304.979 318.922C304.979 318.938 304.979 318.943 304.984 318.958C304.984 318.964 304.984 318.969 304.984 318.979C304.984 318.99 304.984 318.99 304.984 319C304.984 319.005 304.984 319.016 304.984 319.021C304.984 319.031 304.984 319.042 304.984 319.052C304.984 319.063 304.984 319.068 304.984 319.073C304.984 319.083 304.984 319.089 304.984 319.099C304.984 319.104 304.99 319.109 304.99 319.115C304.99 319.125 304.99 319.135 304.99 319.151C304.99 319.156 304.99 319.161 304.99 319.172C304.99 319.177 304.99 319.182 304.99 319.193C304.99 319.198 304.99 319.203 304.99 319.208C304.99 319.224 304.99 319.234 304.99 319.25C304.99 319.255 304.99 319.26 304.99 319.266C304.995 319.271 304.995 319.281 304.995 319.286C304.995 319.292 304.995 319.302 304.995 319.307C304.995 319.318 304.995 319.333 304.995 319.344C304.995 319.349 304.995 319.354 304.995 319.359C304.995 319.37 304.995 319.375 304.995 319.385C304.995 319.391 304.995 319.401 304.995 319.406C304.995 319.417 304.995 319.427 305 319.438C305 319.448 305 319.453 305 319.458C305 319.464 305 319.474 305 319.484C305 319.49 305 319.495 305 319.5C305 319.51 305 319.526 305 319.536C305 319.542 305 319.547 305 319.552C305 319.563 305 319.573 305 319.583C305 319.589 305 319.594 305 319.594C305 319.609 305 319.62 305 319.635C305 319.641 305 319.641 305 319.646C305 319.656 305.005 319.667 305.005 319.677C305.005 319.682 305.005 319.688 305.005 319.693C305.005 319.703 305.005 319.719 305.005 319.729C305.005 319.734 305.005 319.74 305.005 319.745C305.005 319.755 305.005 319.76 305.005 319.771C305.005 319.776 305.005 319.781 305.005 319.786C305.005 319.802 305.005 319.813 305.005 319.828C305.005 319.833 305.005 319.833 305.005 319.839C305.005 319.849 305.005 319.859 305.005 319.87C305.005 319.875 305.005 319.88 305.005 319.885C305.005 319.901 305.005 319.911 305.005 319.922C305.005 319.927 305.005 319.932 305.005 319.932C305.005 319.948 305.005 319.958 305.01 319.969C305.01 319.974 305.01 319.979 305.01 319.979C305.01 319.995 305.01 320.005 305.01 320.021C305.01 320.026 305.01 320.026 305.01 320.031C305.01 320.042 305.01 320.052 305.01 320.068C305.01 320.068 305.01 320.073 305.01 320.078C305.01 320.089 305.01 320.104 305.01 320.12V320.125C305.01 320.135 305.01 320.151 305.01 320.161C305.01 320.167 305.01 320.167 305.01 320.172C305.01 320.188 305.01 320.198 305.01 320.214C305.01 320.219 305.01 320.219 305.01 320.224C305.01 320.234 305.01 320.245 305.01 320.255C305.01 320.26 305.01 320.266 305.01 320.271C305.01 320.281 305.01 320.297 305.01 320.313V320.318C305.01 320.328 305.01 320.344 305.01 320.354C305.01 320.359 305.01 320.359 305.01 320.365C305.01 320.38 305.01 320.396 305.01 320.406V320.411C305.01 320.422 305.01 320.438 305.01 320.453C305.01 320.453 305.01 320.458 305.01 320.464C305.01 320.479 305.01 320.49 305.01 320.5C305.01 320.505 305.01 320.505 305.01 320.51C305.01 320.521 305.01 320.536 305.01 320.547C305.01 320.552 305.01 320.557 305.01 320.557C305.01 320.573 305.01 320.589 305.01 320.604C305.01 326.005 304.057 331.24 302.271 336.219C302 336.979 301.708 337.734 301.391 338.484C299.474 343.104 296.823 347.479 293.552 351.542C292.922 352.323 292.266 353.094 291.589 353.854C277.365 369.797 253.193 380.292 225.771 380.292Z" fill="#DD4032"/>
<path d="M225.865 294.094C219.427 294.094 213.38 291.589 208.828 287.042C208.042 286.25 208.042 284.974 208.828 284.182C209.62 283.396 210.896 283.396 211.688 284.182C215.474 287.969 220.51 290.057 225.865 290.057C231.219 290.057 236.255 287.969 240.042 284.182C240.833 283.396 242.109 283.396 242.901 284.182C243.688 284.974 243.688 286.25 242.901 287.042C238.349 291.589 232.297 294.094 225.865 294.094Z" fill="#1E393F"/>
<path d="M167.927 297.948C167.776 297.948 167.625 297.938 167.474 297.917C167.156 297.87 166.833 297.771 166.526 297.615C164.984 296.839 164.359 294.964 165.135 293.417C169.099 285.521 180.469 276.844 187.255 276.542C187.302 276.542 187.349 276.542 187.396 276.542C189.063 276.542 190.443 277.849 190.521 279.531C190.599 281.255 189.26 282.714 187.536 282.792C183.375 282.979 173.807 290.083 170.729 296.224C170.182 297.318 169.078 297.948 167.927 297.948Z" fill="#F68A83"/>
<path d="M104.505 259.313C103.964 259.313 103.432 259.063 103.089 258.589C100.214 254.594 98.8701 246.75 100.469 243.323C100.766 242.693 101.396 242.323 102.052 242.323C102.297 242.323 102.547 242.375 102.786 242.49C103.661 242.896 104.036 243.932 103.63 244.802C102.646 246.901 103.682 253.448 105.917 256.552C106.37 257.177 106.344 258.005 105.911 258.594C105.807 258.74 105.677 258.875 105.521 258.984C105.214 259.208 104.859 259.313 104.505 259.313Z" fill="#F68A83"/>
<path d="M304.276 244.854C303.359 244.854 302.594 244.141 302.536 243.219C302.245 238.307 305.302 230.958 308.49 228.922C308.781 228.734 309.109 228.646 309.427 228.646C310.005 228.646 310.568 228.927 310.901 229.448C311.417 230.255 311.182 231.333 310.37 231.854C308.417 233.104 305.792 239.193 306.016 243.01C306.062 243.781 305.599 244.458 304.922 244.729C304.75 244.797 304.568 244.839 304.38 244.854C304.344 244.854 304.307 244.854 304.276 244.854Z" fill="#F68A83"/>
</svg>
