<svg width="450" height="600" viewBox="0 0 450 600" fill="none" xmlns="http://www.w3.org/2000/svg">
<mask id="mask0_2437_3902" style="mask-type:luminance" maskUnits="userSpaceOnUse" x="186" y="124" width="106" height="176">
<path d="M186.667 124.828H292V300H186.667V124.828Z" fill="white"/>
</mask>
<g mask="url(#mask0_2437_3902)">
<path d="M286.089 214.708C285.631 210.813 285.849 206.787 287.136 203.078C288.058 200.412 289.563 197.922 291.563 195.948C290.073 195.333 288.709 194.505 287.688 193.266C286.62 191.979 286.026 190.354 285.688 188.714C284.943 185.135 285.349 181.323 286.828 177.979C287.474 176.531 288.308 175.172 288.995 173.75C286.709 173.417 284.521 172.734 282.61 171.422C274.938 166.151 273.657 157.557 275.157 149.193C272.834 149.354 270.5 149.38 268.172 149.292C265.396 149.188 262.578 148.932 260 147.891C257.422 146.849 255.089 144.917 254.136 142.302C253.464 140.469 253.511 138.458 253.568 136.51C253.61 135.146 253.651 133.787 253.688 132.427C253.151 133.109 252.589 133.771 251.964 134.375C248.693 137.521 243.969 139.146 239.485 138.49C235 137.833 230.881 134.833 229.042 130.677C228.266 128.917 227.881 126.984 227.417 125.099C227.063 125.75 226.735 126.417 226.37 127.063C222.042 134.75 216.521 138.641 207.589 139.292C200.808 139.781 194.068 138.927 187.448 137.385C190.948 139.162 194.183 141.557 196.552 144.688C203.776 154.224 200.974 170.536 196.287 180.573C249.641 144.172 269.604 165.354 252.318 250.74C251.11 253.625 249.927 256.526 248.75 259.432C244.948 268.797 242.151 277.328 245.381 287.281C246.375 290.354 247.61 293.339 248.839 296.318C249.183 297.146 249.542 298.005 250.214 298.599C251.141 299.412 252.474 299.568 253.703 299.51C255.256 299.438 256.839 299.068 258.099 298.156C259.547 297.109 260.448 295.438 260.901 293.708C261.615 290.979 261.933 287.167 261.245 284.412C260.506 281.453 259.151 278.656 258.407 275.703C257.797 273.287 257.948 270.646 259.037 268.406C260.256 265.891 262.667 263.875 265.558 263.896C264.297 263.245 263.443 261.917 263.479 260.464C263.506 259.385 264.006 258.354 264.688 257.51C265.953 255.943 267.589 254.474 269.396 253.594C266.818 246.349 273.146 238.682 280.552 237.328C279.662 236.005 279.407 234.24 279.479 232.609C279.724 227.099 283.167 221.953 287.938 219.276C287.469 218.755 287.058 218.193 286.766 217.547C286.36 216.662 286.203 215.682 286.089 214.708Z" fill="#F9C758"/>
</g>
<path d="M268.172 235.484C277.791 210.667 282.776 183.547 262.474 162.214C247.802 146.797 225.614 142.99 207.734 156.104C197.729 163.432 191.656 177.51 189.198 189.333C187.333 198.307 187.765 207.047 183.771 215.594C180.916 221.698 176.448 227.151 170.619 230.521C168.828 231.562 166.859 232.411 164.781 232.516C162.343 232.635 159.739 231.74 157.531 232.802C155.599 233.729 154.557 236.135 155.088 238.214C155.614 240.297 157.588 241.885 159.724 242.073C163.39 242.396 165.937 240.438 166.552 244.974C166.984 248.156 166.286 252.302 171 252.474C173.515 252.568 175.869 250.573 176.432 248.115C176.89 246.13 176.328 244.01 176.802 242.026C177.51 239.094 180.239 237.198 182.573 235.297C185.968 232.526 188.922 229.198 192.578 226.786C196.234 224.375 200.953 222.974 205.015 224.604C211.078 227.031 216.38 229.234 222.812 229.703C222.343 230.099 221.869 230.495 221.406 230.901C210.328 240.667 200.854 254.474 194.708 267.859C186.911 284.823 187.213 303.38 196.432 319.688C202.369 330.193 210.765 339.094 219.677 347.219C224.911 351.995 230.661 357.901 232.448 365C235.297 376.354 228.578 392.307 217.963 397.5C209.234 401.771 199.64 400.438 191.599 395.302C184.156 390.547 176.427 383.208 176.614 373.802C176.713 368.771 178.583 364.135 182.942 361.292C186.239 359.135 191.807 357.87 195.38 360.052C198.791 362.135 199.953 367.448 197.583 370.693C194.453 369.422 190.494 371.26 189.276 374.417C188.062 377.573 189.635 381.49 192.614 383.073C199.031 386.484 204.88 380.203 206.5 374.557C208.484 367.594 208.453 358.26 203.448 352.531C196.13 344.167 182.807 346.224 175.14 352.943C163.036 363.547 163.5 380.458 171.062 393.604C179.984 409.104 196.573 417.094 214.208 416.917C216.635 416.891 219.062 416.703 221.468 416.359C253.307 411.755 270.26 378.792 270.229 349.042C270.218 333.609 263.281 319.24 258.177 304.885C255.573 297.552 253.364 290.01 252.812 282.208C252.198 273.495 254.864 265.484 258.505 257.656C261.765 250.646 265.192 243.177 268.172 235.484Z" fill="#63D3C0"/>
<path d="M240.312 197.464C246.281 197.417 249.557 188.698 247.755 183C245.948 177.302 238.396 174.062 233.333 177.229C237.349 174.385 236.135 168.51 232.854 165.776C229.312 162.828 224.39 161.714 219.869 162.156C209.463 163.177 198.885 168.677 191.453 181.005C190.515 183.828 189.76 186.641 189.198 189.333C187.333 198.307 187.765 207.047 183.771 215.594C180.916 221.698 176.448 227.151 170.619 230.521C168.828 231.562 166.859 232.411 164.781 232.516C162.343 232.635 159.739 231.74 157.531 232.802C155.599 233.729 154.557 236.135 155.088 238.214C155.614 240.297 157.588 241.885 159.724 242.073C163.39 242.396 165.937 240.437 166.552 244.974C166.984 248.156 166.286 252.302 171 252.474C173.515 252.568 175.869 250.573 176.432 248.115C176.89 246.13 176.328 244.01 176.802 242.026C177.51 239.094 180.239 237.198 182.573 235.297C185.968 232.526 188.922 229.198 192.578 226.786C196.234 224.375 200.953 222.974 205.015 224.604C211.078 227.031 216.38 229.234 222.812 229.703C233.958 230.125 252.687 225.766 253.89 212.464C254.536 205.26 251.354 197.37 240.312 197.464Z" fill="#BDF0EB"/>
<path d="M247.323 224.292C247.714 223.661 248.068 223.042 248.412 222.427C241.74 228.021 230.485 229.995 222.813 229.703C222.344 230.099 221.87 230.495 221.406 230.901C210.328 240.667 200.854 254.474 194.709 267.859C186.912 284.823 187.214 303.38 196.432 319.688C202.37 330.193 210.766 339.094 219.677 347.219C224.912 351.995 230.662 357.901 232.448 365C235.297 376.354 228.578 392.307 217.964 397.5C213.292 399.787 208.375 400.453 203.578 399.807C212.729 403.469 223.912 401.74 231.391 395.26C236.641 390.714 239.943 384.323 242.469 377.849C244.188 373.443 245.62 368.901 246.229 364.208C247.745 352.557 244.125 340.849 239.531 330.042C235.979 321.677 231.807 313.573 228.755 305C226.078 297.469 225.219 289.318 225.266 281.323C225.375 265.089 230.266 248.854 239.464 235.458C242.042 231.708 244.932 228.167 247.323 224.292Z" fill="#BDF0EB"/>
<path d="M232.458 164.786C232.38 164.067 232.406 163.338 232.536 162.625C232.583 162.338 232.692 162.01 232.968 161.927C233.14 161.88 233.323 161.942 233.489 162.01C234.125 162.26 234.76 162.51 235.401 162.76C235.557 162.823 235.729 162.885 235.901 162.869C236.224 162.833 236.442 162.51 236.521 162.198C236.812 160.953 235.609 159.442 236.474 158.505C236.968 157.963 237.838 158.057 238.547 158.244C239.26 158.432 240.057 158.666 240.692 158.291C241.765 157.656 241.505 155.812 242.552 155.13C243.265 154.661 244.203 154.984 245.052 155.099C245.901 155.213 247.036 154.812 246.979 153.963" stroke="#2DAA95" stroke-width="1.15676" stroke-miterlimit="10" stroke-linecap="round" stroke-linejoin="round"/>
<path d="M242.407 172.797C242.037 171.828 242.402 170.63 243.245 170.036C244.094 169.437 245.339 169.5 246.125 170.177C246.448 170.453 246.834 170.854 247.219 170.666C247.365 170.604 247.459 170.474 247.542 170.338C248.089 169.515 248.511 168.609 248.792 167.656C248.87 167.401 248.943 167.125 249.141 166.942C249.516 166.583 250.136 166.739 250.589 166.995C251.037 167.25 251.485 167.599 252 167.578C252.954 167.531 253.349 166.38 253.787 165.531C254.594 163.979 256.334 162.974 258.084 163.021" stroke="#2DAA95" stroke-width="1.15676" stroke-miterlimit="10" stroke-linecap="round" stroke-linejoin="round"/>
<path d="M251.531 180.859C251.01 179.823 251.698 178.448 252.786 178.057C253.875 177.666 255.151 178.161 255.88 179.062C255.995 179.198 256.13 179.359 256.307 179.354C256.416 179.349 256.515 179.271 256.593 179.198C257.713 178.13 257.515 175.896 258.963 175.354C259.739 175.062 260.604 175.463 261.276 175.958C261.484 176.109 261.703 176.276 261.963 176.297C262.458 176.338 262.807 175.833 263.057 175.406C263.604 174.5 264.25 173.625 265.12 173.021C265.989 172.416 267.109 172.114 268.125 172.416" stroke="#2DAA95" stroke-width="1.15676" stroke-miterlimit="10" stroke-linecap="round" stroke-linejoin="round"/>
<path d="M252.745 194.219C253.073 193.39 253.49 192.547 254.214 192.036C254.943 191.526 256.063 191.474 256.641 192.146C256.917 192.463 257.037 192.885 257.266 193.234C257.49 193.583 257.922 193.875 258.308 193.724C258.479 193.651 258.61 193.505 258.724 193.359C259.349 192.583 259.875 191.677 260.724 191.151C261.568 190.63 262.901 190.703 263.328 191.604C263.438 191.844 263.526 192.161 263.787 192.208C264.032 192.245 264.214 192.005 264.365 191.802C265.266 190.573 266.99 190.026 268.438 190.5C268.599 190.552 268.761 190.62 268.922 190.599C269.146 190.578 269.323 190.416 269.474 190.25C270.266 189.349 270.495 187.989 270.037 186.875" stroke="#2DAA95" stroke-width="1.15676" stroke-miterlimit="10" stroke-linecap="round" stroke-linejoin="round"/>
<path d="M258.942 210.349C258.776 209.807 259.328 209.333 259.802 209.036C260.114 208.844 260.432 208.646 260.791 208.583C261.146 208.521 261.557 208.62 261.76 208.916C261.927 209.156 261.932 209.458 262 209.734C262.073 210.01 262.271 210.307 262.557 210.302C262.745 210.297 262.901 210.156 263.036 210.021C263.427 209.62 263.771 209.166 264.229 208.838C264.682 208.51 265.291 208.323 265.807 208.536C266.729 208.916 266.974 210.354 267.958 210.51C268.307 210.568 268.661 210.432 268.989 210.286C269.698 209.974 270.385 209.604 271.041 209.187C271.25 209.052 271.469 208.906 271.713 208.901C271.937 208.896 272.146 209.005 272.338 209.109C272.953 209.458 273.526 209.88 274.052 210.354" stroke="#2DAA95" stroke-width="1.15676" stroke-miterlimit="10" stroke-linecap="round" stroke-linejoin="round"/>
<path d="M249.812 226.396C250.323 225.765 250.875 225.182 251.464 224.646C251.823 224.312 252.219 223.989 252.682 223.932C253.276 223.859 253.859 224.26 254.219 224.791C254.583 225.323 254.771 225.979 254.958 226.614C255.839 226.203 256.719 225.791 257.604 225.38C258.052 225.172 258.599 224.969 258.99 225.297C259.354 225.609 259.406 226.281 259.823 226.5C260.005 226.594 260.219 226.578 260.422 226.541C261.167 226.396 261.854 225.989 262.589 225.807C263.328 225.62 264.208 225.713 264.682 226.38C264.844 226.614 264.979 226.922 265.24 226.984C265.401 227.021 265.563 226.942 265.714 226.864C266.219 226.588 266.714 226.25 267.266 226.177C267.823 226.104 268.474 226.396 268.62 227.005" stroke="#2DAA95" stroke-width="1.15676" stroke-miterlimit="10" stroke-linecap="round" stroke-linejoin="round"/>
<path d="M239.854 240.823C240.021 239.885 241.047 239.198 241.979 239.401C242.907 239.604 243.552 240.656 243.313 241.583C243.828 240.505 244.974 239.76 246.167 239.734C247.36 239.708 248.542 240.396 249.105 241.448C249.381 240.385 250.427 239.583 251.521 239.599C252.615 239.609 253.646 240.443 253.891 241.505C254.641 240.719 255.448 239.896 256.506 239.651C257.453 239.427 257.808 239.984 258.568 240.245C258.927 240.364 258.797 240.687 259.235 240.739C259.631 240.792 260.526 240.229 260.98 240.146C261.157 240.109 261.339 240.088 261.511 240.135C261.698 240.187 261.849 240.312 262 240.437C262.766 241.083 263.604 241.875 263.558 242.875" stroke="#2DAA95" stroke-width="1.15676" stroke-miterlimit="10" stroke-linecap="round" stroke-linejoin="round"/>
<path d="M232.339 255.5C232.214 254.177 233.594 253.047 234.917 253.14C236.235 253.229 237.349 254.255 237.901 255.463C238.714 254.594 239.584 253.786 240.511 253.047C240.75 252.854 241.016 252.661 241.323 252.646C241.589 252.635 241.839 252.771 242.063 252.911C243.047 253.531 243.839 254.453 244.308 255.521C245.24 254.437 246.266 253.297 247.657 252.963C249.047 252.635 250.808 253.609 250.698 255.031C251.573 254.265 252.599 253.599 253.756 253.479C254.907 253.359 256.193 253.916 256.615 254.995" stroke="#2DAA95" stroke-width="1.15676" stroke-miterlimit="10" stroke-linecap="round" stroke-linejoin="round"/>
<path d="M227.021 271.151C226.495 270.286 227.271 269.062 228.271 268.927C229.266 268.786 230.235 269.495 230.698 270.385C230.808 270.594 230.927 270.838 231.157 270.896C231.459 270.974 231.714 270.677 231.907 270.437C232.464 269.729 233.256 269.151 234.146 269.088C235.042 269.031 236.006 269.625 236.141 270.51C236.974 269.625 237.891 268.75 239.037 268.344C240.183 267.943 241.625 268.135 242.365 269.099C242.625 269.437 242.865 269.901 243.287 269.917C243.552 269.932 243.787 269.755 243.995 269.594C244.922 268.885 245.98 268.265 247.146 268.193C248.308 268.12 249.578 268.755 249.917 269.87" stroke="#2DAA95" stroke-width="1.15676" stroke-miterlimit="10" stroke-linecap="round" stroke-linejoin="round"/>
<path d="M227.214 287.182C226.912 286.281 227.813 285.307 228.761 285.281C229.708 285.26 230.557 285.932 231.052 286.739C231.537 285.344 233.552 284.797 234.677 285.75C234.964 285.995 235.24 286.333 235.62 286.318C235.974 286.297 236.219 285.958 236.479 285.719C237.24 285.005 238.432 284.958 239.401 285.318C240.375 285.677 241.172 286.38 241.948 287.068C242.547 285.89 243.511 284.521 244.807 284.739C245.537 284.864 246.073 285.479 246.745 285.792C247.417 286.104 248.485 285.859 248.469 285.12" stroke="#2DAA95" stroke-width="1.15676" stroke-miterlimit="10" stroke-linecap="round" stroke-linejoin="round"/>
<path d="M232.802 301.302C232.354 301.104 232.323 300.422 232.62 300.026C232.922 299.635 233.422 299.469 233.891 299.312C234.568 299.094 235.276 298.875 235.989 298.948C236.698 299.016 237.427 299.469 237.588 300.167C238.115 299.677 238.547 299.088 238.864 298.443C238.984 298.203 239.094 297.943 239.328 297.812C239.995 297.432 240.635 298.474 241.396 298.573C242.646 298.734 243.172 296.448 244.411 296.635C244.833 296.703 245.151 297.052 245.557 297.172C246.177 297.354 246.818 296.958 247.281 296.51C247.745 296.052 248.156 295.51 248.755 295.266C249.469 294.979 250.359 295.234 250.812 295.859" stroke="#2DAA95" stroke-width="1.15676" stroke-miterlimit="10" stroke-linecap="round" stroke-linejoin="round"/>
<path d="M235.63 315.823C235.511 315.135 235.943 314.437 236.542 314.068C237.141 313.708 237.87 313.625 238.568 313.646C239.766 313.672 241.021 314 241.87 314.854C242.255 314.047 242.662 313.219 243.323 312.625C243.995 312.031 245 311.724 245.802 312.125C246.057 312.255 246.281 312.448 246.547 312.541C247.771 312.979 248.886 311.265 250.167 311.469C250.875 311.583 251.682 312.245 252.188 311.734" stroke="#2DAA95" stroke-width="1.15676" stroke-miterlimit="10" stroke-linecap="round" stroke-linejoin="round"/>
<path d="M243.183 328.958C242.485 328.349 242.531 327.088 243.271 326.526C244.016 325.969 245.235 326.271 245.63 327.115C246.005 326.286 246.396 325.437 247.047 324.802C247.698 324.167 248.683 323.786 249.537 324.094C250.016 324.271 250.495 324.656 250.985 324.5C251.255 324.406 251.448 324.167 251.62 323.937C252.073 323.338 252.526 322.739 252.979 322.135C253.183 321.87 253.406 321.588 253.729 321.5C254.104 321.401 254.485 321.594 254.828 321.776C255.302 322.042 255.776 322.297 256.255 322.557" stroke="#2DAA95" stroke-width="1.15676" stroke-miterlimit="10" stroke-linecap="round" stroke-linejoin="round"/>
<path d="M247.297 340.203C247.063 339.625 247.047 338.958 247.255 338.37C247.328 338.151 247.443 337.937 247.625 337.792C248.052 337.469 248.672 337.661 249.135 337.922C249.604 338.182 250.094 338.516 250.625 338.443C251.682 338.286 251.854 336.781 252.677 336.094C253.589 335.338 255.005 335.828 255.88 336.62C256.037 336.76 256.219 336.917 256.422 336.864C256.557 336.833 256.646 336.713 256.724 336.594C257.125 336.01 257.448 335.364 257.917 334.838C258.391 334.312 259.063 333.89 259.766 333.948" stroke="#2DAA95" stroke-width="1.15676" stroke-miterlimit="10" stroke-linecap="round" stroke-linejoin="round"/>
<path d="M249.838 350.755C249.474 350.411 249.344 349.849 249.515 349.38C249.687 348.906 250.156 348.562 250.651 348.536C251.021 348.516 251.38 348.656 251.708 348.823C252.109 349.042 252.484 349.312 252.812 349.63C252.901 349.719 253 349.807 253.125 349.807C253.245 349.807 253.349 349.713 253.432 349.625C253.885 349.141 254.338 348.661 254.791 348.177C255.375 347.552 256.083 346.88 256.932 346.932C257.817 346.984 258.437 347.792 259.062 348.427C259.187 348.552 259.349 348.687 259.521 348.651C259.614 348.625 259.687 348.568 259.755 348.505C260.156 348.13 260.495 347.672 260.963 347.38C261.432 347.088 262.104 347.01 262.495 347.396" stroke="#2DAA95" stroke-width="1.15676" stroke-miterlimit="10" stroke-linecap="round" stroke-linejoin="round"/>
<path d="M251.229 358.87C251.36 358.224 252.016 357.781 252.672 357.734C253.328 357.693 253.969 357.974 254.521 358.328C254.865 358.552 255.261 358.823 255.651 358.698C255.802 358.651 255.933 358.542 256.063 358.437C256.474 358.088 256.886 357.74 257.302 357.396C257.672 357.078 258.094 356.75 258.584 356.75C259.558 356.75 260.24 358.052 261.198 357.865C261.87 357.734 262.214 356.922 262.87 356.719C263.547 356.505 264.214 357.026 264.74 357.51" stroke="#2DAA95" stroke-width="1.15676" stroke-miterlimit="10" stroke-linecap="round" stroke-linejoin="round"/>
<path d="M249.302 370.161C249.489 369.255 250.75 368.786 251.479 369.354C251.672 369.51 251.843 369.724 252.088 369.786C252.312 369.839 252.547 369.75 252.744 369.625C253.619 369.089 254.172 367.979 255.187 367.818C255.823 367.724 256.453 368.052 256.906 368.51C257.354 368.964 257.661 369.536 258 370.078C258.119 370.266 258.369 370.479 258.541 370.328C258.599 370.276 258.619 370.203 258.651 370.135C258.88 369.661 259.573 369.604 260.015 369.88C260.458 370.156 260.703 370.656 260.932 371.125" stroke="#2DAA95" stroke-width="1.15676" stroke-miterlimit="10" stroke-linecap="round" stroke-linejoin="round"/>
<path d="M246.594 377.464C249.479 376.443 249.755 378.698 251.448 380.234C251.922 379.854 252.318 379.396 252.75 378.958C252.911 378.797 253.089 378.635 253.307 378.594C253.604 378.536 253.891 378.719 254.141 378.885C255.094 379.547 256.094 380.266 256.536 381.339C256.615 381.526 256.682 381.729 256.839 381.865C257.12 382.104 257.563 381.984 257.854 381.755C258.146 381.521 258.359 381.203 258.661 380.99C259.495 380.417 260.849 381.109 260.875 382.125C260.885 382.604 260.677 383.156 260.995 383.516" stroke="#2DAA95" stroke-width="1.15676" stroke-miterlimit="10" stroke-linecap="round" stroke-linejoin="round"/>
<path d="M243.005 388.943C243.218 388.599 243.698 388.453 244.067 388.62C244.432 388.792 244.63 389.255 244.505 389.641C244.458 389.781 244.385 389.974 244.505 390.057C244.552 390.088 244.609 390.094 244.666 390.094C245.255 390.083 245.791 389.557 246.375 389.667C246.797 389.745 247.093 390.141 247.208 390.557C247.323 390.969 247.297 391.406 247.312 391.838C247.317 391.911 247.323 391.995 247.369 392.052C247.427 392.13 247.526 392.151 247.619 392.156C248.109 392.177 248.604 391.911 249.073 392.057C249.453 392.182 249.692 392.552 249.849 392.922C250.166 393.698 250.224 394.578 250.005 395.385" stroke="#2DAA95" stroke-width="1.15676" stroke-miterlimit="10" stroke-linecap="round" stroke-linejoin="round"/>
<path d="M234.448 396.635C234.849 396.24 235.36 395.958 235.907 395.833C236.011 395.813 236.12 395.792 236.219 395.833C236.323 395.875 236.391 395.974 236.443 396.078C236.703 396.557 236.782 397.141 236.641 397.672C236.62 397.75 236.599 397.833 236.631 397.911C236.672 398.016 236.808 398.052 236.922 398.068C237.49 398.13 238.058 397.984 238.631 397.938C239.203 397.896 239.834 397.979 240.224 398.396C240.651 398.849 240.657 399.563 240.485 400.161C240.313 400.76 239.99 401.302 239.823 401.906C239.662 402.505 239.688 403.224 240.136 403.656C240.485 403.995 241.011 404.083 241.49 404" stroke="#2DAA95" stroke-width="1.15676" stroke-miterlimit="10" stroke-linecap="round" stroke-linejoin="round"/>
<path d="M226.484 402.724C226.745 402.583 227.042 402.521 227.333 402.5C227.687 402.474 228.057 402.521 228.359 402.703C228.661 402.896 228.875 403.255 228.818 403.604C228.766 403.943 228.484 404.271 228.62 404.588C228.698 404.771 228.901 404.87 229.083 404.948C229.505 405.12 229.948 405.271 230.297 405.562C230.651 405.849 230.891 406.328 230.755 406.766C230.62 407.182 230.161 407.516 230.245 407.948C230.349 408.505 231.276 408.656 231.276 409.224" stroke="#2DAA95" stroke-width="1.15676" stroke-miterlimit="10" stroke-linecap="round" stroke-linejoin="round"/>
<path d="M218.297 405.573C218.578 405.625 218.87 405.562 219.161 405.562C219.448 405.568 219.771 405.667 219.896 405.927C219.958 406.052 219.964 406.198 219.969 406.333C219.984 406.963 219.958 407.703 219.453 408.083C219.708 408.458 220.167 408.62 220.578 408.812C220.99 409.005 221.417 409.328 221.437 409.781C221.453 410.24 221.057 410.588 220.786 410.958C220.729 411.047 220.672 411.141 220.661 411.245C220.641 411.406 220.729 411.557 220.823 411.687C221.052 412 221.354 412.271 221.521 412.625C221.677 412.984 221.641 413.484 221.292 413.667" stroke="#2DAA95" stroke-width="1.15676" stroke-miterlimit="10" stroke-linecap="round" stroke-linejoin="round"/>
<path d="M210.765 415.094C210.442 415.292 209.969 415.177 209.765 414.859C209.562 414.536 209.661 414.062 209.974 413.849C210.062 413.797 210.156 413.755 210.224 413.682C210.5 413.396 210.146 412.927 209.776 412.792C209.401 412.667 208.942 412.635 208.724 412.302C208.573 412.078 208.594 411.776 208.672 411.516C208.833 410.984 209.229 410.531 209.734 410.297C209.844 410.141 209.604 409.984 209.437 409.891C209.01 409.651 208.833 409.115 208.885 408.635C208.932 408.151 209.166 407.708 209.396 407.281" stroke="#2DAA95" stroke-width="1.15676" stroke-miterlimit="10" stroke-linecap="round" stroke-linejoin="round"/>
<path d="M195.458 413.167C195.125 412.984 194.917 412.599 194.943 412.224C194.969 411.844 195.234 411.495 195.588 411.359C195.802 411.276 196.068 411.26 196.219 411.088C196.422 410.854 196.312 410.505 196.208 410.219C196.042 409.771 195.911 409.25 196.146 408.833C196.396 408.406 196.943 408.26 197.302 407.922C197.687 407.562 197.823 406.995 197.792 406.474C197.755 405.948 197.573 405.443 197.385 404.953" stroke="#2DAA95" stroke-width="1.15676" stroke-miterlimit="10" stroke-linecap="round" stroke-linejoin="round"/>
<path d="M185.995 407.234C185.906 406.385 186.615 405.536 187.458 405.469C187.99 405.432 188.635 405.615 188.969 405.203C189.083 405.052 189.13 404.854 189.167 404.672C189.24 404.328 189.307 403.974 189.26 403.625C189.208 403.281 189.01 402.932 188.682 402.802C189.188 402.479 189.932 402.74 190.406 402.365C190.891 401.974 190.776 401.172 191.156 400.682" stroke="#2DAA95" stroke-width="1.15676" stroke-miterlimit="10" stroke-linecap="round" stroke-linejoin="round"/>
<path d="M177.307 399.646C176.979 399.365 176.854 398.87 177.005 398.463C177.156 398.057 177.578 397.766 178.01 397.771C178.125 397.771 178.245 397.792 178.344 397.745C178.442 397.698 178.51 397.599 178.562 397.5C178.76 397.151 178.911 396.776 179.015 396.391C179.099 396.099 179.151 395.792 179.307 395.531C179.469 395.271 179.765 395.062 180.062 395.125C180.224 395.156 180.364 395.255 180.526 395.276C180.953 395.328 181.213 394.833 181.349 394.427" stroke="#2DAA95" stroke-width="1.15676" stroke-miterlimit="10" stroke-linecap="round" stroke-linejoin="round"/>
<path d="M169.448 388.151C169.422 387.521 169.401 386.849 169.703 386.292C170.006 385.734 170.745 385.365 171.287 385.682C171.365 385.729 171.443 385.792 171.537 385.797C171.709 385.807 171.823 385.625 171.927 385.479C172.188 385.094 172.62 384.823 173.089 384.766C173.396 384.719 173.724 384.766 174.026 384.661C174.474 384.516 174.896 384.042 175.328 384.229" stroke="#2DAA95" stroke-width="1.15676" stroke-miterlimit="10" stroke-linecap="round" stroke-linejoin="round"/>
<path d="M166.771 377.12C166.859 376.443 167.354 375.838 167.994 375.604C168.109 375.568 168.234 375.536 168.343 375.588C168.437 375.63 168.5 375.719 168.578 375.781C168.89 376.026 169.343 375.802 169.666 375.573C169.984 375.338 170.406 375.088 170.744 375.297C170.911 375.396 171.015 375.594 171.198 375.667C171.442 375.76 171.703 375.594 171.953 375.505C172.203 375.417 172.583 375.505 172.567 375.771" stroke="#2DAA95" stroke-width="1.15676" stroke-miterlimit="10" stroke-linecap="round" stroke-linejoin="round"/>
<path d="M167.141 367.448C167.469 366.958 167.969 366.583 168.531 366.411C168.687 366.359 168.88 366.328 169.01 366.427C169.187 366.557 169.177 366.828 169.302 367.005C169.526 367.302 170.005 367.167 170.307 366.943C170.604 366.724 170.917 366.422 171.286 366.479C171.677 366.536 171.885 366.964 172.031 367.339C172.479 366.76 173.542 366.891 173.839 367.557" stroke="#2DAA95" stroke-width="1.15676" stroke-miterlimit="10" stroke-linecap="round" stroke-linejoin="round"/>
<path d="M171.604 358.896C171.828 358.583 172.073 358.26 172.422 358.109C172.771 357.948 173.256 358.031 173.412 358.38C173.453 358.469 173.474 358.568 173.526 358.646C173.693 358.875 174.042 358.792 174.318 358.719C174.693 358.62 175.214 358.672 175.308 359.057C175.354 359.255 175.266 359.505 175.412 359.646C175.589 359.807 175.854 359.635 176.078 359.568C176.568 359.422 177.11 359.948 176.979 360.438" stroke="#2DAA95" stroke-width="1.15676" stroke-miterlimit="10" stroke-linecap="round" stroke-linejoin="round"/>
<path d="M180.958 351.802C181.224 351.865 181.51 351.797 181.791 351.786C182.067 351.771 182.385 351.833 182.531 352.068C182.744 352.411 182.468 352.838 182.208 353.146C182.271 353.333 182.541 353.219 182.718 353.135C182.979 353.021 183.312 353.078 183.521 353.281C183.729 353.474 183.802 353.807 183.698 354.073C183.661 354.156 183.614 354.234 183.609 354.323C183.599 354.406 183.63 354.49 183.661 354.568C183.885 355.167 184.109 355.766 184.328 356.37" stroke="#2DAA95" stroke-width="1.15676" stroke-miterlimit="10" stroke-linecap="round" stroke-linejoin="round"/>
<path d="M189.906 348.489C190.198 348.391 190.526 348.359 190.818 348.463C191.104 348.573 191.339 348.849 191.344 349.156C191.354 349.609 190.922 349.917 190.63 350.255C190.583 350.307 190.542 350.364 190.536 350.432C190.536 350.526 190.604 350.599 190.672 350.656C190.911 350.87 191.182 351.052 191.339 351.333C191.495 351.609 191.474 352.021 191.203 352.182C191.026 352.281 190.766 352.286 190.693 352.479C190.656 352.588 190.708 352.708 190.75 352.818C191.016 353.51 190.802 354.365 190.229 354.849" stroke="#2DAA95" stroke-width="1.15676" stroke-miterlimit="10" stroke-linecap="round" stroke-linejoin="round"/>
<path d="M198.979 359.5C198.755 359.125 199.146 358.599 199.583 358.589C199.698 358.583 199.823 358.604 199.932 358.568C200.219 358.469 200.25 358.083 200.208 357.792C200.167 357.495 200.135 357.13 200.38 356.964C200.766 356.693 201.464 357.198 201.708 356.792C201.766 356.703 201.771 356.594 201.818 356.5C202.01 356.135 202.656 356.307 202.891 355.969" stroke="#2DAA95" stroke-width="1.15676" stroke-miterlimit="10" stroke-linecap="round" stroke-linejoin="round"/>
<path d="M239.057 204.651C239.807 207.12 237.213 210.099 233.255 211.307C229.297 212.516 225.484 211.495 224.734 209.031C223.979 206.562 226.578 203.583 230.536 202.375C234.494 201.167 238.307 202.187 239.057 204.651Z" fill="#FFA29B"/>
<path d="M224.818 188.99C226.948 194.396 224.688 200.354 219.771 202.297C214.854 204.24 209.146 201.432 207.016 196.026C204.886 190.62 207.146 184.661 212.063 182.719C216.979 180.776 222.688 183.583 224.818 188.99Z" fill="white"/>
<path d="M219.23 191.198C220.662 194.828 219.146 198.828 215.839 200.135C212.542 201.443 208.704 199.557 207.276 195.922C205.844 192.292 207.365 188.292 210.662 186.984C213.969 185.682 217.802 187.568 219.23 191.198Z" fill="black"/>
<path d="M214.203 191.625C214.692 192.859 214.088 194.255 212.854 194.745C211.62 195.234 210.229 194.625 209.739 193.391C209.255 192.156 209.859 190.76 211.094 190.271C212.323 189.786 213.719 190.391 214.203 191.625Z" fill="white"/>
<path d="M221.234 174.99C220.625 176.13 218.906 176.781 217.453 176.729C215.057 176.641 212.343 176.687 210.448 178.354C208.869 179.74 206.213 180.703 205.041 178.083C204.146 176.083 205.823 173.578 207.406 172.469C210.234 170.49 214.843 170.12 218.13 170.917C219.744 171.307 222.281 173.021 221.234 174.99Z" fill="#40AD9B"/>
<mask id="mask1_2437_3902" style="mask-type:luminance" maskUnits="userSpaceOnUse" x="237" y="234" width="58" height="96">
<path d="M237.333 234.667H294.317V329.333H237.333V234.667Z" fill="white"/>
</mask>
<g mask="url(#mask1_2437_3902)">
<path d="M283.015 315.984C282.973 314.495 283.083 312.995 283.343 311.516C284.489 305.062 288.703 299.224 294.364 296.036C289.484 293.047 286.218 287.437 286.13 281.667C286.062 277.115 287.916 272.646 290.963 269.266C289.609 267.974 288.536 266.344 287.822 264.609C286.531 261.443 286.276 257.958 286.302 254.547C286.348 248.359 287.328 242.062 289.89 236.396C290.104 235.922 290.322 235.432 290.536 234.943C287.526 236.719 284.677 238.781 282.125 241.182C276.406 246.552 272.119 253.552 270.5 261.24C269.546 265.766 267.984 270.463 263.619 272.854C261.656 273.927 259.442 274.427 257.26 274.911C252.593 275.953 245.223 276.125 241.604 279.51C236.328 284.448 237.635 295.088 243.786 298.703C248.312 301.354 254.302 300.203 259.291 300.713C268.473 301.651 268.88 308.901 271.697 316C273.229 319.854 276.036 322.958 279.479 325.213C281.791 326.734 284.317 327.87 286.942 328.713C284.541 324.901 283.13 320.463 283.015 315.984Z" fill="#FFDB6E"/>
</g>
<path d="M253.281 291.437C263.573 289.651 274.333 291.042 284.016 295.406" stroke="#F9C758" stroke-width="2.31352" stroke-miterlimit="10" stroke-linecap="round" stroke-linejoin="round"/>
<path d="M252.188 284.646C263.703 284.516 275.604 279.922 282.786 270.114" stroke="#F9C758" stroke-width="2.31352" stroke-miterlimit="10" stroke-linecap="round" stroke-linejoin="round"/>
<path d="M211.307 338.141C213.172 333.661 216.36 329.661 220.36 326.917C224.844 323.844 230.203 322.391 235.62 322.563C237.292 322.615 237.292 320.01 235.62 319.958C229.698 319.771 223.698 321.401 218.828 324.818C214.323 327.979 210.912 332.375 208.802 337.448C208.531 338.099 209.094 338.88 209.708 339.047C210.458 339.255 211.037 338.792 211.307 338.141Z" fill="#83DDD2"/>
<path d="M198.698 322.297C203.646 314.859 211.474 309.604 220.417 308.51C223.37 308.151 226.386 308.214 229.323 308.703C230.011 308.818 230.719 308.521 230.922 307.792C231.094 307.167 230.708 306.307 230.011 306.193C219.677 304.464 209.146 307.568 201.531 314.813C199.583 316.661 197.938 318.755 196.453 320.984C195.521 322.385 197.771 323.688 198.698 322.297Z" fill="#83DDD2"/>
<path d="M189.865 295.536C198.125 290.656 208.162 289.031 217.573 290.823C220.282 291.339 222.922 292.13 225.474 293.177C226.12 293.443 226.901 292.885 227.073 292.266C227.276 291.521 226.818 290.932 226.167 290.661C216.782 286.818 205.969 286.49 196.36 289.719C193.646 290.635 191.021 291.828 188.552 293.281C187.11 294.135 188.417 296.391 189.865 295.536Z" fill="#83DDD2"/>
<path d="M195.542 268.099C200.672 266.479 206.01 266.245 211.307 267.115C216.13 267.901 221.088 269.484 224.979 272.547C225.536 272.979 226.276 273.078 226.818 272.547C227.271 272.094 227.37 271.135 226.818 270.703C222.547 267.349 217.318 265.469 212 264.604C206.234 263.656 200.443 263.823 194.849 265.583C193.26 266.083 193.937 268.604 195.542 268.099Z" fill="#83DDD2"/>
<path d="M208.75 246.307C212.807 245.74 217.026 245.677 220.968 246.927C224.5 248.047 227.5 250.297 229.776 253.198C230.213 253.755 231.156 253.646 231.614 253.198C232.166 252.656 232.046 251.901 231.614 251.354C229.062 248.109 225.593 245.661 221.661 244.417C217.255 243.021 212.583 243.161 208.057 243.797C207.359 243.891 206.979 244.781 207.145 245.396C207.354 246.146 208.046 246.401 208.75 246.307Z" fill="#83DDD2"/>
<path d="M223.557 350.031C226.609 342.542 233.807 337.547 241.843 337.151C243.515 337.068 243.521 334.464 241.843 334.547C237.224 334.776 232.666 336.266 228.932 339.042C225.369 341.682 222.718 345.234 221.052 349.339C220.786 349.99 221.338 350.771 221.958 350.943C222.703 351.146 223.291 350.682 223.557 350.031Z" fill="#83DDD2"/>
<path d="M231.948 362C235.943 358.474 241.344 357.552 246.505 357.552C248.177 357.557 248.182 354.948 246.505 354.948C240.609 354.943 234.646 356.156 230.115 360.156C228.854 361.266 230.698 363.104 231.948 362Z" fill="#83DDD2"/>
<path d="M233.015 376.833C236.286 375.5 239.797 375.448 243.224 376.135C243.911 376.276 244.63 375.937 244.823 375.229C245 374.583 244.609 373.766 243.916 373.625C240.057 372.849 236.015 372.818 232.323 374.318C231.677 374.583 231.213 375.187 231.416 375.922C231.583 376.536 232.359 377.099 233.015 376.833Z" fill="#83DDD2"/>
</svg>
