<svg width="450" height="600" viewBox="0 0 450 600" fill="none" xmlns="http://www.w3.org/2000/svg">
<path d="M346.88 324.917C344.219 325.219 326.411 328.193 307.672 329.292C275.963 331.141 268.375 333.734 268.463 333.656C263.859 335.74 259.469 339.865 257.916 345.682C257.39 346.479 255.651 366.286 259.708 383.99C259.281 404.323 263.318 420.307 261.495 422.297C259.359 437.036 241.052 439.974 231.427 429.109C231.219 428.432 222.807 410.271 213.87 392.01C204.015 374.573 197.536 357.417 196.307 354.927C193.989 348.823 189.026 348.729 181.609 348.62C179.307 349.057 165.312 355.948 146.984 363.333C127.64 370.068 112.666 378.833 112.364 378.047C98.2029 379.115 87.8332 364.302 96.5884 351.583C97.6092 350.635 108.114 340.531 124.422 324.849C135.015 311.5 151.64 297.807 152.021 297.724C156.224 292.339 154.87 288.823 153.703 282.208C153.489 282.292 141.5 268.365 131.047 252.422C119.052 237.234 108.661 224.063 108.39 222.641C101.51 210.339 115.13 194.177 128.713 199.469C129.088 200.089 144.844 209.828 162.547 218.625C180.203 225.427 195.698 237.438 196.375 237.786C202.276 240.38 206.729 238.115 211.979 234.25C212.276 234.708 221.552 216.885 233.521 202.547C242.578 188.24 255 170.714 255.073 170.839C266.948 160.99 281.557 170.667 283.396 182.995C283.396 184.891 278.323 201.854 274.911 220.479C272.458 240.214 267.094 255.693 266.432 257.969C265.166 265.229 270.015 268.375 274.614 271.703C273.755 272.073 292.469 278.974 312.146 282.969C331.213 288.682 348.541 293.859 349.693 294.234C362.536 299.229 359.916 320.255 346.88 324.917Z" fill="#FFD174"/>
<path d="M121.583 213.047C119.818 211.526 118.838 212.594 120.484 214.25C149.297 243.255 179.651 271.229 210.052 298.578C212.385 300.688 214.078 298.844 211.818 296.646C182.463 268.182 152.49 239.813 121.583 213.047Z" fill="#F4B651"/>
<path d="M105.745 357.734C105.084 358.406 107.162 360.213 107.922 359.719C124.631 349.005 140.188 337.203 158.178 328.49C172.261 321.661 187.698 317.229 200.459 308.073C200.527 308.031 200.37 307.896 200.318 307.911C167.037 319.891 131.214 331.891 105.745 357.734Z" fill="#F4B651"/>
<path d="M267.125 177.089C248.463 211.333 232.641 250.417 219.177 286.984C218.823 287.932 221.156 289.865 221.719 288.734C239.047 253.687 256.286 215.281 268.422 178.135C268.573 177.693 267.359 176.656 267.125 177.089Z" fill="#F4B651"/>
<path d="M211.677 307.26C219.625 345.156 227.151 383.099 234.682 421.078C234.761 421.464 235.807 422.151 235.724 421.547C230.38 383.927 223.485 346.344 215.578 309.151C215.266 307.677 211.25 305.234 211.677 307.26Z" fill="#F4B651"/>
<path d="M336.297 304.698C299 300.26 260.865 301.287 223.401 298.052C222.011 297.932 223.88 300.349 224.844 300.469C261.75 304.844 300.547 311.182 337.776 308.354C340.13 308.177 337.636 304.859 336.297 304.698Z" fill="#F4B651"/>
<path d="M186.708 292.672C186.609 292.615 186.568 292.536 186.464 292.479C182.583 290.417 180.891 292.687 181.083 295.281C180.646 296.635 180.969 298.318 182.849 300.167C185.495 302.76 187.896 301.964 189.052 300.073C190.182 299.5 190.875 298.344 190.297 296.333C189.661 294.151 188.25 293.073 186.708 292.672Z" fill="#FFEAC7"/>
<path d="M207.297 276.979C206.813 276.854 206.099 276.875 205.958 277.484C205.807 278.146 205.823 278.755 205.958 279.307C205.073 280.026 206.88 282.609 208.245 282.844C209.313 283.021 209.833 283.005 210.344 282.776C210.677 282.745 210.896 282.583 211.031 282.286C211.167 282.151 211.25 282.177 211.422 282C211.719 281.698 211.625 281.156 211.5 280.812C210.672 278.552 209.636 277.594 207.297 276.979Z" fill="#FFEAC7"/>
<path d="M197.036 260.797C196.432 260.464 194.979 260.172 194.776 261.167C194.734 261.38 194.75 261.542 194.719 261.75C194.443 261.901 194.255 262.177 194.234 262.651C194.099 265.104 194.911 266.62 196.542 268.406C197.156 269.078 199.422 271.135 200.469 269.906C200.568 269.786 200.542 269.677 200.625 269.562C200.734 269.562 200.76 269.604 200.88 269.604C201.411 269.604 201.781 269.245 201.713 268.693C201.667 268.344 201.547 268.057 201.479 267.729C202.161 264.885 199.755 262.312 197.036 260.797Z" fill="#FFEAC7"/>
<path d="M217.089 259.469C215.433 258.599 214.756 258.453 213.058 259.214C212.193 259.599 212.344 260.401 212.605 261.141C211.719 262.312 214.469 264.927 215.198 265.297C217.344 266.401 219.594 266.484 220.026 263.667C220.323 261.807 218.547 260.234 217.089 259.469Z" fill="#FFEAC7"/>
<path d="M223.302 242.104C223.369 242.547 223.442 242.99 223.51 243.432C223.625 244.229 224.463 244.937 225.25 245.021L226.651 245.167C230.546 245.557 222.682 238.13 223.302 242.104Z" fill="#FFEAC7"/>
<path d="M187.26 249.964C186.734 249.516 184.844 248.156 184.172 249.146C183.052 250.813 183.177 251.042 183.693 252.995C183.922 253.844 184.734 254.625 185.646 255.208C185.729 255.292 185.823 255.385 185.906 255.469C186.39 255.953 188.005 257.016 188.651 256.214C188.776 256.047 188.781 255.906 188.885 255.755C188.953 255.672 189.01 255.594 189.026 255.479C190.198 253.38 189.151 251.604 187.26 249.964Z" fill="#FFEAC7"/>
<path d="M200.375 249.089C198.677 250.859 203.557 255.401 205.297 253.589C207.005 251.812 202.114 247.271 200.375 249.089Z" fill="#FFEAC7"/>
<path d="M163.308 301.906C158.62 303.729 162.177 307.911 165.058 309.51C165.365 309.677 165.927 309.76 166.422 309.687C167.084 309.917 167.735 309.911 167.985 309.182C168.808 306.776 168.084 305.354 166.552 303.495C165.901 302.719 164.438 301.474 163.308 301.906Z" fill="#FFEAC7"/>
<path d="M167.463 291.24C167.416 291.516 167.364 291.792 167.312 292.068C166.786 294.87 172.578 295.958 170.219 292.823C169.943 292.464 169.666 292.094 169.39 291.734C169.156 291.427 167.651 290.307 167.463 291.24Z" fill="#FFEAC7"/>
<path d="M165.953 275.568C165.849 275.833 165.75 276.104 165.651 276.37C165.485 276.797 165.792 277.292 166.11 277.75C166.094 277.833 166.078 277.917 166.068 278C165.485 279.448 168.979 282.302 169.849 280.568C170.724 278.854 170.422 278.531 169.474 276.88C169.032 276.104 166.563 273.922 165.953 275.568Z" fill="#FFEAC7"/>
<path d="M154.552 262.453C154.276 262.427 153.796 262.594 153.781 262.948C153.645 265.729 154.729 266.578 156.885 268.276C157.63 268.859 159.75 269.594 159.604 267.906C159.583 267.578 159.557 267.26 159.52 266.937C159.479 266.411 158.994 265.797 158.39 265.203C158.343 265.094 158.302 264.963 158.25 264.88C157.26 263.354 156.375 262.63 154.552 262.453Z" fill="#FFEAC7"/>
<path d="M146.198 251.219C145.053 252.464 148.157 254.693 149.188 254.74C149.297 254.75 149.412 254.76 149.532 254.766C149.87 254.781 150.006 254.568 150 254.255C149.99 254.13 149.99 253.995 149.98 253.87C149.948 252.776 147.276 250.031 146.198 251.219Z" fill="#FFEAC7"/>
<path d="M170.38 241.578C169.724 240.865 169.005 240.557 168.302 240.589C168.27 240.589 168.229 240.547 168.187 240.557C168.062 240.578 168.083 240.641 167.994 240.667C167.781 240.74 167.541 240.63 167.349 240.833C167.442 240.875 167.489 240.891 167.573 240.922C167.291 241.193 167.239 241.542 167.307 242.245C167.463 243.974 172.395 246.193 172.187 244.698C172.104 244.135 171.489 243.031 170.739 242.068C170.88 242.047 170.828 241.912 170.38 241.578Z" fill="#FFEAC7"/>
<path d="M154.64 224.615C153.286 223.552 151.328 224.005 152.578 225.911C152.916 226.427 153.26 226.953 153.598 227.474C154.473 228.802 156.177 230.375 157.916 230.099C158.333 230.031 158.76 229.969 159.177 229.891C160.562 229.672 158.401 227.391 158.083 227.167C156.895 226.359 155.75 225.516 154.64 224.615Z" fill="#FFEAC7"/>
<path d="M229.745 228.552C229.536 228.589 228.505 228.677 228.609 229.047C228.463 229.057 228.312 229.005 228.198 229.115C228.073 229.224 227.948 229.333 227.823 229.437C227.484 229.74 227.786 230.359 227.953 230.646C228.015 230.745 228.062 230.844 228.12 230.937C228.104 230.927 228.078 230.927 228.062 230.922C227.37 231.792 229.614 233.854 230.406 233.052C230.651 232.802 230.547 232.583 230.692 232.344C230.781 232.307 230.911 232.443 231 232.365C231.25 232.151 231.51 231.943 231.765 231.729C232.166 231.396 231.786 230.661 231.614 230.333C231.437 230.01 231.26 229.672 231.083 229.349C230.849 228.911 230.255 228.453 229.745 228.552Z" fill="#FFEAC7"/>
<path d="M236.938 216.719C236.542 216.854 236.151 216.979 235.755 217.109C233.604 217.823 238.5 222.479 239.136 220.198C239.245 219.813 239.354 219.422 239.474 219.026C239.766 217.964 237.948 216.385 236.938 216.719Z" fill="#FFEAC7"/>
<path d="M237.463 285.036C236.896 285.437 236.599 286.172 236.667 287.234C236.661 287.354 236.609 287.427 236.599 287.562C236.583 288.38 237.271 289.385 238.156 290.104C240.625 292.323 245.146 292.755 244.333 288.391C243.693 284.937 239.312 282.854 237.463 285.036Z" fill="#FFEAC7"/>
<path d="M252.646 290.943C252.864 291.182 253.083 291.427 253.297 291.667C253.943 292.396 256.344 294.479 257.427 293.109C257.536 292.958 257.651 292.812 257.771 292.661C258.557 291.651 257.13 290.297 256.437 289.76C256.364 289.687 256.286 289.609 256.213 289.536C254.146 287.219 249.807 287.76 252.646 290.943Z" fill="#FFEAC7"/>
<path d="M247.959 270.448C246.276 269.443 243.823 269.911 245.266 272.281L245.531 272.714C246.099 273.651 249.156 276.37 249.891 274.255C250.37 272.875 249.323 271.26 248.151 270.568C248.094 270.526 248.026 270.49 247.959 270.448Z" fill="#FFEAC7"/>
<path d="M250.511 254.271L250.386 254.391C250.23 254.437 250.042 254.396 249.928 254.573C249.709 254.875 249.49 255.177 249.282 255.479C247.24 258.365 254.428 261.526 254.105 258.74C254.011 257.995 253.928 257.26 253.834 256.516C253.709 255.458 251.652 253.146 250.511 254.271Z" fill="#FFEAC7"/>
<path d="M255.088 235.495C255.208 236.021 255.333 236.557 255.448 237.094C255.635 237.927 257.239 240.078 258.343 239.401C258.656 239.208 258.963 239.026 259.281 238.833C262.583 236.818 254.463 232.641 255.088 235.495Z" fill="#FFEAC7"/>
<path d="M261.307 224.271C260.505 225.115 262.906 227.349 263.734 226.49C264.542 225.641 262.135 223.411 261.307 224.271Z" fill="#FFEAC7"/>
<path d="M268.021 282.26C266.032 282.51 265.907 282.318 264.881 284.088C263.771 286.021 266.74 289.016 268.735 288.901C269.204 289.177 269.537 289.484 270.131 289.76C270.917 290.13 272.313 290.37 272.651 289.276C273.381 286.885 272.818 286.198 271.355 284.172C270.74 283.323 269.204 282.115 268.021 282.26Z" fill="#FFEAC7"/>
<path d="M287.198 287.338C287.052 287.354 286.912 287.38 286.761 287.396C285.907 287.51 285.693 288.141 285.901 288.906L286.052 289.469C286.11 289.672 286.302 289.979 286.568 290.307C286.776 290.562 286.964 290.734 287.24 290.943C287.563 291.224 287.886 291.411 288.224 291.562C288.36 291.609 288.485 291.76 288.61 291.792C288.776 291.854 288.953 291.901 289.12 291.963C290.261 292.312 290.828 291.375 290.568 290.38C290.526 290.213 290.485 290.052 290.443 289.885C290.141 288.76 288.479 287.161 287.198 287.338Z" fill="#FFEAC7"/>
<path d="M282.62 281.021C282.182 280.839 281.75 280.651 281.312 280.469C275.682 278.083 283.406 288.255 283.682 283.365C283.708 283.036 283.724 282.708 283.74 282.391C283.776 281.833 283.062 281.203 282.62 281.021Z" fill="#FFEAC7"/>
<path d="M305.058 287.63C301.537 285.63 300.62 288.859 302.964 291.292C304.229 292.604 305.151 293.198 306.849 293.859C308.573 294.537 309.302 294.037 309.417 293.13C309.537 293.089 309.604 293.151 309.729 293.089C310.115 292.922 310.037 292.422 309.87 292.12C308.479 289.729 307.542 289.042 305.058 287.63Z" fill="#FFEAC7"/>
<path d="M311.084 313.516C308.349 312.854 308.287 312.573 306.157 314.12C305.594 314.521 306.776 315.365 307.073 315.464C310.104 316.417 309.589 316.693 312.115 315.365C313.042 314.88 311.61 313.641 311.084 313.516Z" fill="#FFEAC7"/>
<path d="M244.416 410.818C244.109 411.182 243.906 411.417 243.765 411.604C243.213 411.193 242.343 410.901 242.286 411.75C242.276 411.88 242.302 411.901 242.302 412.01C241.916 412.036 241.541 411.922 241.172 412.255C240.859 412.521 241.088 413.042 241.218 413.323C241.338 413.578 241.453 413.828 241.573 414.078C241.88 414.729 243.39 415.932 244.276 415.635C244.812 415.911 245.395 416.01 245.573 415.406C246.224 413.141 246.182 413.661 245.338 411.328C245.255 411.083 244.692 410.479 244.416 410.818Z" fill="#FFEAC7"/>
<path d="M240.735 391.208C239.23 392.458 239.537 392.099 238.87 393.937C238.584 394.729 239.37 395.854 240.318 396.531C240.386 396.906 240.292 397.151 240.412 397.599C240.678 398.677 243.282 400.969 244.084 399.266C245.131 397.031 245.089 395.594 244.37 393.266C244.011 392.115 241.974 390.182 240.735 391.208Z" fill="#FFEAC7"/>
<path d="M241.948 380.99C241.906 380.865 241.89 380.766 241.823 380.646C241.583 380.021 240.771 378.781 239.771 378.365C239.062 378.068 238.13 377.901 237.781 378.755C237.687 378.964 237.604 379.172 237.515 379.385C236.812 381.047 239.875 383.24 241.307 382.844C241.396 382.823 241.479 382.797 241.562 382.781C241.792 382.687 241.932 382.526 242 382.292C242.031 382.135 242.073 381.974 242.109 381.818C242.156 381.573 242.052 381.307 241.958 381.031C241.963 381.021 241.948 380.995 241.948 380.99Z" fill="#FFEAC7"/>
<path d="M237.271 364.146C237.214 364.38 237.412 364.656 237.48 364.922C236.683 365.375 237.823 367.396 238.761 367.714C238.995 367.797 239.157 367.781 239.365 367.859C239.797 368.469 240.318 369.062 240.985 369.63C241.792 370.323 243.714 371.49 244.391 370.005C246.881 364.552 238.625 358.734 237.271 364.146Z" fill="#FFEAC7"/>
<path d="M220.073 390.391C219.729 390.432 219.494 390.615 219.812 391.12C220.005 391.417 220.198 391.729 220.39 392.031C220.479 392.307 220.562 392.573 220.646 392.849C220.838 393.443 222.297 394.615 222.838 394.135C223.687 394.37 224.328 394.146 223.687 392.818C223.427 392.287 223.177 391.76 222.916 391.245C222.489 390.365 220.198 389.245 220.073 390.391Z" fill="#FFEAC7"/>
<path d="M217.068 372.693C216.521 372.349 214.287 371.573 214.615 373.151C215.193 375.859 216.047 377.635 217.86 379.802C218.271 380.286 221.37 382.63 221.594 380.729C221.854 378.505 221.563 377.24 220.089 375.604C219.412 374.5 218.438 373.578 217.068 372.693Z" fill="#FFEAC7"/>
<path d="M209.021 366.094C209.036 366.662 209.057 367.224 209.073 367.792C209.089 368.443 210.911 369.729 210.979 368.88C211.021 368.349 211.063 367.823 211.104 367.297C211.182 366.266 208.99 364.912 209.021 366.094Z" fill="#FFEAC7"/>
<path d="M215.047 360.573C214.854 360.562 214.661 360.557 214.463 360.547C214.219 360.536 213.802 360.713 213.766 361.016C213.75 361.219 213.734 361.417 213.719 361.625C213.625 362.687 214.521 363.542 215.391 364C215.568 364.094 215.745 364.177 215.917 364.271C216.713 364.677 217.016 364.437 217.115 364.026C217.594 364.036 217.943 363.849 217.687 363.083C217.62 362.891 217.557 362.703 217.495 362.51C217.167 361.557 216.078 360.615 215.047 360.573Z" fill="#FFEAC7"/>
<path d="M202.51 345.557C201.598 347.448 201.692 346.995 202.098 349.057C202.161 349.313 202.437 349.516 202.552 349.776C202.234 349.797 202.041 350 202.166 350.563C202.651 352.76 204.88 355.51 207.489 354.594C211.932 353.037 207.588 347.74 205.697 346.026C204.968 345.365 203.156 344.219 202.51 345.557Z" fill="#FFEAC7"/>
<path d="M200.693 335.172C199.448 334.135 197.515 334.552 199.036 336.24C199.161 336.385 199.286 336.526 199.411 336.661C201.062 338.49 203.328 337.354 201.146 335.547C200.995 335.422 200.844 335.297 200.693 335.172Z" fill="#FFEAC7"/>
<path d="M189.698 328.745C188.323 328.891 186.953 329.021 185.588 329.167C182.943 329.318 186.213 332.776 187.099 333.203C189.026 334.135 189.312 334.328 191.411 334.042C191.864 333.984 192.208 333.901 192.359 333.422C192.458 333.104 192.557 332.786 192.661 332.469C192.693 332.458 192.719 332.453 192.75 332.443C194.557 331.984 191.219 328.51 189.698 328.745Z" fill="#FFEAC7"/>
<path d="M202.266 325.167C202.276 325.266 202.287 325.375 202.292 325.474C202.459 327.568 207.573 330.385 207.188 327.802C207.172 327.693 207.162 327.583 207.146 327.474C206.881 325.677 202.032 322.312 202.266 325.167Z" fill="#FFEAC7"/>
<path d="M210.531 337.563C210.521 337.563 210.521 337.563 210.521 337.563C210.01 337.37 209.224 337.063 208.771 337.573C207.958 338.49 207.911 338.667 207.953 339.865C208.01 341.438 209.875 342.849 211.208 343.266C213 343.828 214.354 343.51 214.786 341.563C215.198 339.76 212.021 337.359 210.531 337.563Z" fill="#FFEAC7"/>
<path d="M195.599 317.177C194.239 318.583 198.281 322.338 199.672 320.901C201.021 319.495 196.979 315.734 195.599 317.177Z" fill="#FFEAC7"/>
<path d="M113.713 362.812C113.067 362.865 112.432 362.917 111.796 362.974C110.598 362.781 112.25 364.823 112.791 364.99C113.161 365.099 113.531 365.208 113.901 365.312C114.046 365.365 114.442 365.417 114.557 365.224C114.744 364.911 114.937 364.604 115.13 364.292C115.505 363.667 114.317 362.63 113.713 362.812Z" fill="#FFEAC7"/>
<path d="M126.921 355.042C126.604 355.042 126.546 355.063 126.343 355.052C125.765 354.583 125.13 354.224 124.63 354.516C124.385 354.651 124.151 354.786 123.911 354.917C123.583 355.109 123.484 355.302 123.5 355.688C123.515 355.938 123.526 356.188 123.531 356.443C123.573 357.417 125.046 358.958 126.25 359.052C126.468 359.125 126.614 359.068 126.807 359.057C126.807 359.057 126.812 359.068 126.823 359.057C126.823 359.057 126.828 359.057 126.838 359.052C127.057 359.042 127.317 359.109 127.448 358.932C127.51 358.859 127.557 358.792 127.609 358.724C127.744 358.667 127.869 358.615 127.994 358.557C128.354 358.406 128.453 358.099 128.427 357.729L128.354 356.354C128.312 355.755 127.51 355.052 126.921 355.042Z" fill="#FFEAC7"/>
<path d="M133.469 346.521C132.063 347.984 136.219 351.859 137.667 350.349C139.073 348.885 134.917 345.016 133.469 346.521Z" fill="#FFEAC7"/>
<path d="M145.271 347.333C144.078 346.339 142.531 345.802 142.162 346.974C142.104 347.156 142.047 347.333 141.99 347.516C141.547 348.912 143.578 350.583 144.735 350.844C144.912 350.885 145.078 350.922 145.245 350.964C145.828 351.089 146.323 351.031 146.584 350.443C146.656 350.276 146.735 350.099 146.808 349.932C147.146 349.203 146.271 348.052 145.271 347.333Z" fill="#FFEAC7"/>
<path d="M148.265 339.354C147.635 339.495 147.01 339.635 146.375 339.786C144.104 340.312 149.187 345.13 149.604 342.729C149.713 342.115 149.828 341.495 149.937 340.875C150.072 340.104 149 339.177 148.265 339.354Z" fill="#FFEAC7"/>
<path d="M159.271 340.714C159.271 340.708 159.266 340.708 159.266 340.698C159.135 340.573 158.995 340.547 158.87 340.438C158.802 340.406 158.755 340.349 158.677 340.313L158.667 340.307C158.25 339.995 157.833 339.88 157.396 339.906C157.365 339.911 157.26 339.854 157.255 339.88C157.213 339.953 157.172 339.927 157.13 339.99C156.896 340.057 156.651 339.979 156.432 340.203C156.557 340.255 156.635 340.271 156.76 340.323C156.458 340.474 156.208 340.609 156.292 341.578C156.427 343.057 160.844 345.469 160.797 343.625C160.776 343.026 160.266 342.031 159.604 341.182C159.75 341.151 159.698 341.026 159.271 340.714Z" fill="#FFEAC7"/>
<path d="M163.782 332.693C162.662 333.865 165.782 336.766 166.938 335.562C168.063 334.391 164.938 331.49 163.782 332.693Z" fill="#FFEAC7"/>
<path d="M174.453 334.88C174.078 335.323 173.703 335.755 173.323 336.198C171.984 337.766 175.688 341.151 177.099 339.646L178.281 338.38C178.766 337.87 178.453 337.193 177.922 336.662C177.391 335.302 175.359 333.833 174.453 334.88Z" fill="#FFEAC7"/>
<path d="M113.864 343.625C113.922 343.417 113.562 343.109 113.364 343.167C112.76 343.349 112.156 343.536 111.557 343.708C111.078 343.854 111.286 344.344 111.646 344.812C111.661 345.057 111.937 345.349 112.13 345.333C112.14 345.333 112.14 345.323 112.14 345.323C112.677 345.745 113.286 345.984 113.432 345.417L113.489 345.167C113.495 345.167 113.505 345.156 113.515 345.156C113.833 345.125 113.791 344.849 113.63 344.573C113.713 344.26 113.791 343.943 113.864 343.625Z" fill="#FFEAC7"/>
<path d="M122.537 335.172L121.948 335.068C117.933 334.375 125.105 341.094 124.152 337.078C124.11 336.896 124.058 336.708 124.016 336.526C123.886 335.948 123.105 335.271 122.537 335.172Z" fill="#FFEAC7"/>
<path d="M133.323 327.927C132.974 327.635 132.437 327.349 131.911 327.234C130.963 326.667 130.036 326.464 129.87 327.375C129.833 327.536 129.802 327.703 129.776 327.859C129.552 329.057 130.64 330.146 131.5 330.781C131.635 330.88 131.771 330.979 131.901 331.078C132.531 331.547 133.594 331.948 134.271 331.38C134.396 331.271 134.521 331.161 134.656 331.057C135.5 330.328 134.156 328.615 133.651 328.203C133.541 328.109 133.432 328.021 133.323 327.927Z" fill="#FFEAC7"/>
<path d="M144.229 321.401C143.375 321.521 142.526 321.646 141.672 321.771C138.203 322.281 143.802 327.984 145.026 325.88C145.422 325.198 145.823 324.516 146.213 323.839C146.776 322.865 145.234 321.25 144.229 321.401Z" fill="#FFEAC7"/>
<path d="M149.645 315.74C148.833 315.38 148.375 315.229 147.88 315.073C147.395 314.651 146.911 314.302 146.557 314.161C146.401 314.099 146.25 314.042 146.098 313.984C144.265 313.266 143.718 314.026 143.88 315.099C143.802 315.271 143.718 315.458 143.645 315.63C142.791 317.578 146.572 320.542 148.317 319.896C149.187 319.766 150.062 319.63 150.937 319.49C153.369 319.641 150.468 316.109 149.645 315.74Z" fill="#FFEAC7"/>
<path d="M155.964 316.328C154.527 317.823 158.61 321.62 160.073 320.083C161.516 318.583 157.438 314.797 155.964 316.328Z" fill="#FFEAC7"/>
<path d="M227.886 315.281C227.016 314.552 225.204 313.391 224.438 314.844C223.802 316.068 223.855 316 224.12 317.354C224.355 318.536 225.964 320.594 227.485 320.766C227.594 320.807 227.704 320.932 227.802 320.958C228.047 321.036 228.292 321.109 228.542 321.188C228.912 321.297 229.646 321.313 229.922 320.943C231.605 318.677 229.657 316.76 227.886 315.281Z" fill="#FFEAC7"/>
<path d="M229.302 334.083C229.479 334.292 229.656 334.5 229.838 334.708C230.187 335.13 230.724 335.516 231.302 335.396C231.484 335.354 231.672 335.313 231.854 335.271C235.536 334.474 225.312 329.417 229.302 334.083Z" fill="#FFEAC7"/>
<path d="M235.495 327.745C235.662 328.01 235.834 328.286 235.99 328.552C236.24 328.948 237.214 329.984 237.813 329.594L238.261 329.307C241.131 327.458 233.386 324.328 235.495 327.745Z" fill="#FFEAC7"/>
<path d="M239.964 313.339C239.204 313.083 238.443 312.823 237.688 312.562C234.308 311.406 237.146 316.839 239.355 317.516L240.646 317.917C240.818 317.974 240.886 317.906 241.021 317.906C241.198 317.948 241.37 317.99 241.547 318.031C245.141 318.87 241.766 313.958 239.964 313.339Z" fill="#FFEAC7"/>
<path d="M250.192 318.219C250.119 318.24 250.052 318.266 249.974 318.281C249.036 318.349 248.52 319.063 249.609 320.635L249.833 320.953C250.302 321.62 251.557 322.583 252.468 322.422C252.635 322.396 252.807 322.375 252.974 322.339C255.64 321.896 252.359 317.537 250.192 318.219Z" fill="#FFEAC7"/>
<path d="M263.61 313.406C263.36 313.401 263.11 313.401 262.86 313.401C262.23 313.391 261.625 313.974 261.73 314.635C262.089 316.927 262.657 317.833 264.657 319.094C265.183 319.422 266.256 319.948 266.886 319.536C269.209 318.047 268.927 316.052 267.183 314.094C266.037 312.807 264.23 312.661 263.61 313.406Z" fill="#FFEAC7"/>
<path d="M246.563 309.089C246.495 309.234 246.427 309.375 246.36 309.516C246.141 309.984 246.828 310.698 247.156 310.891C247.391 311.031 247.625 311.172 247.86 311.318C252.052 313.844 247.932 306.188 246.563 309.089Z" fill="#FFEAC7"/>
<path d="M239.286 342.172L238.453 343.344C238.427 343.375 238.453 343.417 238.432 343.443C237.906 343.922 237.75 344.188 237.563 345.125C237.271 346.661 238.474 347.891 239.891 348.63C240.307 349.12 240.813 349.667 241.438 349.641C241.849 349.615 242.26 349.599 242.667 349.583C243.094 349.563 243.458 349.365 243.714 349.073C244.026 348.828 244.245 348.484 244.245 348.068C244.25 345.625 244 345.13 242.552 343.167C242.068 342.516 240.083 341.057 239.286 342.172Z" fill="#FFEAC7"/>
<path d="M234.084 348.938C233.906 348.865 233.74 348.797 233.573 348.719C232.995 348.469 231.88 348.234 231.422 348.87C231.318 349.016 231.219 349.156 231.12 349.286C230.474 350.182 230.959 351.391 231.589 352.167C231.698 352.302 231.808 352.432 231.912 352.568C233.427 354.417 235.245 354.292 236 353.37C236.005 353.365 236.021 353.37 236.031 353.365C236.13 353.271 236.224 353.177 236.323 353.089C237.75 351.75 235.151 349.396 234.084 348.938Z" fill="#FFEAC7"/>
<path d="M232.869 372.297C231.51 373.714 235.041 376.984 236.427 375.542C237.781 374.13 234.25 370.859 232.869 372.297Z" fill="#FFEAC7"/>
<path d="M284.109 312.672C283.432 312.578 282.75 312.479 282.073 312.385C281.13 312.255 280.927 312.729 281.01 313.323C281.005 313.375 281.01 313.417 281.01 313.474C281.026 313.557 281.026 313.625 281.062 313.708C281.135 314.88 282.307 316.417 283.776 316.287C283.781 316.333 283.797 316.391 283.817 316.443C284.385 316.401 284.963 316.37 285.541 316.328C287.916 316.177 285.448 312.854 284.109 312.672Z" fill="#FFEAC7"/>
<path d="M321.557 294.797C320.87 294.339 319.385 293.854 318.734 294.682C318.489 294.979 318.25 295.292 318.005 295.599C317.276 296.526 318.515 297.625 319.26 298.01C319.807 298.292 320.359 298.578 320.911 298.859C321.765 299.297 322.927 299.12 323.338 298.203C323.463 297.906 323.599 297.615 323.729 297.323C324 296.714 323.302 295.969 322.87 295.677C322.427 295.38 321.989 295.089 321.557 294.797Z" fill="#FFEAC7"/>
<path d="M254.896 271.672C251.916 274.37 255.968 277.469 259 277.448C259.234 277.51 259.406 277.5 259.619 277.474C259.744 277.458 259.885 277.526 260.005 277.49C260.187 277.443 260.135 277.266 260.229 277.156C260.312 277.073 260.453 277.125 260.521 277C260.578 276.896 260.515 276.771 260.557 276.661C260.557 276.661 260.562 276.656 260.562 276.646C261.791 273.552 257.828 269 254.896 271.672Z" fill="#FFEAC7"/>
<path d="M138.974 242.797C138.875 242.797 138.776 242.797 138.682 242.797C136.146 242.813 139 246.62 140.406 246.828C140.505 246.844 140.615 246.865 140.724 246.87C143.755 247.313 141.287 242.786 138.974 242.797Z" fill="#FFEAC7"/>
<path d="M177.386 279.49C176.313 280.604 178.922 283.01 180.005 281.88C181.073 280.771 178.474 278.354 177.386 279.49Z" fill="#FFEAC7"/>
<path d="M177.343 250.995C176.984 250.927 176.614 250.859 176.255 250.792C174.323 250.432 174.494 251.656 175.198 252.891C175.218 252.969 175.291 253.042 175.307 253.12C175.265 253.135 175.192 253.042 175.156 253.083C174.916 253.344 175.291 253.719 175.687 253.896C176.489 255.328 178.203 256.807 179.51 256.255C179.651 256.198 179.786 256.146 179.921 256.089C180.39 255.885 180.604 255.412 180.573 254.927C180.562 254.74 180.557 254.557 180.541 254.375C180.458 252.885 178.765 251.26 177.343 250.995Z" fill="#FFEAC7"/>
<path d="M177.912 240.396C177.177 241.167 177.813 242.469 178.818 243.427C178.698 243.349 178.573 243.276 178.495 243.349C178.313 243.552 178.823 244.026 179.016 243.828C179.094 243.745 179.006 243.625 178.922 243.516C179.954 244.437 181.318 244.974 182.073 244.193C183.563 242.641 179.433 238.807 177.912 240.396Z" fill="#FFEAC7"/>
<path d="M141.334 218.031C140.558 217.547 139.677 217.714 140.224 218.76C140.229 218.776 140.24 218.781 140.245 218.802C140.146 218.833 140.047 218.859 139.948 218.885C138.448 219.312 141.031 221.714 141.714 221.828C142.24 221.927 142.776 222.031 143.313 222.13C145.74 222.573 143.948 219.661 142.969 219.052C142.422 218.708 141.88 218.375 141.334 218.031Z" fill="#FFEAC7"/>
<path d="M126.078 206.474C125.974 206.464 125.87 206.453 125.761 206.448C123.573 206.26 126.506 210.328 128.193 210.438C128.297 210.438 128.401 210.443 128.511 210.453C130.771 210.594 127.657 206.604 126.078 206.474Z" fill="#FFEAC7"/>
<path d="M128.703 231.672C128.979 232.281 129.265 232.901 129.552 233.516C129.557 233.536 129.552 233.547 129.557 233.563C129.651 233.745 129.745 233.932 129.844 234.115C130.88 236.141 135.552 237.167 133.62 234.208C133.198 233.573 132.781 232.927 132.354 232.281C131.719 231.297 127.5 229.047 128.703 231.672Z" fill="#FFEAC7"/>
<mask id="mask0_2437_4101" style="mask-type:luminance" maskUnits="userSpaceOnUse" x="234" y="302" width="125" height="134">
<path d="M234.786 302.667H358.099V435.651H234.786V302.667Z" fill="white"/>
</mask>
<g mask="url(#mask0_2437_4101)">
<mask id="mask1_2437_4101" style="mask-type:luminance" maskUnits="userSpaceOnUse" x="93" y="166" width="266" height="270">
<path d="M346.88 324.917C344.219 325.219 326.427 328.547 307.672 329.292C291.573 329.927 269.234 333.229 268.463 333.656C263.859 335.74 259.469 339.865 257.916 345.682C257.39 346.479 255.651 366.286 259.708 383.99C259.281 404.323 263.318 420.307 261.495 422.297C259.359 437.036 241.052 439.974 231.427 429.109C231.219 428.432 222.807 410.271 213.87 392.01C204.015 374.573 197.536 357.417 196.307 354.927C193.989 348.823 189.026 348.729 181.609 348.62C179.307 349.057 165.312 355.948 146.984 363.333C127.64 370.068 112.666 378.833 112.364 378.047C98.2029 379.115 87.8332 364.302 96.5884 351.583C97.6092 350.635 108.114 340.531 124.422 324.849C135.015 311.5 151.64 297.807 152.021 297.724C156.224 292.339 154.87 288.823 153.703 282.208C153.489 282.292 141.5 268.365 131.047 252.422C119.052 237.234 108.661 224.063 108.39 222.641C101.51 210.339 115.13 194.177 128.713 199.469C129.088 200.089 144.844 209.828 162.547 218.625C180.203 225.427 195.698 237.438 196.375 237.786C202.276 240.38 206.729 238.115 211.979 234.25C212.276 234.708 221.552 216.885 233.521 202.547C242.578 188.24 255 170.714 255.073 170.839C266.948 160.99 281.557 170.667 283.396 182.995C283.396 184.891 278.323 201.854 274.911 220.479C272.458 240.214 267.094 255.693 266.432 257.969C265.166 265.229 270.015 268.375 274.614 271.703C273.755 272.073 292.469 278.974 312.146 282.969C331.213 288.682 348.541 293.859 349.693 294.234C362.536 299.229 359.916 320.255 346.88 324.917Z" fill="white"/>
</mask>
<g mask="url(#mask1_2437_4101)">
<path d="M365.974 303.854C346.922 316.583 329.224 318.276 306.313 319.781C293.083 320.651 268.406 318.833 257.13 328.255C237.151 344.938 267.031 432.411 236.969 432.865C233.552 432.911 238.344 437.797 239.672 438.172C274.953 448.063 259.193 385.313 260.38 369.823C264.396 317.286 307.057 335.766 342.354 329.25C357.807 326.396 367.531 323.302 369.245 306.844C369.37 305.672 367.38 302.917 365.974 303.854Z" fill="#F4B349"/>
</g>
</g>
<mask id="mask2_2437_4101" style="mask-type:luminance" maskUnits="userSpaceOnUse" x="260" y="166" width="78" height="109">
<path d="M260.495 166.776H337.636V274.667H260.495V166.776Z" fill="white"/>
</mask>
<g mask="url(#mask2_2437_4101)">
<mask id="mask3_2437_4101" style="mask-type:luminance" maskUnits="userSpaceOnUse" x="93" y="166" width="266" height="270">
<path d="M346.881 324.917C344.22 325.219 326.428 328.547 307.673 329.292C291.574 329.927 269.235 333.229 268.464 333.656C263.86 335.739 259.47 339.864 257.917 345.682C257.391 346.479 255.652 366.286 259.709 383.989C259.282 404.323 263.319 420.307 261.496 422.297C259.36 437.036 241.053 439.974 231.428 429.109C231.22 428.432 222.808 410.271 213.871 392.01C204.016 374.573 197.537 357.417 196.308 354.927C193.99 348.823 189.027 348.729 181.61 348.62C179.308 349.057 165.313 355.948 146.985 363.333C127.641 370.068 112.667 378.833 112.365 378.047C98.2039 379.114 87.8341 364.302 96.5893 351.583C97.6102 350.635 108.115 340.531 124.423 324.849C135.016 311.5 151.641 297.807 152.022 297.724C156.225 292.338 154.871 288.823 153.704 282.208C153.49 282.292 141.501 268.364 131.048 252.422C119.053 237.234 108.662 224.062 108.391 222.641C101.511 210.338 115.131 194.177 128.714 199.469C129.089 200.088 144.845 209.828 162.548 218.625C180.204 225.427 195.699 237.437 196.376 237.786C202.277 240.38 206.73 238.114 211.98 234.25C212.277 234.708 221.553 216.885 233.522 202.547C242.579 188.239 255.001 170.713 255.074 170.838C266.949 160.989 281.558 170.667 283.397 182.995C283.397 184.891 278.324 201.854 274.912 220.479C272.459 240.213 267.095 255.693 266.433 257.969C265.167 265.229 270.016 268.375 274.615 271.703C273.756 272.073 292.47 278.974 312.147 282.969C331.214 288.682 348.542 293.859 349.694 294.234C362.537 299.229 359.917 320.255 346.881 324.917Z" fill="white"/>
</mask>
<g mask="url(#mask3_2437_4101)">
<path d="M286.855 193.281C286.798 178.786 278.902 162.208 262.449 162.661C259.152 162.755 263.928 167.547 265.225 167.896C296.553 176.51 250.824 242.026 265.012 264.76C277.189 284.276 317.381 268.083 336.741 264.25C338.965 263.807 335.241 260.547 334.512 260.318C314.678 254.13 270.215 277.24 271.756 248.594C272.777 229.724 286.928 213.073 286.855 193.281Z" fill="#F4B349"/>
</g>
</g>
<mask id="mask4_2437_4101" style="mask-type:luminance" maskUnits="userSpaceOnUse" x="93" y="344" width="118" height="71">
<path d="M93.3701 344.495H210.667V414.667H93.3701V344.495Z" fill="white"/>
</mask>
<g mask="url(#mask4_2437_4101)">
<mask id="mask5_2437_4101" style="mask-type:luminance" maskUnits="userSpaceOnUse" x="93" y="166" width="266" height="270">
<path d="M346.881 324.917C344.22 325.219 326.428 328.547 307.673 329.292C291.574 329.927 269.235 333.229 268.464 333.656C263.86 335.74 259.47 339.865 257.917 345.682C257.391 346.479 255.652 366.286 259.709 383.99C259.282 404.323 263.319 420.307 261.496 422.297C259.36 437.036 241.053 439.974 231.428 429.109C231.22 428.432 222.808 410.271 213.871 392.01C204.016 374.573 197.537 357.417 196.308 354.927C193.99 348.823 189.027 348.729 181.61 348.62C179.308 349.057 165.313 355.948 146.985 363.333C127.641 370.068 112.667 378.833 112.365 378.047C98.2039 379.115 87.8341 364.302 96.5893 351.583C97.6102 350.635 108.115 340.531 124.423 324.849C135.016 311.5 151.641 297.807 152.022 297.724C156.225 292.339 154.871 288.823 153.704 282.208C153.49 282.292 141.501 268.365 131.048 252.422C119.053 237.234 108.662 224.063 108.391 222.641C101.511 210.339 115.131 194.177 128.714 199.469C129.089 200.089 144.845 209.828 162.548 218.625C180.204 225.427 195.699 237.438 196.376 237.786C202.277 240.38 206.73 238.115 211.98 234.25C212.277 234.708 221.553 216.885 233.522 202.547C242.579 188.24 255.001 170.714 255.074 170.839C266.949 160.99 281.558 170.667 283.397 182.995C283.397 184.891 278.324 201.854 274.912 220.479C272.459 240.214 267.095 255.693 266.433 257.969C265.167 265.229 270.016 268.375 274.615 271.703C273.756 272.073 292.47 278.974 312.147 282.969C331.214 288.682 348.542 293.859 349.694 294.234C362.537 299.229 359.917 320.255 346.881 324.917Z" fill="white"/>
</mask>
<g mask="url(#mask5_2437_4101)">
<path d="M189.126 346.385C178.23 342.839 166.345 347.516 156.475 351.12C146.959 354.594 137.746 359.318 128.428 363.323C119.423 367.203 104.97 376.547 94.6466 370.193C91.6518 368.344 91.0841 370.896 93.3498 372.859C110.47 387.615 132.23 373.26 150.792 366.646C162.355 362.531 179.761 354.297 189.303 365.573C193.095 370.047 193.683 381.698 195.339 387.724C197.902 397.047 199.667 403.161 204.949 411.167C205.449 411.927 208.964 415.073 209.459 412.771C212.412 399.187 201.464 384.109 196.652 371.406C193.548 363.224 198.417 349.406 189.126 346.385Z" fill="#F4B349"/>
</g>
</g>
<mask id="mask6_2437_4101" style="mask-type:luminance" maskUnits="userSpaceOnUse" x="100" y="214" width="56" height="96">
<path d="M100 214.667H156V309.333H100V214.667Z" fill="white"/>
</mask>
<g mask="url(#mask6_2437_4101)">
<mask id="mask7_2437_4101" style="mask-type:luminance" maskUnits="userSpaceOnUse" x="93" y="166" width="266" height="270">
<path d="M346.88 324.917C344.219 325.219 326.427 328.547 307.672 329.292C291.573 329.927 269.234 333.229 268.463 333.656C263.859 335.739 259.469 339.864 257.916 345.682C257.39 346.479 255.651 366.286 259.708 383.989C259.281 404.323 263.318 420.307 261.495 422.297C259.359 437.036 241.052 439.974 231.427 429.109C231.219 428.432 222.807 410.271 213.87 392.01C204.015 374.573 197.536 357.417 196.307 354.927C193.989 348.823 189.026 348.729 181.609 348.62C179.307 349.057 165.312 355.948 146.984 363.333C127.64 370.068 112.666 378.833 112.364 378.047C98.2029 379.114 87.8332 364.302 96.5884 351.583C97.6092 350.635 108.114 340.531 124.422 324.849C135.015 311.5 151.64 297.807 152.021 297.724C156.224 292.338 154.87 288.823 153.703 282.208C153.489 282.292 141.5 268.364 131.047 252.422C119.052 237.234 108.661 224.062 108.39 222.641C101.51 210.338 115.13 194.177 128.713 199.469C129.088 200.088 144.844 209.828 162.547 218.625C180.203 225.427 195.698 237.437 196.375 237.786C202.276 240.38 206.729 238.114 211.979 234.25C212.276 234.708 221.552 216.885 233.521 202.547C242.578 188.239 255 170.713 255.073 170.838C266.948 160.989 281.557 170.667 283.396 182.995C283.396 184.891 278.323 201.854 274.911 220.479C272.458 240.213 267.094 255.693 266.432 257.969C265.166 265.229 270.015 268.375 274.614 271.703C273.755 272.073 292.469 278.974 312.146 282.969C331.213 288.682 348.541 293.859 349.693 294.234C362.536 299.229 359.916 320.255 346.88 324.917Z" fill="white"/>
</mask>
<g mask="url(#mask7_2437_4101)">
<path d="M101.989 218.099C111.338 232.599 122.312 246.193 132.312 260.26C136.729 266.495 145.052 274.521 144.505 282.26C143.88 291.208 132.807 295.573 127.317 301.917C125.213 304.338 131.276 308.542 133.364 308.187C148.255 305.651 161.906 293.427 153.213 278.838C140.547 257.604 123.291 235.807 106.323 217.911C104.869 216.375 99.2653 213.875 101.989 218.099Z" fill="#F4B349"/>
</g>
</g>
<mask id="mask8_2437_4101" style="mask-type:luminance" maskUnits="userSpaceOnUse" x="117" y="188" width="97" height="52">
<path d="M117.333 188.188H213.333V239.578H117.333V188.188Z" fill="white"/>
</mask>
<g mask="url(#mask8_2437_4101)">
<mask id="mask9_2437_4101" style="mask-type:luminance" maskUnits="userSpaceOnUse" x="93" y="166" width="266" height="270">
<path d="M346.88 324.917C344.219 325.219 326.427 328.547 307.672 329.292C291.573 329.927 269.234 333.229 268.463 333.656C263.859 335.74 259.469 339.865 257.916 345.682C257.39 346.479 255.651 366.286 259.708 383.99C259.281 404.323 263.318 420.307 261.495 422.297C259.359 437.036 241.052 439.974 231.427 429.109C231.219 428.432 222.807 410.271 213.87 392.01C204.015 374.573 197.536 357.417 196.307 354.927C193.989 348.823 189.026 348.729 181.609 348.62C179.307 349.057 165.312 355.948 146.984 363.333C127.64 370.068 112.666 378.833 112.364 378.047C98.2029 379.115 87.8332 364.302 96.5884 351.583C97.6092 350.635 108.114 340.531 124.422 324.849C135.015 311.5 151.64 297.807 152.021 297.724C156.224 292.339 154.87 288.823 153.703 282.208C153.489 282.292 141.5 268.365 131.047 252.422C119.052 237.234 108.661 224.063 108.39 222.641C101.51 210.339 115.13 194.177 128.713 199.469C129.088 200.089 144.844 209.828 162.547 218.625C180.203 225.427 195.698 237.438 196.375 237.786C202.276 240.38 206.729 238.115 211.979 234.25C212.276 234.708 221.552 216.885 233.521 202.547C242.578 188.24 255 170.714 255.073 170.839C266.948 160.99 281.557 170.667 283.396 182.995C283.396 184.891 278.323 201.854 274.911 220.479C272.458 240.214 267.094 255.693 266.432 257.969C265.166 265.229 270.015 268.375 274.614 271.703C273.755 272.073 292.469 278.974 312.146 282.969C331.213 288.682 348.541 293.859 349.693 294.234C362.536 299.229 359.916 320.255 346.88 324.917Z" fill="white"/>
</mask>
<g mask="url(#mask9_2437_4101)">
<path d="M207.088 215.24C197.515 223 194.895 232.635 180.073 225.708C172.406 222.12 165.088 216.62 157.88 212.141C145.453 204.422 133.416 195.932 120.552 188.964C116.661 186.859 117.823 191.323 119.791 192.948C138.838 208.62 161.229 224.422 183.317 235.51C198.604 243.193 214.875 237.953 212 218.625C211.76 217.01 208.849 213.818 207.088 215.24Z" fill="#F4B349"/>
</g>
</g>
<mask id="mask10_2437_4101" style="mask-type:luminance" maskUnits="userSpaceOnUse" x="239" y="308" width="120" height="128">
<path d="M239.067 308.094H358.099V435.651H239.067V308.094Z" fill="white"/>
</mask>
<g mask="url(#mask10_2437_4101)">
<mask id="mask11_2437_4101" style="mask-type:luminance" maskUnits="userSpaceOnUse" x="93" y="166" width="266" height="270">
<path d="M346.88 324.917C344.219 325.219 326.427 328.547 307.672 329.292C291.573 329.927 269.234 333.229 268.463 333.656C263.859 335.74 259.469 339.865 257.916 345.682C257.39 346.479 255.651 366.286 259.708 383.99C259.281 404.323 263.318 420.307 261.495 422.297C259.359 437.036 241.052 439.974 231.427 429.109C231.219 428.432 222.807 410.271 213.87 392.01C204.015 374.573 197.536 357.417 196.307 354.927C193.989 348.823 189.026 348.729 181.609 348.62C179.307 349.057 165.312 355.948 146.984 363.333C127.64 370.068 112.666 378.833 112.364 378.047C98.2029 379.115 87.8332 364.302 96.5884 351.583C97.6092 350.635 108.114 340.531 124.422 324.849C135.015 311.5 151.64 297.807 152.021 297.724C156.224 292.339 154.87 288.823 153.703 282.208C153.489 282.292 141.5 268.365 131.047 252.422C119.052 237.234 108.661 224.063 108.39 222.641C101.51 210.339 115.13 194.177 128.713 199.469C129.088 200.089 144.844 209.828 162.547 218.625C180.203 225.427 195.698 237.438 196.375 237.786C202.276 240.38 206.729 238.115 211.979 234.25C212.276 234.708 221.552 216.885 233.521 202.547C242.578 188.24 255 170.714 255.073 170.839C266.948 160.99 281.557 170.667 283.396 182.995C283.396 184.891 278.323 201.854 274.911 220.479C272.458 240.214 267.094 255.693 266.432 257.969C265.166 265.229 270.015 268.375 274.614 271.703C273.755 272.073 292.469 278.974 312.146 282.969C331.213 288.682 348.541 293.859 349.693 294.234C362.536 299.229 359.916 320.255 346.88 324.917Z" fill="white"/>
</mask>
<g mask="url(#mask11_2437_4101)">
<path d="M370.203 308.714C351.141 321.443 333.448 323.135 310.531 324.641C297.297 325.51 272.636 323.693 261.359 333.115C241.38 349.797 271.25 437.26 241.198 437.724C237.781 437.771 242.568 442.667 243.901 443.036C279.177 452.922 263.417 390.172 264.604 374.682C268.625 322.146 311.276 340.625 346.583 334.109C362.031 331.255 371.755 328.161 373.474 311.703C373.589 310.531 371.609 307.776 370.203 308.714Z" fill="#EA9B3D"/>
</g>
</g>
</svg>
