<svg width="450" height="600" viewBox="0 0 450 600" fill="none" xmlns="http://www.w3.org/2000/svg">
<path d="M127.417 261.234C127.417 261.234 127.417 291.245 138.651 299.495C149.886 307.75 154.381 301 151.386 293.495C148.391 285.995 145.396 269.49 147.641 261.234C149.886 252.979 140.151 254.479 127.417 261.234Z" fill="#3D5350"/>
<mask id="mask0_2437_4307" style="mask-type:luminance" maskUnits="userSpaceOnUse" x="70" y="174" width="310" height="254">
<path d="M70.4844 174.036H379.266V427.037H70.4844V174.036Z" fill="white"/>
</mask>
<g mask="url(#mask0_2437_4307)">
<path d="M86.9635 254.484C86.9635 254.484 70.4844 251.479 70.4844 235.729C70.4844 219.969 80.974 218.469 80.974 218.469C80.974 218.469 78.724 210.219 84.7188 207.219C84.7188 207.219 94.4531 180.958 122.172 176.458C149.885 171.953 211.313 172.703 248.016 187.708C284.724 202.714 313.938 262.734 319.182 300.25C324.427 337.76 319.182 323.505 330.417 334.76C341.651 346.016 382.104 375.276 379.109 388.026C376.109 400.781 351.391 439.047 305.698 423.292C305.698 423.292 297.458 419.536 297.458 411.286C297.458 403.031 301.953 361.021 292.214 342.26C282.474 323.505 253.26 311.5 227.792 305.5C202.323 299.495 160.375 273.99 154.38 267.24C154.38 267.24 131.911 265.734 117.677 258.234C117.677 258.234 104.943 261.234 86.9635 254.484Z" fill="#829696"/>
</g>
<path d="M106.474 238.901C99.016 231.542 86.2139 223.724 86.2139 223.724C86.2139 223.724 98.4378 233.734 106.474 238.901Z" fill="#3D5350"/>
<mask id="mask1_2437_4307" style="mask-type:luminance" maskUnits="userSpaceOnUse" x="71" y="204" width="287" height="224">
<path d="M71 204.911H357.109V427.037H71V204.911Z" fill="white"/>
</mask>
<g mask="url(#mask1_2437_4307)">
<path d="M334.912 420.287C304.948 418.787 297.459 356.516 297.459 340.761C297.459 325.005 312.438 317.505 297.459 319.755C282.474 322.005 263 310.75 217.308 294.245C171.61 277.74 143.146 243.979 143.146 243.979C151.386 233.474 143.896 204.964 143.896 204.964C146.891 221.469 139.401 239.479 134.157 239.479C128.912 239.479 129.662 222.974 129.662 222.974C128.912 237.229 121.422 249.229 117.677 241.729C113.933 234.224 98.9482 225.224 98.9482 225.224C98.9482 225.224 115.433 239.479 113.183 241.729C112.516 242.396 109.865 241.073 106.474 238.896C110.573 242.938 113.99 248.281 110.938 249.229C91.292 255.318 75.8389 240.229 75.8389 240.229C73.5732 241.234 72.8597 241.141 71.0732 240.573C74.0003 252.109 86.9639 254.484 86.9639 254.484C104.943 261.234 117.677 258.234 117.677 258.234C131.912 265.734 154.381 267.234 154.381 267.234C160.375 273.99 202.323 299.495 227.792 305.5C253.261 311.5 282.474 323.505 292.214 342.261C301.953 361.021 297.459 403.031 297.459 411.287C297.459 419.537 305.698 423.292 305.698 423.292C327.745 430.891 344.912 425.917 357.11 417.297C351.141 419.396 343.787 420.734 334.912 420.287Z" fill="#3D5350"/>
</g>
<path d="M150.636 244.729C150.636 244.729 148.391 274.74 158.13 300.25C167.865 325.755 188.839 319.755 186.594 312.25C184.344 304.75 173.11 294.245 179.104 270.24C185.094 246.229 169.365 229.724 150.636 244.729Z" fill="#829696"/>
<path d="M84.4691 237.813C84.4691 239.557 83.2035 240.979 81.6357 240.979C80.0732 240.979 78.8076 239.557 78.8076 237.813C78.8076 236.063 80.0732 234.641 81.6357 234.641C83.2035 234.641 84.4691 236.063 84.4691 237.813Z" fill="#3D5350"/>
<path d="M75.4535 235.443C75.4535 236.63 74.5941 237.589 73.5368 237.589C72.4795 237.589 71.6201 236.63 71.6201 235.443C71.6201 234.26 72.4795 233.302 73.5368 233.302C74.5941 233.302 75.4535 234.26 75.4535 235.443Z" fill="#3D5350"/>
<path d="M112.932 212.969C112.932 214.719 111.666 216.135 110.104 216.135C108.541 216.135 107.271 214.719 107.271 212.969C107.271 211.219 108.541 209.802 110.104 209.802C111.666 209.802 112.932 211.219 112.932 212.969Z" fill="#3D5350"/>
</svg>
