<svg width="34" height="34" viewBox="0 0 34 34" fill="none" xmlns="http://www.w3.org/2000/svg">
<path d="M12.75 4.24936V1.41602H21.25V4.24936H12.75ZM15.5833 19.8327H18.4167V11.3327H15.5833V19.8327ZM17 31.166C15.2528 31.166 13.6057 30.8293 12.0587 30.1559C10.5117 29.4825 9.16017 28.5678 8.00417 27.4118C6.84722 26.2549 5.93206 24.9029 5.25867 23.3559C4.58528 21.8089 4.24906 20.1623 4.25 18.416C4.25 16.6688 4.5867 15.0217 5.26009 13.4747C5.93347 11.9277 6.84817 10.5762 8.00417 9.42019C9.16111 8.26324 10.5131 7.34808 12.0601 6.67469C13.6071 6.0013 15.2537 5.66508 17 5.66602C18.4639 5.66602 19.8688 5.90213 21.2146 6.37436C22.5604 6.84658 23.8236 7.5313 25.0042 8.42852L26.9875 6.44519L28.9708 8.42852L26.9875 10.4118C27.8847 11.5924 28.5694 12.8556 29.0417 14.2014C29.5139 15.5472 29.75 16.9521 29.75 18.416C29.75 20.1632 29.4133 21.8103 28.7399 23.3573C28.0665 24.9043 27.1518 26.2558 25.9958 27.4118C24.8389 28.5688 23.4869 29.4839 21.9399 30.1573C20.3929 30.8307 18.7463 31.1669 17 31.166Z" fill="url(#paint0_linear_2319_41)"/>
<defs>
<linearGradient id="paint0_linear_2319_41" x1="6.38986" y1="1.41601" x2="30.6013" y2="3.01506" gradientUnits="userSpaceOnUse">
<stop stop-color="#95C2E7" stop-opacity="0.91"/>
<stop offset="1" stop-color="#3884C3"/>
</linearGradient>
</defs>
</svg>
