<svg width="450" height="600" viewBox="0 0 450 600" fill="none" xmlns="http://www.w3.org/2000/svg">
<mask id="mask0_2437_4441" style="mask-type:luminance" maskUnits="userSpaceOnUse" x="70" y="171" width="309" height="249">
<path d="M70.8857 171.755H378.667V420H70.8857V171.755Z" fill="white"/>
</mask>
<g mask="url(#mask0_2437_4441)">
<path d="M135.167 275.891C135.167 275.891 79.2084 207.13 175.318 173.938C178.271 172.911 181.099 175.74 180.073 178.693L167.932 214.708C167.287 216.635 167.224 218.75 167.672 220.745L171.016 233.969L135.167 275.891ZM171.849 332.135C171.849 332.135 142.938 384.266 188.938 409.109C225.365 428.755 263.016 415.594 277.214 409.177C279.844 408.021 280.104 404.359 277.662 402.818L215.214 363.333C213.417 362.177 212.516 360.063 212.969 357.943L215.474 346.323L171.849 332.135ZM140.88 291.365L134.073 297.333C132.208 299.005 129.703 299.776 127.198 299.583L101.177 297.271C91.2188 296.375 81.8386 301.828 77.599 310.88L75.4792 315.568C72.5261 321.99 70.9844 327.766 71.3699 333.995C71.6876 339.453 74.9636 344.333 79.849 346.833C85.4376 349.662 93.8542 352.74 102.979 351.906L110.427 351.396C121.927 350.557 133.109 347.287 143.26 341.891L165.745 329.823L166.964 293.547L140.88 291.365ZM314.474 205.849L327.583 199.042C331.307 197.115 334.391 194.292 336.703 190.76C339.662 186.203 337.99 180.104 333.172 177.661L331.885 177.021C325.333 173.62 318.01 171.755 310.62 171.755C272.906 171.885 253.76 200.583 253.76 200.583L314.474 205.849ZM316.146 304.396L333.62 306.068C341.203 306.771 348.719 304.333 354.438 299.26L370.885 284.625C375.958 280.13 378.787 273.516 378.526 266.776L378.078 254C377.948 249.828 373.453 247.13 369.724 249.057C357.646 255.156 340.24 259.969 340.24 259.969L316.146 304.396Z" fill="#61AF56"/>
</g>
<path d="M128.932 278.141L130.537 269.984C132.849 258.234 139.599 247.901 149.427 241.094C174.485 223.698 226.458 193.458 279.458 198.146C353.214 204.63 345.891 234.802 345.891 234.802C344.026 239.042 343.323 243.729 343.901 248.349V248.411C344.927 256.63 342.552 264.911 337.412 271.396L333.49 276.344C331.177 279.297 329.38 282.635 328.287 286.229L323.854 300.932C321.735 307.865 316.854 313.578 310.365 316.724L297.193 323.078C295.396 323.979 293.724 325.005 292.182 326.292L277.021 338.807C274.578 340.865 271.688 342.276 268.604 343.109L247.662 348.505C246.823 348.698 245.99 349.016 245.219 349.401L233.974 354.604C227.807 357.495 220.802 358.073 214.188 356.339L206.219 354.219C203.974 353.641 201.594 353.641 199.344 354.219L196.969 354.859C188.938 356.979 180.396 354.667 174.485 348.823L161.761 336.307C159.255 333.865 157.589 330.719 156.88 327.255L154.307 314.479C152.766 306.646 147.563 299.969 140.37 296.437L137.219 294.896C130.99 291.88 127.583 285.01 128.932 278.141Z" fill="#3E7F33"/>
<path d="M103.297 317.109C103.297 319.036 101.755 320.578 99.8279 320.578C97.9008 320.578 96.3592 319.036 96.3592 317.109C96.3592 315.182 97.9008 313.641 99.8279 313.641C101.755 313.641 103.297 315.182 103.297 317.109ZM81.1352 347.927C81.7758 347.865 96.3592 346.385 106.38 337.464C106.896 337.01 106.958 336.177 106.51 335.661C106.062 335.151 105.224 335.089 104.713 335.536C95.3956 343.88 81.0675 345.359 80.9425 345.359C80.2342 345.422 79.7185 346.063 79.7862 346.771C79.8487 347.411 80.4269 347.927 81.0675 347.927C81.005 347.927 81.0675 347.927 81.1352 347.927Z" fill="#492F2E"/>
<path d="M333.042 233.198C331.114 219.781 322.635 208.609 307.984 200.068C307.344 199.682 306.573 199.943 306.25 200.521C305.932 201.099 306.125 201.932 306.703 202.25C320.641 210.406 328.672 220.937 330.474 233.583C331.562 241.031 330.536 249.12 327.453 257.724L292.568 248.219L288.453 226.651L301.948 199.49C302.266 198.849 302.01 198.078 301.37 197.76C300.724 197.437 299.953 197.693 299.635 198.339L286.526 224.854L260.443 215.156L254.917 198.917C254.661 198.271 253.953 197.885 253.312 198.078C252.672 198.339 252.286 199.042 252.479 199.682L258.005 215.927L245.859 235.187L220.87 226.005L216.307 208.161C216.114 207.453 215.406 207.068 214.766 207.26C214.057 207.453 213.672 208.161 213.864 208.802L218.427 226.651L197.609 250.083L167.417 244.687L164.781 231.464C164.651 230.76 163.948 230.307 163.239 230.437C162.531 230.568 162.083 231.271 162.213 231.979L164.911 245.589L146.922 281.797L143.771 280.193C141.333 278.974 139.531 276.729 138.891 274.031L135.167 258.62C134.974 257.917 134.328 257.531 133.625 257.656C132.917 257.849 132.531 258.495 132.656 259.198L136.385 274.609C137.219 278.01 139.469 280.901 142.614 282.443L157.651 290.016C159.448 290.917 160.864 292.391 161.635 294.255L173.198 321.474C174.292 324.042 175.958 326.292 178.078 328.026C180.073 329.63 182.833 331.557 186.37 333.417C186.625 333.802 187.01 334.057 187.458 334.057C187.526 334.057 187.526 334.057 187.588 334.057C194.271 337.333 203.458 340.224 215.281 340.224C216.177 340.224 217.141 340.224 218.042 340.156C219.838 340.094 221.703 339.964 223.5 339.771C223.568 339.771 223.63 339.771 223.693 339.771C223.885 339.771 224.016 339.708 224.208 339.646C248.364 336.885 275.094 323.078 303.875 298.557C304.516 298.042 305.094 297.464 305.609 296.885C307.922 294.448 315.891 285.589 322.698 273.708C331.37 259.005 334.838 245.333 333.042 233.198ZM284.021 302.089L292.891 304.396C287.427 308.635 282.031 312.552 276.76 316.021L284.021 302.089ZM272.458 318.781C266.547 322.437 260.703 325.583 255.047 328.151L236.479 318.781L233.073 290.146L253.828 266.521L278.109 275.443L282.031 300.354L272.458 318.781ZM235.776 321.281L251.963 329.5C243.099 333.286 234.552 335.792 226.266 336.948L235.776 321.281ZM203.588 275.828L199.474 251.88L220.224 228.573L245.411 237.823L252.156 264.719L231.469 288.219L203.588 275.828ZM278.687 272.937L254.599 264.078L247.854 237.052L260.057 217.792L286.141 227.484L290.255 249.182L278.687 272.937ZM158.87 287.833L149.297 283.021L167.031 247.26L196.969 252.651L201.078 276.406L181.359 303.5L169.213 305.427L164.073 293.354C163.047 290.917 161.182 288.99 158.87 287.833ZM175.573 320.578L170.177 307.865L180.974 306.13L185.661 330.208C183.219 328.797 181.229 327.318 179.687 326.099C177.953 324.687 176.536 322.76 175.573 320.578ZM218.042 337.719C205.255 338.167 195.489 335.214 188.614 331.812L183.411 304.974L202.88 278.333L230.635 290.656L234.036 319.354L223.182 337.396C221.38 337.526 219.713 337.656 218.042 337.719ZM320.578 272.62C313.896 284.24 306.057 292.969 303.812 295.344C303.359 295.859 302.844 296.375 302.266 296.823C299.953 298.812 297.708 300.672 295.396 302.474L284.474 299.583L280.62 274.734L292.182 250.792L326.552 260.161C325.01 264.208 323.021 268.38 320.578 272.62Z" fill="#61AF56"/>
<path d="M133.171 315.313C132.015 315.76 130.666 315.76 129.447 315.635C127.968 315.443 126.427 315.12 125.27 314.156C124.114 313.193 123.474 311.458 124.114 310.109C126.041 306.068 135.421 307.995 135.359 312.49C135.359 313.708 134.328 314.797 133.171 315.313ZM136.963 301.703C136.515 301.573 135.744 301.766 135.099 302.536C134.588 303.177 134.328 304.141 134.781 304.849C137.349 308.573 142.359 302.214 136.963 301.703ZM148.015 316.021C150.26 312.87 143 306.323 141.395 310.688C140.947 311.974 141.651 313.385 142.489 314.479C143.13 315.375 143.901 316.276 144.994 316.661C145.958 317.109 147.307 316.979 148.015 316.021ZM141.333 323.724C139.661 320.448 132.786 321.734 131.114 323.979C130.796 324.427 130.474 324.88 130.536 325.391C130.604 326.224 131.5 326.74 132.27 326.995C134.328 327.641 136.515 327.766 138.567 327.188C139.406 326.995 140.239 326.677 140.817 326.031C141.395 325.391 141.718 324.495 141.333 323.724ZM135.166 245.141C137.796 243.536 142.614 237.693 138.442 234.995C136.578 233.776 131.953 235.703 130.604 237.177C128.932 238.974 128.354 241.609 128.994 243.922C129.187 244.563 129.447 245.203 129.958 245.651C131.375 246.875 133.557 246.104 135.166 245.141ZM149.171 227.354C148.463 228.641 148.593 230.5 149.875 231.339C151.031 232.104 152.64 231.594 153.859 231.016C155.463 230.245 157.01 229.281 158.099 227.87C161.25 223.823 151.354 223.505 149.171 227.354ZM141.333 226.776C145.51 225.943 145.635 218.432 141.265 220.229C139.661 220.87 138.567 223.245 138.76 224.854C138.828 225.234 138.89 225.62 139.145 225.943C139.531 226.651 140.494 226.906 141.333 226.776ZM158.484 214.578C166.26 207.646 150.39 203.344 151.291 213.036C151.354 213.938 151.677 214.839 152.317 215.479C153.151 216.313 154.437 216.505 155.531 216.25C156.625 215.99 157.651 215.349 158.484 214.578ZM277.468 191.786C277.338 192.813 277.916 193.906 278.817 194.484C279.651 195.063 280.744 195.318 281.776 195.448C283.057 195.578 284.281 195.51 285.562 195.255C286.849 195 288.26 194.422 288.838 193.266C290.833 189.219 281.26 188.516 279.203 189.604C278.369 190.052 277.599 190.823 277.468 191.786ZM304.645 193.583C304.005 192.24 299.76 188 298.218 189.411C297.192 190.375 298.864 193.714 299.635 194.484C300.916 195.641 306.125 196.667 304.645 193.583ZM312.099 183.953C310.489 182.031 304.583 180.359 305.994 184.854C306.572 186.714 310.875 188.255 312.416 186.781C313.187 186.01 312.802 184.724 312.099 183.953ZM354.244 272.234C354.755 271.141 354.822 269.922 354.437 268.766C353.474 265.297 348.333 262.797 346.531 267.161C344.864 271.271 351.739 277.177 354.244 272.234ZM344.604 278.333C341.713 276.729 339.083 280.323 338.953 282.828C338.63 288.542 344.218 285.651 345.635 282.443C346.276 281.026 345.953 279.104 344.604 278.333ZM340.239 297.849C340.88 297.271 340.687 296.307 340.364 295.536C339.854 294.255 339.083 293.036 338.182 292.073C336.963 290.786 334.713 289.953 334.067 292.005C333.427 294.063 338.244 299.646 340.239 297.849ZM347.625 288.99C345.89 290.594 347.817 293.932 349.812 292.391C351.739 290.849 350.005 286.807 347.625 288.99ZM176.796 366.932C176.218 367.25 175.317 368.536 174.546 369.948C173.838 371.167 173.39 372.578 173.453 373.995C173.52 375.406 174.291 376.818 175.572 377.396C176.796 377.974 178.208 377.719 179.494 377.333C180.52 376.948 181.552 376.495 182.322 375.724C185.984 372.068 181.614 364.938 176.796 366.932C177.182 366.932 177.567 366.932 177.953 366.932ZM185.724 384.266C186.755 387.156 189.578 388.63 192.536 389.464C193.885 389.849 195.557 389.849 196.39 388.693C197.354 387.349 196.453 385.484 195.296 384.328C193.369 382.339 190.802 380.99 188.104 380.542C187.14 380.411 185.916 380.411 185.338 381.182C183.026 383.943 190.994 388.63 193.244 389.078M199.796 374.891C204.359 371.807 196.197 370.849 194.786 370.656C191.958 370.333 192.343 373.927 194.14 374.953C195.104 375.531 196.26 375.599 197.354 375.531C198.187 375.531 199.088 375.339 199.796 374.891ZM210.14 383.495C208.531 382.276 202.75 380.672 203.843 384.458C204.291 386 207.505 387.411 208.916 387.542C209.817 387.604 210.843 387.411 211.296 386.703C211.937 385.615 211.104 384.266 210.14 383.495ZM204.291 400.891C205 399.286 205.708 396.208 204.937 394.536C202.817 389.979 200.052 395.177 199.343 397.234C198.895 398.646 198.833 400.25 199.604 401.469C200.437 402.693 202.302 403.203 203.395 402.24C203.843 401.854 204.099 401.406 204.291 400.891Z" fill="#8DD880"/>
</svg>
