<svg width="433" height="414" viewBox="0 0 433 414" fill="none" xmlns="http://www.w3.org/2000/svg">
<path d="M194.272 13.2527C196.584 9.28532 199.892 5.99363 203.87 3.70573C207.851 1.41784 212.359 0.213867 216.947 0.213867C221.538 0.213867 226.046 1.41784 230.024 3.70573C234.004 5.99363 237.313 9.28532 239.625 13.2527L298.309 114.052L412.276 138.758C416.758 139.733 420.909 141.866 424.312 144.946C427.711 148.025 430.249 151.943 431.666 156.309C433.082 160.675 433.332 165.336 432.387 169.828C431.44 174.32 429.337 178.486 426.28 181.91L348.593 268.906L360.353 384.98C360.816 389.549 360.074 394.163 358.2 398.355C356.325 402.549 353.383 406.177 349.667 408.877C345.953 411.577 341.597 413.256 337.03 413.743C332.465 414.233 327.851 413.514 323.651 411.659L216.947 364.601L110.246 411.659C106.043 413.514 101.431 414.233 96.8641 413.743C92.2998 413.256 87.9408 411.577 84.2272 408.877C80.5136 406.177 77.5714 402.549 75.697 398.355C73.8226 394.163 73.0805 389.549 73.5439 384.98L85.3008 268.906L7.61383 181.931C4.55434 178.507 2.44528 174.34 1.49781 169.845C0.550331 165.35 0.796698 160.686 2.21351 156.316C3.63032 151.947 6.16768 148.026 9.57331 144.945C12.9789 141.864 17.1325 139.731 21.6206 138.758L135.587 114.052L194.272 13.2527Z" fill="url(#paint0_linear_2130_819)"/>
<defs>
<linearGradient id="paint0_linear_2130_819" x1="37.185" y1="0.213863" x2="446.509" y2="33.1516" gradientUnits="userSpaceOnUse">
<stop stop-color="#7FCB28" stop-opacity="0.91"/>
<stop offset="1" stop-color="#5C9E32"/>
</linearGradient>
</defs>
</svg>
