<svg width="13" height="17" viewBox="0 0 13 17" fill="none" xmlns="http://www.w3.org/2000/svg">
<path d="M4.61719 9.92188H8.34375L6.60938 3.64062H6.35156L4.61719 9.92188ZM11.9766 11.0703C11.9922 11.6016 12.0117 12.1445 12.0352 12.6992C12.0586 13.2539 12.0703 13.7891 12.0703 14.3047V14.6562C12.0703 14.9531 12.0586 15.2422 12.0352 15.5234C12.0195 15.7969 11.9609 16.0469 11.8594 16.2734C11.7578 16.4922 11.5977 16.668 11.3789 16.8008C11.1602 16.9336 10.8516 17 10.4531 17C10.0469 17 9.73438 16.9336 9.51562 16.8008C9.29688 16.668 9.13281 16.4922 9.02344 16.2734C8.92188 16.0547 8.85938 15.8047 8.83594 15.5234C8.82031 15.2422 8.8125 14.9531 8.8125 14.6562V13.0156H4.125V14.6562C4.125 14.9531 4.11328 15.2422 4.08984 15.5234C4.07422 15.8047 4.01172 16.0547 3.90234 16.2734C3.80078 16.4922 3.64062 16.668 3.42188 16.8008C3.20312 16.9336 2.89062 17 2.48438 17C2.07812 17 1.76562 16.9336 1.54688 16.8008C1.32812 16.668 1.16797 16.4922 1.06641 16.2734C0.964844 16.0469 0.90625 15.7969 0.890625 15.5234C0.875 15.2422 0.867188 14.9531 0.867188 14.6562V14.3047C0.867188 14.0625 0.867188 13.8047 0.867188 13.5312C0.875 13.2578 0.882812 12.9805 0.890625 12.6992C0.898438 12.418 0.90625 12.1406 0.914062 11.8672C0.921875 11.5859 0.929688 11.3203 0.9375 11.0703C1.32812 9.71094 1.73828 8.33594 2.16797 6.94531C2.59766 5.54688 3.00781 4.16406 3.39844 2.79688C3.47656 2.50781 3.57031 2.23047 3.67969 1.96484C3.78906 1.69141 3.93359 1.45703 4.11328 1.26172C4.29297 1.05859 4.52344 0.898438 4.80469 0.78125C5.08594 0.65625 5.44531 0.59375 5.88281 0.59375H7.05469C7.48438 0.59375 7.83984 0.65625 8.12109 0.78125C8.41016 0.898438 8.64453 1.05859 8.82422 1.26172C9.00391 1.45703 9.14453 1.69141 9.24609 1.96484C9.35547 2.23047 9.45312 2.50781 9.53906 2.79688L11.9766 11.0703Z" fill="#1A6B17"/>
</svg>
