<svg width="181" height="174" viewBox="0 0 181 174" fill="none" xmlns="http://www.w3.org/2000/svg">
<path d="M78.4115 11.7409L78.4112 11.7414L56.9835 48.5248L15.3699 57.5406C12.9799 58.0584 10.7676 59.1941 8.95382 60.8342C7.14001 62.4743 5.78815 64.5616 5.03321 66.8875C4.27827 69.2135 4.14665 71.6967 4.65151 74.0895C5.15636 76.4822 6.28002 78.7006 7.9103 80.5233L36.2743 112.26L31.9812 154.616C31.9812 154.616 31.9812 154.616 31.9811 154.616C31.7342 157.049 32.1298 159.504 33.1283 161.737C34.127 163.969 35.6938 165.9 37.6723 167.338C39.6509 168.775 41.9719 169.669 44.4036 169.929C46.8351 170.188 49.2922 169.806 51.5297 168.819C51.53 168.819 51.5302 168.819 51.5305 168.819L90.4899 151.647L129.449 168.819C129.45 168.819 129.45 168.819 129.45 168.819C131.688 169.806 134.145 170.188 136.576 169.929C139.008 169.669 141.329 168.775 143.308 167.338C145.286 165.9 146.853 163.969 147.852 161.737C148.85 159.504 149.246 157.049 148.999 154.616C148.999 154.616 148.999 154.616 148.999 154.616L144.706 112.26L173.071 80.5137L173.072 80.5126C174.699 78.6898 175.821 76.4723 176.324 74.0811C176.827 71.6898 176.695 69.2084 175.94 66.8843C175.185 64.5602 173.835 62.4745 172.023 60.8351C170.21 59.1958 168 58.06 165.612 57.5411L165.61 57.5406L123.996 48.5248L102.569 11.7414L102.568 11.7408C101.338 9.62891 99.5747 7.87657 97.4554 6.65865C95.336 5.44073 92.9343 4.79981 90.49 4.79981C88.0456 4.79981 85.6439 5.44073 83.5245 6.65865C81.4052 7.87657 79.6422 9.62891 78.4115 11.7409Z" fill="#FFD157" stroke="#FE9929" stroke-width="8"/>
</svg>
