<svg width="147" height="152" viewBox="0 0 147 152" fill="none" xmlns="http://www.w3.org/2000/svg">
<path d="M50.7358 13.8132L50.7356 13.8138L41.6489 47.2073L10.868 63.0432C8.97226 64.0185 7.36555 65.474 6.20824 67.2644C5.05094 69.0547 4.3835 71.1174 4.2726 73.2464C4.16169 75.3754 4.61118 77.4962 5.57619 79.3972C6.5412 81.2981 7.98798 82.9127 9.77208 84.0797L38.7228 103.033L44.2637 137.197C44.2637 137.197 44.2637 137.197 44.2638 137.197C44.6048 139.302 45.4919 141.28 46.8364 142.934C48.181 144.589 49.9362 145.862 51.9266 146.626C53.9171 147.39 56.0732 147.618 58.1796 147.289C60.2859 146.959 62.269 146.082 63.9306 144.746L90.9108 123.064L125.117 128.351C127.224 128.677 129.38 128.445 131.369 127.677C133.358 126.91 135.111 125.634 136.453 123.977C137.795 122.32 138.678 120.34 139.016 118.235C139.353 116.13 139.132 113.973 138.375 111.98L126.092 79.6227L141.686 48.725L141.687 48.7237C142.646 46.8215 143.09 44.7012 142.974 42.574C142.858 40.4468 142.187 38.3872 141.027 36.6004C139.867 34.8135 138.259 33.362 136.363 32.3904C134.467 31.4187 132.35 30.961 130.222 31.0629L130.22 31.063L95.6446 32.7392L71.0785 8.363L71.078 8.36255C69.5651 6.86181 67.6852 5.78398 65.6257 5.23659C63.5662 4.68921 61.3991 4.69139 59.3408 5.24294C57.2824 5.79448 55.4046 6.8761 53.8947 8.37989C52.3848 9.88369 51.2956 11.7571 50.7358 13.8132Z" fill="#FFD157" stroke="#FE9929" stroke-width="8"/>
</svg>
