<svg width="148" height="151" viewBox="0 0 148 151" fill="none" xmlns="http://www.w3.org/2000/svg">
<path d="M76.492 7.95913L76.4915 7.95957L51.978 32.2837L17.4769 30.611C15.3504 30.508 13.2341 30.9645 11.3393 31.935C9.44442 32.9056 7.83729 34.3562 6.67833 36.142C5.51937 37.9279 4.84914 39.9865 4.73454 42.1124C4.61995 44.2383 5.06499 46.357 6.02526 48.2571L21.5872 79.0807L9.33025 111.368C9.33016 111.369 9.33007 111.369 9.32999 111.369C8.57419 113.359 8.35363 115.513 8.69037 117.615C9.02714 119.717 9.90954 121.695 11.2495 123.349C12.5894 125.004 14.3399 126.278 16.3263 127.045C18.3124 127.811 20.4648 128.043 22.5687 127.718C22.5689 127.718 22.5692 127.718 22.5695 127.717L56.703 122.442L83.6255 144.077C85.2848 145.411 87.2652 146.287 89.3687 146.616C91.4722 146.946 93.6253 146.717 95.613 145.954C97.6008 145.191 99.3535 143.92 100.696 142.268C102.039 140.616 102.925 138.64 103.265 136.539C103.265 136.539 103.265 136.538 103.266 136.538L108.795 102.448L137.687 83.5273L137.688 83.5265C139.467 82.3604 140.91 80.7482 141.872 78.8507C142.834 76.9532 143.282 74.8367 143.171 72.7123C143.06 70.5878 142.394 68.5295 141.239 66.7426C140.085 64.9557 138.482 63.5026 136.591 62.5281L136.589 62.527L105.874 46.725L96.8066 13.403L96.8064 13.4024C96.2473 11.349 95.1596 9.47818 93.6518 7.97644C92.144 6.47471 90.2688 5.39457 88.2132 4.84378C86.1576 4.29299 83.9936 4.29081 81.9369 4.83744L82.9644 8.70323L81.9369 4.83744C79.8802 5.38408 78.0028 6.46044 76.492 7.95913Z" fill="#FFD157" stroke="#FE9929" stroke-width="8"/>
</svg>
