<svg width="18" height="18" viewBox="0 0 18 18" fill="none" xmlns="http://www.w3.org/2000/svg">
<path d="M0 9C0 4.02955 4.02955 0 9 0C13.9705 0 18 4.02955 18 9C18 13.9705 13.9705 18 9 18C4.02955 18 0 13.9705 0 9ZM9.47045 5.11364C9.47045 4.93462 9.39934 4.76293 9.27275 4.63634C9.14616 4.50975 8.97448 4.43864 8.79545 4.43864C8.61643 4.43864 8.44474 4.50975 8.31816 4.63634C8.19157 4.76293 8.12045 4.93462 8.12045 5.11364V9.61364C8.12045 9.85582 8.25055 10.08 8.46082 10.1995L11.3245 11.8358C11.4794 11.9179 11.6601 11.9365 11.8285 11.8876C11.9969 11.8388 12.1396 11.7264 12.2266 11.5742C12.3135 11.4219 12.3378 11.2419 12.2944 11.072C12.2509 10.9022 12.1431 10.7559 11.9937 10.6642L9.47045 9.22173V5.11364Z" fill="#1A6B17"/>
</svg>
