<svg width="18" height="18" viewBox="0 0 18 18" fill="none" xmlns="http://www.w3.org/2000/svg">
<path fill-rule="evenodd" clip-rule="evenodd" d="M17.4722 0.658165C17.8102 1.08013 18 1.65213 18 2.24851C18 2.8449 17.8102 3.4169 17.4722 3.83887L6.64426 17.3418C6.30588 17.7633 5.8472 18 5.36897 18C4.89073 18 4.43205 17.7633 4.09367 17.3418L0.484351 12.8408C0.165576 12.4142 -0.00796786 11.85 0.000281159 11.2669C0.00853018 10.6839 0.197928 10.1276 0.528573 9.71529C0.859218 9.30296 1.30529 9.06677 1.77282 9.05649C2.24035 9.0462 2.69283 9.26262 3.03494 9.66014L5.36897 12.5708L14.9216 0.658165C15.26 0.236721 15.7187 0 16.1969 0C16.6752 0 17.1338 0.236721 17.4722 0.658165Z" fill="#1A6B17"/>
</svg>
