<svg xmlns="http://www.w3.org/2000/svg" xmlns:xlink="http://www.w3.org/1999/xlink" width="450" zoomAndPan="magnify" viewBox="0 0 337.5 449.999984" height="600" preserveAspectRatio="xMidYMid meet" version="1.0"><defs><clipPath id="d61e233e6c"><path d="M 162.484375 209.71875 L 232.285156 209.71875 L 232.285156 355.5 L 162.484375 355.5 Z M 162.484375 209.71875 " clip-rule="nonzero"/></clipPath><clipPath id="4a01101a7b"><path d="M 175.375 236.671875 L 215.84375 236.671875 L 215.84375 356.972656 L 175.375 356.972656 Z M 175.375 236.671875 " clip-rule="nonzero"/></clipPath><clipPath id="70432c18f1"><path d="M 190 249 L 213 249 L 213 356.984375 L 190 356.984375 Z M 190 249 " clip-rule="nonzero"/></clipPath><clipPath id="2844ff7e81"><path d="M 103.402344 107 L 124 107 L 124 143 L 103.402344 143 Z M 103.402344 107 " clip-rule="nonzero"/></clipPath></defs><path fill="#916139" d="M 175.039062 265.375 C 175.039062 278.652344 164.28125 289.417969 151.007812 289.417969 C 137.734375 289.417969 126.976562 278.652344 126.976562 265.375 C 126.976562 252.097656 137.734375 241.332031 151.007812 241.332031 C 164.28125 241.332031 175.039062 252.097656 175.039062 265.375 " fill-opacity="1" fill-rule="nonzero"/><path fill="#eaa97d" d="M 174.390625 265.265625 C 174.390625 278.128906 163.96875 288.550781 151.117188 288.550781 C 138.261719 288.550781 127.84375 278.128906 127.84375 265.265625 C 127.84375 252.40625 138.261719 241.980469 151.117188 241.980469 C 163.96875 241.980469 174.390625 252.40625 174.390625 265.265625 " fill-opacity="1" fill-rule="nonzero"/><path fill="#af7648" d="M 144.503906 283.894531 C 144.417969 283.894531 144.34375 283.871094 144.273438 283.824219 C 143.875 283.539062 144.28125 282.785156 144.273438 281.6875 C 144.246094 277.890625 139.3125 274.566406 135.78125 272.1875 C 134.25 271.15625 133.953125 271.109375 133.65625 270.523438 C 132.371094 267.988281 136.15625 265.28125 135.308594 261.5 C 134.820312 259.332031 132.851562 258.863281 133.183594 257.460938 C 133.394531 256.578125 134.261719 256.21875 136.839844 254.96875 C 140.574219 253.160156 142.449219 252.242188 142.976562 251.644531 C 145.21875 249.089844 144.21875 245.597656 145.453125 245.351562 C 145.496094 245.34375 145.535156 245.339844 145.574219 245.339844 C 146.523438 245.339844 147.03125 247.667969 149.582031 248.558594 C 150.007812 248.703125 151.046875 248.8125 153.125 249.03125 C 154.625 249.1875 155.503906 249.28125 155.960938 249.28125 C 156.054688 249.28125 156.128906 249.277344 156.191406 249.269531 C 156.320312 249.25 156.449219 249.230469 156.574219 249.199219 C 156.707031 249.585938 156.929688 249.933594 157.285156 250.210938 C 157.375 250.28125 157.460938 250.339844 157.546875 250.390625 C 157.074219 250.664062 156.527344 250.882812 155.878906 250.96875 C 155.824219 250.976562 155.753906 250.980469 155.667969 250.980469 C 155.25 250.980469 154.441406 250.898438 153.066406 250.753906 C 151.160156 250.554688 150.207031 250.457031 149.816406 250.320312 C 147.476562 249.507812 147.011719 247.386719 146.140625 247.386719 C 146.101562 247.386719 146.066406 247.390625 146.027344 247.394531 C 144.894531 247.621094 145.8125 250.808594 143.753906 253.136719 C 143.273438 253.683594 141.550781 254.519531 138.125 256.167969 C 135.761719 257.308594 134.960938 257.636719 134.769531 258.441406 C 134.464844 259.71875 136.273438 260.148438 136.71875 262.125 C 137.496094 265.574219 134.023438 268.046875 135.203125 270.355469 C 135.476562 270.890625 135.75 270.933594 137.152344 271.875 C 138.175781 272.558594 139.324219 273.328125 140.421875 274.171875 C 141.207031 275.09375 142.109375 275.914062 143.113281 276.601562 C 144.199219 277.828125 144.9375 279.148438 144.945312 280.539062 C 144.953125 281.539062 144.582031 282.226562 144.945312 282.488281 C 145.007812 282.53125 145.078125 282.554688 145.15625 282.554688 C 145.914062 282.554688 147.328125 280.492188 149.710938 279.886719 C 150.15625 279.773438 150.578125 279.726562 150.984375 279.726562 C 152.132812 279.726562 153.132812 280.109375 154.046875 280.492188 C 154.960938 280.875 155.792969 281.257812 156.597656 281.257812 C 156.976562 281.257812 157.347656 281.175781 157.71875 280.96875 C 159.234375 280.140625 158.425781 278.59375 160.101562 276.640625 C 162.804688 273.492188 167.582031 274.464844 167.894531 272.738281 C 168.148438 271.363281 165.164062 270.386719 165.40625 268.515625 C 165.59375 267.078125 167.480469 266.667969 167.355469 265.484375 C 167.234375 264.355469 165.472656 264.320312 165.191406 263.101562 C 164.800781 261.433594 167.710938 259.886719 167.246094 258.875 C 166.964844 258.265625 165.847656 258.714844 164.324219 258.117188 C 161.785156 257.128906 160.738281 254.277344 160.644531 254.003906 C 160.0625 252.351562 160.289062 250.867188 160.40625 249.867188 C 160.492188 249.738281 160.5625 249.601562 160.625 249.464844 C 160.738281 249.597656 160.851562 249.726562 160.972656 249.847656 C 160.953125 250.671875 161.035156 251.605469 161.382812 252.59375 C 161.484375 252.894531 162.628906 256.019531 165.394531 257.105469 C 166.386719 257.496094 167.21875 257.476562 167.796875 257.542969 C 167.988281 258.019531 168.179688 258.472656 168.367188 258.894531 C 167.699219 259.921875 166.023438 261.207031 166.335938 262.566406 C 166.648438 263.90625 168.566406 263.945312 168.695312 265.179688 C 168.835938 266.476562 166.777344 266.929688 166.574219 268.503906 C 166.308594 270.558594 169.558594 271.628906 169.285156 273.136719 C 168.945312 275.023438 163.738281 273.960938 160.792969 277.410156 C 158.964844 279.550781 159.847656 281.25 158.195312 282.160156 C 157.789062 282.386719 157.386719 282.476562 156.976562 282.476562 C 156.09375 282.476562 155.191406 282.054688 154.191406 281.636719 C 153.195312 281.214844 152.105469 280.796875 150.855469 280.796875 C 150.414062 280.796875 149.953125 280.847656 149.464844 280.972656 C 146.871094 281.636719 145.332031 283.894531 144.503906 283.894531 " fill-opacity="1" fill-rule="nonzero"/><path fill="#855122" d="M 145.15625 282.554688 C 145.078125 282.554688 145.007812 282.53125 144.945312 282.488281 C 144.582031 282.226562 144.953125 281.539062 144.945312 280.539062 C 144.9375 279.148438 144.199219 277.828125 143.109375 276.601562 C 145.324219 278.128906 148.007812 279.023438 150.898438 279.023438 C 158.492188 279.023438 164.648438 272.863281 164.648438 265.269531 C 164.648438 257.671875 158.492188 251.511719 150.898438 251.511719 C 143.308594 251.511719 137.152344 257.671875 137.152344 265.269531 C 137.152344 268.664062 138.382812 271.773438 140.421875 274.171875 C 139.324219 273.328125 138.175781 272.558594 137.152344 271.875 C 135.75 270.933594 135.476562 270.890625 135.203125 270.359375 C 134.023438 268.046875 137.496094 265.578125 136.71875 262.125 C 136.273438 260.152344 134.464844 259.722656 134.769531 258.445312 C 134.960938 257.640625 135.757812 257.308594 138.125 256.167969 C 141.550781 254.519531 143.273438 253.683594 143.753906 253.136719 C 145.8125 250.808594 144.894531 247.625 146.027344 247.398438 C 146.066406 247.390625 146.101562 247.386719 146.136719 247.386719 C 147.011719 247.386719 147.476562 249.507812 149.816406 250.320312 C 150.207031 250.457031 151.160156 250.554688 153.066406 250.753906 C 154.441406 250.898438 155.25 250.980469 155.667969 250.980469 C 155.753906 250.980469 155.824219 250.980469 155.878906 250.972656 C 156.527344 250.882812 157.074219 250.664062 157.546875 250.390625 C 157.808594 250.550781 158.042969 250.617188 158.257812 250.617188 C 158.4375 250.617188 158.601562 250.566406 158.75 250.484375 C 158.945312 250.574219 159.128906 250.617188 159.296875 250.617188 C 159.785156 250.617188 160.148438 250.277344 160.40625 249.867188 C 160.289062 250.871094 160.0625 252.351562 160.640625 254.003906 C 160.738281 254.277344 161.785156 257.128906 164.324219 258.117188 C 165.847656 258.714844 166.964844 258.265625 167.246094 258.878906 C 167.710938 259.890625 164.800781 261.433594 165.1875 263.101562 C 165.472656 264.320312 167.234375 264.355469 167.355469 265.484375 C 167.480469 266.667969 165.59375 267.078125 165.40625 268.515625 C 165.164062 270.386719 168.148438 271.363281 167.894531 272.742188 C 167.582031 274.464844 162.804688 273.492188 160.101562 276.640625 C 158.421875 278.59375 159.234375 280.140625 157.71875 280.972656 C 157.347656 281.175781 156.976562 281.257812 156.597656 281.257812 C 155.789062 281.257812 154.960938 280.875 154.046875 280.492188 C 153.132812 280.109375 152.132812 279.726562 150.984375 279.726562 C 150.578125 279.726562 150.15625 279.777344 149.707031 279.886719 C 147.328125 280.492188 145.914062 282.554688 145.15625 282.554688 " fill-opacity="1" fill-rule="nonzero"/><path fill="#935827" d="M 164.648438 265.265625 C 164.648438 272.863281 158.492188 279.023438 150.898438 279.023438 C 143.308594 279.023438 137.152344 272.863281 137.152344 265.265625 C 137.152344 257.671875 143.308594 251.511719 150.898438 251.511719 C 158.492188 251.511719 164.648438 257.671875 164.648438 265.265625 " fill-opacity="1" fill-rule="nonzero"/><path fill="#a6754c" d="M 151.007812 274.472656 C 145.746094 274.472656 141.480469 270.207031 141.480469 264.941406 C 141.480469 259.679688 145.746094 255.410156 151.007812 255.410156 C 156.269531 255.410156 160.535156 259.679688 160.535156 264.941406 C 160.535156 270.207031 156.269531 274.472656 151.007812 274.472656 M 150.953125 258.335938 C 147.277344 258.335938 144.296875 261.316406 144.296875 264.996094 C 144.296875 268.675781 147.277344 271.65625 150.953125 271.65625 C 154.632812 271.65625 157.613281 268.675781 157.613281 264.996094 C 157.613281 261.316406 154.632812 258.335938 150.953125 258.335938 " fill-opacity="1" fill-rule="nonzero"/><path fill="#b28764" d="M 150.953125 271.65625 C 147.277344 271.65625 144.296875 268.675781 144.296875 264.996094 C 144.296875 261.316406 147.277344 258.335938 150.953125 258.335938 C 154.632812 258.335938 157.613281 261.316406 157.613281 264.996094 C 157.613281 268.675781 154.632812 271.65625 150.953125 271.65625 M 150.953125 260.066406 C 148.234375 260.066406 146.027344 262.273438 146.027344 264.996094 C 146.027344 267.71875 148.234375 269.925781 150.953125 269.925781 C 153.675781 269.925781 155.878906 267.71875 155.878906 264.996094 C 155.878906 262.273438 153.675781 260.066406 150.953125 260.066406 " fill-opacity="1" fill-rule="nonzero"/><path fill="#ba9373" d="M 150.953125 269.925781 C 148.234375 269.925781 146.027344 267.71875 146.027344 264.996094 C 146.027344 262.273438 148.234375 260.066406 150.953125 260.066406 C 153.675781 260.066406 155.878906 262.273438 155.878906 264.996094 C 155.878906 267.71875 153.675781 269.925781 150.953125 269.925781 " fill-opacity="1" fill-rule="nonzero"/><path fill="#272828" d="M 128.273438 260.609375 C 128.273438 260.609375 131.304688 236.132812 159.882812 242.632812 C 188.464844 249.128906 159.882812 234.617188 159.234375 234.617188 C 158.585938 234.617188 147.976562 232.667969 141.914062 235.917969 C 135.851562 239.164062 118.75 249.128906 128.273438 260.609375 " fill-opacity="1" fill-rule="nonzero"/><path fill="#272828" d="M 126.976562 257.359375 C 126.976562 257.359375 125.894531 264.074219 133.902344 262.992188 C 133.902344 262.992188 127.191406 263.640625 128.058594 256.0625 L 126.976562 257.359375 " fill-opacity="1" fill-rule="nonzero"/><g clip-path="url(#d61e233e6c)"><path fill="#af1420" d="M 163.207031 247.226562 C 163.207031 247.226562 212.0625 342.054688 227.871094 354.617188 C 243.675781 367.183594 212.046875 232.589844 211.082031 229.921875 C 210.113281 227.253906 155.921875 176.445312 163.207031 247.226562 " fill-opacity="1" fill-rule="nonzero"/></g><path fill="#ed1b24" d="M 179.152344 258.011719 C 179.152344 258.011719 228.292969 353.890625 231.003906 354.6875 C 233.710938 355.484375 226.570312 335.125 226.570312 333.175781 C 226.570312 331.226562 199.722656 238.734375 199.722656 238.734375 C 199.722656 238.734375 167.246094 235.050781 179.152344 258.011719 " fill-opacity="1" fill-rule="nonzero"/><g clip-path="url(#4a01101a7b)"><path fill="#1d75e1" d="M 177.636719 262.558594 C 187.894531 278.972656 191.847656 293.054688 193.550781 302.957031 C 195.757812 315.777344 195.773438 330.808594 197.882812 330.898438 C 199.234375 330.960938 200.917969 324.835938 200.914062 324.835938 C 200.90625 324.832031 195.859375 334.253906 198.53125 336.964844 C 199.121094 337.5625 200.15625 337.90625 200.914062 337.613281 C 202.617188 336.960938 202.871094 333.125 202.644531 333.066406 C 202.304688 332.976562 199.183594 341.082031 201.347656 342.8125 C 201.824219 343.195312 202.214844 342.992188 202.644531 343.464844 C 203.667969 344.582031 202.363281 346.695312 201.972656 349.378906 C 201.507812 352.570312 202.488281 356.113281 203.808594 356.804688 C 205.921875 357.910156 207.816406 353.332031 208.449219 352.054688 C 209.957031 349.015625 211.15625 345.816406 212.304688 342.628906 C 214.039062 337.824219 216.160156 333.519531 215.722656 328.292969 C 215.53125 325.972656 215.367188 323.652344 215.171875 321.335938 C 214.585938 314.359375 213.90625 307.390625 213.09375 300.4375 C 212.191406 292.648438 211.144531 284.863281 209.707031 277.152344 C 208.621094 271.339844 207.515625 265.171875 204.988281 259.777344 C 204.703125 259.175781 204.402344 258.578125 204.050781 258.011719 C 196.042969 245.015625 190.019531 250.210938 185.5625 239.597656 C 181.101562 228.984375 170.925781 250.214844 177.636719 262.558594 " fill-opacity="1" fill-rule="nonzero"/></g><g clip-path="url(#70432c18f1)"><path fill="#288aea" d="M 194.742188 266.023438 C 196.0625 269.398438 196.671875 273.207031 197.53125 276.714844 C 199.308594 283.996094 200.984375 291.308594 202.542969 298.640625 C 204.203125 306.4375 205.761719 314.265625 206.925781 322.152344 C 207.707031 327.4375 207.902344 333.027344 207.230469 338.429688 C 206.5625 343.839844 203.996094 348.835938 203.636719 354.273438 C 203.585938 355.039062 203.613281 355.894531 204.144531 356.449219 C 204.902344 355.871094 205.296875 354.945312 205.644531 354.058594 C 209.371094 344.636719 213.210938 334.160156 211.863281 323.863281 C 210.984375 317.1875 209.417969 310.585938 207.964844 304.019531 C 206.441406 297.136719 204.855469 290.269531 203.453125 283.359375 C 202.550781 278.914062 201.230469 274.066406 201.453125 269.492188 C 201.886719 260.609375 200.371094 257.359375 198.855469 255.410156 C 197.339844 253.460938 183.484375 237.214844 194.742188 266.023438 " fill-opacity="1" fill-rule="nonzero"/></g><path fill="#ed1b24" d="M 108.132812 108.984375 C 108.132812 108.984375 104.820312 101.835938 112.113281 98.585938 C 112.113281 98.585938 127.804688 93.386719 142.171875 96.417969 C 142.171875 96.417969 161.179688 98.800781 170.460938 112.015625 L 171.125 113.316406 C 171.125 113.316406 167.589844 113.316406 168.472656 115.046875 C 168.472656 115.046875 172.449219 117.644531 172.671875 120.679688 C 172.671875 120.679688 171.125 118.730469 169.796875 119.164062 C 169.796875 119.164062 173.113281 122.195312 174.660156 127.394531 C 174.660156 127.394531 172.890625 124.796875 171.789062 125.226562 C 171.789062 125.226562 174.21875 128.695312 175.765625 137.140625 C 177.3125 145.589844 181.953125 140.609375 195.65625 167.46875 C 195.65625 167.46875 207.371094 191.078125 209.140625 221.1875 C 209.140625 221.1875 197.867188 282.269531 169.355469 246.964844 L 165.15625 245.015625 C 165.15625 245.015625 163.609375 249.347656 163.167969 250.214844 C 162.726562 251.078125 160.957031 248.480469 160.957031 248.480469 C 160.957031 248.480469 160.292969 251.730469 158.304688 250.214844 C 156.316406 248.695312 158.304688 245.015625 158.304688 245.015625 C 158.304688 245.015625 154.769531 246.964844 154.105469 243.714844 C 153.441406 240.464844 154.328125 238.082031 154.328125 238.082031 C 154.328125 238.082031 153.664062 239.597656 151.453125 235.914062 C 149.242188 232.234375 147.917969 223.351562 147.917969 223.351562 C 147.917969 223.351562 150.128906 232.234375 148.800781 233.75 C 148.148438 234.496094 147.0625 235.71875 145.710938 235.675781 C 143.234375 235.59375 141.574219 231.445312 140.84375 229.636719 C 127.175781 195.726562 126.273438 196.519531 125.59375 189.5625 C 125.332031 186.867188 124.441406 176.230469 122.5 176.132812 C 122.199219 176.117188 121.875 176.351562 121.558594 176.585938 C 121.175781 176.871094 120.804688 177.152344 120.511719 177 C 120.339844 176.90625 120.074219 176.605469 120.289062 175.050781 C 120.675781 172.238281 121.910156 170.5 121.617188 170.28125 C 121.445312 170.160156 120.929688 170.660156 120.363281 171.160156 C 119.769531 171.679688 119.117188 172.203125 118.742188 172.015625 C 118.152344 171.722656 118.558594 169.84375 118.742188 168.984375 C 119.417969 165.839844 120.796875 163.980469 120.511719 163.785156 C 120.277344 163.625 119.132812 164.707031 118.300781 165.734375 C 117.097656 167.21875 116.886719 168.171875 116.53125 168.117188 C 116.03125 168.039062 115.613281 166 116.089844 164 C 116.617188 161.789062 117.890625 161.113281 119.183594 159.019531 C 120.140625 157.476562 120.484375 155.898438 121.175781 152.738281 C 122 148.949219 122.65625 145.945312 122.105469 142.109375 C 121.859375 140.421875 121.269531 137.785156 119.625 134.757812 C 119.625 134.757812 111.007812 108.332031 108.132812 108.984375 " fill-opacity="1" fill-rule="nonzero"/><path fill="#ed4022" d="M 207.082031 221.1875 C 207.082031 221.1875 196.042969 282.269531 168.113281 246.964844 L 164 245.015625 C 164 245.015625 162.484375 249.347656 162.050781 250.214844 C 161.617188 251.078125 159.886719 248.480469 159.886719 248.480469 C 159.886719 248.480469 159.234375 251.730469 157.285156 250.214844 C 155.359375 248.710938 157.246094 245.089844 157.285156 245.015625 C 157.167969 245.078125 153.8125 246.90625 153.171875 243.714844 C 152.539062 240.539062 153.351562 238.191406 153.386719 238.085938 C 153.367188 238.132812 153.09375 238.671875 152.378906 238.195312 C 152.015625 237.953125 151.535156 237.445312 150.914062 236.46875 C 150.804688 236.300781 150.691406 236.113281 150.574219 235.914062 C 149.5625 234.191406 148.738281 231.332031 148.148438 228.769531 C 148.386719 230.511719 148.503906 232.238281 148.238281 233.199219 C 148.175781 233.429688 148.089844 233.617188 147.976562 233.75 C 147.335938 234.496094 146.273438 235.71875 144.949219 235.675781 C 142.523438 235.59375 140.898438 231.449219 140.183594 229.636719 C 126.792969 195.730469 125.910156 196.519531 125.242188 189.5625 C 124.984375 186.867188 124.113281 176.230469 122.210938 176.132812 C 121.917969 176.117188 121.601562 176.351562 121.289062 176.585938 C 120.914062 176.871094 120.550781 177.152344 120.265625 177 C 120.097656 176.90625 119.835938 176.605469 120.046875 175.050781 C 120.425781 172.238281 121.632812 170.5 121.347656 170.28125 C 121.179688 170.160156 120.675781 170.660156 120.121094 171.160156 C 119.539062 171.679688 118.898438 172.203125 118.53125 172.015625 C 117.953125 171.722656 118.351562 169.847656 118.53125 168.984375 C 119.195312 165.839844 120.546875 163.980469 120.265625 163.785156 C 120.035156 163.625 118.914062 164.707031 118.097656 165.734375 C 116.921875 167.21875 116.714844 168.171875 116.367188 168.117188 C 115.878906 168.039062 115.464844 166 115.933594 164 C 116.453125 161.789062 117.695312 161.113281 118.964844 159.019531 C 119.902344 157.476562 120.238281 155.898438 120.914062 152.738281 C 121.148438 151.636719 121.371094 150.601562 121.550781 149.59375 C 121.996094 147.132812 122.207031 144.828125 121.824219 142.105469 C 121.585938 140.421875 121.007812 137.785156 119.398438 134.757812 C 119.398438 134.757812 110.953125 108.332031 108.140625 108.984375 C 108.140625 108.984375 104.890625 101.835938 112.035156 98.585938 C 112.035156 98.585938 127.410156 93.386719 141.480469 96.417969 C 141.480469 96.417969 160.101562 98.800781 169.195312 112.015625 L 169.84375 113.316406 C 169.84375 113.316406 166.378906 113.316406 167.246094 115.046875 C 167.246094 115.046875 171.144531 117.644531 171.359375 120.679688 C 171.359375 120.679688 169.84375 118.730469 168.546875 119.164062 C 168.546875 119.164062 171.792969 122.195312 173.308594 127.394531 C 173.308594 127.394531 171.574219 124.796875 170.492188 125.226562 C 170.492188 125.226562 172.875 128.695312 174.390625 137.140625 C 175.90625 145.589844 180.453125 140.609375 193.875 167.46875 C 193.875 167.46875 205.351562 191.078125 207.082031 221.1875 " fill-opacity="1" fill-rule="nonzero"/><path fill="#dbdddd" d="M 120.941406 116.15625 C 120.941406 116.15625 118.53125 105.515625 127.191406 104.648438 C 127.191406 104.648438 145.59375 104.21875 144.945312 110.5 C 144.945312 110.5 141.265625 129.34375 129.789062 130.425781 C 129.789062 130.425781 122.269531 124.847656 120.941406 116.15625 " fill-opacity="1" fill-rule="nonzero"/><path fill="#272828" d="M 132.796875 129.691406 C 132.796875 129.691406 129.550781 138.898438 118.925781 135.230469 C 117.308594 134.675781 115.523438 133.820312 113.550781 132.59375 C 113.550781 132.59375 115.933594 122.414062 122.863281 119.8125 L 122.84375 119.890625 C 122.84375 119.890625 127.707031 121.847656 130.640625 124.949219 C 131.941406 126.328125 132.859375 127.933594 132.796875 129.691406 " fill-opacity="1" fill-rule="nonzero"/><path fill="#373939" d="M 118.925781 135.230469 C 117.488281 134.738281 115.917969 134.007812 114.203125 132.988281 C 114.304688 132.859375 114.421875 132.734375 114.546875 132.617188 C 115.117188 132.085938 115.824219 131.773438 116.59375 131.609375 C 118.621094 131.183594 120.253906 129.644531 120.667969 127.613281 C 120.949219 126.226562 121.503906 124.722656 122.578125 123.476562 C 123.042969 122.941406 123.28125 122.261719 123.28125 121.570312 C 123.28125 121.207031 123.214844 120.84375 123.082031 120.496094 C 123.003906 120.285156 122.914062 120.0625 122.816406 119.828125 C 122.832031 119.824219 122.847656 119.820312 122.863281 119.8125 L 122.84375 119.890625 C 122.84375 119.890625 127.707031 121.847656 130.640625 124.949219 C 129.257812 127.976562 125.839844 133.550781 118.925781 135.230469 " fill-opacity="1" fill-rule="nonzero"/><path fill="#c8cece" d="M 138.652344 116.898438 C 137.480469 121.132812 134.007812 123.863281 130.894531 123 C 127.777344 122.140625 126.207031 118.007812 127.378906 113.773438 C 128.550781 109.542969 132.023438 106.808594 135.136719 107.671875 C 138.25 108.535156 139.824219 112.667969 138.652344 116.898438 " fill-opacity="1" fill-rule="nonzero"/><path fill="#ffffff" d="M 138.507812 115.472656 C 137.964844 117.355469 136.847656 118.910156 135.496094 119.878906 C 135.148438 119.621094 134.746094 119.375 134.296875 119.148438 C 134.011719 119.003906 133.703125 118.867188 133.382812 118.742188 C 132.972656 118.582031 132.535156 118.4375 132.074219 118.3125 C 131.1875 118.074219 130.316406 117.945312 129.515625 117.910156 C 129.191406 117.894531 128.875 117.898438 128.574219 117.917969 C 128.433594 117.925781 128.296875 117.9375 128.164062 117.953125 C 127.609375 116.566406 127.519531 114.839844 128.027344 113.082031 C 129.074219 109.441406 132.269531 107.027344 135.164062 107.6875 C 138.058594 108.351562 139.554688 111.835938 138.507812 115.472656 " fill-opacity="1" fill-rule="nonzero"/><path fill="#9fc18e" d="M 136.140625 116.925781 C 135.871094 117.902344 135.410156 118.757812 134.839844 119.417969 C 134.558594 119.25 134.253906 119.089844 133.9375 118.945312 C 133.527344 118.757812 133.09375 118.582031 132.632812 118.4375 C 131.75 118.152344 130.886719 117.988281 130.085938 117.933594 C 129.761719 117.910156 129.445312 117.90625 129.144531 117.921875 C 128.976562 117.042969 129.011719 116.039062 129.292969 115.027344 C 130.027344 112.378906 132.152344 110.65625 134.046875 111.179688 C 135.9375 111.703125 136.875 114.277344 136.140625 116.925781 " fill-opacity="1" fill-rule="nonzero"/><path fill="#000200" d="M 134.871094 117.1875 C 134.679688 117.882812 134.347656 118.484375 133.9375 118.941406 C 133.527344 118.757812 133.09375 118.582031 132.632812 118.4375 C 131.753906 118.152344 130.886719 117.988281 130.085938 117.933594 C 129.953125 117.316406 129.972656 116.605469 130.171875 115.886719 C 130.675781 114.066406 132.136719 112.886719 133.433594 113.246094 C 134.730469 113.605469 135.375 115.371094 134.871094 117.1875 " fill-opacity="1" fill-rule="nonzero"/><path fill="#ffffff" d="M 134.527344 114.421875 C 134.367188 115.003906 133.898438 115.382812 133.480469 115.269531 C 133.066406 115.152344 132.859375 114.585938 133.019531 114.003906 C 133.179688 113.417969 133.648438 113.039062 134.066406 113.15625 C 134.484375 113.269531 134.6875 113.839844 134.527344 114.421875 " fill-opacity="1" fill-rule="nonzero"/><path fill="#ffffff" d="M 135.078125 113.3125 C 134.964844 113.722656 134.632812 113.988281 134.339844 113.90625 C 134.046875 113.828125 133.902344 113.425781 134.015625 113.015625 C 134.128906 112.605469 134.460938 112.339844 134.753906 112.421875 C 135.046875 112.5 135.191406 112.898438 135.078125 113.3125 " fill-opacity="1" fill-rule="nonzero"/><path fill="#442426" d="M 144.875 235.675781 C 144.472656 235.675781 144.078125 235.523438 143.703125 235.265625 C 144.089844 235.511719 144.507812 235.660156 144.949219 235.675781 C 144.921875 235.675781 144.898438 235.675781 144.875 235.675781 " fill-opacity="1" fill-rule="nonzero"/><path fill="#e01a23" d="M 146.425781 235.21875 C 147.066406 234.804688 147.597656 234.195312 147.976562 233.75 C 148.035156 233.683594 148.082031 233.605469 148.125 233.511719 C 147.789062 234.300781 147.105469 234.863281 146.425781 235.21875 M 148.238281 233.199219 C 148.503906 232.238281 148.386719 230.511719 148.148438 228.769531 C 148.417969 229.941406 148.734375 231.175781 149.097656 232.335938 C 148.828125 232.617188 148.542969 232.90625 148.238281 233.199219 " fill-opacity="1" fill-rule="nonzero"/><path fill="#eecdd0" d="M 121.550781 149.59375 C 121.414062 145.027344 121.367188 141.917969 121.375 139.835938 C 121.597656 140.707031 121.734375 141.472656 121.824219 142.105469 C 122.207031 144.828125 121.996094 147.132812 121.550781 149.59375 " fill-opacity="1" fill-rule="nonzero"/><path fill="#e03722" d="M 144.949219 235.675781 C 144.507812 235.660156 144.089844 235.511719 143.703125 235.265625 C 142.015625 234.109375 140.652344 230.828125 140.183594 229.636719 C 126.792969 195.730469 125.910156 196.519531 125.242188 189.5625 C 124.992188 186.921875 124.148438 176.640625 122.324219 176.148438 C 122.285156 176.140625 122.25 176.132812 122.210938 176.132812 C 122.203125 176.132812 122.195312 176.132812 122.1875 176.132812 C 121.902344 176.132812 121.589844 176.359375 121.289062 176.585938 C 121.039062 176.777344 120.792969 176.964844 120.574219 177.023438 C 120.527344 177.035156 120.484375 177.042969 120.441406 177.042969 C 120.378906 177.042969 120.320312 177.03125 120.265625 177 C 120.140625 176.933594 119.96875 176.75 119.96875 176.042969 C 119.96875 175.789062 119.992188 175.460938 120.046875 175.046875 C 120.386719 172.535156 121.390625 170.878906 121.390625 170.402344 C 121.390625 170.371094 121.386719 170.34375 121.378906 170.324219 C 121.371094 170.308594 121.359375 170.292969 121.347656 170.285156 C 121.328125 170.269531 121.308594 170.265625 121.285156 170.265625 C 121.074219 170.265625 120.617188 170.710938 120.121094 171.160156 C 119.667969 171.566406 119.183594 171.96875 118.816406 172.042969 C 118.777344 172.050781 118.742188 172.054688 118.703125 172.054688 C 118.640625 172.054688 118.585938 172.042969 118.53125 172.015625 C 118.308594 171.902344 118.230469 171.550781 118.230469 171.109375 C 118.230469 170.417969 118.421875 169.511719 118.53125 168.984375 C 119.132812 166.128906 120.304688 164.332031 120.300781 163.878906 C 120.300781 163.855469 120.296875 163.835938 120.289062 163.820312 C 120.285156 163.804688 120.277344 163.792969 120.265625 163.785156 C 120.25 163.773438 120.230469 163.769531 120.207031 163.769531 C 119.886719 163.769531 118.859375 164.773438 118.097656 165.734375 C 117.046875 167.058594 116.769531 167.960938 116.476562 168.101562 C 116.449219 168.113281 116.421875 168.121094 116.394531 168.121094 C 116.386719 168.121094 116.375 168.121094 116.367188 168.117188 C 116.03125 168.0625 115.730469 167.078125 115.730469 165.816406 C 115.726562 165.246094 115.789062 164.621094 115.933594 164 C 116.453125 161.789062 117.695312 161.113281 118.964844 159.019531 C 119.902344 157.476562 120.238281 155.898438 120.914062 152.738281 C 121.148438 151.636719 121.371094 150.601562 121.550781 149.59375 C 121.996094 147.132812 122.207031 144.828125 121.824219 142.105469 C 121.734375 141.472656 121.597656 140.707031 121.375 139.835938 C 121.386719 136.824219 121.519531 135.960938 121.671875 135.949219 C 121.671875 135.949219 121.671875 135.949219 121.675781 135.949219 C 122.589844 135.949219 126.785156 165.964844 132.835938 192.632812 C 134.144531 198.402344 135.15625 202.3125 138.125 206.566406 C 139.445312 208.453125 140.859375 209.992188 142.277344 211.304688 C 143.039062 215.398438 144.765625 219.570312 148.625 219.570312 C 148.625 219.570312 148.851562 225.347656 152.445312 227.839844 C 151.765625 229.164062 150.707031 230.660156 149.097656 232.335938 C 148.734375 231.175781 148.417969 229.941406 148.148438 228.769531 C 148.386719 230.511719 148.503906 232.238281 148.238281 233.199219 C 148.214844 233.277344 148.179688 233.386719 148.125 233.511719 C 148.082031 233.605469 148.035156 233.683594 147.976562 233.75 C 147.597656 234.195312 147.066406 234.804688 146.425781 235.21875 C 145.863281 235.511719 145.308594 235.660156 144.949219 235.675781 " fill-opacity="1" fill-rule="nonzero"/><path fill="#65819d" d="M 217.382812 257.039062 C 217.335938 256.828125 217.289062 256.617188 217.246094 256.40625 C 217.296875 256.402344 217.351562 256.394531 217.40625 256.386719 C 217.453125 256.539062 217.476562 256.617188 217.476562 256.617188 L 217.382812 257.039062 " fill-opacity="1" fill-rule="nonzero"/><path fill="#4a3454" d="M 189.289062 286.5625 C 185.660156 280.113281 183.050781 273.359375 183.050781 273.359375 C 182.445312 273.84375 181.824219 274.050781 181.203125 274.050781 C 177.847656 274.050781 174.605469 268 174.605469 268 C 173.917969 266.332031 173.226562 264.664062 172.535156 262.992188 C 172.746094 263.023438 172.960938 263.039062 173.171875 263.039062 C 173.71875 263.039062 174.246094 262.921875 174.605469 262.570312 C 174.605469 262.570312 177.738281 268.109375 181.03125 268.304688 C 184.6875 274.871094 187.34375 281.003906 189.289062 286.5625 M 210.464844 271.851562 C 210.019531 271.851562 209.546875 271.667969 209.191406 271.488281 C 209.082031 271.105469 208.972656 270.71875 208.863281 270.335938 L 208.597656 265.535156 C 208.597656 265.535156 209.574219 266.222656 210.464844 266.222656 C 211.359375 266.222656 212.171875 265.535156 211.847656 262.78125 C 211.847656 262.78125 214.875 264.753906 216.945312 264.753906 C 217.226562 264.753906 217.484375 264.71875 217.722656 264.640625 L 218.773438 267.109375 C 219.101562 269.546875 218.199219 270.308594 216.945312 270.308594 C 214.875 270.308594 211.847656 268.226562 211.847656 268.226562 C 212.171875 271.125 211.359375 271.851562 210.464844 271.851562 M 217.148438 258.105469 L 216.394531 256.429688 C 216.394531 256.429688 216.503906 256.4375 216.679688 256.4375 C 216.828125 256.4375 217.027344 256.429688 217.242188 256.40625 C 217.289062 256.617188 217.335938 256.828125 217.382812 257.039062 L 217.148438 258.105469 " fill-opacity="1" fill-rule="nonzero"/><path fill="#5f3655" d="M 209.191406 271.488281 C 209.089844 271.433594 208.996094 271.382812 208.914062 271.332031 L 208.863281 270.339844 C 208.972656 270.71875 209.082031 271.105469 209.191406 271.488281 " fill-opacity="1" fill-rule="nonzero"/><path fill="#1a5393" d="M 200.578125 298.113281 C 196.777344 298.117188 192.605469 292.464844 189.289062 286.5625 C 187.34375 281.003906 184.6875 274.871094 181.03125 268.300781 C 181.089844 268.304688 181.144531 268.308594 181.203125 268.308594 C 181.824219 268.308594 182.445312 268.113281 183.050781 267.652344 C 183.050781 267.652344 192.621094 291.140625 200.578125 291.140625 C 200.6875 291.140625 200.796875 291.136719 200.902344 291.128906 C 201.414062 293.40625 201.910156 295.683594 202.398438 297.960938 C 202.324219 297.898438 202.246094 297.832031 202.171875 297.757812 C 201.652344 298 201.117188 298.113281 200.578125 298.113281 M 206.253906 296.347656 C 205.839844 294.5 205.429688 292.648438 205.023438 290.800781 C 205.652344 290.292969 206.339844 289.457031 207.082031 288.195312 C 207.082031 288.195312 208.546875 284.25 209.09375 280.675781 L 209.25 283.625 C 209.679688 287.640625 207.082031 295.007812 207.082031 295.007812 C 206.796875 295.519531 206.519531 295.960938 206.253906 296.347656 " fill-opacity="1" fill-rule="nonzero"/><path fill="#1e5a96" d="M 203.539062 298.40625 C 203.125 298.410156 202.746094 298.246094 202.398438 297.960938 C 201.910156 295.679688 201.414062 293.402344 200.90625 291.128906 C 201.332031 291.09375 201.757812 290.984375 202.171875 290.800781 C 202.582031 291.1875 203.035156 291.421875 203.539062 291.421875 C 203.992188 291.421875 204.488281 291.230469 205.027344 290.800781 C 205.429688 292.648438 205.839844 294.5 206.253906 296.347656 C 205.222656 297.820312 204.320312 298.40625 203.539062 298.40625 " fill-opacity="1" fill-rule="nonzero"/><path fill="#5f4254" d="M 160.625 234.175781 C 159.871094 232.359375 159.121094 230.539062 158.371094 228.71875 C 157.601562 228.886719 156.890625 228.960938 156.238281 228.960938 C 154.675781 228.964844 153.433594 228.527344 152.445312 227.839844 C 152.988281 226.78125 153.292969 225.832031 153.4375 224.996094 C 154.234375 225.332031 155.160156 225.527344 156.238281 225.527344 C 156.890625 225.527344 157.601562 225.457031 158.371094 225.296875 C 158.371094 225.296875 159.273438 229.050781 160.625 234.175781 M 143.253906 212.175781 C 142.929688 211.898438 142.601562 211.609375 142.277344 211.304688 C 141.542969 207.367188 141.699219 203.5 141.699219 203.5 C 139.632812 203.347656 139.027344 199.703125 139.121094 194.960938 C 139.207031 198.609375 139.902344 201.242188 141.699219 201.367188 C 141.699219 201.367188 141.429688 207.675781 143.253906 212.175781 " fill-opacity="1" fill-rule="nonzero"/><path fill="#5b3f54" d="M 152.445312 227.839844 C 148.851562 225.347656 148.625 219.570312 148.625 219.570312 C 144.765625 219.570312 143.039062 215.398438 142.277344 211.304688 C 142.601562 211.609375 142.929688 211.898438 143.253906 212.175781 C 144.265625 214.675781 145.921875 216.613281 148.625 216.613281 C 148.625 216.613281 148.890625 223.074219 153.4375 224.996094 C 153.292969 225.832031 152.988281 226.78125 152.445312 227.839844 " fill-opacity="1" fill-rule="nonzero"/><path fill="#1d75e1" d="M 218.773438 261.722656 C 219.640625 267.863281 211.847656 262.78125 211.847656 262.78125 C 212.496094 268.289062 208.597656 265.535156 208.597656 265.535156 L 209.25 277.394531 C 209.679688 281.203125 207.082031 288.191406 207.082031 288.191406 C 204.988281 291.738281 203.375 291.941406 202.171875 290.800781 C 193.960938 294.4375 183.050781 267.652344 183.050781 267.652344 C 179.152344 270.617188 174.609375 262.570312 174.609375 262.570312 C 173.523438 263.628906 170.925781 262.570312 170.925781 262.570312 C 167.246094 262.144531 158.371094 225.296875 158.371094 225.296875 C 149.058594 227.203125 148.625 216.613281 148.625 216.613281 C 141.046875 216.613281 141.699219 201.367188 141.699219 201.367188 C 135.636719 200.945312 142.132812 171.933594 142.132812 171.933594 C 141.628906 169.425781 141.3125 167.09375 141.140625 164.921875 C 140.921875 162.191406 140.941406 159.726562 141.125 157.507812 C 142.039062 146.285156 147.109375 141.4375 147.109375 141.4375 C 160.101562 129.578125 169.84375 141.4375 169.84375 141.4375 C 189.441406 148.683594 199.582031 181.53125 203.84375 200.734375 C 205.558594 208.472656 206.320312 213.992188 206.363281 214.730469 C 206.511719 217.289062 217.476562 251.769531 217.476562 251.769531 C 221.804688 256.851562 216.394531 256.429688 216.394531 256.429688 L 218.773438 261.722656 " fill-opacity="1" fill-rule="nonzero"/><path fill="#288aea" d="M 218.773438 258.011719 C 218.882812 259.113281 218.859375 260.363281 218.210938 260.714844 C 216.796875 261.480469 213.164062 257.589844 211.304688 255.085938 C 209.589844 252.773438 207.226562 248.75 206.324219 242.523438 C 210.472656 255.417969 212.074219 262.058594 211.128906 262.445312 C 210.28125 262.792969 207.378906 258.101562 202.429688 248.371094 C 204.703125 256.925781 206.976562 265.484375 209.25 274.039062 C 209.679688 277.9375 207.082031 285.085938 207.082031 285.085938 C 207.082031 285.085938 203.5 272.910156 198.316406 255.304688 C 204.351562 281.609375 204.566406 288.015625 203.390625 288.378906 C 202.15625 288.761719 199.214844 282.566406 198.097656 280.214844 C 193.023438 269.523438 192.085938 259.636719 192.035156 253.351562 C 196.828125 277.984375 196.429688 283.703125 195.066406 284.113281 C 193.554688 284.566406 190.269531 278.636719 189.535156 277.308594 C 186.816406 272.410156 185.941406 268.175781 185.324219 265.265625 C 182.96875 254.171875 180.550781 244.4375 180.34375 244.472656 C 180.222656 244.492188 180.628906 248.042969 183.050781 264.074219 C 181.5 264.230469 178.9375 264.238281 177.367188 262.613281 C 175.824219 261.015625 175.976562 258.601562 176.015625 257.683594 C 176.179688 253.800781 175.574219 247.402344 173.199219 236.242188 C 172.945312 246.726562 172.375 258.804688 170.925781 258.875 C 170.15625 258.917969 169.757812 255.53125 168.003906 249.238281 C 164 234.875 160.363281 232.050781 158.371094 220.753906 C 157.945312 218.359375 157.4375 214.675781 157.394531 210.03125 C 155.496094 216.957031 154.027344 220.355469 152.992188 220.226562 C 151.75 220.074219 151.125 214.871094 151.117188 204.617188 C 150.820312 204.71875 144.804688 206.703125 142.320312 204.074219 C 139.9375 201.550781 140.867188 194.828125 147.003906 189.453125 C 144.742188 193.476562 143.226562 195.351562 142.457031 195.085938 C 140.871094 194.53125 142.457031 184.859375 147.21875 166.058594 C 147.332031 165.304688 147.53125 164.417969 147.867188 163.460938 C 148.429688 161.871094 149.183594 160.640625 149.816406 159.777344 C 151.203125 159.722656 152.550781 159.472656 152.847656 158.695312 C 153.441406 157.128906 149.277344 154.753906 149.816406 153.496094 C 150.457031 152 156.761719 154.359375 158.261719 152.195312 C 159.0625 151.039062 158.175781 149.039062 157.394531 147.648438 C 159.25 148.226562 161.539062 148.574219 163.242188 147.429688 C 165.753906 145.742188 165.601562 141.734375 167.136719 141.582031 C 167.621094 141.535156 168.328125 141.859375 169.304688 143.53125 C 195.09375 172.765625 202.652344 187.566406 203.84375 195.625 C 203.996094 196.65625 204.757812 202.292969 206.363281 209.941406 C 207.84375 216.992188 209.386719 222.65625 210.4375 226.277344 C 213.386719 235.152344 214.628906 240.949219 215.203125 244.6875 C 215.355469 245.679688 216.394531 252.59375 216.394531 252.59375 C 216.394531 252.59375 213.238281 246.328125 209.140625 238.191406 C 212.351562 244.796875 215.5625 251.402344 218.773438 258.011719 " fill-opacity="1" fill-rule="nonzero"/><path fill="#edb221" d="M 142.347656 163.136719 C 142.347656 163.136719 134.769531 194.109375 142.347656 191.511719 C 142.347656 191.511719 140.183594 207.324219 147.109375 206.890625 C 147.320312 208.675781 147.769531 211.097656 148.789062 213.824219 C 149.90625 216.808594 150.484375 218.355469 151.332031 218.480469 C 152.699219 218.683594 155.042969 215.242188 159.34375 200.933594 C 158.796875 204.402344 158.328125 207.121094 158.042969 208.730469 C 156.828125 215.640625 156.167969 218.367188 157.394531 221.726562 C 157.667969 222.476562 158.6875 225.265625 159.777344 225.195312 C 161.53125 225.078125 162.585938 217.601562 163.242188 208.082031 C 163.085938 213.25 162.960938 217.699219 162.808594 222.160156 C 162.746094 223.941406 162.644531 226.726562 164.105469 229.742188 C 164.1875 229.910156 166.085938 233.769531 167.328125 233.503906 C 168.34375 233.285156 169.207031 230.238281 168.21875 216.960938 C 169.898438 222.097656 169.992188 226.097656 169.734375 228.875 C 169.527344 231.136719 168.949219 234.023438 170.601562 235.589844 C 171.3125 236.265625 172.550781 236.808594 173.417969 236.457031 C 174.828125 235.886719 175.792969 232.730469 174.066406 221.726562 C 175.089844 244.667969 178.578125 246.859375 179.953125 247.105469 C 180.355469 247.175781 181.328125 247.210938 182.078125 246.636719 C 184.65625 244.664062 181.902344 237.542969 181.644531 236.890625 C 181.71875 237.957031 182.539062 248.285156 186.296875 248.949219 C 187.398438 249.144531 189.132812 248.578125 189.65625 247.289062 C 190.113281 246.152344 189.5625 244.613281 188.246094 243.496094 C 191.015625 245.835938 192.785156 246.742188 193.550781 246.207031 C 194.875 245.28125 193.214844 240.085938 188.570312 230.609375 C 190.375 233.496094 192.179688 236.386719 193.984375 239.273438 C 195.628906 240.425781 196.855469 240.785156 197.664062 240.355469 C 199.472656 239.398438 199.183594 234.488281 196.800781 225.628906 C 198.292969 230.765625 201.617188 233.367188 203.542969 232.808594 C 205.070312 232.371094 206.035156 229.859375 206.191406 227.042969 C 206.191406 227.042969 206.167969 196.597656 195.257812 171.632812 C 195.257812 171.632812 154.6875 131.511719 142.347656 163.136719 " fill-opacity="1" fill-rule="nonzero"/><path fill="#ffd066" d="M 142.347656 161.402344 C 141.332031 165.636719 137.371094 182.613281 139.207031 187.722656 C 139.390625 188.230469 139.90625 189.660156 140.878906 189.820312 C 142.097656 190.019531 142.992188 188.054688 145.054688 186.203125 C 146.171875 185.199219 147.878906 184.007812 150.464844 183.171875 C 149.09375 184.1875 141.835938 189.738281 142.132812 197.632812 C 142.222656 200.109375 143.121094 204.351562 145.269531 204.832031 C 147.535156 205.339844 150.796875 201.582031 153.496094 195.300781 C 152.003906 198.585938 150.957031 201.421875 150.25 203.535156 C 148.515625 208.707031 148.472656 210.503906 148.789062 212.089844 C 149.09375 213.605469 150.0625 216.609375 151.332031 216.746094 C 152.988281 216.925781 155.882812 212.316406 161.292969 189.667969 C 160.46875 197.144531 159.164062 202.914062 158.042969 207 C 157.035156 210.691406 155.585938 215.152344 157.394531 219.996094 C 157.65625 220.699219 158.726562 223.5625 159.777344 223.460938 C 162.6875 223.175781 162.914062 200.289062 162.808594 200.285156 C 162.738281 200.277344 163.636719 210.257812 162.808594 220.429688 C 162.738281 221.296875 162.457031 224.578125 164.105469 228.011719 C 164.273438 228.355469 166.078125 232.050781 167.328125 231.769531 C 168.9375 231.410156 168.351562 224.753906 168.652344 215.230469 C 168.875 208.296875 169.476562 202.660156 169.953125 198.984375 C 170.894531 214.582031 170.585938 222.804688 169.734375 227.144531 C 169.507812 228.304688 168.671875 232.105469 170.601562 233.859375 C 171.425781 234.609375 172.699219 234.929688 173.417969 234.726562 C 175.351562 234.171875 176.820312 228.757812 174.28125 206.347656 C 174.90625 209.125 175.816406 213.667969 176.445312 219.347656 C 178.046875 233.78125 176.570312 244.339844 179.953125 245.371094 C 180.730469 245.609375 181.582031 245.285156 182.078125 244.90625 C 184.65625 242.929688 181.902344 235.8125 181.644531 235.160156 C 181.71875 236.222656 182.539062 246.554688 186.296875 247.21875 C 187.492188 247.429688 188.917969 246.675781 189.65625 245.554688 C 191.582031 242.621094 187.765625 238.660156 184.457031 228.875 C 182.636719 223.484375 181.933594 219.171875 182.078125 219.128906 C 182.246094 219.082031 183.65625 224.996094 186.839844 232.34375 C 189.410156 238.277344 192.953125 244.726562 193.550781 244.472656 C 194.035156 244.265625 192.832031 239.558594 185.109375 219.128906 C 188.066406 225.265625 191.027344 231.402344 193.984375 237.539062 C 195.101562 238.320312 196.65625 239.183594 197.664062 238.625 C 202.289062 236.0625 190.746094 206.277344 191.171875 206.132812 C 191.363281 206.066406 193.308594 212.339844 195.765625 218.609375 C 198.269531 225.011719 201.304688 231.410156 203.542969 231.078125 C 204.953125 230.867188 205.734375 228.027344 206.191406 225.3125 C 206.191406 225.3125 206.167969 194.863281 195.257812 169.902344 C 195.257812 169.902344 154.6875 129.777344 142.347656 161.402344 " fill-opacity="1" fill-rule="nonzero"/><path fill="#ed1b24" d="M 203.84375 202.773438 C 203.992188 205.839844 202.609375 208.425781 200.839844 208.953125 C 198.617188 209.617188 194.914062 207.289062 194.203125 202.667969 C 195.921875 207.4375 196.210938 211.40625 194.953125 212.070312 C 193.660156 212.75 190.386719 210.125 187.273438 205.480469 C 187.101562 213.632812 186.480469 217.769531 185.40625 217.890625 C 184.210938 218.023438 182.449219 213.167969 180.128906 203.316406 C 179.527344 211.875 178.53125 214.6875 177.46875 214.789062 C 175.257812 215.003906 171.574219 203.640625 171.574219 203.640625 C 171.574219 203.640625 171.089844 200.242188 170.167969 193.785156 C 170.316406 204.703125 169.398438 206.292969 168.785156 206.378906 C 167.492188 206.558594 165.207031 200.347656 164.429688 194.757812 C 163.941406 191.242188 164.09375 188.261719 164.324219 186.203125 C 164.121094 194.429688 163.273438 196.492188 162.460938 196.601562 C 161.59375 196.71875 160.070312 194.714844 157.285156 185.011719 C 155.5625 186.535156 154.359375 186.90625 153.53125 186.578125 C 151.359375 185.71875 151.863281 179.75 152.089844 177 C 152.320312 174.210938 152.847656 171.9375 153.28125 170.390625 C 150.132812 177.066406 148.566406 178.554688 147.734375 178.335938 C 145.941406 177.855469 146.027344 168.984375 146.027344 168.984375 C 143.042969 170.070312 141.695312 168.425781 141.140625 166.144531 C 140.367188 162.96875 141.125 158.558594 141.125 158.558594 C 142.039062 147.078125 147.109375 142.125 147.109375 142.125 C 160.101562 129.992188 169.84375 142.125 169.84375 142.125 C 189.441406 149.535156 199.582031 183.136719 203.84375 202.773438 " fill-opacity="1" fill-rule="nonzero"/><path fill="#ed4022" d="M 162.800781 172.726562 C 162.796875 172.617188 162.800781 172.558594 162.808594 172.558594 C 162.808594 172.558594 162.808594 172.613281 162.800781 172.726562 M 179.96875 144.746094 C 178.5625 143.363281 177.089844 142.125 175.550781 141.050781 C 173.742188 139.792969 171.84375 138.765625 169.84375 138.007812 C 169.84375 138.007812 160.101562 125.878906 147.109375 138.007812 C 147.109375 138.007812 142.039062 142.964844 141.125 154.445312 C 141.125 154.445312 140.367188 158.855469 141.140625 162.027344 L 141.140625 162.03125 C 141.28125 162.617188 141.476562 163.15625 141.738281 163.621094 C 142.496094 164.976562 143.808594 165.675781 146.027344 164.867188 L 147.734375 174.21875 C 149.378906 174.714844 153.054688 167.851562 157.394531 158.042969 C 156.417969 161.222656 155.132812 165.902344 154.148438 171.691406 C 153.425781 175.929688 152.378906 182.066406 153.53125 182.460938 C 154.230469 182.703125 155.96875 180.894531 160.640625 171.257812 C 159.664062 173.675781 157.878906 179.089844 159.34375 185.554688 C 159.980469 188.378906 161.523438 192.644531 162.460938 192.484375 C 163.28125 192.347656 163.449219 188.84375 163.378906 184.8125 C 163.628906 186.644531 163.96875 188.609375 164.429688 190.644531 C 165.648438 196 167.855469 202.441406 168.785156 202.261719 C 169.546875 202.113281 169.769531 197.511719 167.136719 176.890625 C 167.308594 177.761719 168.417969 183.421875 169.484375 188.863281 C 170.550781 194.300781 171.574219 199.523438 171.574219 199.523438 C 174.015625 211.734375 177.46875 210.675781 177.46875 210.675781 C 178.5 210.40625 177.890625 203.007812 173.632812 180.789062 C 180.320312 203.066406 184.242188 214.058594 185.40625 213.773438 C 186.429688 213.523438 185.320312 204.550781 182.078125 186.855469 C 189.554688 201.390625 193.847656 208.425781 194.953125 207.953125 C 195.902344 207.546875 194.496094 201.601562 190.738281 190.101562 C 195.144531 200.378906 198.507812 205.289062 200.839844 204.839844 C 202.1875 204.578125 203.1875 202.515625 203.84375 198.660156 C 200.386719 182.730469 193.0625 157.621094 179.96875 144.746094 " fill-opacity="1" fill-rule="nonzero"/><path fill="#ed1b24" d="M 170.519531 165.816406 C 174.628906 176.742188 181.113281 184.265625 185.648438 188.695312 C 185.648438 188.695312 190.628906 189.128906 190.628906 184.796875 C 195 191.296875 197.621094 194.324219 198.488281 193.886719 C 199.289062 193.480469 198.617188 190.164062 196.476562 183.929688 C 196.644531 184.460938 197.910156 188.386719 199.722656 191.078125 C 200.753906 192.609375 201.886719 193.679688 201.886719 193.679688 C 201.886719 193.679688 202.554688 194.304688 203.1875 194.757812 C 205.585938 196.488281 211.042969 196.742188 211.628906 195.195312 C 211.921875 194.421875 210.847656 193.601562 206.867188 189.5625 C 205.183594 187.851562 203.589844 186.054688 201.886719 184.363281 C 196.039062 178.550781 193.667969 166.585938 188.5 157.523438 C 182.746094 147.425781 172.132812 138.496094 168.257812 140.507812 C 164.183594 142.617188 167.199219 156.984375 170.519531 165.816406 " fill-opacity="1" fill-rule="nonzero"/><path fill="#e03722" d="M 169.84375 138.007812 C 169.785156 137.933594 165.46875 132.617188 158.78125 132.617188 C 165.46875 132.617188 169.785156 137.933594 169.84375 138.007812 M 158.777344 132.617188 L 158.777344 132.617188 " fill-opacity="1" fill-rule="nonzero"/><path fill="#e03722" d="M 141.738281 163.621094 C 141.476562 163.15625 141.28125 162.613281 141.140625 162.03125 L 141.140625 162.027344 C 140.878906 160.957031 140.792969 159.742188 140.792969 158.605469 C 140.792969 156.378906 141.125 154.445312 141.125 154.445312 C 142.039062 142.964844 147.109375 138.007812 147.109375 138.007812 C 151.441406 133.964844 155.410156 132.617188 158.777344 132.617188 C 158.777344 132.617188 158.78125 132.617188 158.78125 132.617188 C 165.46875 132.617188 169.785156 137.933594 169.84375 138.007812 C 171.84375 138.765625 173.742188 139.792969 175.550781 141.050781 C 174.816406 140.726562 170.703125 138.988281 165.296875 138.988281 C 161.917969 138.988281 158.03125 139.667969 154.148438 141.800781 C 146.382812 146.058594 141.613281 154.488281 141.738281 163.621094 " fill-opacity="1" fill-rule="nonzero"/><g clip-path="url(#2844ff7e81)"><path fill="#ffebc6" d="M 122.578125 123.476562 C 121.503906 124.722656 120.949219 126.226562 120.667969 127.609375 C 120.253906 129.644531 118.625 131.183594 116.59375 131.609375 C 115.824219 131.773438 115.117188 132.085938 114.546875 132.617188 C 111.550781 135.414062 114.722656 142.046875 113.550781 142.558594 C 113.390625 142.628906 113.152344 142.582031 112.847656 142.433594 C 110.398438 141.230469 103.902344 133.175781 103.59375 123.0625 C 103.40625 116.84375 105.621094 111.855469 107.332031 108.878906 C 107.707031 108.230469 108.339844 107.761719 109.078125 107.609375 C 111.25 107.164062 112.324219 107.574219 112.902344 108.117188 C 113.640625 108.804688 113.753906 109.878906 115.066406 110.933594 C 115.640625 111.390625 116.203125 111.652344 116.582031 111.796875 C 117.449219 112.25 118.230469 112.867188 118.929688 113.574219 C 121.003906 115.675781 122.355469 118.597656 123.082031 120.496094 C 123.46875 121.507812 123.285156 122.660156 122.578125 123.476562 " fill-opacity="1" fill-rule="nonzero"/></g><path fill="#e0c57e" d="M 110.679688 113.886719 C 110.269531 114.683594 109.726562 115.222656 109.460938 115.085938 C 109.191406 114.953125 109.308594 114.191406 109.714844 113.394531 C 110.121094 112.59375 110.667969 112.054688 110.933594 112.191406 C 111.199219 112.328125 111.085938 113.085938 110.679688 113.886719 " fill-opacity="1" fill-rule="nonzero"/><path fill="#edd59c" d="M 113.378906 142.589844 C 113.238281 142.589844 113.058594 142.535156 112.847656 142.433594 C 109.25 130.625 117.113281 116.582031 118.929688 113.574219 C 121.003906 115.675781 122.355469 118.597656 123.082031 120.496094 C 123.214844 120.84375 123.28125 121.207031 123.28125 121.570312 C 123.28125 122.257812 123.042969 122.941406 122.578125 123.476562 C 121.503906 124.722656 120.949219 126.226562 120.667969 127.613281 C 120.253906 129.644531 118.621094 131.183594 116.59375 131.609375 C 115.824219 131.773438 115.117188 132.082031 114.546875 132.617188 C 114.421875 132.734375 114.304688 132.859375 114.203125 132.988281 C 113.449219 133.921875 113.21875 135.164062 113.214844 136.445312 C 113.214844 138.519531 113.824219 140.695312 113.824219 141.816406 C 113.824219 142.207031 113.75 142.46875 113.550781 142.558594 C 113.503906 142.578125 113.445312 142.589844 113.378906 142.589844 " fill-opacity="1" fill-rule="nonzero"/></svg>