<svg width="72" height="75" viewBox="0 0 72 75" fill="none" xmlns="http://www.w3.org/2000/svg">
<g filter="url(#filter0_d_1716_24)">
<circle cx="36" cy="36" r="36" fill="#FFD157"/>
<circle cx="36" cy="36" r="34.5" stroke="#FE9929" stroke-width="3"/>
</g>
<path d="M45.7917 34.5325L42.0052 30.805L39.4689 33.29L43.2912 37L39.4867 40.71L42.023 43.195L45.7917 39.45L49.5783 43.1775L52.1146 40.6925L48.2923 37L52.0967 33.29L49.5604 30.805L45.7917 34.55L45.7917 34.5325ZM26.1445 31.75L19 31.75L19 42.25L26.1445 42.25L35.075 51L35.075 23L26.1445 31.75Z" fill="white"/>
<ellipse cx="9.28273" cy="26.4776" rx="2.93254" ry="1.89014" transform="rotate(-52.5993 9.28273 26.4776)" fill="white" fill-opacity="0.5"/>
<ellipse cx="17.2133" cy="14.5263" rx="6.15826" ry="3.76338" transform="rotate(-33.291 17.2133 14.5263)" fill="white" fill-opacity="0.5"/>
<defs>
<filter id="filter0_d_1716_24" x="0" y="0" width="72" height="75" filterUnits="userSpaceOnUse" color-interpolation-filters="sRGB">
<feFlood flood-opacity="0" result="BackgroundImageFix"/>
<feColorMatrix in="SourceAlpha" type="matrix" values="0 0 0 0 0 0 0 0 0 0 0 0 0 0 0 0 0 0 127 0" result="hardAlpha"/>
<feOffset dy="3"/>
<feComposite in2="hardAlpha" operator="out"/>
<feColorMatrix type="matrix" values="0 0 0 0 0.996078 0 0 0 0 0.6 0 0 0 0 0.160784 0 0 0 1 0"/>
<feBlend mode="normal" in2="BackgroundImageFix" result="effect1_dropShadow_1716_24"/>
<feBlend mode="normal" in="SourceGraphic" in2="effect1_dropShadow_1716_24" result="shape"/>
</filter>
</defs>
</svg>
