<svg width="72" height="75" viewBox="0 0 72 75" fill="none" xmlns="http://www.w3.org/2000/svg">
<ellipse cx="36" cy="39.5" rx="36" ry="35.5" fill="#FE9929"/>
<circle cx="36" cy="36" r="34.5" fill="#FFD157" stroke="#FE9929" stroke-width="3"/>
<path d="M30.9301 50.8077V45.2874C30.93 43.8885 32.0648 42.752 33.4704 42.7432H38.6315C40.0434 42.7432 41.188 43.8823 41.188 45.2874V50.7917C41.188 52.005 42.1716 52.9911 43.3907 52.9999H46.9119C48.5564 53.0041 50.135 52.357 51.2993 51.2012C52.4637 50.0455 53.1181 48.4761 53.1181 46.8395V31.1585C53.1181 29.8365 52.5292 28.5825 51.5102 27.7343L39.548 18.2137C37.457 16.5484 34.4705 16.6022 32.4414 18.3417L20.7365 27.7343C19.6693 28.5575 19.0315 29.8152 19 31.1585V46.8235C19 50.2346 21.7786 52.9999 25.2062 52.9999H28.647C29.2339 53.0041 29.7983 52.7751 30.2149 52.3635C30.6315 51.9519 30.8658 51.3919 30.8658 50.8077H30.9301Z" fill="white"/>
<ellipse cx="19.9492" cy="12.5258" rx="6.15826" ry="3.76338" transform="rotate(-33.291 19.9492 12.5258)" fill="white" fill-opacity="0.5"/>
<ellipse cx="10.2827" cy="23.7686" rx="2.93254" ry="1.89014" transform="rotate(-52.5993 10.2827 23.7686)" fill="white" fill-opacity="0.5"/>
</svg>
