<?xml version="1.0" encoding="utf-8"?>
<!-- Generator: Adobe Illustrator 27.3.1, SVG Export Plug-In . SVG Version: 6.00 Build 0)  -->
<svg version="1.0" xmlns="http://www.w3.org/2000/svg" xmlns:xlink="http://www.w3.org/1999/xlink" x="0px" y="0px"
	 viewBox="0 0 500 400" enable-background="new 0 0 500 400" xml:space="preserve">
<g id="Camada_16" display="none">
	<path display="inline" opacity="0.13" d="M52.14,376.77c1.12-0.77,35.43-11.73,106.48-10.25l98.15-1.56l97.77,3.99
		c0,0,46.42,1.22,56.65,6.96c0,0,2.27,1.76-4.36,4.41c0,0-46.04,7.2-74.46,6.82c0,0-100.61,1.52-113.31,1.71
		c0,0-109.33-1.14-112.93-1.89c0,0-47.31-3.85-50.78-6.82C55.36,380.14,48.66,379.17,52.14,376.77z"/>
</g>
<g id="Camada_12">
	<g>
		<g>
			<path fill="#331013" d="M33.23,337.16c0.09,0.31,0.53,15.06,26.05,12.03c0,0,18.76-2.08,32.21-13.01c0,0-13.31-26.58-13.27-26.65
				c0.04-0.08-30.06,22.99-29.87,22.86C48.54,332.26,33.23,337.16,33.23,337.16z"/>
			<path fill="#723331" d="M71.46,290.64c0,0-36.38,36.13-37.64,40.93c0,0-5.18,11.68,10.8,9.79c0,0,4.99-0.63,16.36-10.36
				c0,0,16.93-18.03,17.83-23.1L71.46,290.64z"/>
		</g>
		<path fill="#723834" d="M73.97,301.71c0.14,0.31,30.84,73.88,37.37,76.34l36.28-0.47c0,0-1.99-17.43-13.88-15.21
			c0,0-1.18,0.28-1.18,0.14c0-0.14,5.87-29.17,5.87-29.17l-64.47-32.22"/>
		<path fill="#723834" d="M223.29,320.58c0.01,0.02,20.23,55.91,26.71,57.56c6.67,1.71,34.43,0,34.43,0s0.09-17.95-14.4-15.82
			c-14.49,2.13-1.28,0.28-1.28,0.28l5.07-30.58L223.29,320.58z"/>
		<path fill="#2E0F14" d="M146.05,333.92c0.09,0.28,11.34,38.83,18.35,43.56l36.19,0.57c0,0,0.76-19.36-15.22-15.51
			s-0.16,0.09-0.16,0.09l6-26.61L146.05,333.92z"/>
		<path fill="#2E0F14" d="M334.33,305.93l-20.97,56.08c0,0,12.88-3.54,13.89,15.92c0,0-34.36,1.26-36-0.88
			c0,0-11.37-22.23-12.51-46.61L334.33,305.93z"/>
		<g>
			<path fill="#2E0F14" d="M123.12,366.53c1.96,0.48,3.29,2.28,4.27,4.04c0.46,0.82,0.88,1.66,1.22,2.54
				c0.34,0.86,0.59,1.76,0.77,2.67"/>
			<g>
				<path fill="#2E0F14" d="M122.79,367.73c0.69,0.18,1.24,0.52,1.76,1.02c0.63,0.61,1,1.15,1.46,1.9c1.02,1.7,1.79,3.5,2.18,5.45
					c0.13,0.66,0.92,1.04,1.54,0.87c0.69-0.19,1-0.87,0.87-1.54c-0.43-2.23-1.37-4.36-2.57-6.29c-1.08-1.72-2.53-3.31-4.56-3.83
					c-0.65-0.17-1.36,0.22-1.54,0.87C121.74,366.84,122.13,367.56,122.79,367.73L122.79,367.73z"/>
			</g>
		</g>
		<g>
			<path fill="#2E0F14" d="M133.9,364.97c1.73,0.83,2.96,2.46,3.86,4.16c1.08,2.03,1.78,4.25,2.08,6.53"/>
			<g>
				<path fill="#2E0F14" d="M133.27,366.05c1.63,0.81,2.68,2.29,3.5,3.88c0.98,1.89,1.58,3.96,1.86,6.06
					c0.09,0.67,0.95,1.03,1.54,0.87c0.72-0.2,0.96-0.87,0.87-1.54c-0.32-2.39-1.08-4.7-2.2-6.83c-0.99-1.87-2.38-3.65-4.31-4.61
					c-0.6-0.3-1.35-0.16-1.71,0.45C132.49,364.89,132.66,365.75,133.27,366.05L133.27,366.05z"/>
			</g>
		</g>
		<g>
			<path fill="#2E0F14" d="M260.12,367.56c1.58,1.01,2.8,2.5,3.75,4.12c0.95,1.62,1.63,3.37,2.31,5.12
				c0.02,0.05-0.04,0.11-0.09,0.09c-0.05-0.03-0.01-0.12,0.04-0.09"/>
			<g>
				<path fill="#2E0F14" d="M259.49,368.64c2.88,1.88,4.26,5.34,5.48,8.49c0-0.22,0-0.44,0-0.66c-0.01,0.02-0.01,0.05-0.02,0.07
					c0.29-0.29,0.58-0.58,0.87-0.87c-0.02,0.01-0.04,0.01-0.07,0.02c0.47,0.19,0.94,0.38,1.41,0.57c-0.01-0.01-0.01-0.03-0.02-0.04
					c0,0.42,0,0.84,0,1.26c0.01-0.01,0.01-0.03,0.02-0.04c-0.25,0.19-0.5,0.38-0.75,0.57c0.01,0,0.03-0.01,0.04-0.01
					c0.66-0.13,1.04-0.92,0.87-1.54c-0.19-0.69-0.87-1-1.54-0.87c-0.89,0.17-1.15,1.21-0.79,1.93c0.26,0.51,0.89,0.69,1.41,0.57
					c0.02-0.01,0.04-0.01,0.07-0.02c0.41-0.09,0.77-0.47,0.87-0.87c0.16-0.63-0.16-1.2-0.39-1.77c-0.22-0.55-0.44-1.1-0.68-1.64
					c-0.42-0.98-0.88-1.95-1.43-2.88c-1.05-1.75-2.4-3.31-4.12-4.43c-0.57-0.37-1.38-0.11-1.71,0.45
					C258.69,367.54,258.92,368.27,259.49,368.64L259.49,368.64z"/>
			</g>
		</g>
		<g>
			<path fill="#2E0F14" d="M270.4,365.62c3.44,2.35,5.83,6.18,6.43,10.3"/>
			<g>
				<path fill="#2E0F14" d="M269.77,366.7c3.19,2.21,5.28,5.73,5.86,9.55c0.1,0.67,0.94,1.04,1.54,0.87
					c0.71-0.2,0.98-0.87,0.87-1.54c-0.68-4.47-3.31-8.48-7.01-11.04c-0.56-0.38-1.39-0.1-1.71,0.45
					C268.96,365.61,269.22,366.32,269.77,366.7L269.77,366.7z"/>
			</g>
		</g>
	</g>
</g>
<g id="Camada_3">
	<path fill="#9F3E2D" d="M291.85,185.29c0.25,0,59.21,13.52,86.49,11.75c0,0-0.69,38.84-7.64,57.92c0,0-9.95,32.46-36.11,52.67
		c0,0-36.64,24.25-62.54,27.54c0,0,6.57-28.17,6.44-28.17c-0.02,0-0.57-5.56,4.64-5.84c5.04-0.28,10.97-4.61,19.04-8.72
		c13.83-7.02,29.31-14.45,35.53-24.25l18.73-38.87l-43.58-19.07c0,0-16.93-14.65-17.56-15.16s-5.56-4.93-5.56-4.93L291.85,185.29z"
		/>
	<path fill="#9F3E2D" d="M228.73,335.03l-1.44,0.09l-0.65,0.04l-0.19,0.01c-7.8,0.35-67.66,2.81-89.79-2.6l7.17-33.05
		c0,0,44.73,9.59,68.35,6.97c0.98-0.1,1.92-0.23,2.83-0.39l-4.07-23.92l10.28,33.3l2.58,6.36L228.73,335.03z"/>
	<path fill="#9F3E2D" d="M227.29,335.12v0.01c0,0-0.22,0.01-0.65,0.03L227.29,335.12z"/>
</g>
<g id="Camada_15">
	<g>
		<g>
			<path fill="#230C0E" d="M451.98,123.51c3.52-3.02,8-4.55,12.38-5.81c1.54-0.44,0.89-2.86-0.66-2.41
				c-4.83,1.39-9.62,3.15-13.48,6.46c-0.51,0.44-0.45,1.32,0,1.77C450.73,124.02,451.47,123.95,451.98,123.51L451.98,123.51z"/>
		</g>
	</g>
	<g>
		<g>
			<path fill="#230C0E" d="M453.01,137.61c2.4-0.42,4.99,0.89,7.09,1.91c2.3,1.12,4.47,2.45,6.51,3.98c0.54,0.4,1.4,0.09,1.71-0.45
				c0.37-0.64,0.09-1.3-0.45-1.71c-2.25-1.68-4.66-3.14-7.22-4.32c-2.62-1.21-5.38-2.35-8.31-1.83c-0.67,0.12-1.04,0.93-0.87,1.54
				C451.67,137.44,452.35,137.73,453.01,137.61L453.01,137.61z"/>
		</g>
	</g>
	<g>
		<g>
			<path fill="#230C0E" d="M453.13,145.88c0.64-0.06,1.22,0.53,1.71,0.89c0.58,0.43,1.14,0.88,1.69,1.35
				c1.12,0.96,2.19,1.98,3.19,3.06c2.01,2.17,3.73,4.58,5.15,7.17c0.78,1.41,2.94,0.15,2.16-1.26c-1.59-2.9-3.56-5.59-5.84-7.99
				c-1.11-1.17-2.3-2.28-3.56-3.3c-1.21-0.98-2.82-2.59-4.51-2.42c-0.67,0.07-1.25,0.53-1.25,1.25
				C451.88,145.26,452.45,145.95,453.13,145.88L453.13,145.88z"/>
		</g>
	</g>
</g>
<g id="Camada_2">
	<path fill="#BB6B42" d="M292.77,186.93c7.96,2.65,53.24,9.04,53.24,9.04c67.26,7.39,83.94-7.52,83.94-7.52
		c41.43-28.55,17.18-82.36,17.18-82.36S431.27,73.95,343.55,51.4c0,0-38.65-10.99-58.55,1.52c0,0-21.6,16.86-31.07,32.97
		c0,0-19.71,36.95-34.29,45.09l-4.55,1.14c0,0-54.25-1.45-71.87,8.21c0,0-21.85,7.96-35.05,19.52s-28.99,26.84-38.34,56.15
		c0,0-17.56,47.49,7.96,93.22c0,0,18.69,30.19,59.62,26.78c0,0,5.43-13.64,9.73-30.69l1.14-5.05c0,0,30.57,8.84,69.6,6.95
		l5.94,14.65c0,0,9.47,20.97,49.39,13.14c0,0,6.06-28.18,5.94-29.69c0,0,41.12-14.2,58.55-33.91c0,0,18.95-19.33,24.63-43.39
		c0,0-41.31-19.89-47.94-25.39L292.77,186.93z"/>
</g>
<g id="Camada_14">
	<g>
		<g>
			<path fill="#B45238" d="M191.47,195.66c3.55-1.39,7.11-2.77,10.66-4.16c1.25-0.49,2.29-1.1,2.99-2.3
				c0.63-1.07,0.89-2.65,0.5-3.85c-0.39-1.21-1.14-2.38-2.3-2.99c-1.12-0.59-2.62-0.98-3.85-0.5c-3.55,1.39-7.11,2.77-10.66,4.16
				c-1.25,0.49-2.29,1.1-2.99,2.3c-0.63,1.07-0.89,2.65-0.5,3.85c0.39,1.21,1.14,2.38,2.3,2.99
				C188.74,195.75,190.24,196.14,191.47,195.66L191.47,195.66z"/>
		</g>
	</g>
	<g>
		<g>
			<path fill="#B45238" d="M124.29,219.44c0.18-0.25,0.36-0.49,0.55-0.73c0.1-0.14,0.2-0.27,0.31-0.4
				c-0.14,0.17-0.18,0.23-0.02,0.02c0.38-0.48,0.76-0.96,1.14-1.43c0.79-0.97,1.61-1.92,2.45-2.86c1.66-1.84,3.4-3.6,5.22-5.28
				c0.96-0.89,0.97-2.65,0-3.54c-1.03-0.95-2.51-0.95-3.54,0c-3.85,3.56-7.32,7.49-10.44,11.7c-0.78,1.05-0.21,2.84,0.9,3.42
				C122.18,221.03,123.46,220.57,124.29,219.44L124.29,219.44z"/>
		</g>
	</g>
	<g>
		<g>
			<path fill="#B45238" d="M204.48,212.07c2.43-2.26,4.95-4.41,7.57-6.45c-1.42-0.59-2.85-1.18-4.27-1.77c0,0.03,0,0.06,0,0.09
				c0.03-0.22,0.06-0.44,0.09-0.66c-0.01,0.03-0.02,0.06-0.02,0.09c0.08-0.2,0.17-0.4,0.25-0.6c-0.02,0.06-0.05,0.11-0.1,0.16
				c0.13-0.17,0.26-0.34,0.39-0.51c-0.02,0.02-0.05,0.04-0.07,0.06c0.17-0.13,0.34-0.26,0.51-0.39c-0.03,0.02-0.05,0.03-0.08,0.05
				c0.2-0.08,0.4-0.17,0.6-0.25c-0.03,0.01-0.06,0.02-0.09,0.03c-0.62,0.21-1.16,0.57-1.49,1.15c-0.31,0.54-0.45,1.33-0.25,1.93
				c0.4,1.22,1.75,2.2,3.08,1.75c1.32-0.46,2.15-1.49,2.2-2.9c0.03-0.99-0.66-1.91-1.54-2.28c-0.43-0.18-0.84-0.23-1.3-0.17
				c-0.59,0.08-0.97,0.32-1.44,0.69c-2.61,2.04-5.14,4.2-7.57,6.45c-0.96,0.89-0.97,2.65,0,3.54
				C201.97,213.01,203.45,213.02,204.48,212.07L204.48,212.07z"/>
		</g>
	</g>
	<g>
		<g>
			<path fill="#B45238" d="M139.43,168.32c1.25-0.76,2.53-1.46,3.85-2.09c0.34-0.16,0.67-0.32,1.01-0.47
				c0.14-0.06,0.27-0.12,0.41-0.18c0.19-0.08,0.18-0.08-0.04,0.01c0.09-0.04,0.18-0.08,0.27-0.11c0.69-0.28,1.38-0.54,2.08-0.79
				c0.92-0.32,1.64-1.3,1.31-2.31c-0.3-0.91-1.32-1.66-2.31-1.31c-2.96,1.04-5.81,2.37-8.49,4c-0.84,0.51-1.23,1.7-0.67,2.57
				C137.4,168.49,138.53,168.87,139.43,168.32L139.43,168.32z"/>
		</g>
	</g>
	<g>
		<g>
			<path fill="#B45238" d="M109.26,182.97c0.9-1.09,1.91-2.08,3.02-2.96c0.06-0.05,0.12-0.09,0.18-0.14
				c0.18-0.14-0.33,0.25-0.07,0.05c0.14-0.1,0.27-0.2,0.41-0.3c0.29-0.21,0.59-0.41,0.89-0.6c0.6-0.39,1.23-0.74,1.87-1.06
				c0.88-0.44,1.2-1.75,0.67-2.57c-0.58-0.9-1.63-1.15-2.57-0.67c-2.69,1.36-5.13,3.29-7.05,5.6c-0.33,0.39-0.55,0.8-0.55,1.33
				c0,0.46,0.2,1.01,0.55,1.33C107.3,183.6,108.59,183.77,109.26,182.97L109.26,182.97z"/>
		</g>
	</g>
	<g>
		<g>
			<path fill="#B45238" d="M114.87,201.47c2.61-3.07,5.52-5.87,8.7-8.35c0.35-0.27,0.55-0.9,0.55-1.33c0-0.46-0.2-1.01-0.55-1.33
				c-0.83-0.76-1.82-0.65-2.65,0c-3.18,2.47-6.1,5.27-8.7,8.35c-0.63,0.75-0.79,1.93,0,2.65
				C112.91,202.11,114.19,202.27,114.87,201.47L114.87,201.47z"/>
		</g>
	</g>
	<g>
		<g>
			<path fill="#B45238" d="M159.51,198c0.04-0.04,0.09-0.07,0.13-0.11c-0.08,0.07-0.17,0.13-0.25,0.2c0.58-0.44,1.21-0.81,1.87-1.09
				c-0.1,0.04-0.2,0.08-0.3,0.13c0.14-0.06,0.29-0.12,0.44-0.17c0.31-0.11,0.58-0.28,0.75-0.57c0.16-0.27,0.22-0.66,0.13-0.96
				c-0.1-0.3-0.29-0.59-0.57-0.75c-0.28-0.15-0.65-0.24-0.96-0.13c-0.54,0.19-1.08,0.43-1.58,0.71c-0.5,0.28-0.97,0.62-1.42,0.98
				c-0.23,0.19-0.37,0.6-0.37,0.88c0,0.31,0.14,0.67,0.37,0.88c0.24,0.22,0.55,0.38,0.88,0.37c0.11-0.01,0.22-0.03,0.33-0.04
				C159.17,198.26,159.36,198.15,159.51,198L159.51,198z"/>
		</g>
	</g>
	<g>
		<g>
			<path fill="#B45238" d="M278.7,87.34c2.74-2.38,5.47-4.75,8.21-7.13c0.74-0.65,0.71-2,0-2.65c-0.79-0.73-1.86-0.69-2.65,0
				c-2.74,2.38-5.47,4.75-8.21,7.13c-0.74,0.65-0.71,2,0,2.65C276.84,88.07,277.9,88.03,278.7,87.34L278.7,87.34z"/>
		</g>
	</g>
</g>
<g id="Camada_7">
	<g>
		<circle fill="#370F15" cx="316.83" cy="97.73" r="9.43"/>
		<circle fill="#FFFFFF" cx="316.38" cy="93.49" r="3.59"/>
	</g>
	<ellipse fill="#F19089" cx="312.09" cy="123.54" rx="14.91" ry="8.46"/>
</g>
<g id="Camada_11">
	<path fill="#A85D4E" d="M392.18,109.88c0,0,1.77,9.22,0.88,13.89c-0.88,4.67-4.17,16.55-4.17,16.55s-4.17,16.93,10.74,21.73
		c0,0,7.83,3.41,23.12,0c0,0,11.84,3.13,17.62,0c0,0,7.29-2.56,8.91-14.59c0,0,1.61-16.96-2.46-24.82l-1.61-4.36
		c0,0-25.2-4.36-25.48-4.17c-0.28,0.19-14.87-2.75-14.87-2.75l-7.48-2.27L392.18,109.88z"/>
	<g>
		<g>
			<path fill="#6C2D26" d="M423.99,121.25c0.33,11.07,0.5,22.33-2.86,33.01c-0.97,3.08,3.86,4.39,4.82,1.33
				c3.48-11.09,3.38-22.84,3.04-34.34C428.89,118.03,423.89,118.02,423.99,121.25L423.99,121.25z"/>
		</g>
	</g>
</g>
<g id="Camada_8">
	<path fill="#723834" d="M448.52,109c0,0-21.98,5.18-21.6,5.18c0.38,0-34.61-4.29-34.61-4.29s-1.39-9.69-26.12-21.58
		s0.09-0.43,0-0.52c-0.09-0.09-29.94-9.38-32.87-13.07c0,0-8.91-6.92,1.61-12.88c0,0,5.97-4.93,40.74,0c0,0,27.38,7.58,46.42,20.84
		C422.08,82.66,443.97,95.07,448.52,109z"/>
</g>
<g id="Camada_9">
	<path fill="#5B282A" d="M403.29,109.25c0,0-3.22,3.66,1.52,9.6c0,0,13.58,6.13,16.42,5.68c0,0,10.23,1.44,14.72,0.02
		c0,0,8.08,0.42,8.91-4.32c0.82-4.74,0.82-4.74,0.82-4.74s0.76-6-2.59-6.82c-3.35-0.82-38.34-0.76-38.34-0.76"/>
</g>
<g id="Camada_10">
	<path fill="#381016" d="M404.18,119.55c5.89-3.56,12.07-3.41,14.97-0.32c1.46,1.56,2.74,4.56,1.58,7.2
		c-1.49,3.39-5.91,3.69-6.51,3.73c-4.67,0.25-7.62-3.63-8.02-4.17C404.28,123.37,404.17,120.58,404.18,119.55z"/>
	<path fill="#381016" d="M435.13,127.32c-1.2-4.74,0.33-9.05,3.28-10.55c1.63-0.83,4.11-1.02,5.62,0.25c2.91,2.43,0.19,8.49,0,8.91
		c-0.56,1.21-1.48,3.21-3.6,3.98c-1.27,0.46-3.55,0.68-4.67-0.69C435.23,128.57,435.14,127.79,435.13,127.32z"/>
</g>
<g id="Camada_13">
	<g>
		<path fill="#733D3B" d="M287.34,51.59c-1.75-5.56-6.13-11.81-6.13-11.81c-6.44-8.59-14.53-8.27-14.53-8.27
			c-9.16-1.14-13.58,5.87-13.58,5.87c-4.99,4.61-4.11,13.89-4.11,13.89c0.88,9.47,7.52,12.95,7.89,13.33
			c0.38,0.38,10.17,6.06,12.95,6.44c2.78,0.38,5.18-1.71,5.18-1.71s0.53-0.35,1.38-0.92c-0.09-0.25-0.19-0.5-0.29-0.75
			c-0.06-0.14-0.05-0.26-0.02-0.38c-0.16-0.58-0.23-1.19-0.13-1.78c0.06-0.38,0.44-0.56,0.79-0.54c0.1-0.01,0.2,0,0.31,0.03
			c-0.03-0.36-0.03-0.72,0.04-1.09c0.11-0.58,0.9-0.72,1.29-0.34c0.14,0.13,0.26,0.28,0.37,0.43c-0.04-0.34-0.06-0.68-0.03-1.02
			c0.05-0.55,0.62-0.99,1.16-0.66c0.03,0.02,0.06,0.05,0.09,0.07c0.19-0.15,0.44-0.21,0.69-0.13c0.03-0.46,0.41-0.77,0.83-0.74
			c0.23-0.38,0.77-0.51,1.19-0.17c0.05,0.04,0.08,0.09,0.13,0.14c0.15,0.03,0.29,0.09,0.39,0.2c0.35,0.36,0.62,0.83,0.95,1.23
			c2.36-1.79,4.33-3.47,4.68-4.28C289.8,56.39,287.46,51.98,287.34,51.59z"/>
		<path fill="#F19089" d="M284.17,62.88l-0.06,0.05l-7.71,5.48l-0.12-0.16l-0.14,0.27c-0.05-0.38-4.07-5.18-11.51-7.98
			c0,0-7.81-3.46-5.73-12.12c0,0,1.92-6.59,8.44-6.16c0,0,4.21-0.33,8.33,6.16c0,0,3.22,5.02,4.59,8.19l2.79,4.71L284.17,62.88z"/>
	</g>
	<path fill="#350F14" d="M316.57,47.08c0,0-3.47-8.94,3.86-14.94c0,0,5.37-4.11,12.38-1.89c0,0,7.14,2.4,10.17,11.81
		c0,0,1.71,5.94,1.96,8.4c0.25,2.46,0.18,1.35,0.18,1.35"/>
</g>
</svg>
