<svg width="72" height="75" viewBox="0 0 72 75" fill="none" xmlns="http://www.w3.org/2000/svg">
<g clip-path="url(#clip0_2251_19)">
<path d="M36 75C55.8823 75 72 59.1061 72 39.5C72 19.8939 55.8823 4 36 4C16.1177 4 0 19.8939 0 39.5C0 59.1061 16.1177 75 36 75Z" fill="#FE9929"/>
<path d="M36 70.5C55.0538 70.5 70.5 55.0538 70.5 36C70.5 16.9462 55.0538 1.5 36 1.5C16.9462 1.5 1.5 16.9462 1.5 36C1.5 55.0538 16.9462 70.5 36 70.5Z" fill="#FFD157" stroke="#FE9929" stroke-width="3"/>
<path d="M21.75 34.5263C20.42 34.5263 19.2958 34.0557 18.3775 33.1145C17.4592 32.1732 17 31.0211 17 29.6579C17 28.2947 17.4592 27.1425 18.3775 26.2013C19.2958 25.2601 20.42 24.7895 21.75 24.7895C23.08 24.7895 24.2042 25.2601 25.1225 26.2013C26.0408 27.1425 26.5 28.2947 26.5 29.6579C26.5 31.0211 26.0408 32.1732 25.1225 33.1145C24.2042 34.0557 23.08 34.5263 21.75 34.5263ZM30.3 26.7368C28.97 26.7368 27.8458 26.2662 26.9275 25.325C26.0092 24.3838 25.55 23.2316 25.55 21.8684C25.55 20.5053 26.0092 19.3531 26.9275 18.4118C27.8458 17.4706 28.97 17 30.3 17C31.63 17 32.7542 17.4706 33.6725 18.4118C34.5908 19.3531 35.05 20.5053 35.05 21.8684C35.05 23.2316 34.5908 24.3838 33.6725 25.325C32.7542 26.2662 31.63 26.7368 30.3 26.7368ZM41.7 26.7368C40.37 26.7368 39.2458 26.2662 38.3275 25.325C37.4092 24.3838 36.95 23.2316 36.95 21.8684C36.95 20.5053 37.4092 19.3531 38.3275 18.4118C39.2458 17.4706 40.37 17 41.7 17C43.03 17 44.1542 17.4706 45.0725 18.4118C45.9908 19.3531 46.45 20.5053 46.45 21.8684C46.45 23.2316 45.9908 24.3838 45.0725 25.325C44.1542 26.2662 43.03 26.7368 41.7 26.7368ZM50.25 34.5263C48.92 34.5263 47.7958 34.0557 46.8775 33.1145C45.9592 32.1732 45.5 31.0211 45.5 29.6579C45.5 28.2947 45.9592 27.1425 46.8775 26.2013C47.7958 25.2601 48.92 24.7895 50.25 24.7895C51.58 24.7895 52.7042 25.2601 53.6225 26.2013C54.5408 27.1425 55 28.2947 55 29.6579C55 31.0211 54.5408 32.1732 53.6225 33.1145C52.7042 34.0557 51.58 34.5263 50.25 34.5263ZM25.835 54C24.41 54 23.2146 53.4401 22.2487 52.3204C21.2829 51.2007 20.8 49.8781 20.8 48.3526C20.8 46.6649 21.3621 45.1882 22.4862 43.9224C23.6104 42.6566 24.7267 41.407 25.835 40.1737C26.7533 39.1675 27.545 38.0721 28.21 36.8875C28.875 35.7028 29.6667 34.5912 30.585 33.5526C31.2817 32.7088 32.0892 32.011 33.0075 31.4592C33.9258 30.9075 34.9233 30.6316 36 30.6316C37.0767 30.6316 38.0742 30.8912 38.9925 31.4105C39.9108 31.9298 40.7183 32.6114 41.415 33.4553C42.3017 34.4939 43.0854 35.6136 43.7662 36.8145C44.4471 38.0153 45.2467 39.1351 46.165 40.1737C47.2733 41.407 48.3896 42.6566 49.5137 43.9224C50.6379 45.1882 51.2 46.6649 51.2 48.3526C51.2 49.8781 50.7171 51.2007 49.7512 52.3204C48.7854 53.4401 47.59 54 46.165 54C44.455 54 42.7608 53.8539 41.0825 53.5618C39.4042 53.2697 37.71 53.1237 36 53.1237C34.29 53.1237 32.5958 53.2697 30.9175 53.5618C29.2392 53.8539 27.545 54 25.835 54Z" fill="white"/>
<path d="M22.0149 15.6716C24.8579 13.8048 26.2377 10.883 25.0968 9.14561C23.956 7.40824 20.7265 7.5132 17.8835 9.38004C15.0405 11.2469 13.6607 14.1687 14.8016 15.906C15.9424 17.6434 19.1719 17.5385 22.0149 15.6716Z" fill="white" fill-opacity="0.5"/>
<path d="M11.7842 24.9167C12.768 23.63 12.8932 22.073 12.0639 21.439C11.2346 20.8049 9.76488 21.3339 8.78116 22.6206C7.79744 23.9072 7.67224 25.4642 8.50152 26.0982C9.3308 26.7323 10.8005 26.2033 11.7842 24.9167Z" fill="white" fill-opacity="0.5"/>
</g>
<defs>
<clipPath id="clip0_2251_19">
<rect width="72" height="75" fill="white"/>
</clipPath>
</defs>
</svg>
