<svg xmlns="http://www.w3.org/2000/svg" xmlns:xlink="http://www.w3.org/1999/xlink" width="450" zoomAndPan="magnify" viewBox="0 0 337.5 449.999984" height="600" preserveAspectRatio="xMidYMid meet" version="1.0"><defs><clipPath id="ba4b3d1c1f"><path d="M 161.316406 266.664062 L 191 266.664062 L 191 344.878906 L 161.316406 344.878906 Z M 161.316406 266.664062 " clip-rule="nonzero"/></clipPath><clipPath id="c18cc3b422"><path d="M 115.167969 109.09375 L 249 109.09375 L 249 265 L 115.167969 265 Z M 115.167969 109.09375 " clip-rule="nonzero"/></clipPath><clipPath id="cc89b24618"><path d="M 88.113281 115 L 126 115 L 126 126 L 88.113281 126 Z M 88.113281 115 " clip-rule="nonzero"/></clipPath><clipPath id="2aef722adf"><path d="M 88.113281 118 L 126 118 L 126 126 L 88.113281 126 Z M 88.113281 118 " clip-rule="nonzero"/></clipPath><clipPath id="08681a94d1"><path d="M 151.175781 207.382812 L 249.042969 207.382812 L 249.042969 276.796875 L 151.175781 276.796875 Z M 151.175781 207.382812 " clip-rule="nonzero"/></clipPath></defs><path fill="#603c2f" d="M 191.351562 264.863281 C 191.351562 264.863281 198.179688 288.925781 196.628906 295.925781 C 195.074219 302.925781 190.753906 333.117188 190.753906 333.117188 C 190.753906 333.117188 181.445312 331.757812 177.910156 333.804688 C 174.371094 335.847656 175.066406 336.84375 175.066406 336.84375 C 175.066406 336.84375 183.238281 334.714844 182.304688 334.714844 C 182.046875 334.714844 174.289062 338.671875 176.097656 339.28125 C 176.597656 339.449219 186.738281 335.890625 191.613281 336.542969 C 197.296875 337.300781 204.28125 338.214844 204.28125 338.214844 C 204.28125 338.214844 197.042969 333.5 194.457031 333.804688 C 194.457031 333.804688 199.511719 303.746094 201.28125 295.925781 C 202.316406 291.363281 194.753906 261.664062 194.753906 261.664062 L 191.351562 264.863281 " fill-opacity="1" fill-rule="nonzero"/><g clip-path="url(#ba4b3d1c1f)"><path fill="#865f4b" d="M 179.246094 267.429688 C 179.246094 267.429688 186.386719 293.484375 184.832031 300.488281 C 183.28125 307.488281 177.285156 338.710938 177.285156 338.710938 C 177.285156 338.710938 167.980469 337.351562 164.441406 339.394531 C 160.90625 341.441406 161.597656 342.4375 161.597656 342.4375 C 161.597656 342.4375 169.769531 340.304688 168.835938 340.304688 C 168.578125 340.304688 160.820312 344.265625 162.628906 344.871094 C 163.128906 345.039062 173.269531 341.480469 178.144531 342.132812 C 183.832031 342.894531 190.8125 343.808594 190.8125 343.808594 C 190.8125 343.808594 183.574219 339.089844 180.988281 339.394531 C 180.988281 339.394531 186.804688 308.867188 189.007812 301.160156 C 190.847656 294.722656 183.054688 266.753906 183.054688 266.753906 L 179.246094 267.429688 " fill-opacity="1" fill-rule="nonzero"/></g><g clip-path="url(#c18cc3b422)"><path fill="#99a0a4" d="M 138.960938 128.160156 C 138.65625 127.847656 138.246094 127.652344 137.84375 127.429688 C 132.679688 124.589844 117.691406 123.429688 117.691406 123.429688 L 115.238281 118.011719 C 115.238281 118.011719 127.855469 108.597656 136.292969 109.234375 C 141.914062 109.660156 151.820312 110.777344 152.449219 125.910156 C 152.460938 126.164062 152.464844 126.421875 152.472656 126.683594 L 152.472656 126.699219 C 152.5 128.121094 152.449219 129.664062 152.308594 131.335938 C 152.140625 133.332031 151.847656 135.503906 151.410156 137.882812 C 146.5 164.46875 141.089844 185.714844 152.578125 196.511719 C 157.644531 201.273438 161 200.609375 166.402344 200.730469 C 169.921875 199.597656 175.667969 198.628906 180.546875 201.9375 C 180.546875 201.9375 175.925781 200.628906 169.949219 200.949219 C 176.417969 201.652344 185.765625 204.457031 201.914062 215.828125 L 205.066406 217.761719 C 205.894531 218.34375 206.738281 218.949219 207.601562 219.570312 C 226.601562 233.359375 235.097656 245.171875 241.921875 253.246094 C 243.457031 255.058594 244.746094 256.699219 245.828125 258.144531 C 246.855469 259.519531 247.691406 260.71875 248.363281 261.738281 L 248.414062 261.816406 C 249.199219 263.007812 247.925781 264.488281 246.625 263.894531 L 246.578125 263.875 C 245.414062 263.339844 244.125 263.144531 242.855469 263.304688 L 242.730469 263.320312 C 243.640625 264.144531 243.109375 264.664062 240.773438 264.726562 C 238.46875 264.789062 234.417969 264.410156 228.265625 263.449219 C 218.949219 261.992188 208.125 260.039062 197.261719 256.90625 C 193.464844 255.8125 189.664062 254.574219 185.917969 253.164062 C 185.164062 252.878906 184.40625 252.589844 183.65625 252.289062 C 182.976562 252.019531 182.300781 251.742188 181.628906 251.460938 C 170.574219 246.824219 160.25 240.550781 152.335938 231.851562 C 150.863281 230.234375 149.476562 228.535156 148.179688 226.75 C 146.773438 224.804688 145.476562 222.761719 144.304688 220.605469 C 141.652344 215.722656 139.585938 211.007812 137.992188 206.492188 C 136.472656 207.984375 133.96875 208.859375 133.96875 208.859375 C 137.320312 207.058594 135.574219 198.394531 135.570312 198.363281 C 135.183594 196.785156 134.855469 195.242188 134.582031 193.730469 C 135.191406 197.441406 129.320312 201.375 129.320312 201.375 C 133.054688 198.523438 133.351562 185.304688 133.355469 181.425781 C 133.199219 170.65625 135.832031 162.644531 137.328125 158.144531 C 141.605469 145.324219 145.589844 134.878906 138.960938 128.160156 " fill-opacity="1" fill-rule="nonzero"/></g><path fill="#788389" d="M 179.234375 246.320312 C 179.234375 246.320312 180.160156 249.058594 181.625 252.738281 C 181.71875 252.964844 181.808594 253.195312 181.902344 253.429688 C 182.925781 255.964844 184.183594 258.867188 185.554688 261.605469 L 185.574219 261.648438 C 185.914062 262.324219 186.261719 262.988281 186.613281 263.636719 C 189.25 268.484375 192.027344 271.078125 194.53125 270.433594 C 195.949219 270.074219 196.855469 269.613281 197.207031 267.414062 C 197.585938 265.027344 197.496094 262.015625 197.273438 259.398438 C 196.992188 256.058594 196.5 253.355469 196.5 253.355469 L 179.234375 246.320312 " fill-opacity="1" fill-rule="nonzero"/><path fill="#d3d7d4" d="M 115.238281 118.011719 L 117.691406 123.429688 C 117.691406 123.429688 132.679688 124.589844 137.84375 127.429688 C 138.246094 127.652344 138.617188 127.890625 138.960938 128.160156 C 138.960938 128.160156 145.710938 131.355469 145.621094 134.917969 C 145.621094 134.917969 147.101562 131.324219 146.226562 130.101562 C 146.320312 130.171875 149.234375 132.441406 149.304688 134.917969 C 149.304688 134.917969 151.46875 132.019531 149.722656 130.621094 C 149.722656 130.621094 151.238281 130.40625 152.308594 131.335938 C 152.597656 131.585938 152.855469 131.921875 153.042969 132.367188 C 153.042969 132.367188 152.601562 128.441406 152.472656 126.699219 L 152.472656 126.683594 C 152.445312 126.296875 152.433594 126.015625 152.449219 125.917969 L 152.449219 125.910156 C 151.820312 110.777344 141.914062 109.660156 136.292969 109.234375 C 127.855469 108.597656 115.238281 118.011719 115.238281 118.011719 " fill-opacity="1" fill-rule="nonzero"/><path fill="#99a0a4" d="M 168.632812 250.132812 C 168.632812 250.132812 169.335938 251.699219 170.40625 253.960938 C 173.261719 259.96875 176.632812 271.140625 180.726562 270.402344 C 183.554688 269.886719 184.816406 263.75 185.421875 258.882812 C 185.472656 258.5 185.515625 258.125 185.554688 257.757812 C 185.792969 255.5625 185.886719 253.71875 185.921875 252.890625 C 185.933594 252.589844 185.9375 252.425781 185.9375 252.425781 L 183.660156 252.125 L 181.902344 251.890625 L 168.632812 250.132812 " fill-opacity="1" fill-rule="nonzero"/><path fill="#222a32" d="M 155.0625 121.777344 C 155.332031 121.964844 155.617188 122.148438 155.917969 122.316406 C 158.511719 123.773438 162.433594 122.316406 162.433594 122.316406 C 158.542969 122.242188 154.1875 119.835938 152.613281 118.886719 C 152.160156 118.199219 151.777344 117.480469 151.484375 116.734375 C 148.523438 109.132812 133.855469 105.230469 124.683594 112.289062 C 124.683594 112.289062 134.910156 116.582031 141.71875 115.921875 C 148.523438 115.253906 152.027344 126.363281 160.117188 128.40625 C 166.796875 130.089844 167.023438 129.085938 167.023438 129.085938 C 167.023438 129.085938 159.851562 126.375 155.0625 121.777344 " fill-opacity="1" fill-rule="nonzero"/><g clip-path="url(#cc89b24618)"><path fill="#f68428" d="M 125.394531 119.546875 L 122.441406 123.027344 C 122.324219 123.160156 122.167969 123.25 121.996094 123.261719 L 88.898438 125.929688 C 88.546875 125.957031 88.332031 125.679688 88.296875 125.378906 C 88.261719 125.109375 88.375 124.820312 88.679688 124.726562 L 119.738281 115.105469 C 119.917969 115.050781 120.109375 115.078125 120.277344 115.183594 L 125.210938 118.316406 L 125.367188 118.453125 C 125.632812 118.746094 125.65625 119.230469 125.394531 119.546875 " fill-opacity="1" fill-rule="nonzero"/></g><g clip-path="url(#2aef722adf)"><path fill="#f47025" d="M 88.851562 125.933594 C 88.527344 125.933594 88.332031 125.667969 88.296875 125.378906 L 125.210938 118.316406 L 125.367188 118.453125 C 125.503906 118.605469 125.578125 118.8125 125.582031 119.019531 C 125.582031 119.207031 125.519531 119.394531 125.394531 119.546875 L 122.441406 123.027344 C 122.324219 123.160156 122.167969 123.25 121.996094 123.261719 L 118.757812 123.523438 L 88.898438 125.929688 C 88.882812 125.929688 88.867188 125.933594 88.851562 125.933594 " fill-opacity="1" fill-rule="nonzero"/></g><path fill="#887666" d="M 134.074219 117.324219 C 134.011719 118.46875 132.757812 119.328125 131.277344 119.242188 C 129.792969 119.160156 128.648438 118.164062 128.710938 117.019531 C 128.777344 115.878906 130.027344 115.019531 131.511719 115.101562 C 132.992188 115.1875 134.136719 116.183594 134.074219 117.324219 " fill-opacity="1" fill-rule="nonzero"/><path fill="#040606" d="M 133.066406 117.183594 C 133.097656 117.996094 132.269531 118.6875 131.21875 118.726562 C 130.171875 118.769531 129.296875 118.144531 129.261719 117.332031 C 129.230469 116.523438 130.058594 115.832031 131.109375 115.792969 C 132.15625 115.75 133.035156 116.375 133.066406 117.183594 " fill-opacity="1" fill-rule="nonzero"/><path fill="#ffffff" d="M 131.691406 115.886719 C 131.832031 116.265625 131.640625 116.6875 131.265625 116.832031 C 130.886719 116.972656 130.460938 116.785156 130.320312 116.402344 C 130.175781 116.027344 130.367188 115.605469 130.746094 115.460938 C 131.125 115.320312 131.546875 115.507812 131.691406 115.886719 " fill-opacity="1" fill-rule="nonzero"/><g clip-path="url(#08681a94d1)"><path fill="#5c6873" d="M 155.714844 213.726562 L 155.71875 213.722656 C 157.054688 212.171875 159.234375 210.945312 161.636719 209.992188 C 169.140625 207.007812 177.460938 207.1875 184.925781 210.28125 C 192.714844 213.515625 199.347656 217.804688 199.789062 218.089844 L 199.808594 218.105469 C 200.605469 218.691406 201.410156 219.292969 202.234375 219.921875 C 220.4375 233.714844 231.542969 245.285156 238.078125 253.363281 C 239.550781 255.4375 240.898438 257.144531 241.878906 258.277344 C 243.226562 259.84375 243.453125 260.800781 243.945312 262.410156 L 243.945312 262.414062 L 243.945312 262.410156 C 243.945312 262.410156 246.246094 269.5625 249.046875 270.785156 C 249.046875 270.785156 246.988281 271.035156 245.140625 270.789062 C 245.585938 274.183594 245.769531 276.878906 244.464844 276.359375 C 243.816406 276.101562 239.160156 270.417969 234.378906 269.644531 L 234.332031 269.636719 C 232.207031 269.277344 188.894531 261.457031 168.558594 250.386719 C 168.035156 252.25 168.632812 252.890625 168.632812 252.890625 C 166.3125 251.78125 164.496094 248.929688 163.273438 247.023438 C 163.058594 246.859375 162.847656 246.691406 162.644531 246.527344 C 162.265625 246.214844 161.898438 245.902344 161.542969 245.589844 C 161.144531 247.832031 162.941406 250.132812 162.941406 250.132812 C 159.507812 247.527344 155.488281 239.480469 153.863281 236.011719 C 153.59375 235.472656 153.351562 234.933594 153.132812 234.402344 L 153.125 234.394531 L 153.128906 234.394531 C 152.789062 233.570312 152.507812 232.757812 152.277344 231.953125 C 150 223.949219 152.902344 216.988281 155.714844 213.726562 " fill-opacity="1" fill-rule="nonzero"/></g><path fill="#99a0a4" d="M 180.335938 210.683594 C 180.335938 210.683594 191.242188 212.890625 193.765625 221.777344 C 193.765625 221.777344 188.773438 214.433594 180.335938 210.683594 " fill-opacity="1" fill-rule="nonzero"/><path fill="#99a0a4" d="M 182.566406 211.476562 C 182.566406 211.476562 189.496094 215.511719 188.53125 223.074219 C 188.53125 223.074219 187.300781 216.214844 182.566406 211.476562 " fill-opacity="1" fill-rule="nonzero"/><path fill="#222a32" d="M 241.5625 268.78125 C 241.5625 268.78125 231.617188 269.945312 231.402344 260.648438 C 231.402344 260.648438 235.421875 266.609375 241.5625 268.78125 " fill-opacity="1" fill-rule="nonzero"/><path fill="#222a32" d="M 168.710938 247.320312 C 168.710938 247.320312 159.042969 244.703125 162.304688 236 C 162.304688 236 163.816406 243.023438 168.710938 247.320312 " fill-opacity="1" fill-rule="nonzero"/><path fill="#4b5460" d="M 234.378906 269.644531 L 234.332031 269.636719 C 232.703125 269.363281 206.746094 264.675781 185.582031 257.5 C 179.324219 255.378906 173.476562 253.035156 168.8125 250.523438 C 168.726562 250.480469 168.640625 250.433594 168.558594 250.386719 C 168.398438 250.953125 168.34375 251.410156 168.34375 251.765625 C 168.34375 252.582031 168.632812 252.890625 168.632812 252.890625 C 166.3125 251.78125 164.496094 248.929688 163.273438 247.023438 C 163.058594 246.859375 162.847656 246.691406 162.644531 246.527344 C 162.265625 246.214844 161.898438 245.902344 161.542969 245.589844 C 161.5 245.816406 161.484375 246.039062 161.484375 246.261719 C 161.484375 248.265625 162.941406 250.132812 162.941406 250.132812 C 159.507812 247.527344 155.488281 239.480469 153.863281 236.011719 C 153.59375 235.472656 153.351562 234.933594 153.132812 234.402344 L 153.125 234.394531 L 153.128906 234.394531 C 152.789062 233.570312 152.507812 232.757812 152.277344 231.953125 C 151.703125 229.9375 151.457031 227.984375 151.457031 226.140625 C 151.457031 220.675781 153.613281 216.164062 155.714844 213.726562 C 155.421875 214.1875 138.5 241.308594 234.378906 269.644531 M 168.710938 247.320312 C 163.816406 243.023438 162.304688 236 162.304688 236 C 159.042969 244.703125 168.710938 247.320312 168.710938 247.320312 " fill-opacity="1" fill-rule="nonzero"/><path fill="#222a32" d="M 168.710938 247.320312 C 168.710938 247.320312 159.042969 244.703125 162.304688 236 C 162.304688 236 163.816406 243.023438 168.710938 247.320312 " fill-opacity="1" fill-rule="nonzero"/></svg>