<?xml version="1.0" encoding="utf-8"?>
<!-- Generator: Adobe Illustrator 27.3.1, SVG Export Plug-In . SVG Version: 6.00 Build 0)  -->
<svg version="1.0" xmlns="http://www.w3.org/2000/svg" xmlns:xlink="http://www.w3.org/1999/xlink" x="0px" y="0px"
	 viewBox="0 0 500 400" enable-background="new 0 0 500 400" xml:space="preserve">
<g id="Camada_9">
	<path fill="#837161" d="M203.15,178.73c0.38-1.14,13.55-60.92,24.16-68.4l23.97,9.57L250,167.93l0.71,33.92l-7.58,25.86
		l-19.52,14.4c0,0-10.23-6.35-10.33-5.97s0.19-36.14,0.19-36.14L203.15,178.73z"/>
	<path fill="#806B5D" d="M312.03,240.25c0,0,36.44-52.54,27.35-107.81l20.37-6.61c0,0,4.52,69.45,3.51,69.95
		s-14.65,39.79-15.16,40.36C347.59,236.71,312.03,240.25,312.03,240.25z"/>
</g>
<g id="Camada_8">
	<g>
		<path fill="#EFEEE2" d="M289.36,239.17c0.57,0.38,54.95-3.03,54.95-3.03L313.8,296.2c0,0-38.08,28.04-38.84,28.23
			c-0.76,0.19-58.74-7.2-59.31-7.01s26.72-38.84,26.72-38.84L289.36,239.17z"/>
		<path fill="#E5DFD1" d="M232.61,313.74l7.01-0.39c32.02-5.68,73.42-74.75,73.42-74.75l-18.76,0.95l-63.66,71.05L232.61,313.74z"/>
	</g>
</g>
<g id="Camada_4">
	<path fill="#BBAF9E" d="M396.85,213.25c-1.14,25.27-2.75,61.08-25.77,96.47c-10.36,15.94-22.2,27.37-31.75,35.08
		c-2.23,1.81-4.34,3.42-6.27,4.83c-0.27,0.21-0.55,0.4-0.82,0.59c-52.43,36.93-113.69,24.65-122.84,22.66
		c-63.26-13.74-116.56-66.51-124.8-125.05c-1.73-12.25-6.89-48.91,17.18-73.01c22.53-22.56,66.03-29.4,94.74-5.81
		c28.52,23.45,23.29,63.35,22.99,65.43l5.68,3.03l7.2,71.25c40.93,6.56,58.1-4.05,58.1-4.05s8.93-5.39,18.76-17.56
		c4.41-5.47,9.85-13.07,12.91-21.05c10.15-23.61,19.95-56.69,20.63-58.97c0.01-0.03,0.01-0.06,0.02-0.09
		c0.01-0.03,0.01-0.04,0.01-0.04c2.46-11.29,7.05-33.1,7.74-41.5c0,0,1.51-18.94,1.51-19.23c0-0.28-1.99-24.91,21.51-24.35
		c0,0,12.31-1.99,15.91,17.81C397.05,170.47,397.62,196.19,396.85,213.25z"/>
	<path fill="#BBAF9E" d="M339.38,344.84c-2.09,1.68-4.2,3.29-6.32,4.79c1.93-1.41,4.04-3.02,6.27-4.83L339.38,344.84z"/>
</g>
<g id="Camada_6">
	<linearGradient id="SVGID_1_" gradientUnits="userSpaceOnUse" x1="183.1223" y1="228.1148" x2="308.3053" y2="228.1148">
		<stop  offset="0.0637" style="stop-color:#BBAF9E"/>
		<stop  offset="0.1241" style="stop-color:#B9AC9B"/>
		<stop  offset="0.6488" style="stop-color:#AA9982"/>
		<stop  offset="1" style="stop-color:#A5927A"/>
	</linearGradient>
	<path fill="url(#SVGID_1_)" d="M185.93,263.54c0.76-1.27,34.89-11.97,58.57-51.95c0,0,14.77-25.08,18.97-39.98
		c0,0,8.28-35.53,25.08-35.53c0,0,17.32-1.4,19.23,16.43c0,0,2.67,34.63-4.07,58.7c0,0-12.1,47.11-30.43,65.83
		c0,0-41.38,50.8-73.6,42.15l-7.13-3.31c0,0-9.3-49.53-9.42-49.91C183,265.58,185.93,263.54,185.93,263.54z"/>
</g>
<g id="Camada_5">
	<path fill="#FFFFFF" d="M155.98,198.74c0.22,0.23,6.73-33.89,36.91-22.87c0,0,33.45,16.05,22.3,45.24c0,0-8.27,26.87-38.26,37.12
		c0,0-49.93,13.43-73.18-12.68c0,0-24.33-27.75,5.17-52.49C108.92,193.06,130.12,171.63,155.98,198.74z"/>
</g>
<g id="Camada_15">
	<g>
		<path fill="#423036" d="M145.67,216.75c-0.59,3.1-7.79,7.59-9.76,8.77c0,0-0.03,0.02-0.09,0.05c-0.1,0.05-0.27,0.14-0.52,0.27
			c-2.31,1.23-10.85,5.79-18.46,10.44c-6.17,4.36-11.47,8.61-12.83,9.71c-0.01,0.02-0.02,0.03-0.02,0.03
			c-0.21,0.16-0.32,0.25-0.32,0.25c-10.13-12.6-6.87-18.51-6.82-18.85c1.27-8.46,18.32-20.59,18.32-20.59
			c15.22-8.65,25.64-2.28,25.64-2.28C148.77,209.08,145.67,216.75,145.67,216.75z"/>
		<path fill="#423036" d="M135.82,225.57c-0.26,0.15-0.41,0.24-0.41,0.24c-0.04,0.01-0.07,0.02-0.11,0.03
			C135.55,225.71,135.72,225.62,135.82,225.57z"/>
		<path fill="#423036" d="M216.44,218.47c-0.26,0-15.69-5.86-26.15-5.09c0,0-16.59,0.06-19.39-5.01c-2.8-5.07-0.23,0-0.23,0
			s-5.55-7.41,2.6-13.12c0,0,6.84-6.93,21.8-5.25c0,0,16.32,3.8,19.36,9.61c0,0,4.91,5.99,2.23,18.86"/>
		<path fill="none" stroke="#FFFFFF" stroke-width="3" stroke-linecap="round" stroke-miterlimit="10" d="M123.76,215.11
			c1.41,2.58,4.2,4.08,7.01,3.79c3.2-0.33,5.86-2.9,6.35-6.25"/>
		<path fill="none" stroke="#FFFFFF" stroke-width="3" stroke-linecap="round" stroke-miterlimit="10" d="M178.07,202.03
			c1.41,2.58,4.2,4.08,7.01,3.79c3.2-0.33,5.86-2.9,6.35-6.25"/>
		
			<ellipse transform="matrix(0.9923 -0.1235 0.1235 0.9923 -26.03 21.6788)" fill="#48373F" cx="161.82" cy="220.77" rx="11.38" ry="8.74"/>
		<g>
			<g>
				<path fill="#3D2F34" d="M169.12,218.59c-2.1-0.7-4.13,0.78-4.95,2.65c-0.98,2.24-0.68,4.76-0.38,7.11
					c0.04,0.34,0.26,0.62,0.62,0.62c0.3,0,0.67-0.29,0.62-0.62c-0.26-2-0.56-4.12,0.07-6.08c0.49-1.54,1.92-3.06,3.67-2.48
					C169.55,220.05,169.88,218.85,169.12,218.59L169.12,218.59z"/>
			</g>
		</g>
		<g>
			<g>
				<path fill="#3D2F34" d="M155.59,224.12c0.5-0.82,1.6-1.17,2.51-1.23c1-0.07,2,0.15,2.86,0.67c0.87,0.52,1.51,1.33,1.95,2.24
					c0.22,0.46,0.38,0.95,0.51,1.45c0.13,0.5,0.16,1.03,0.31,1.52c0.1-0.24,0.19-0.47,0.29-0.71c-0.01,0.01-0.02,0.02-0.04,0.02
					c0.21,0,0.42,0,0.63,0c-0.01-0.01-0.03-0.02-0.04-0.03c0,0.36,0,0.72,0,1.08c0.01,0,0.01-0.01,0.02-0.01
					c0.7-0.4,0.07-1.48-0.63-1.08c-0.01,0-0.01,0.01-0.02,0.01c-0.43,0.25-0.37,0.82,0,1.08c0.01,0.01,0.03,0.02,0.04,0.03
					c0.17,0.12,0.46,0.11,0.63,0c0.01-0.01,0.02-0.02,0.04-0.02c0.23-0.14,0.37-0.44,0.29-0.71c-0.08-0.26-0.09-0.38-0.16-0.79
					c-0.05-0.29-0.11-0.58-0.19-0.87c-0.16-0.62-0.4-1.23-0.69-1.8c-0.58-1.11-1.48-2.09-2.6-2.66c-2.08-1.05-5.42-1.02-6.78,1.18
					C154.08,224.17,155.17,224.8,155.59,224.12L155.59,224.12z"/>
			</g>
		</g>
		<path fill="none" stroke="#3D2F34" stroke-width="3" stroke-linecap="round" stroke-miterlimit="10" d="M146.49,233.86
			c1.78,1.11,8.07,4.72,16.48,3.6c10.08-1.35,15.64-8.48,16.67-9.85"/>
	</g>
</g>
<g id="bolinhas">
	<g>
		<path fill="none" stroke="#E8E4D8" stroke-width="3" stroke-linecap="round" stroke-miterlimit="10" d="M109.17,268.97
			c0.57,0.57,4.36,7.96,6.44,10.23"/>
		<path fill="none" stroke="#E8E4D8" stroke-width="3" stroke-linecap="round" stroke-miterlimit="10" d="M117.44,297.45
			c0,0,5.68,6.44,6.44,7.83"/>
		<path fill="none" stroke="#E8E4D8" stroke-width="3" stroke-linecap="round" stroke-miterlimit="10" d="M136.64,287.73
			c10.74,10.36,10.74,10.36,10.74,10.36"/>
		<path fill="none" stroke="#E8E4D8" stroke-width="3" stroke-linecap="round" stroke-miterlimit="10" d="M161.27,341.03
			c3.92,3.79,3.92,3.79,3.92,3.79"/>
		<path fill="none" stroke="#E8E4D8" stroke-width="3" stroke-linecap="round" stroke-miterlimit="10" d="M222.54,332.19
			c18.95,3.28,18.95,3.28,18.95,3.28"/>
		<path fill="none" stroke="#E8E4D8" stroke-width="3" stroke-linecap="round" stroke-miterlimit="10" d="M246.41,366.04
			c13.01-0.13,13.01-0.13,13.01-0.13"/>
		<path fill="none" stroke="#E8E4D8" stroke-width="3" stroke-linecap="round" stroke-miterlimit="10" d="M335.84,334.84
			c7.45-8.08,7.45-8.08,7.45-8.08"/>
		<path fill="none" stroke="#E8E4D8" stroke-width="3" stroke-linecap="round" stroke-miterlimit="10" d="M358.58,311.47
			c2.15-5.05,2.15-5.05,2.15-5.05"/>
		<path fill="none" stroke="#E8E4D8" stroke-width="3" stroke-linecap="round" stroke-miterlimit="10" d="M351.51,285.33
			c3.28-9.35,3.28-9.35,3.28-9.35"/>
		<path fill="none" stroke="#E8E4D8" stroke-width="3" stroke-linecap="round" stroke-miterlimit="10" d="M381.82,235.24
			c1.33-14.02,1.33-14.02,1.33-14.02"/>
		<g>
			<g>
				<path fill="#E8E4D8" d="M157.04,186.29c0.39-0.63,0.82-1.24,1.27-1.83c-0.07,0.08-0.13,0.17-0.2,0.25c0.32-0.41,0.65-0.81,1-1.2
					c0.22-0.25,0.37-0.55,0.37-0.88c0-0.31-0.14-0.67-0.37-0.88c-0.24-0.22-0.55-0.38-0.88-0.37c-0.32,0.01-0.66,0.12-0.88,0.37
					c-0.91,1.02-1.75,2.12-2.47,3.29c-0.35,0.56-0.14,1.4,0.45,1.71C155.94,187.06,156.67,186.88,157.04,186.29L157.04,186.29z"/>
			</g>
		</g>
		<g>
			<g>
				<path fill="#E8E4D8" d="M163.67,177.32c0.09-0.14,0.19-0.28,0.3-0.42c-0.07,0.08-0.13,0.17-0.2,0.25
					c0.22-0.28,0.46-0.54,0.72-0.78c0.12-0.11,0.21-0.25,0.26-0.4c0.08-0.15,0.11-0.31,0.11-0.48c0.01-0.17-0.03-0.33-0.11-0.48
					c-0.05-0.15-0.14-0.29-0.26-0.4c-0.08-0.07-0.17-0.13-0.25-0.2c-0.19-0.11-0.41-0.17-0.63-0.17c-0.11,0.01-0.22,0.03-0.33,0.04
					c-0.21,0.06-0.4,0.17-0.55,0.32c-0.2,0.18-0.38,0.37-0.55,0.58c-0.23,0.28-0.46,0.57-0.66,0.88c-0.09,0.14-0.14,0.3-0.15,0.46
					c-0.04,0.17-0.03,0.33,0.02,0.5c0.04,0.16,0.11,0.3,0.22,0.43c0.09,0.14,0.21,0.24,0.35,0.32c0.1,0.04,0.2,0.08,0.3,0.13
					c0.22,0.06,0.44,0.06,0.66,0c0.1-0.04,0.2-0.08,0.3-0.13C163.41,177.66,163.56,177.51,163.67,177.32L163.67,177.32z"/>
			</g>
		</g>
		<g>
			<g>
				<path fill="#E8E4D8" d="M158.84,169.85c0.16-0.24,0.33-0.48,0.51-0.72c-0.07,0.08-0.13,0.17-0.2,0.25
					c0.62-0.81,1.34-1.53,2.15-2.16c-0.08,0.07-0.17,0.13-0.25,0.2c0.05-0.04,0.11-0.08,0.16-0.13c0.27-0.2,0.48-0.41,0.57-0.75
					c0.08-0.3,0.05-0.7-0.13-0.96c-0.17-0.27-0.43-0.5-0.75-0.57c-0.31-0.07-0.7-0.07-0.96,0.13c-0.64,0.48-1.25,0.99-1.79,1.57
					c-0.55,0.58-1.04,1.21-1.48,1.87c-0.17,0.26-0.21,0.67-0.13,0.96c0.08,0.29,0.3,0.6,0.57,0.75
					C157.76,170.63,158.46,170.43,158.84,169.85L158.84,169.85z"/>
			</g>
		</g>
		<g>
			<g>
				<path fill="#E8E4D8" d="M142.5,165.99c0.46,0.82,0.87,1.67,1.25,2.53c0.06,0.13,0.05,0.12-0.01-0.03
					c0.02,0.04,0.04,0.09,0.06,0.14c0.04,0.11,0.09,0.21,0.13,0.32c0.08,0.21,0.17,0.42,0.24,0.64c0.17,0.46,0.32,0.92,0.47,1.39
					c0.19,0.62,0.88,1.09,1.54,0.87c0.63-0.2,1.08-0.87,0.87-1.54c-0.6-1.93-1.4-3.81-2.39-5.58c-0.32-0.57-1.15-0.81-1.71-0.45
					C142.37,164.65,142.16,165.38,142.5,165.99L142.5,165.99z"/>
			</g>
		</g>
		<g>
			<g>
				<path fill="#E8E4D8" d="M132.51,171.98c1.85,1.11,3.79,2.25,5.95,2.6c0.64,0.11,1.38-0.17,1.54-0.87
					c0.14-0.6-0.18-1.42-0.87-1.54c-0.49-0.08-0.98-0.2-1.45-0.36c-0.25-0.08-0.51-0.16-0.75-0.28c0.28,0.14-0.11-0.05-0.16-0.07
					c-0.11-0.05-0.21-0.1-0.32-0.15c-0.92-0.44-1.8-0.97-2.68-1.49c-0.56-0.34-1.4-0.14-1.71,0.45
					C131.74,170.88,131.91,171.62,132.51,171.98L132.51,171.98z"/>
			</g>
		</g>
		<g>
			<g>
				<path fill="#E8E4D8" d="M121.67,174.67c0.77-0.04,1.55-0.02,2.32,0.06c0.04,0,0.09,0.01,0.13,0.02
					c0.14,0.02,0.12,0.01-0.07-0.01c0.08-0.01,0.19,0.03,0.26,0.04c0.19,0.03,0.37,0.07,0.56,0.1c0.39,0.08,0.77,0.18,1.15,0.29
					c0.63,0.19,1.39-0.22,1.54-0.87c0.15-0.67-0.2-1.34-0.87-1.54c-1.61-0.48-3.33-0.69-5.01-0.59c-0.65,0.04-1.28,0.55-1.25,1.25
					C120.45,174.07,120.98,174.71,121.67,174.67L121.67,174.67z"/>
			</g>
		</g>
		<g>
			<g>
				<path fill="#E8E4D8" d="M138.91,184.74c1.34,0.07,2.53,0.26,3.87,0.61c1.29,0.34,2.31,0.69,3.39,1.4
					c0.55,0.36,1.41,0.13,1.71-0.45c0.33-0.63,0.13-1.32-0.45-1.71c-1.2-0.8-2.6-1.28-3.99-1.65c-1.48-0.39-3.01-0.62-4.54-0.7
					c-0.65-0.04-1.28,0.6-1.25,1.25C137.69,184.19,138.21,184.7,138.91,184.74L138.91,184.74z"/>
			</g>
		</g>
		<path fill="none" stroke="#9D8B7E" stroke-width="3" stroke-linecap="round" stroke-miterlimit="10" d="M140.68,324.62
			c6.57,6.19,6.57,6.19,6.57,6.19"/>
		<path fill="none" stroke="#9D8B7E" stroke-width="3" stroke-linecap="round" stroke-miterlimit="10" d="M140.68,307.95
			c25.77,19.45,25.77,19.45,25.77,19.45"/>
		<path fill="none" stroke="#9D8B7E" stroke-width="3" stroke-linecap="round" stroke-miterlimit="10" d="M165.69,302.77
			c6.57,4.17,6.57,4.17,6.57,4.17"/>
		<path fill="none" stroke="#9D8B7E" stroke-width="3" stroke-linecap="round" stroke-miterlimit="10" d="M190.71,341.67
			c15.92,5.56,15.92,5.56,15.92,5.56"/>
		<path fill="none" stroke="#9D8B7E" stroke-width="3" stroke-linecap="round" stroke-miterlimit="10" d="M239.34,295.82
			c8.34-6.44,8.34-6.44,8.34-6.44"/>
		<path fill="none" stroke="#9D8B7E" stroke-width="3" stroke-linecap="round" stroke-miterlimit="10" d="M256.52,281.29
			c6.69-7.96,6.69-7.96,6.69-7.96"/>
		<path fill="none" stroke="#9D8B7E" stroke-width="3" stroke-linecap="round" stroke-miterlimit="10" d="M273.32,265
			c4.67-7.71,4.67-7.71,4.67-7.71"/>
		<path fill="none" stroke="#9D8B7E" stroke-width="3" stroke-linecap="round" stroke-miterlimit="10" d="M280.14,234.43
			c3.54-10.74,3.54-10.74,3.54-10.74"/>
		<path fill="none" stroke="#9D8B7E" stroke-width="3" stroke-linecap="round" stroke-miterlimit="10" d="M293.91,217.51
			c1.52-5.94,1.52-5.94,1.52-5.94"/>
		<path fill="none" stroke="#9D8B7E" stroke-width="3" stroke-linecap="round" stroke-miterlimit="10" d="M190.71,355.32
			c9.98,3.54,9.98,3.54,9.98,3.54"/>
		<path fill="none" stroke="#9D8B7E" stroke-width="3" stroke-linecap="round" stroke-miterlimit="10" d="M222.03,367.57
			c16.67,1.77,16.67,1.77,16.67,1.77"/>
		<path fill="none" stroke="#9D8B7E" stroke-width="3" stroke-linecap="round" stroke-miterlimit="10" d="M250.71,349.38
			c15.16,0.13,15.16,0.13,15.16,0.13"/>
		<path fill="none" stroke="#9D8B7E" stroke-width="3" stroke-linecap="round" stroke-miterlimit="10" d="M281.53,351.78
			c12.13-4.04,12.13-4.04,12.13-4.04"/>
		<path fill="none" stroke="#9D8B7E" stroke-width="3" stroke-linecap="round" stroke-miterlimit="10" d="M287.59,361.63
			c17.81-7.33,17.81-7.33,17.81-7.33"/>
		<path fill="none" stroke="#9D8B7E" stroke-width="3" stroke-linecap="round" stroke-miterlimit="10" d="M325.74,325.51
			c9.47-10.23,9.47-10.23,9.47-10.23"/>
		<path fill="none" stroke="#9D8B7E" stroke-width="3" stroke-linecap="round" stroke-miterlimit="10" d="M339.13,334.35
			c0.51-0.51,6.57-7.2,6.57-7.2"/>
		<path fill="none" stroke="#9D8B7E" stroke-width="3" stroke-linecap="round" stroke-miterlimit="10" d="M367.29,290.26
			c0.38-0.38,5.05-13.52,5.43-13.64"/>
		<path fill="none" stroke="#9D8B7E" stroke-width="3" stroke-linecap="round" stroke-miterlimit="10" d="M376.52,194.26
			c-3.03-32.97-3.03-32.97-3.03-32.97"/>
		<path fill="none" stroke="#9D8B7E" stroke-width="3" stroke-linecap="round" stroke-miterlimit="10" d="M387.13,163.19
			c-0.88-4.17-0.88-4.17-0.88-4.17"/>
		<path fill="none" stroke="#9D8B7E" stroke-width="3" stroke-linecap="round" stroke-miterlimit="10" d="M383.84,148.66
			c-1.14-6.32-1.14-6.32-1.14-6.32"/>
		<path fill="none" stroke="#9D8B7E" stroke-width="3" stroke-linecap="round" stroke-miterlimit="10" d="M236.56,202.98
			c0.76-4.42,0.76-4.42,0.76-4.42"/>
		<path fill="none" stroke="#544240" stroke-width="3" stroke-linecap="round" stroke-miterlimit="10" d="M233.05,175.82
			c2.37-10.36,2.37-10.36,2.37-10.36"/>
		<path fill="none" stroke="#544240" stroke-width="3" stroke-linecap="round" stroke-miterlimit="10" d="M241.15,157
			c0.59-10.86,0.59-10.86,0.59-10.86"/>
	</g>
</g>
<g id="folha">
	<g>
		<g>
			<path fill="#528C27" d="M425.58,77.2c0,0-11.12,3.04-16.55-13.51c0,0-4.29-13.58,0.57-22.86c0,0,1.71-4.99,7.07-0.44
				c0,0,6.28,4.17,9.25,8.75c0,0,5.46,7.42,5.72,14.65C431.89,71.02,429.56,74.67,425.58,77.2z"/>
			<g>
				<path fill="none" stroke="#000000" stroke-width="2" stroke-linecap="round" stroke-miterlimit="50" d="M425.22,75.53
					c0.05,0.14-9.99-24.54-9.99-24.54"/>
				<path fill="none" stroke="#000000" stroke-width="2" stroke-linecap="round" stroke-miterlimit="50" d="M419.34,61.15
					c0.43-0.41,3.98-6.75,4.12-6.85"/>
				<path fill="none" stroke="#000000" stroke-width="2" stroke-linecap="round" stroke-miterlimit="50" d="M418.82,60.94
					c0,0-5.4-2.84-6.82-3.84"/>
			</g>
		</g>
		<path fill="#376423" d="M91.91,97.23c0,0-21.71-16.15-39.65,2.04c0,0,2.15,9.92,17.68,12.57
			C69.95,111.84,95.88,114.26,91.91,97.23z"/>
		<path fill="none" stroke="#4E6E30" stroke-width="4" stroke-linecap="round" stroke-miterlimit="50" d="M430.68,99.31
			c0,0,24.02,33.19,27.18,35.84"/>
		<g>
			<path fill="#4E6E30" d="M428.38,115.21c-0.28,0.06-0.58,0.07-0.89,0.03c-1.37-0.2-2.31-1.47-2.11-2.84
				c0.85-5.81,5.52-10.17,5.72-10.35c1.02-0.94,2.6-0.87,3.53,0.14c0.93,1.01,0.87,2.59-0.14,3.53c-0.04,0.04-3.57,3.38-4.16,7.41
				C430.18,114.19,429.37,115,428.38,115.21z"/>
		</g>
		<g>
			<path fill="#4E6E30" d="M435.44,104.43c-0.82-0.16-1.53-0.73-1.85-1.56c-0.49-1.29,0.15-2.74,1.44-3.23
				c5.49-2.1,11.57-0.16,11.83-0.07c1.31,0.43,2.03,1.84,1.6,3.15c-0.43,1.31-1.83,2.03-3.15,1.6l0,0c-0.05-0.01-4.69-1.47-8.5-0.01
				C436.36,104.49,435.88,104.52,435.44,104.43z"/>
		</g>
		<g>
			<path fill="#4E6E30" d="M435.69,127.71c-0.28,0.06-0.58,0.07-0.89,0.03c-1.37-0.2-2.31-1.47-2.11-2.84
				c0.85-5.81,5.52-10.17,5.72-10.35c1.02-0.94,2.6-0.87,3.53,0.14c0.93,1.01,0.87,2.59-0.14,3.53c-0.04,0.04-3.57,3.38-4.16,7.41
				C437.48,126.69,436.68,127.5,435.69,127.71z"/>
		</g>
		<g>
			<path fill="#4E6E30" d="M442.74,116.94c-0.82-0.16-1.53-0.73-1.85-1.56c-0.49-1.29,0.15-2.74,1.44-3.23
				c5.49-2.1,11.57-0.16,11.83-0.07c1.31,0.43,2.03,1.84,1.6,3.15c-0.43,1.31-1.83,2.03-3.15,1.6l0,0c-0.05-0.01-4.69-1.47-8.5-0.01
				C443.66,116.99,443.19,117.02,442.74,116.94z"/>
		</g>
		<g>
			<path fill="#4E6E30" d="M445.62,139.46c-0.28,0.06-0.58,0.07-0.89,0.03c-1.37-0.2-2.31-1.47-2.11-2.84
				c0.85-5.81,5.52-10.17,5.72-10.35c1.02-0.94,2.6-0.87,3.53,0.14c0.93,1.01,0.87,2.59-0.14,3.53c-0.04,0.04-3.57,3.38-4.16,7.41
				C447.42,138.44,446.61,139.25,445.62,139.46z"/>
		</g>
		<g>
			<path fill="#4E6E30" d="M452.68,128.68c-0.82-0.16-1.53-0.73-1.85-1.56c-0.49-1.29,0.15-2.74,1.44-3.23
				c5.49-2.1,11.57-0.16,11.83-0.07c1.31,0.43,2.03,1.84,1.6,3.15c-0.43,1.31-1.83,2.03-3.15,1.6l0,0c-0.05-0.01-4.69-1.47-8.5-0.01
				C453.6,128.74,453.12,128.77,452.68,128.68z"/>
		</g>
		<g>
			<path fill="#528C27" d="M111.73,87.72c0,0-18.41-0.23-23.65-25.69c0,0-1.65-18.74,3.96-18.8c0,0,15.87-2.62,22.95,10.73
				c0,0,7.07,9.64,4.97,21.36C119.97,75.31,119.32,85.38,111.73,87.72z"/>
			<path fill="none" stroke="#000000" stroke-width="2" stroke-linecap="round" stroke-miterlimit="50" d="M94.25,46.81
				c0,0,17.45,32.12,18.23,39.83"/>
			<path fill="none" stroke="#000000" stroke-width="2" stroke-linecap="round" stroke-miterlimit="50" d="M104.46,66.66
				c0.74-0.58,3.53-4.87,4.35-9.11"/>
			<path fill="none" stroke="#000000" stroke-width="2" stroke-linecap="round" stroke-miterlimit="50" d="M108.39,75.06
				c0.46-0.79,5.1-10.22,5.75-10.79"/>
			<path fill="none" stroke="#000000" stroke-width="2" stroke-linecap="round" stroke-miterlimit="50" d="M103.14,64.85"/>
			<path fill="none" stroke="#000000" stroke-width="2" stroke-linecap="round" stroke-miterlimit="50" d="M94.68,61.88
				c0.14-0.18,8.78,3.56,8.78,3.56"/>
		</g>
		<g>
			<path fill="#41721E" d="M159.87,102.05c-0.09-0.19-14.49-15.25-3.03-34.11c0,0,7.58-16.2,23.02-13.45c0,0,6.73,1.89,6.35,7.2
				L159.87,102.05z"/>
			<path fill="#528C27" d="M159.87,102.05c0,0,12.92,5.78,26.35-6.82c0,0,14.48-18.28,10.78-25.39c0,0-1.23-9.19-10.8-8.15"/>
			<path fill="none" stroke="#000000" stroke-width="2" stroke-linecap="round" stroke-miterlimit="50" d="M164.51,68.52
				c0.57,0.85,4.45,14.68,4.45,14.68"/>
			<path fill="none" stroke="#000000" stroke-width="2" stroke-linecap="round" stroke-miterlimit="50" d="M173.99,86.9"/>
			<path fill="none" stroke="#000000" stroke-width="2" stroke-linecap="round" stroke-miterlimit="50" d="M173.42,87.08
				c0.57-0.19,14.78-2.56,15.06-2.94"/>
		</g>
		<g>
			<path fill="#528C27" d="M154.54,112.75c0.14,0.16,7.22,12.44-12.78,21.81c0,0-19.64,7-25.67,0.05c0,0-2.95-11.91,17.89-22.15
				C133.98,112.47,147.46,105.15,154.54,112.75z"/>
			<path fill="none" stroke="#000000" stroke-width="2" stroke-linecap="round" stroke-miterlimit="50" d="M152.59,112.35
				c-0.32-0.11-19.13,16.43-27.11,12.84"/>
			<path fill="none" stroke="#000000" stroke-width="2" stroke-linecap="round" stroke-miterlimit="50" d="M143.23,118.43
				c-0.27,0.2-7.06-1.13-7.06-1.13"/>
			<path fill="none" stroke="#000000" stroke-width="2" stroke-linecap="round" stroke-miterlimit="50" d="M133.42,124.64
				c-0.21,0.43-2.19,4.85-1.24,7.8"/>
			<path fill="none" stroke="#000000" stroke-width="2" stroke-linecap="round" stroke-miterlimit="50" d="M144.8,129.98
				c0.1-0.35,0.53-9.65,0.28-11.48"/>
		</g>
	</g>
</g>
<g id="Camada_12">
	<path fill="#3E3435" d="M341.07,114.87c0,0-1.68-11.55,0.85-13.75c0,0,1.06-0.87,1.3,0.35c0,0,0.71,8.93,1.22,11.98l0.5,2.12
		c0,0-3.77,0.53-3.83,0.53C341.04,116.1,341.07,114.87,341.07,114.87z"/>
	<path fill="#3E3435" d="M347.44,113.47c0,0-1.68-11.55,0.85-13.75c0,0,1.06-0.87,1.3,0.35c0,0,0.71,8.93,1.22,11.98l0.5,2.12
		c0,0-3.77,0.53-3.83,0.53C347.42,114.69,347.44,113.47,347.44,113.47z"/>
	<path fill="#3E3435" d="M354.23,111.96c0,0-1.68-11.55,0.85-13.75c0,0,1.06-0.87,1.3,0.35c0,0,0.71,8.93,1.22,11.98l0.5,2.12
		c0,0-3.77,0.53-3.83,0.53C354.2,113.19,354.23,111.96,354.23,111.96z"/>
</g>
<g id="galho">
	<path fill="#433137" d="M468.6,68.45c0,0-10.04,11.62-19.26,18.7l-28.3,18.44l-28.32,14.59l-10.71,4.45c0,0-15.92-10.45-27.92,9.51
		l-17.3,3.47c0,0-26.15,3.66-34.86,3.41c0,0-11.06-9.13-23.06,0.01l-36.44-3.67l-38.52-8.99l-36.57-10.51l-21.18-6.68l-21.5-7.06
		l-16.55-5.66c-5.24,1.47-12.82,2.39-12.82,2.39c-8.67,1.42-29.46,0.67-29.46,0.67c-7.77,0.28-6.39-2.21-6.4-2.28
		c-0.14-1.42,7.42-1.01,7.42-1.01l21.98-0.72c3.54-0.27,10.63-1.09,12.86-1.36c-0.21-0.07-0.41-0.15-0.61-0.22
		c-1.36-0.49-2.4-0.87-2.43-0.88l-13.9-5.59l-11.23-4.69l-11.2-4.74l-10.66-4.69c0,0-9.02-3.97-9.04-4.05
		c-0.03-0.07-9.17-3.93-9.17-3.93s-5.76-2.41-3.01-7.01c0,0,2.47-3.88,7.44-1.37l16.06,6.49c0,0,4.07,2.56,0.66-3.36
		c0,0-5.26-10.62-5.31-10.9c-0.04-0.28-2.03-4.5,0.86-5.73c0,0,2.98-2.04,4.88,1.89l6.25,14.45l3.36,6.77c0,0,0.67,1.85,5.5,3.13
		l17.71,6.63l14.45,4.83l15.92,4.65l13.35,4.02l7.16,2.28c0,0,6.01,2.98,1.46-3.08c0,0-9.75-13.64-9.8-13.79
		c-0.05-0.14-4.6-6.34-4.6-6.72s-3.03-4.27,1.14-6.11c0,0,3.22-2.09,5.16,1.8l6.64,9.71l9.52,13.69l5.87,8.1c0,0,1,2.03,6.68,3.08
		l18.43,4.68c0,0,18.84,4.84,19.18,4.84c0.19-0.05,20.75,4.45,20.89,4.4c0.4,0,32.8,6.3,39.13,6.4l28.37,1.04
		c0,0,35.81-1.8,41.12-3.89l24.72-6.34l29.47-10.9l23.21-11.65c0,0,36.22-24.32,38.27-26.15l6.32-5.52
		c0.63-0.51,6.44-7.96,12.5-4.05C462.41,53.67,473.67,62.77,468.6,68.45z"/>
</g>
<g id="Camada_11">
	<path fill="#F8F9F6" d="M233.08,121.82l3.32,0.63c0,0-0.51,5.56-1.23,6.76c0,0-0.76,0.85-1.64-1.04
		C233.53,128.17,232.89,126.34,233.08,121.82z"/>
	<path fill="#F8F9F6" d="M237.79,122.23l3.35,0.41c0,0-0.14,5.58-0.78,6.82c0,0-0.7,0.9-1.71-0.93
		C238.66,128.53,237.9,126.75,237.79,122.23z"/>
	<path fill="#F8F9F6" d="M243.01,122.41l3.35,0.41c0,0-0.14,5.58-0.78,6.82c0,0-0.7,0.9-1.71-0.93
		C243.87,128.72,243.12,126.94,243.01,122.41z"/>
	<path fill="#F8F9F6" d="M248.15,121.89l3.35,0.41c0,0-0.14,5.58-0.78,6.82c0,0-0.7,0.9-1.71-0.93
		C249.01,128.19,248.26,126.41,248.15,121.89z"/>
	<path fill="#FBFAFC" d="M279.87,140.47c0.2-0.16,2.17-17.71,4.76-21.63c0,0,0.13-0.82,0.76-0.76c0,0,0.95-1.45,0.95,6l-0.63,13.96
		L279.87,140.47z"/>
	<path fill="#FBFAFC" d="M302.01,141.49c-0.19-0.17-1-17.81-3.33-21.89c0,0-0.07-0.83-0.71-0.81c0,0-0.85-1.51-1.34,5.93
		l-0.28,13.97L302.01,141.49z"/>
	<path fill="#FBFAFC" d="M288.54,137.34c0.02-0.28,1.26-18.01,1.71-20.13c0,0,0.63-2.31,1.33-1.91c0,0,0.95-1.11,1.45,3.67
		c0,0,0.81,14.62,0.59,18.49L288.54,137.34z"/>
	<path fill="#FBFAFC" d="M356.95,131.23c0.13-0.25-4.42-19.26-3.43-24.34c0,0-0.18-0.9,0.43-1.08c0,0,0.36-1.88,3.06,5.87
		l4.49,14.76L356.95,131.23z"/>
	<path fill="#FBFAFC" d="M377.97,123.68c-0.24-0.11-7.41-18.14-11.06-21.47c0,0-0.37-0.83-0.95-0.56c0,0-1.34-1.24,0.91,6.68
		l4.81,14.64L377.97,123.68z"/>
	<path fill="#FBFAFC" d="M363.9,124.61c-0.08-0.3-5.37-19.23-5.73-21.6c0,0-0.25-2.65,0.54-2.51c0,0,0.48-1.53,2.69,3.26
		c0,0,6.07,14.89,7.28,19.01L363.9,124.61z"/>
</g>
<g id="Camada_10">
	<path fill="#BAAA9A" d="M234.92,104.94c-4.28,0.49-7.71,3.46-8.51,7.14c-1.02,4.73,2.41,10.09,8.12,11.25c0,0,9.88,1.37,17.22,0
		c0,0,11.15-5.58,2.84-14.58C254.58,108.76,248.81,102.69,234.92,104.94z"/>
	<path fill="#F8F9F6" d="M233.05,122.93c0,0,0.94-0.9,1.84-0.7c0.9,0.2,1.49,0.56,1.4,1.31
		C236.2,124.29,233.05,122.93,233.05,122.93z"/>
	<path fill="#F8F9F6" d="M237.83,123.72c0,0,0.84-0.99,1.76-0.87s1.54,0.41,1.52,1.17S237.83,123.72,237.83,123.72z"/>
	<path fill="#F8F9F6" d="M243.01,123.92c0,0,0.84-0.99,1.76-0.87c0.92,0.12,1.54,0.41,1.52,1.17S243.01,123.92,243.01,123.92z"/>
	<path fill="#F8F9F6" d="M248.17,123.75c0,0,0.7-1.07,1.61-1.09c0.92-0.02,1.57,0.18,1.66,0.91
		C251.53,124.29,248.17,123.75,248.17,123.75z"/>
</g>
</svg>
