<svg width="72" height="76" viewBox="0 0 72 76" fill="none" xmlns="http://www.w3.org/2000/svg">
<ellipse cx="36" cy="40.5" rx="36" ry="35.5" fill="#FE9929"/>
<circle cx="36" cy="36" r="34.5" fill="#FFD157" stroke="#FE9929" stroke-width="3"/>
<ellipse cx="19.9492" cy="11.5258" rx="6.15826" ry="3.76338" transform="rotate(-33.291 19.9492 11.5258)" fill="white" fill-opacity="0.5"/>
<ellipse cx="10.2827" cy="22.7686" rx="2.93254" ry="1.89014" transform="rotate(-52.5993 10.2827 22.7686)" fill="white" fill-opacity="0.5"/>
<path d="M18.1695 41.7965C17.4042 40.5207 17 39.0609 17 37.5732C17 36.0854 17.4042 34.6256 18.1695 33.3498C18.4049 32.957 18.7198 32.6179 19.094 32.3541C19.4682 32.0903 19.8935 31.9077 20.3425 31.818L24.0472 31.0762C24.2682 31.0324 24.4674 30.9143 24.6118 30.7414L29.1371 25.3079C31.7237 22.2006 33.0191 20.6491 34.1724 21.067C35.33 21.485 35.33 23.507 35.33 27.5509V47.5998C35.33 51.6416 35.33 53.6613 34.1745 54.0815C33.0213 54.4972 31.7259 52.9458 29.1393 49.8406L24.6074 44.4049C24.4636 44.2325 24.2652 44.1143 24.045 44.0701L20.3403 43.3283C19.8913 43.2387 19.466 43.0561 19.0918 42.7923C18.7176 42.5285 18.4049 42.1893 18.1695 41.7965Z" fill="white"/>
<path d="M41.8948 44.1384L55.0245 31.0088ZM55.0245 44.1384L41.8948 31.0088Z" fill="white"/>
<path d="M41.8948 44.1384L55.0245 31.0088M55.0245 44.1384L41.8948 31.0088" stroke="white" stroke-width="2" stroke-linecap="round"/>
</svg>
