<svg width="72" height="76" viewBox="0 0 72 76" fill="none" xmlns="http://www.w3.org/2000/svg">
<ellipse cx="36" cy="40.5" rx="36" ry="35.5" fill="#FE9929"/>
<circle cx="36" cy="36" r="34.5" fill="#FFD157" stroke="#FE9929" stroke-width="3"/>
<path d="M30.9301 49.8077V44.2874C30.93 42.8885 32.0648 41.752 33.4704 41.7432H38.6315C40.0434 41.7432 41.188 42.8823 41.188 44.2874V49.7917C41.188 51.005 42.1716 51.9911 43.3907 51.9999H46.9119C48.5564 52.0041 50.135 51.357 51.2993 50.2012C52.4637 49.0455 53.1181 47.4761 53.1181 45.8395V30.1585C53.1181 28.8365 52.5292 27.5825 51.5102 26.7343L39.548 17.2137C37.457 15.5484 34.4705 15.6022 32.4414 17.3417L20.7365 26.7343C19.6693 27.5575 19.0315 28.8152 19 30.1585V45.8235C19 49.2346 21.7786 51.9999 25.2062 51.9999H28.647C29.2339 52.0041 29.7983 51.7751 30.2149 51.3635C30.6315 50.9519 30.8658 50.3919 30.8658 49.8077H30.9301Z" fill="white"/>
<ellipse cx="19.9492" cy="11.5258" rx="6.15826" ry="3.76338" transform="rotate(-33.291 19.9492 11.5258)" fill="white" fill-opacity="0.5"/>
<ellipse cx="10.2827" cy="22.7686" rx="2.93254" ry="1.89014" transform="rotate(-52.5993 10.2827 22.7686)" fill="white" fill-opacity="0.5"/>
</svg>
