<svg xmlns="http://www.w3.org/2000/svg" xmlns:xlink="http://www.w3.org/1999/xlink" width="450" zoomAndPan="magnify" viewBox="0 0 337.5 449.999984" height="600" preserveAspectRatio="xMidYMid meet" version="1.0"><defs><clipPath id="c24f14caf8"><path d="M 85 297 L 127 297 L 127 331.066406 L 85 331.066406 Z M 85 297 " clip-rule="nonzero"/></clipPath><clipPath id="a3cb7cf7bc"><path d="M 246 217 L 260.972656 217 L 260.972656 229 L 246 229 Z M 246 217 " clip-rule="nonzero"/></clipPath></defs><path fill="#8e5e4f" d="M 156.605469 302.5 C 166.953125 303.6875 176.453125 302.203125 184.976562 294.957031 C 192.578125 288.496094 196.175781 280.640625 196.945312 271.660156 C 197.742188 262.4375 198.902344 253.191406 204.261719 244.367188 C 209.433594 235.851562 212.386719 226.824219 212.4375 216.984375 C 211.335938 210.28125 210.238281 203.582031 209.136719 196.882812 C 199.902344 195.847656 190.667969 194.8125 181.433594 193.777344 C 168.648438 215.742188 155.867188 237.710938 143.085938 259.675781 C 147.59375 273.953125 152.101562 288.226562 156.605469 302.5 " fill-opacity="1" fill-rule="evenodd"/><path fill="#a4715d" d="M 193.027344 219.832031 C 201.238281 218.714844 208.332031 219.195312 213.261719 222.824219 C 216.703125 225.359375 215.320312 227.480469 212.914062 227.765625 C 204.628906 228.746094 203.816406 229.339844 196.292969 232.917969 C 193.375 233.21875 190.453125 233.519531 187.535156 233.824219 C 189.363281 229.160156 191.195312 224.496094 193.027344 219.832031 " fill-opacity="1" fill-rule="evenodd"/><path fill="#a4715d" d="M 191.078125 230.339844 C 196.59375 230.355469 202.371094 229.503906 207.628906 232.847656 C 212.117188 235.699219 212.9375 238.882812 209.644531 238.972656 C 203.550781 239.140625 200.335938 239.433594 197.476562 241.128906 C 192.152344 244.292969 187.9375 245.285156 183.613281 245.125 C 182 242.890625 180.386719 240.652344 178.773438 238.417969 C 182.875 235.726562 186.976562 233.035156 191.078125 230.339844 " fill-opacity="1" fill-rule="evenodd"/><path fill="#a4715d" d="M 130.351562 297.160156 C 132.207031 305.296875 133.929688 314.382812 135.921875 322.480469 C 136.46875 324.71875 137.730469 325.816406 139.363281 325.695312 C 142.347656 325.472656 144.996094 324.609375 146.839844 324.929688 C 149.921875 325.472656 151.707031 324.832031 151.675781 323.171875 C 151.632812 321.003906 149.601562 320.722656 149.273438 320.339844 C 148.679688 319.636719 148.699219 318.589844 148.992188 317.886719 C 151.585938 311.660156 151.449219 304.175781 152.40625 298.078125 C 150.355469 296.496094 148.304688 294.914062 146.253906 293.335938 C 140.953125 294.609375 135.652344 295.886719 130.351562 297.160156 " fill-opacity="1" fill-rule="evenodd"/><path fill="#a4715d" d="M 153.167969 297.160156 C 154.601562 305.296875 154.695312 313.648438 156.234375 321.75 C 156.660156 323.988281 157.628906 325.085938 158.890625 324.964844 C 161.195312 324.742188 164.46875 324.609375 165.894531 324.929688 C 168.273438 325.472656 169.652344 324.832031 169.625 323.171875 C 169.589844 321.003906 168.023438 320.722656 167.773438 320.339844 C 167.316406 319.636719 167.332031 318.59375 167.554688 317.886719 C 169.953125 310.277344 170.28125 303.070312 170.191406 298.078125 C 168.605469 296.496094 167.023438 294.914062 165.441406 293.335938 C 161.347656 294.609375 157.257812 295.886719 153.167969 297.160156 " fill-opacity="1" fill-rule="evenodd"/><g clip-path="url(#c24f14caf8)"><path fill="#a4715d" d="M 87.980469 327.769531 C 84.835938 328.691406 85.621094 331.066406 88.980469 331.046875 C 105.621094 330.933594 118.5625 323.058594 126.234375 305.574219 C 121.175781 302.875 116.117188 300.175781 111.058594 297.480469 C 111.777344 312.738281 105.183594 322.714844 87.980469 327.769531 " fill-opacity="1" fill-rule="evenodd"/></g><path fill="#a4715d" d="M 173.671875 138.253906 C 134.691406 145.035156 103.921875 167.96875 88.699219 209.367188 C 75.992188 243.929688 78.171875 276.160156 104.273438 297.4375 C 120.46875 310.640625 139.042969 313.277344 158.917969 306.191406 C 174.628906 300.59375 180.867188 288.191406 180.503906 275.558594 C 180.058594 260.097656 179.9375 247.855469 187.609375 238.632812 C 196.121094 228.394531 199.371094 217.394531 195.089844 203.027344 C 191.957031 187.546875 188.828125 172.0625 185.695312 156.578125 C 181.6875 150.46875 177.679688 144.363281 173.671875 138.253906 " fill-opacity="1" fill-rule="evenodd"/><path fill="#b68d68" d="M 173.671875 138.253906 C 146.050781 143.058594 122.558594 155.976562 105.792969 177.820312 C 125.703125 209.851562 149.433594 235.765625 183.921875 244.441406 L 183.925781 244.441406 C 184.886719 242.386719 186.097656 240.453125 187.609375 238.632812 C 196.121094 228.394531 199.371094 217.394531 195.089844 203.027344 C 191.957031 187.546875 188.828125 172.0625 185.695312 156.578125 C 181.6875 150.46875 177.679688 144.363281 173.671875 138.253906 " fill-opacity="1" fill-rule="evenodd"/><path fill="#b68d68" d="M 81.625 238.636719 C 79.273438 261.703125 85.742188 282.332031 104.273438 297.4375 C 120.46875 310.640625 139.042969 313.277344 158.917969 306.191406 C 174.628906 300.59375 180.867188 288.191406 180.503906 275.558594 C 180.359375 270.460938 180.246094 265.714844 180.4375 261.308594 C 138.121094 266.519531 105.726562 258.226562 81.625 238.636719 " fill-opacity="1" fill-rule="evenodd"/><path fill="#b68d68" d="M 86.105469 217.074219 L 86.4375 217.417969 C 111.128906 242.925781 146.847656 251.488281 181.179688 253.046875 L 181.285156 253.054688 C 181.1875 253.617188 181.09375 254.1875 181.011719 254.761719 C 146.398438 253.175781 110.527344 244.515625 85.542969 218.957031 C 85.726562 218.332031 85.914062 217.703125 86.105469 217.074219 Z M 95.828125 193.363281 C 95.53125 193.925781 95.234375 194.492188 94.941406 195.0625 C 116.550781 224.800781 146.554688 241.59375 182.125 249.339844 C 182.28125 248.78125 182.449219 248.230469 182.628906 247.6875 L 182.546875 247.671875 C 147.230469 239.992188 117.464844 223.332031 96.078125 193.703125 L 95.828125 193.363281 " fill-opacity="1" fill-rule="evenodd"/><path fill="#dccba5" d="M 177.089844 148.0625 C 173.4375 146.667969 169.058594 144.988281 165.097656 140.207031 C 161.203125 135.507812 162.925781 131.289062 169.09375 132.109375 C 173.988281 132.757812 177.515625 138.359375 180.765625 144.726562 C 187.5 139.34375 194.753906 136.878906 202.457031 136.917969 C 203.359375 131.984375 202.164062 127.605469 204.921875 123.417969 C 207.746094 119.140625 214.035156 119.371094 213.988281 124.515625 C 213.933594 130.554688 209.800781 134.761719 206.449219 138.15625 C 212.535156 140.527344 218.667969 149.074219 224.855469 165.375 C 228.605469 175.730469 231.710938 186.34375 236.109375 196.441406 C 240.839844 207.3125 248.164062 215.988281 256.800781 222.632812 C 255.605469 224.429688 254.40625 226.222656 253.210938 228.019531 C 240.476562 229.667969 227.988281 225.484375 215.183594 218.539062 C 198.90625 209.707031 186.332031 196.355469 179.394531 175.726562 C 176.746094 167.550781 176.46875 158.054688 177.089844 148.0625 " fill-opacity="1" fill-rule="evenodd"/><path fill="#a4715d" d="M 180.765625 144.726562 C 187.5 139.34375 194.753906 136.878906 202.457031 136.917969 C 203.359375 131.984375 202.164062 127.605469 204.921875 123.417969 C 207.746094 119.140625 214.035156 119.371094 213.988281 124.515625 C 213.933594 130.554688 209.800781 134.761719 206.449219 138.15625 C 212.535156 140.527344 218.667969 149.074219 224.855469 165.375 C 228.605469 175.730469 231.710938 186.34375 236.109375 196.441406 C 240.839844 207.3125 248.164062 215.988281 256.800781 222.632812 L 256.519531 223.054688 L 251.449219 223.875 C 231.671875 220.648438 217.796875 212.070312 207.777344 199.984375 C 205.5625 197.714844 204.5 194.976562 204.574219 191.46875 C 204.75 182.855469 199.695312 177.472656 190.128906 174.585938 C 187.605469 173.824219 185.714844 171.84375 184.417969 169.222656 C 180.894531 162.113281 180.09375 153.757812 180.765625 144.726562 " fill-opacity="1" fill-rule="evenodd"/><path fill="#8e5e4f" d="M 195.089844 141.230469 C 195.929688 140.980469 196.984375 141.710938 197.449219 142.855469 C 197.914062 144.003906 197.609375 145.136719 196.769531 145.386719 C 195.929688 145.632812 194.871094 144.90625 194.40625 143.757812 C 193.941406 142.609375 194.246094 141.480469 195.089844 141.230469 " fill-opacity="1" fill-rule="evenodd"/><path fill="#8e5e4f" d="M 189.507812 147.40625 C 191.042969 146.953125 193.007812 148.402344 193.902344 150.644531 C 194.789062 152.886719 194.269531 155.074219 192.734375 155.527344 C 191.199219 155.980469 189.234375 154.53125 188.34375 152.289062 C 187.453125 150.046875 187.972656 147.863281 189.507812 147.40625 " fill-opacity="1" fill-rule="evenodd"/><path fill="#8e5e4f" d="M 199.128906 149.144531 C 200.492188 148.742188 202.242188 150.03125 203.03125 152.023438 C 203.824219 154.019531 203.359375 155.960938 201.996094 156.367188 C 200.632812 156.769531 198.882812 155.480469 198.089844 153.488281 C 197.300781 151.496094 197.761719 149.550781 199.128906 149.144531 " fill-opacity="1" fill-rule="evenodd"/><path fill="#8e5e4f" d="M 203.433594 140.425781 C 205.046875 139.949219 207.117188 141.472656 208.054688 143.832031 C 208.992188 146.191406 208.441406 148.492188 206.828125 148.96875 C 205.214844 149.449219 203.144531 147.921875 202.207031 145.5625 C 201.273438 143.203125 201.820312 140.90625 203.433594 140.425781 " fill-opacity="1" fill-rule="evenodd"/><path fill="#8e5e4f" d="M 199.878906 161.546875 C 201.492188 161.070312 203.613281 162.773438 204.617188 165.351562 C 205.621094 167.933594 205.125 170.410156 203.507812 170.890625 C 201.894531 171.367188 199.773438 169.664062 198.769531 167.085938 C 197.769531 164.503906 198.265625 162.027344 199.878906 161.546875 " fill-opacity="1" fill-rule="evenodd"/><path fill="#8e5e4f" d="M 210.371094 162.144531 C 211.984375 161.667969 214.054688 163.207031 215 165.585938 C 215.941406 167.964844 215.398438 170.28125 213.785156 170.757812 C 212.171875 171.234375 210.097656 169.695312 209.152344 167.316406 C 208.210938 164.9375 208.753906 162.621094 210.371094 162.144531 " fill-opacity="1" fill-rule="evenodd"/><path fill="#8e5e4f" d="M 193 158.421875 C 193.886719 158.160156 194.855469 158.785156 195.160156 159.820312 C 195.464844 160.851562 194.996094 161.902344 194.109375 162.164062 C 193.222656 162.429688 192.253906 161.804688 191.949219 160.769531 C 191.644531 159.734375 192.113281 158.683594 193 158.421875 " fill-opacity="1" fill-rule="evenodd"/><path fill="#8e5e4f" d="M 208.296875 152.792969 C 209.449219 152.453125 210.734375 153.347656 211.160156 154.796875 C 211.589844 156.246094 211 157.695312 209.847656 158.035156 C 208.691406 158.378906 207.410156 157.484375 206.984375 156.035156 C 206.554688 154.585938 207.144531 153.136719 208.296875 152.792969 " fill-opacity="1" fill-rule="evenodd"/><path fill="#8e5e4f" d="M 217.816406 163.011719 C 218.792969 162.722656 219.855469 163.425781 220.199219 164.585938 C 220.542969 165.742188 220.03125 166.914062 219.058594 167.203125 C 218.082031 167.492188 217.015625 166.789062 216.675781 165.628906 C 216.332031 164.472656 216.84375 163.300781 217.816406 163.011719 " fill-opacity="1" fill-rule="evenodd"/><path fill="#8e5e4f" d="M 203.464844 173.542969 C 204.324219 173.289062 205.300781 174.015625 205.640625 175.167969 C 205.980469 176.324219 205.558594 177.464844 204.699219 177.722656 C 203.835938 177.976562 202.863281 177.25 202.523438 176.09375 C 202.179688 174.941406 202.601562 173.796875 203.464844 173.542969 " fill-opacity="1" fill-rule="evenodd"/><path fill="#8e5e4f" d="M 209.703125 173.328125 C 211.3125 172.726562 213.589844 174.308594 214.792969 176.855469 C 215.996094 179.402344 215.671875 181.957031 214.0625 182.558594 C 212.457031 183.164062 210.179688 181.582031 208.976562 179.035156 C 207.773438 176.484375 208.101562 173.929688 209.703125 173.328125 " fill-opacity="1" fill-rule="evenodd"/><path fill="#8e5e4f" d="M 218.949219 172.707031 C 220.070312 172.117188 221.648438 172.914062 222.476562 174.488281 C 223.308594 176.0625 223.074219 177.820312 221.957031 178.410156 C 220.839844 179 219.261719 178.203125 218.429688 176.628906 C 217.601562 175.054688 217.832031 173.296875 218.949219 172.707031 " fill-opacity="1" fill-rule="evenodd"/><path fill="#8e5e4f" d="M 212.050781 185.378906 C 213.152344 184.78125 214.613281 185.363281 215.324219 186.671875 C 216.03125 187.980469 215.714844 189.523438 214.617188 190.121094 C 213.519531 190.714844 212.054688 190.136719 211.347656 188.828125 C 210.636719 187.519531 210.953125 185.972656 212.050781 185.378906 " fill-opacity="1" fill-rule="evenodd"/><path fill="#8e5e4f" d="M 220.09375 181.089844 C 221.863281 180.425781 224.371094 182.167969 225.695312 184.972656 C 227.023438 187.78125 226.664062 190.597656 224.894531 191.257812 C 223.125 191.921875 220.617188 190.183594 219.289062 187.375 C 217.964844 184.566406 218.324219 181.753906 220.09375 181.089844 " fill-opacity="1" fill-rule="evenodd"/><path fill="#8e5e4f" d="M 226.585938 193.335938 C 227.257812 192.742188 228.449219 192.992188 229.246094 193.894531 C 230.039062 194.800781 230.136719 196.011719 229.460938 196.605469 C 228.785156 197.199219 227.597656 196.953125 226.800781 196.046875 C 226.007812 195.144531 225.910156 193.929688 226.585938 193.335938 " fill-opacity="1" fill-rule="evenodd"/><path fill="#8e5e4f" d="M 218.820312 192.261719 C 220.167969 191.601562 222.378906 193.089844 223.761719 195.582031 C 225.140625 198.074219 225.171875 200.628906 223.824219 201.289062 C 222.476562 201.949219 220.265625 200.464844 218.886719 197.972656 C 217.503906 195.480469 217.476562 192.925781 218.820312 192.261719 " fill-opacity="1" fill-rule="evenodd"/><path fill="#8e5e4f" d="M 227.644531 203.460938 C 227.351562 200.851562 228.59375 198.699219 231.6875 200.503906 C 233.640625 201.644531 234.707031 203.46875 235.246094 205.289062 C 236.671875 210.082031 228.257812 208.921875 227.644531 203.460938 " fill-opacity="1" fill-rule="evenodd"/><path fill="#8e5e4f" d="M 237.714844 206.992188 C 238.515625 206.757812 239.355469 207.210938 239.589844 208.007812 C 239.828125 208.800781 239.367188 209.640625 238.566406 209.878906 C 237.765625 210.117188 236.921875 209.664062 236.6875 208.867188 C 236.453125 208.070312 236.910156 207.230469 237.714844 206.992188 " fill-opacity="1" fill-rule="evenodd"/><path fill="#8e5e4f" d="M 234.644531 211.308594 C 235.320312 210.550781 236.648438 210.632812 237.609375 211.492188 C 238.574219 212.347656 238.804688 213.660156 238.128906 214.417969 C 237.457031 215.175781 236.128906 215.09375 235.164062 214.238281 C 234.203125 213.378906 233.96875 212.066406 234.644531 211.308594 " fill-opacity="1" fill-rule="evenodd"/><path fill="#8e5e4f" d="M 241.621094 215.191406 C 242.230469 214.28125 243.660156 214.171875 244.816406 214.945312 C 245.972656 215.71875 246.414062 217.082031 245.804688 217.992188 C 245.195312 218.902344 243.769531 219.015625 242.613281 218.238281 C 241.457031 217.464844 241.011719 216.101562 241.621094 215.191406 " fill-opacity="1" fill-rule="evenodd"/><path fill="#48484a" d="M 192.820312 181.792969 C 194.964844 181.15625 197.230469 182.410156 197.875 184.589844 C 198.523438 186.773438 197.300781 189.058594 195.152344 189.691406 C 193.003906 190.332031 190.738281 189.078125 190.09375 186.894531 C 189.449219 184.714844 190.667969 182.429688 192.820312 181.792969 " fill-opacity="1" fill-rule="evenodd"/><g clip-path="url(#a3cb7cf7bc)"><path fill="#48484a" d="M 252.1875 218.015625 C 255.785156 216.953125 259.355469 218.289062 260.160156 221.007812 C 260.960938 223.726562 258.695312 226.792969 255.09375 227.859375 C 251.496094 228.925781 247.925781 227.585938 247.125 224.867188 C 246.320312 222.152344 248.585938 219.082031 252.1875 218.015625 " fill-opacity="1" fill-rule="evenodd"/></g></svg>