<svg xmlns="http://www.w3.org/2000/svg" xmlns:xlink="http://www.w3.org/1999/xlink" width="450" zoomAndPan="magnify" viewBox="0 0 337.5 449.999984" height="600" preserveAspectRatio="xMidYMid meet" version="1.0"><path fill="#181513" d="M 171.6875 250.980469 C 171.6875 250.980469 180.484375 289.550781 171.808594 315.851562 C 171.808594 315.851562 169.996094 325.167969 165.875 317.316406 C 165.875 317.316406 163.359375 313.496094 163.253906 296.699219 C 163.253906 296.699219 159.808594 330.453125 155.058594 331.300781 C 155.058594 331.300781 147.402344 332.679688 150.242188 296.429688 C 150.242188 296.429688 145.03125 316.851562 140.914062 316.332031 C 140.914062 316.332031 135.117188 315.359375 139.296875 294.414062 C 139.296875 294.414062 143.792969 268.445312 151.578125 248.628906 L 171.6875 250.980469 " fill-opacity="1" fill-rule="nonzero"/><path fill="#0e0c09" d="M 172.820312 272.875 C 172.117188 275.804688 173.515625 278.003906 173.871094 280.789062 C 174.296875 284.117188 173.484375 287.570312 172.570312 290.757812 C 171.875 293.1875 171.144531 296.605469 169.113281 298.335938 C 168.691406 298.691406 167.933594 298.609375 167.796875 297.992188 C 166.753906 293.167969 164.273438 286.871094 158.46875 288.320312 C 159.726562 292.757812 158.230469 301.15625 154.28125 303.457031 C 153.777344 303.75 153.085938 303.378906 153.097656 302.78125 C 153.191406 299.058594 152.292969 295.746094 151.0625 292.277344 C 150.632812 291.074219 150.007812 286.472656 147.507812 289.367188 C 146.65625 290.351562 146.152344 291.308594 145.617188 292.464844 C 145.4375 292.859375 144.890625 292.9375 144.542969 292.746094 C 144.007812 292.535156 143.476562 292.324219 142.941406 292.109375 C 142.628906 292.035156 142.332031 291.691406 142.363281 291.355469 C 143.117188 284.136719 144.082031 276.125 147.953125 269.808594 C 148.578125 268.789062 147.429688 266.773438 147.339844 265.777344 C 147.1875 264.128906 147.199219 262.488281 147.519531 260.859375 C 147.632812 260.257812 147.773438 259.660156 147.917969 259.0625 C 142.402344 276.492188 139.296875 294.414062 139.296875 294.414062 C 135.117188 315.359375 140.914062 316.332031 140.914062 316.332031 C 145.03125 316.851562 150.242188 296.429688 150.242188 296.429688 C 147.402344 332.679688 155.058594 331.300781 155.058594 331.300781 C 159.808594 330.453125 163.253906 296.699219 163.253906 296.699219 C 163.359375 313.496094 165.875 317.316406 165.875 317.316406 C 169.996094 325.167969 171.808594 315.851562 171.808594 315.851562 C 176.695312 301.046875 176.042969 282.355469 174.539062 268.84375 C 173.839844 270.183594 173.144531 271.511719 172.820312 272.875 " fill-opacity="1" fill-rule="nonzero"/><path fill="#181513" d="M 201.679688 156.445312 C 210.621094 179.324219 213.613281 209.378906 202.191406 232.003906 C 199.363281 237.605469 195.34375 243.777344 190.765625 248.132812 C 186.65625 252.039062 181.105469 255.527344 175.6875 257.324219 C 164.996094 260.875 149.140625 258.882812 140.328125 251.851562 C 132.335938 245.472656 127.648438 235.417969 126.441406 225.414062 C 125.160156 214.773438 125.984375 203.226562 131.925781 193.980469 C 136.488281 186.878906 143.046875 181.667969 148.761719 175.585938 C 154.699219 169.269531 151.886719 164.082031 151.058594 156.359375 C 150.640625 152.46875 150.6875 148.074219 151.125 144.191406 C 151.890625 137.398438 153.835938 127.527344 161.402344 125.121094 C 173.386719 121.308594 185.777344 128.800781 192.195312 138.238281 C 195.976562 143.796875 199.148438 149.980469 201.679688 156.445312 " fill-opacity="1" fill-rule="nonzero"/><path fill="#13100e" d="M 201.679688 156.445312 C 199.148438 149.980469 195.976562 143.796875 192.195312 138.238281 C 185.777344 128.800781 173.386719 121.308594 161.402344 125.121094 C 158.367188 126.085938 156.25 128.257812 154.738281 130.941406 C 157.070312 131.6875 158.960938 133.042969 160.84375 134.683594 C 163.445312 136.953125 165.914062 138.195312 168.945312 139.707031 C 170.484375 140.476562 173.355469 141.507812 174.242188 143.160156 C 175.800781 146.0625 175.246094 148.816406 178.328125 151.191406 C 182.0625 154.070312 184.203125 159.953125 185.488281 164.382812 C 186.320312 167.25 183.117188 170.164062 184.195312 172.800781 C 185.0625 174.921875 186.808594 176.851562 186.875 179.257812 C 186.96875 182.625 185.816406 185.679688 185.011719 188.910156 C 184.234375 192.027344 184.136719 195.234375 183.679688 198.40625 C 182.871094 203.96875 181.707031 210.183594 178.308594 214.839844 C 176.664062 217.09375 174.765625 218.855469 172.351562 220.257812 C 170.617188 221.269531 168.535156 219.839844 167.15625 220.636719 C 165.296875 221.710938 164.007812 221.882812 161.910156 221.832031 C 160.136719 221.789062 157.8125 220.21875 156.710938 222.136719 C 156.464844 222.558594 155.820312 222.667969 155.476562 222.292969 C 150.585938 216.960938 141.011719 212.027344 139.703125 204.257812 C 138.789062 198.828125 142.273438 193.914062 142.363281 188.539062 C 142.398438 186.351562 142.660156 184 142.648438 181.695312 C 138.75 185.496094 134.910156 189.332031 131.925781 193.980469 C 125.984375 203.226562 125.160156 214.773438 126.441406 225.414062 C 127.648438 235.417969 132.335938 245.472656 140.328125 251.851562 C 149.140625 258.882812 164.996094 260.875 175.6875 257.324219 C 181.105469 255.527344 186.65625 252.039062 190.765625 248.132812 C 195.34375 243.777344 199.363281 237.605469 202.191406 232.003906 C 213.613281 209.378906 210.621094 179.324219 201.679688 156.445312 " fill-opacity="1" fill-rule="nonzero"/><path fill="#0e0c09" d="M 201.679688 156.441406 C 199.148438 149.980469 195.976562 143.796875 192.195312 138.238281 C 187.328125 131.082031 179.023438 125.046875 170.070312 124.210938 C 172.941406 125.679688 175.78125 127.203125 178.367188 129.160156 C 180.046875 130.429688 181.605469 131.914062 182.648438 133.738281 C 183.582031 135.371094 183.253906 136.980469 184.855469 138.4375 C 185.554688 139.070312 186.386719 139.660156 187.003906 140.371094 C 188.621094 142.25 188.777344 143.867188 189.535156 146.183594 C 190.554688 149.277344 192.898438 150.667969 194.855469 153.042969 C 195.746094 154.121094 195.601562 155.492188 195.5 156.804688 C 195.320312 159.160156 195.410156 161.402344 196.058594 163.695312 C 197.390625 168.402344 199.351562 172.644531 199.390625 177.621094 C 199.433594 183.589844 201.492188 189.023438 200.476562 195.0625 C 199.882812 198.589844 198.933594 202.101562 198.683594 205.675781 C 198.503906 208.230469 198.859375 210.753906 198.816406 213.308594 C 198.785156 215.050781 198.78125 217.183594 197.894531 218.753906 C 196.699219 220.863281 194.585938 222.386719 194.003906 224.804688 C 193.941406 225.0625 193.710938 225.292969 193.453125 225.351562 C 189.488281 226.289062 189.0625 232.535156 186.769531 235.269531 C 186.144531 236.011719 185.324219 236.707031 184.285156 236.566406 C 182.757812 236.355469 183.226562 236.589844 181.980469 237.988281 C 180.734375 239.382812 179.460938 240.691406 178.054688 241.929688 C 177.742188 242.207031 177.253906 242.253906 176.945312 241.929688 C 175.84375 240.078125 174.308594 239.71875 172.332031 240.859375 C 171.984375 241.164062 171.566406 241.140625 171.21875 240.859375 C 169.761719 239.683594 167.75 240.859375 166.261719 241.058594 C 164.859375 241.246094 162.964844 240.796875 161.542969 240.675781 C 159.167969 240.480469 156.667969 240.394531 154.328125 239.902344 C 151.234375 239.253906 147.207031 237.351562 146.304688 233.957031 C 146.085938 233.128906 145.054688 226.464844 143.949219 226.71875 C 143.105469 226.914062 142.257812 226.851562 141.472656 226.441406 C 137.742188 224.488281 134.832031 220.878906 133.1875 217.011719 C 132.851562 217.269531 132.496094 217.503906 132.097656 217.777344 C 131.738281 218.019531 131.230469 217.839844 131.023438 217.496094 C 129.332031 214.734375 128.003906 212.070312 127.972656 208.925781 C 127.765625 208.890625 127.578125 208.78125 127.441406 208.570312 C 127.199219 208.183594 126.976562 207.789062 126.777344 207.386719 C 125.671875 213.308594 125.730469 219.5 126.441406 225.414062 C 127.648438 235.417969 132.335938 245.472656 140.328125 251.851562 C 149.140625 258.882812 164.996094 260.875 175.6875 257.324219 C 181.105469 255.527344 186.65625 252.039062 190.765625 248.132812 C 195.34375 243.777344 199.367188 237.605469 202.191406 232.003906 C 213.613281 209.382812 210.625 179.324219 201.679688 156.441406 " fill-opacity="1" fill-rule="nonzero"/><path fill="#ffffff" d="M 142.027344 198.980469 C 148.4375 204.367188 157.5625 204.234375 164.675781 200.128906 C 173.847656 194.835938 179.242188 184.460938 181.820312 174.527344 C 184.484375 164.265625 185.21875 151.992188 180.347656 142.226562 C 175.277344 132.066406 165.398438 128.898438 154.710938 130.988281 C 152.46875 134.996094 151.578125 140.136719 151.125 144.191406 C 150.6875 148.078125 150.640625 152.46875 151.058594 156.363281 C 151.886719 164.082031 154.695312 169.269531 148.761719 175.585938 C 144.355469 180.273438 139.457031 184.457031 135.347656 189.375 C 136.878906 193.066406 139.011719 196.441406 142.027344 198.980469 " fill-opacity="1" fill-rule="nonzero"/><path fill="#fdeae2" d="M 180.347656 142.226562 C 175.277344 132.066406 165.398438 128.898438 154.710938 130.988281 C 153.605469 132.96875 152.832031 135.214844 152.277344 137.472656 C 155.121094 138.457031 158.164062 140.320312 160.484375 137.648438 C 160.769531 137.324219 161.308594 137.363281 161.597656 137.648438 C 163.226562 139.242188 165.839844 139.699219 167.667969 141.09375 C 168.855469 142.003906 170.035156 143.03125 170.972656 144.199219 C 172.0625 145.566406 172.9375 147.050781 173.882812 148.515625 C 174.804688 149.941406 173.503906 151.738281 175.921875 152.441406 C 176.363281 152.566406 176.542969 152.980469 176.472656 153.40625 C 176.039062 155.976562 177.511719 158.769531 176.828125 161.257812 C 176.304688 163.160156 174.800781 163.8125 173.527344 165.113281 C 171.992188 166.675781 172.734375 169.007812 172.839844 171.03125 C 172.898438 172.105469 172.210938 175.542969 173.046875 176.203125 C 173.296875 176.402344 173.363281 176.898438 173.167969 177.152344 C 171.46875 179.40625 170.46875 182.230469 168.570312 184.328125 C 166.601562 186.5 164.554688 185.996094 162.050781 187.042969 C 158.925781 188.34375 158.878906 191.574219 156.132812 193.105469 C 153.371094 194.648438 150.558594 192.773438 147.652344 193.222656 C 147.117188 193.304688 146.710938 193.015625 146.65625 192.46875 C 146.308594 188.820312 142.082031 189.152344 140.960938 186.25 C 140.675781 185.503906 140.488281 184.742188 140.355469 183.96875 C 138.621094 185.707031 136.925781 187.484375 135.347656 189.375 C 136.878906 193.066406 139.011719 196.441406 142.027344 198.980469 C 148.4375 204.367188 157.5625 204.234375 164.675781 200.128906 C 173.847656 194.835938 179.242188 184.460938 181.820312 174.527344 C 184.484375 164.265625 185.21875 151.992188 180.347656 142.226562 " fill-opacity="1" fill-rule="nonzero"/><path fill="#fccf94" d="M 170.234375 156.121094 C 176.917969 155.664062 180.375 151.230469 181.835938 145.777344 C 181.410156 144.566406 180.921875 143.375 180.347656 142.226562 C 175.277344 132.066406 165.398438 128.898438 154.710938 130.988281 C 152.46875 134.996094 151.578125 140.136719 151.125 144.191406 C 150.945312 145.773438 150.851562 147.445312 150.808594 149.128906 C 155.886719 153.777344 165.003906 156.476562 170.234375 156.121094 " fill-opacity="1" fill-rule="nonzero"/><path fill="#f38633" d="M 161.398438 125.121094 C 161.398438 125.121094 161.398438 157.476562 150.195312 161.828125 C 150.195312 161.828125 108.800781 165.265625 88.402344 155.039062 C 88.402344 155.039062 103.433594 125.25 161.398438 125.121094 " fill-opacity="1" fill-rule="nonzero"/><path fill="#f27233" d="M 161.402344 125.121094 C 161.402344 125.121094 96.992188 116.996094 88.40625 143.75 C 88.40625 143.75 83.574219 152.835938 85.71875 165.957031 C 85.71875 165.957031 105.214844 144.058594 158.125 150.210938 C 158.125 150.210938 161.402344 142.128906 161.402344 125.121094 " fill-opacity="1" fill-rule="nonzero"/><path fill="#f06022" d="M 90.097656 157.304688 C 88.332031 160.003906 86.933594 162.925781 85.726562 165.945312 L 85.71875 165.957031 C 83.574219 152.835938 88.40625 143.75 88.40625 143.75 C 96.992188 116.996094 161.402344 125.121094 161.402344 125.121094 C 161.402344 129.128906 161.214844 132.621094 160.9375 135.644531 C 160.9375 135.644531 103.074219 126.445312 90.097656 157.304688 " fill-opacity="1" fill-rule="nonzero"/><path fill="#181513" d="M 90.140625 139.9375 C 89.429688 141.125 88.84375 142.390625 88.402344 143.753906 C 88.402344 143.753906 83.574219 152.835938 85.71875 165.957031 C 85.71875 165.957031 91.355469 159.640625 104.765625 154.746094 C 102.222656 148.066406 96.640625 141.882812 90.140625 139.9375 " fill-opacity="1" fill-rule="nonzero"/><path fill="#181513" d="M 170.390625 138.246094 C 170.390625 139.910156 169.035156 141.261719 167.371094 141.261719 C 165.703125 141.261719 164.351562 139.910156 164.351562 138.246094 C 164.351562 136.582031 165.703125 135.234375 167.371094 135.234375 C 169.035156 135.234375 170.390625 136.582031 170.390625 138.246094 " fill-opacity="1" fill-rule="nonzero"/><path fill="#ffffff" d="M 169.261719 136.902344 C 169.738281 137.625 169.785156 138.429688 169.371094 138.699219 C 168.957031 138.96875 168.238281 138.609375 167.761719 137.890625 C 167.285156 137.171875 167.238281 136.367188 167.652344 136.097656 C 168.0625 135.820312 168.785156 136.183594 169.261719 136.902344 " fill-opacity="1" fill-rule="nonzero"/><path fill="#181513" d="M 151.875 170.613281 C 151.875 170.613281 110.589844 193.632812 127.40625 260.597656 C 127.40625 260.597656 127.90625 255.175781 130.269531 246.015625 C 130.269531 246.015625 127.40625 260.597656 135.347656 279.574219 C 135.347656 279.574219 161.691406 227.453125 151.875 170.613281 " fill-opacity="1" fill-rule="nonzero"/><path fill="#13100e" d="M 151.875 170.613281 C 151.875 170.613281 143.058594 175.535156 135.234375 187.433594 C 136.765625 187.71875 138.246094 186.253906 140.328125 187.148438 C 143.046875 188.316406 144.300781 191.414062 147.441406 191.679688 C 147.78125 191.710938 148.125 191.898438 148.203125 192.257812 C 149.148438 196.601562 148.390625 200.84375 148.167969 205.214844 C 148.007812 208.332031 148.328125 211.410156 148.398438 214.523438 C 148.480469 218.375 148.546875 223.957031 144.074219 225.351562 C 143.640625 225.488281 143.253906 225.195312 143.109375 224.804688 C 141.878906 221.511719 139.886719 226.089844 138.402344 226.988281 C 137.183594 227.722656 135.890625 227.652344 134.667969 226.890625 C 132.652344 225.632812 131.015625 223.976562 129.355469 222.296875 C 128.414062 221.339844 127.105469 215.597656 124.613281 217.566406 C 124.472656 217.675781 124.335938 217.773438 124.195312 217.863281 C 122.621094 229.523438 123.148438 243.648438 127.40625 260.597656 C 127.40625 260.597656 127.90625 255.175781 130.269531 246.015625 C 130.269531 246.015625 127.40625 260.597656 135.347656 279.574219 C 135.347656 279.574219 161.691406 227.453125 151.875 170.613281 " fill-opacity="1" fill-rule="nonzero"/><path fill="#0e0c09" d="M 151.285156 226.808594 C 148.429688 229.453125 146.8125 232.347656 144.902344 235.699219 C 144.710938 236.035156 144.367188 236.117188 144.015625 236.0625 C 141.492188 235.683594 141.527344 239.046875 140.613281 240.511719 C 139.972656 241.542969 139.277344 242.234375 138.179688 242.765625 C 137.789062 242.957031 137.339844 242.867188 137.105469 242.484375 C 133.664062 236.914062 134.894531 228.289062 129.355469 223.722656 C 129.007812 223.4375 129.09375 222.910156 129.355469 222.613281 C 132.550781 218.960938 132.53125 213.394531 133.695312 208.910156 C 135.089844 203.546875 135.367188 197.8125 137.382812 192.617188 C 139.136719 188.105469 144.175781 184.675781 145.261719 180.066406 C 146.238281 175.925781 148.0625 174.277344 150.773438 171.300781 C 144.324219 175.558594 112.242188 200.207031 127.40625 260.597656 C 127.40625 260.597656 127.90625 255.175781 130.269531 246.015625 C 130.269531 246.015625 127.40625 260.597656 135.347656 279.574219 C 135.347656 279.574219 146.472656 257.554688 151.570312 226.539062 C 151.472656 226.628906 151.378906 226.71875 151.285156 226.808594 " fill-opacity="1" fill-rule="nonzero"/><path fill="#602c1e" d="M 183.835938 250.046875 C 182.914062 250.757812 181.9375 251.414062 181.011719 252.097656 C 180.539062 252.445312 180.070312 252.800781 179.601562 253.160156 C 181.269531 252.257812 182.804688 251.109375 183.835938 250.046875 " fill-opacity="1" fill-rule="nonzero"/><path fill="#602c1e" d="M 130.101562 256.085938 C 130.070312 256.332031 130.234375 256.695312 130.210938 256.949219 C 131.988281 256.847656 133.453125 257.242188 135.171875 257.492188 C 137.03125 257.757812 138.976562 257.429688 140.785156 256.996094 C 142.574219 256.566406 144.308594 255.511719 146.117188 255.257812 C 147.945312 255.003906 148.886719 256.296875 150.277344 257.242188 C 153.476562 259.410156 159.191406 259.683594 162.9375 259.378906 C 167.140625 259.035156 171.273438 258.0625 175.0625 256.195312 C 177.234375 255.125 179.070312 253.523438 181.007812 252.097656 C 183.171875 250.507812 185.601562 249.078125 187 246.71875 C 188.390625 244.375 189.527344 242.523438 191.746094 240.808594 C 194.257812 238.863281 196.832031 237.191406 198.824219 234.667969 C 202.125 230.484375 205.324219 226.15625 211.042969 225.417969 C 213.773438 225.066406 216.511719 225.554688 219.242188 225.609375 C 222.402344 225.675781 225.3125 224.929688 228.292969 223.941406 C 236.800781 221.117188 245.644531 219.511719 254.089844 216.523438 C 257.871094 215.183594 262.3125 214.371094 266.320312 214.285156 C 266.589844 219.402344 267.050781 225.445312 265.066406 230.3125 C 264.023438 232.875 261.871094 234.636719 259.046875 234.644531 C 255.175781 234.660156 251.574219 234 247.652344 234.402344 C 242.101562 234.96875 236.53125 234.773438 230.964844 235.019531 C 226.65625 235.214844 222.566406 235.207031 218.269531 234.898438 C 214.9375 234.65625 212.421875 235.472656 209.472656 236.972656 C 206.347656 238.5625 205.058594 240.09375 203.449219 243.058594 C 201.816406 246.070312 198.515625 247.984375 196.050781 250.257812 C 193.203125 252.878906 190.597656 255.792969 187.253906 257.808594 C 183.140625 260.289062 178.683594 262.402344 174.335938 264.441406 C 171.5625 265.738281 169.0625 266.15625 166.011719 266.121094 C 162.621094 266.082031 159.226562 266.230469 155.839844 266.160156 C 152.71875 266.09375 149.476562 266.453125 146.378906 266.238281 C 143.523438 266.039062 141.460938 263.851562 138.648438 263.460938 C 136.066406 263.105469 132.882812 262.964844 130.273438 263.113281 C 126.335938 263.339844 122.234375 265.621094 118.605469 267.007812 C 115.679688 268.121094 113.707031 269.675781 111.195312 271.410156 C 106.488281 274.660156 101.09375 276.976562 96.636719 280.574219 C 95.621094 281.390625 94.605469 282.199219 93.558594 282.972656 C 94.230469 282.238281 94.832031 280.894531 95.257812 279.953125 C 96.117188 278.054688 96.238281 276.414062 98.132812 275.273438 C 100.734375 273.710938 103.425781 272.289062 106.035156 270.746094 C 111.257812 267.644531 116.410156 264.429688 121.582031 261.246094 C 123.023438 260.355469 124.46875 259.472656 125.917969 258.59375 C 126.488281 258.246094 130.027344 256.636719 130.101562 256.085938 " fill-opacity="1" fill-rule="nonzero"/><path fill="#4d1a16" d="M 190.449219 244.5625 C 196.445312 240.425781 200.308594 234.152344 206.632812 230.445312 C 209.148438 228.972656 212.316406 226.976562 215.34375 226.898438 C 217.277344 226.84375 219.222656 227.21875 221.144531 227.121094 C 223.550781 227 225.675781 226.28125 228.011719 225.851562 C 230.773438 225.34375 233.007812 225.585938 235.707031 226.328125 C 238.695312 227.152344 242.015625 228.289062 244.914062 227.078125 C 243.226562 226.632812 241.519531 226.273438 239.875 225.644531 C 239.351562 225.449219 239.140625 224.695312 239.710938 224.382812 C 240.902344 223.734375 242.070312 223.417969 243.394531 223.105469 C 245.96875 222.5 246.820312 221.230469 248.230469 219.207031 C 248.527344 218.777344 248.851562 218.421875 249.191406 218.097656 C 242.265625 220.164062 235.167969 221.660156 228.292969 223.941406 C 225.3125 224.929688 222.402344 225.675781 219.242188 225.609375 C 216.511719 225.554688 213.773438 225.0625 211.039062 225.417969 C 205.324219 226.15625 202.125 230.484375 198.824219 234.667969 C 196.832031 237.191406 194.257812 238.863281 191.746094 240.808594 C 189.527344 242.523438 188.390625 244.375 187 246.71875 C 186.867188 246.941406 186.71875 247.152344 186.566406 247.359375 C 187.75 246.382812 188.976562 245.582031 190.449219 244.5625 " fill-opacity="1" fill-rule="nonzero"/><path fill="#4d1a16" d="M 263.542969 214.457031 C 262.601562 215.738281 261.589844 216.9375 260.625 218.207031 C 260.824219 218.144531 261.027344 218.089844 261.226562 218.015625 C 261.878906 217.726562 262.742188 218.578125 262.066406 219.101562 C 262 219.117188 261.949219 219.140625 261.890625 219.164062 C 261.902344 219.179688 261.914062 219.195312 261.925781 219.210938 C 261.753906 219.28125 261.589844 219.34375 261.425781 219.402344 C 261.042969 219.695312 261.050781 220.097656 261.453125 220.609375 C 261.808594 220.875 261.929688 221.351562 261.59375 221.695312 C 260.414062 222.914062 258.960938 223.605469 257.410156 224.257812 C 256.210938 224.753906 251.613281 226.246094 254.359375 227.453125 C 254.945312 227.710938 254.710938 228.550781 254.195312 228.714844 C 250.246094 229.964844 246.074219 230.835938 241.917969 230.953125 C 237.203125 231.078125 232.484375 229.078125 227.859375 229.90625 C 223.117188 230.753906 218.28125 231.160156 213.507812 231.914062 C 209.246094 232.589844 206.523438 233.46875 203.433594 236.550781 C 201.191406 238.789062 200.242188 241.632812 198.292969 244.054688 C 197.539062 244.992188 196.59375 246.183594 195.34375 246.472656 C 192.738281 247.085938 191.578125 248.449219 190.425781 250.667969 C 188.554688 254.261719 185.082031 253.339844 182.535156 256.164062 C 180.472656 258.453125 178.191406 260.183594 175.269531 261.242188 C 171.195312 262.714844 167.949219 263.503906 163.621094 263.429688 C 159.898438 263.371094 156.285156 264.378906 152.566406 263.730469 C 148.09375 262.949219 141.878906 262.550781 138.035156 259.945312 C 135.769531 258.414062 130.90625 260.246094 128.28125 261.070312 C 123.746094 262.5 119.425781 264.484375 115.320312 266.871094 C 108.253906 270.984375 101.714844 275.878906 94.996094 280.523438 C 94.601562 281.382812 94.105469 282.375 93.558594 282.972656 C 94.605469 282.199219 95.621094 281.390625 96.636719 280.574219 C 101.09375 276.976562 106.488281 274.660156 111.195312 271.410156 C 113.707031 269.675781 115.679688 268.121094 118.605469 267.007812 C 122.234375 265.621094 126.335938 263.339844 130.273438 263.113281 C 132.882812 262.964844 136.066406 263.105469 138.648438 263.460938 C 141.460938 263.851562 143.523438 266.039062 146.378906 266.238281 C 149.476562 266.453125 152.71875 266.09375 155.839844 266.160156 C 159.226562 266.230469 162.621094 266.082031 166.011719 266.121094 C 169.0625 266.15625 171.5625 265.738281 174.335938 264.441406 C 178.683594 262.402344 183.140625 260.289062 187.253906 257.808594 C 190.597656 255.792969 193.203125 252.878906 196.050781 250.257812 C 198.515625 247.984375 201.816406 246.070312 203.449219 243.058594 C 205.058594 240.09375 206.347656 238.5625 209.472656 236.972656 C 212.421875 235.472656 214.9375 234.65625 218.269531 234.898438 C 222.566406 235.207031 226.65625 235.214844 230.964844 235.019531 C 236.53125 234.773438 242.101562 234.96875 247.652344 234.402344 C 251.574219 234 255.175781 234.660156 259.046875 234.644531 C 261.871094 234.636719 264.023438 232.875 265.066406 230.3125 C 267.050781 225.445312 266.589844 219.402344 266.320312 214.285156 C 265.410156 214.304688 264.480469 214.367188 263.542969 214.457031 " fill-opacity="1" fill-rule="nonzero"/><path fill="#f07a23" d="M 155.511719 259.300781 C 155.511719 260.015625 154.929688 260.597656 154.210938 260.597656 C 153.492188 260.597656 152.90625 260.015625 152.90625 259.300781 L 152.90625 256.476562 C 152.90625 255.757812 153.492188 255.175781 154.210938 255.175781 C 154.929688 255.175781 155.511719 255.757812 155.511719 256.476562 L 155.511719 259.300781 " fill-opacity="1" fill-rule="nonzero"/><path fill="#ee5f26" d="M 157.785156 259.300781 C 157.785156 260.015625 157.203125 260.597656 156.480469 260.597656 C 155.761719 260.597656 155.179688 260.015625 155.179688 259.300781 L 155.179688 256.476562 C 155.179688 255.757812 155.761719 255.175781 156.480469 255.175781 C 157.203125 255.175781 157.785156 255.757812 157.785156 256.476562 L 157.785156 259.300781 " fill-opacity="1" fill-rule="nonzero"/><path fill="#f07a23" d="M 160.1875 259.300781 C 160.1875 260.015625 159.601562 260.597656 158.882812 260.597656 C 158.164062 260.597656 157.578125 260.015625 157.578125 259.300781 L 157.578125 256.476562 C 157.578125 255.757812 158.164062 255.175781 158.882812 255.175781 C 159.601562 255.175781 160.1875 255.757812 160.1875 256.476562 L 160.1875 259.300781 " fill-opacity="1" fill-rule="nonzero"/><path fill="#f07a23" d="M 164.296875 259.300781 C 164.296875 260.015625 163.710938 260.597656 162.992188 260.597656 C 162.273438 260.597656 161.691406 260.015625 161.691406 259.300781 L 161.691406 256.476562 C 161.691406 255.757812 162.273438 255.175781 162.992188 255.175781 C 163.710938 255.175781 164.296875 255.757812 164.296875 256.476562 L 164.296875 259.300781 " fill-opacity="1" fill-rule="nonzero"/><path fill="#ee5f26" d="M 166.570312 259.300781 C 166.570312 260.015625 165.984375 260.597656 165.265625 260.597656 C 164.546875 260.597656 163.960938 260.015625 163.960938 259.300781 L 163.960938 256.476562 C 163.960938 255.757812 164.546875 255.175781 165.265625 255.175781 C 165.984375 255.175781 166.570312 255.757812 166.570312 256.476562 L 166.570312 259.300781 " fill-opacity="1" fill-rule="nonzero"/><path fill="#f07a23" d="M 168.96875 259.300781 C 168.96875 260.015625 168.386719 260.597656 167.667969 260.597656 C 166.949219 260.597656 166.363281 260.015625 166.363281 259.300781 L 166.363281 256.476562 C 166.363281 255.757812 166.949219 255.175781 167.667969 255.175781 C 168.386719 255.175781 168.96875 255.757812 168.96875 256.476562 L 168.96875 259.300781 " fill-opacity="1" fill-rule="nonzero"/></svg>