<svg width="232" height="232" viewBox="0 0 232 232" fill="none" xmlns="http://www.w3.org/2000/svg">
<path d="M130.283 217.216C186.276 209.235 225.198 157.375 217.217 101.383C209.237 45.3907 157.377 6.46938 101.384 14.4498C45.3911 22.4302 6.46932 74.2902 14.4496 130.282C22.4299 186.275 74.2904 225.196 130.283 217.216Z" fill="#757575"/>
<path fill-rule="evenodd" clip-rule="evenodd" d="M121.729 218.062L56 168.863H72.5516C65.5686 161.702 114.842 176.184 114.5 164.5C113.981 146.725 148.5 176.23 148.5 153C148.5 146.725 159.966 156.187 163.5 151C153.941 146.103 148.715 106.486 158.5 97.5C165.104 91.436 110.028 61.276 114.5 66.585L120 76L127 69.5C134.498 65.749 108.913 64.5 118.5 64.5C128.441 64.5 126.836 67.99 134.5 72C137.887 63.205 132.597 73.364 142 82C147.287 112.108 177.104 109.425 176.5 81.5L218.094 110.274C218.193 112.113 218.246 113.964 218.246 115.828C218.245 170.407 175.545 215.008 121.729 218.062Z" fill="#575656"/>
<path d="M133.673 125.116C133.673 135.081 125.543 143.148 115.5 143.148C105.457 143.148 97.3271 135.081 97.3271 125.116C97.3271 115.151 105.457 107.084 115.5 107.084C125.543 107.084 133.673 115.151 133.673 125.116ZM170.863 79.925C178.121 79.925 184 85.7588 184 92.9603V127.126V156.099C184 163.775 177.727 170 169.991 170H61.0094C53.2733 170 47 163.775 47 156.099V127.098V92.9603C47 85.7588 52.8795 79.925 60.1374 79.925H86.4121L87.6499 74.7332C89.5347 66.6942 96.7645 61 105.091 61H125.937C134.264 61 141.493 66.6942 143.378 74.7332L144.588 79.925H170.863ZM74.4 98.7383C74.4 95.1375 71.4462 92.2067 67.8172 92.2067C64.1602 92.2067 61.2064 95.1375 61.2064 98.7383C61.2064 102.339 64.1602 105.27 67.7891 105.27C71.4462 105.298 74.4 102.367 74.4 98.7383ZM147.907 125.116C147.907 107.363 133.392 92.9603 115.5 92.9603C97.6084 92.9603 83.0926 107.363 83.0926 125.116C83.0926 142.869 97.6084 157.272 115.5 157.272C133.392 157.272 147.907 142.869 147.907 125.116Z" fill="#F8FFE6"/>
</svg>
