<svg width="33" height="35" viewBox="0 0 33 35" fill="none" xmlns="http://www.w3.org/2000/svg">
<path fill-rule="evenodd" clip-rule="evenodd" d="M16.4999 20.5946L23.7916 28.3281C24.1785 28.7385 24.7033 28.969 25.2504 28.969C25.7976 28.969 26.3224 28.7385 26.7093 28.3281C27.0962 27.9177 27.3136 27.3612 27.3136 26.7808C27.3136 26.2005 27.0962 25.6439 26.7093 25.2335L19.4149 17.5L26.7079 9.76644C26.8994 9.56324 27.0513 9.32204 27.1549 9.05659C27.2585 8.79114 27.3118 8.50665 27.3117 8.21936C27.3117 7.93207 27.2583 7.6476 27.1545 7.38221C27.0508 7.11681 26.8988 6.87568 26.7073 6.67258C26.5157 6.46948 26.2882 6.3084 26.038 6.19852C25.7877 6.08864 25.5195 6.03212 25.2486 6.03219C24.9777 6.03226 24.7095 6.08891 24.4593 6.19891C24.209 6.30892 23.9817 6.47012 23.7902 6.67331L16.4999 14.4069L9.20832 6.67331C9.01815 6.46429 8.79064 6.29753 8.53906 6.18276C8.28748 6.06799 8.01686 6.00751 7.74301 6.00485C7.46915 6.00219 7.19754 6.0574 6.94402 6.16727C6.6905 6.27713 6.46015 6.43944 6.2664 6.64474C6.07266 6.85003 5.9194 7.09419 5.81558 7.36297C5.71175 7.63175 5.65944 7.91978 5.66169 8.21023C5.66394 8.50069 5.72071 8.78776 5.82868 9.05469C5.93665 9.32163 6.09367 9.56309 6.29057 9.76498L13.5849 17.5L6.29194 25.235C6.09505 25.4369 5.93803 25.6783 5.83006 25.9453C5.72208 26.2122 5.66532 26.4993 5.66307 26.7897C5.66082 27.0802 5.71313 27.3682 5.81695 27.637C5.92078 27.9058 6.07403 28.1499 6.26778 28.3552C6.46152 28.5605 6.69187 28.7228 6.94539 28.8327C7.19892 28.9425 7.47053 28.9978 7.74438 28.9951C8.01824 28.9924 8.28885 28.932 8.54043 28.8172C8.79202 28.7024 9.01953 28.5357 9.20969 28.3266L16.4999 20.5946Z" fill="white"/>
</svg>
