<svg width="30" height="31" viewBox="0 0 30 31" fill="none" xmlns="http://www.w3.org/2000/svg">
<path d="M0 10C0 5.58172 3.58172 2 8 2H21.4939C25.9122 2 29.4939 5.58172 29.4939 10V22.2305C29.4939 26.6488 25.9122 30.2305 21.4939 30.2305H8C3.58172 30.2305 0 26.6488 0 22.2305V10Z" fill="#489E26"/>
<path d="M0 8C0 3.58172 3.58172 0 8 0H21.4939C25.9122 0 29.4939 3.58172 29.4939 8V20.2305C29.4939 24.6488 25.9122 28.2305 21.4939 28.2305H8C3.58172 28.2305 0 24.6488 0 20.2305V8Z" fill="#69C644"/>
<path d="M14.4575 19.6C14.755 19.6 15.0066 19.4971 15.2123 19.2914C15.418 19.0857 15.5206 18.8344 15.52 18.5375C15.52 18.24 15.4174 17.9884 15.2123 17.7827C15.0072 17.577 14.7556 17.4744 14.4575 17.475C14.16 17.475 13.9087 17.5778 13.7035 17.7835C13.4984 17.9892 13.3956 18.2406 13.395 18.5375C13.395 18.835 13.4978 19.0866 13.7035 19.2923C13.9092 19.498 14.1606 19.6006 14.4575 19.6ZM13.6925 16.3275H15.265C15.265 15.86 15.3183 15.4917 15.4248 15.2225C15.5313 14.9533 15.8322 14.585 16.3275 14.1175C16.6958 13.7492 16.9862 13.3984 17.1987 13.0652C17.4112 12.732 17.5175 12.3319 17.5175 11.865C17.5175 11.0717 17.2271 10.4625 16.6462 10.0375C16.0654 9.6125 15.3783 9.4 14.585 9.4C13.7775 9.4 13.1224 9.6125 12.6198 10.0375C12.1172 10.4625 11.7664 10.9725 11.5675 11.5675L12.97 12.12C13.0408 11.865 13.2003 11.5887 13.4485 11.2912C13.6967 10.9937 14.0756 10.845 14.585 10.845C15.0383 10.845 15.3783 10.9691 15.605 11.2173C15.8317 11.4655 15.945 11.7381 15.945 12.035C15.945 12.3183 15.86 12.5841 15.69 12.8323C15.52 13.0805 15.3075 13.3106 15.0525 13.5225C14.4292 14.075 14.0467 14.4929 13.905 14.7762C13.7633 15.0596 13.6925 15.5767 13.6925 16.3275ZM14.5 23C13.3242 23 12.2192 22.777 11.185 22.331C10.1508 21.8851 9.25125 21.2793 8.48625 20.5137C7.72125 19.7487 7.11577 18.8492 6.6698 17.815C6.22383 16.7808 6.00057 15.6758 6 14.5C6 13.3242 6.22327 12.2192 6.6698 11.185C7.11633 10.1508 7.72182 9.25125 8.48625 8.48625C9.25125 7.72125 10.1508 7.11577 11.185 6.6698C12.2192 6.22383 13.3242 6.00057 14.5 6C15.6758 6 16.7808 6.22327 17.815 6.6698C18.8492 7.11633 19.7487 7.72182 20.5137 8.48625C21.2787 9.25125 21.8845 10.1508 22.331 11.185C22.7776 12.2192 23.0006 13.3242 23 14.5C23 15.6758 22.7767 16.7808 22.3302 17.815C21.8837 18.8492 21.2782 19.7487 20.5137 20.5137C19.7487 21.2787 18.8492 21.8845 17.815 22.331C16.7808 22.7776 15.6758 23.0006 14.5 23Z" fill="#1A6B17"/>
</svg>
