<svg width="72" height="76" viewBox="0 0 72 76" fill="none" xmlns="http://www.w3.org/2000/svg">
<ellipse cx="36" cy="40.5" rx="36" ry="35.5" fill="#FE9929"/>
<circle cx="36" cy="36" r="34.5" fill="#FFD157" stroke="#FE9929" stroke-width="3"/>
<ellipse cx="21.9492" cy="13.5258" rx="6.15826" ry="3.76338" transform="rotate(-33.291 21.9492 13.5258)" fill="white" fill-opacity="0.5"/>
<ellipse cx="12.2827" cy="22.7686" rx="2.93254" ry="1.89014" transform="rotate(-52.5993 12.2827 22.7686)" fill="white" fill-opacity="0.5"/>
<g clip-path="url(#clip0_2207_13)">
<path fill-rule="evenodd" clip-rule="evenodd" d="M41.9 20C41.5034 20.4933 41.2047 21.0579 41.02 21.6633H39.9667C38.6406 21.6633 37.3688 22.1901 36.4311 23.1278C35.4935 24.0655 34.9667 25.3373 34.9667 26.6633C34.9667 27.9894 35.4935 29.2612 36.4311 30.1989C37.3688 31.1365 38.6406 31.6633 39.9667 31.6633H41.0167C41.25 32.4233 41.6667 33.14 42.2667 33.74C42.7542 34.2281 43.3378 34.6097 43.9804 34.8608C44.623 35.1118 45.3107 35.2267 46 35.1983V46.6667H49.3333C49.7754 46.6667 50.1993 46.8423 50.5118 47.1548C50.8244 47.4674 51 47.8913 51 48.3333C51 48.7754 50.8244 49.1993 50.5118 49.5118C50.1993 49.8244 49.7754 50 49.3333 50H22.6667C22.2246 50 21.8007 49.8244 21.4882 49.5118C21.1756 49.1993 21 48.7754 21 48.3333C21 47.8913 21.1756 47.4674 21.4882 47.1548C21.8007 46.8423 22.2246 46.6667 22.6667 46.6667V23.3333C22.6667 22.4493 23.0179 21.6014 23.643 20.9763C24.2681 20.3512 25.1159 20 26 20H41.9ZM38.5 36.6667C37.837 36.6667 37.2011 36.9301 36.7322 37.3989C36.2634 37.8677 36 38.5036 36 39.1667C36 39.8297 36.2634 40.4656 36.7322 40.9344C37.2011 41.4033 37.837 41.6667 38.5 41.6667C39.163 41.6667 39.7989 41.4033 40.2678 40.9344C40.7366 40.4656 41 39.8297 41 39.1667C41 38.5036 40.7366 37.8677 40.2678 37.3989C39.7989 36.9301 39.163 36.6667 38.5 36.6667ZM46.9783 21.9533L50.5117 25.4867C50.8236 25.7991 50.9988 26.2226 50.9988 26.6642C50.9988 27.1057 50.8236 27.5292 50.5117 27.8417L46.9783 31.38C46.8247 31.5393 46.6409 31.6664 46.4376 31.7539C46.2343 31.8414 46.0157 31.8875 45.7944 31.8896C45.5731 31.8916 45.3536 31.8496 45.1487 31.766C44.9438 31.6823 44.7576 31.5587 44.601 31.4023C44.4444 31.2459 44.3206 31.0599 44.2366 30.8552C44.1527 30.6504 44.1103 30.431 44.1121 30.2097C44.1139 29.9884 44.1597 29.7697 44.2469 29.5663C44.3341 29.3629 44.4609 29.1789 44.62 29.025L45.3133 28.33H39.9667C39.5246 28.33 39.1007 28.1544 38.7882 27.8418C38.4756 27.5293 38.3 27.1054 38.3 26.6633C38.3 26.2213 38.4756 25.7974 38.7882 25.4848C39.1007 25.1723 39.5246 24.9967 39.9667 24.9967H45.3083L44.6217 24.31C44.3181 23.9957 44.1501 23.5747 44.1539 23.1377C44.1577 22.7007 44.333 22.2826 44.642 21.9736C44.951 21.6646 45.369 21.4893 45.806 21.4855C46.243 21.4817 46.664 21.6497 46.9783 21.9533Z" fill="white"/>
</g>
<defs>
<clipPath id="clip0_2207_13">
<rect width="40" height="40" fill="white" transform="translate(16 15)"/>
</clipPath>
</defs>
</svg>
