<svg width="30" height="31" viewBox="0 0 30 31" fill="none" xmlns="http://www.w3.org/2000/svg">
<path d="M0 10C0 5.58172 3.58172 2 8 2H21.4939C25.9122 2 29.4939 5.58172 29.4939 10V22.2305C29.4939 26.6488 25.9122 30.2305 21.4939 30.2305H8C3.58172 30.2305 0 26.6488 0 22.2305V10Z" fill="#489E26"/>
<path d="M0 8C0 3.58172 3.58172 0 8 0H21.4939C25.9122 0 29.4939 3.58172 29.4939 8V20.2305C29.4939 24.6488 25.9122 28.2305 21.4939 28.2305H8C3.58172 28.2305 0 24.6488 0 20.2305V8Z" fill="#69C644"/>
<path d="M23.9876 13.9844C23.9876 14.5469 23.5189 14.9875 22.9876 14.9875H21.9876L22.0095 19.9937C22.0095 20.0781 22.0033 20.1625 21.9939 20.2469V20.75C21.9939 21.4406 21.4345 22 20.7439 22H20.2439C20.2095 22 20.1751 22 20.1408 21.9969C20.097 22 20.0533 22 20.0095 22H18.2439C17.5533 22 16.9939 21.4406 16.9939 20.75V18C16.9939 17.4469 16.547 17 15.9939 17H13.9939C13.4408 17 12.9939 17.4469 12.9939 18V20.75C12.9939 21.4406 12.4345 22 11.7439 22H9.99702C9.95015 22 9.90327 21.9969 9.8564 21.9937C9.8189 21.9969 9.7814 22 9.7439 22H9.2439C8.55327 22 7.9939 21.4406 7.9939 20.75V17.25C7.9939 17.2219 7.9939 17.1906 7.99702 17.1625V14.9875H6.9939C6.4314 14.9875 5.9939 14.55 5.9939 13.9844C5.9939 13.7031 6.08765 13.4531 6.3064 13.2344L14.3189 6.25C14.5376 6.03125 14.7876 6 15.0064 6C15.2251 6 15.4751 6.0625 15.6626 6.21875L23.6439 13.2344C23.8939 13.4531 24.0189 13.7031 23.9876 13.9844Z" fill="#1A6B17"/>
</svg>
