<svg width="42" height="42" viewBox="0 0 42 42" fill="none" xmlns="http://www.w3.org/2000/svg">
<g clip-path="url(#clip0_1520_50)">
<path fill-rule="evenodd" clip-rule="evenodd" d="M9.92078 8.33C9.9677 7.93248 10.1068 7.55141 10.327 7.21713C10.5472 6.88286 10.8424 6.60462 11.1891 6.40459C11.5358 6.20455 11.9244 6.08824 12.324 6.06491C12.7236 6.04159 13.1232 6.11191 13.4908 6.27025C15.3493 7.06475 19.5143 8.953 24.7993 12.0033C30.086 15.0553 33.8048 17.7205 35.42 18.9298C36.799 19.964 36.8025 22.015 35.4218 23.0528C33.8223 24.255 30.149 26.8853 24.7993 29.9758C19.4443 33.0663 15.3283 34.9318 13.4873 35.7158C11.9018 36.393 10.1273 35.3658 9.92078 33.656C9.67928 31.6575 9.22778 27.1198 9.22778 20.9913C9.22778 14.8663 9.67753 10.3303 9.92078 8.33Z" fill="white"/>
</g>
<defs>
<clipPath id="clip0_1520_50">
<rect width="42" height="42" fill="white"/>
</clipPath>
</defs>
</svg>
