<svg width="30" height="28" viewBox="0 0 30 28" fill="none" xmlns="http://www.w3.org/2000/svg">
<path fill-rule="evenodd" clip-rule="evenodd" d="M27.5963 0.693001C27.9938 0.739914 28.3749 0.879006 28.7091 1.0992C29.0434 1.31939 29.3216 1.6146 29.5217 1.96131C29.7217 2.30802 29.838 2.69665 29.8614 3.09625C29.8847 3.49585 29.8144 3.89537 29.656 4.263C28.8615 6.1215 26.9733 10.2865 23.923 15.5715C20.871 20.8582 18.2058 24.577 16.9965 26.1922C15.9623 27.5713 13.9113 27.5747 12.8735 26.194C11.6713 24.5945 9.04102 20.9212 5.95052 15.5715C2.86002 10.2165 0.994518 6.1005 0.210518 4.2595C-0.466732 2.674 0.560516 0.899499 2.27027 0.692999C4.26877 0.4515 8.80652 -9.20527e-07 14.935 -6.52642e-07C21.06 -3.8491e-07 25.596 0.44975 27.5963 0.693001Z" fill="#F8FFE6"/>
</svg>
