<svg width="30" height="28" viewBox="0 0 30 28" fill="none" xmlns="http://www.w3.org/2000/svg">
<path fill-rule="evenodd" clip-rule="evenodd" d="M2.26946 26.535C1.87194 26.4881 1.49086 26.349 1.15659 26.1288C0.822315 25.9086 0.544078 25.6134 0.34404 25.2667C0.144002 24.92 0.0276896 24.5314 0.0043676 24.1318C-0.0189544 23.7322 0.0513582 23.3327 0.209705 22.965C1.00421 21.1065 2.89246 16.9415 5.94271 11.6565C8.99471 6.36978 11.66 2.65103 12.8692 1.03578C13.9035 -0.343223 15.9545 -0.346721 16.9922 1.03403C18.1945 2.63353 20.8247 6.30678 23.9152 11.6565C27.0057 17.0115 28.8712 21.1275 29.6552 22.9685C30.3325 24.554 29.3052 26.3285 27.5955 26.535C25.597 26.7765 21.0592 27.228 14.9307 27.228C8.80571 27.228 4.26971 26.7783 2.26946 26.535Z" fill="#F8FFE6"/>
</svg>
