<svg width="17" height="14" viewBox="0 0 17 14" fill="none" xmlns="http://www.w3.org/2000/svg">
<path d="M0.469651 8.35132C0.162333 7.83898 0 7.25277 0 6.65533C0 6.05789 0.162333 5.47168 0.469651 4.95934C0.564153 4.80162 0.690607 4.66542 0.840886 4.55948C0.991165 4.45354 1.16194 4.38022 1.34225 4.34422L2.82997 4.04632C2.9187 4.02875 2.99872 3.9813 3.05669 3.91187L4.87395 1.72993C5.91263 0.482109 6.43285 -0.140925 6.89595 0.0269166C7.36081 0.194758 7.36081 1.00672 7.36081 2.63065V10.6818C7.36081 12.3048 7.36081 13.1159 6.89683 13.2846C6.43373 13.4516 5.91351 12.8285 4.87482 11.5816L3.05493 9.39879C2.99719 9.32953 2.9175 9.28209 2.82909 9.26434L1.34137 8.96644C1.16107 8.93044 0.990286 8.85711 0.840007 8.75118C0.689728 8.64524 0.564153 8.50904 0.469651 8.35132Z" fill="white"/>
<path d="M9.58936 3.54809C10.4093 4.36796 10.8718 5.47868 10.8763 6.63816C10.8807 7.79765 10.4267 8.91188 9.61308 9.73801M13.2107 1.68427C14.5225 2.99595 15.2627 4.77297 15.2699 6.62806C15.2772 8.48314 14.5509 10.2659 13.2493 11.5878" stroke="white" stroke-width="2" stroke-linecap="round"/>
</svg>
