<svg width="72" height="76" viewBox="0 0 72 76" fill="none" xmlns="http://www.w3.org/2000/svg">
<ellipse cx="36" cy="40.5" rx="36" ry="35.5" fill="#FE9929"/>
<circle cx="36" cy="36" r="34.5" fill="#FFD157" stroke="#FE9929" stroke-width="3"/>
<ellipse cx="21.9492" cy="13.5258" rx="6.15826" ry="3.76338" transform="rotate(-33.291 21.9492 13.5258)" fill="white" fill-opacity="0.5"/>
<ellipse cx="12.2827" cy="22.7686" rx="2.93254" ry="1.89014" transform="rotate(-52.5993 12.2827 22.7686)" fill="white" fill-opacity="0.5"/>
<g clip-path="url(#clip0_2206_6)">
<path d="M36 37.5832C39.7937 37.5832 43.2437 38.682 45.7818 40.2305C47.0485 41.0032 48.1315 41.9152 48.9137 42.9063C49.6832 43.8801 50.25 45.0454 50.25 46.2915C50.25 47.6294 49.5993 48.6839 48.6619 49.436C47.7753 50.1485 46.6052 50.6203 45.3623 50.9497C42.8638 51.6099 39.5293 51.8332 36 51.8332C32.4708 51.8332 29.1362 51.6115 26.6377 50.9497C25.3948 50.6203 24.2247 50.1485 23.3381 49.436C22.3992 48.6823 21.75 47.6294 21.75 46.2915C21.75 45.0454 22.3168 43.8801 23.0863 42.9048C23.8685 41.9152 24.9499 41.0048 26.2182 40.2289C28.7563 38.6836 32.2079 37.5832 36 37.5832ZM36 20.1665C38.0996 20.1665 40.1133 21.0006 41.5979 22.4852C43.0826 23.9699 43.9167 25.9835 43.9167 28.0832C43.9167 30.1828 43.0826 32.1964 41.5979 33.6811C40.1133 35.1658 38.0996 35.9998 36 35.9998C33.9004 35.9998 31.8867 35.1658 30.4021 33.6811C28.9174 32.1964 28.0833 30.1828 28.0833 28.0832C28.0833 25.9835 28.9174 23.9699 30.4021 22.4852C31.8867 21.0006 33.9004 20.1665 36 20.1665Z" fill="white"/>
</g>
<defs>
<clipPath id="clip0_2206_6">
<rect width="38" height="38" fill="white" transform="translate(17 17)"/>
</clipPath>
</defs>
</svg>
