<svg width="72" height="76" viewBox="0 0 72 76" fill="none" xmlns="http://www.w3.org/2000/svg">
<ellipse cx="36" cy="40.5" rx="36" ry="35.5" fill="#FE9929"/>
<circle cx="36" cy="36" r="34.5" fill="#FFD157" stroke="#FE9929" stroke-width="3"/>
<ellipse cx="21.9492" cy="13.5258" rx="6.15826" ry="3.76338" transform="rotate(-33.291 21.9492 13.5258)" fill="white" fill-opacity="0.5"/>
<ellipse cx="12.2827" cy="22.7686" rx="2.93254" ry="1.89014" transform="rotate(-52.5993 12.2827 22.7686)" fill="white" fill-opacity="0.5"/>
<g clip-path="url(#clip0_2207_16)">
<path d="M50.125 35.5002C50.125 34.8538 49.8682 34.2338 49.4111 33.7767C48.9539 33.3195 48.334 33.0627 47.6875 33.0627L28.3825 33.0627L34.785 26.6602C35.2156 26.1982 35.45 25.587 35.4388 24.9555C35.4277 24.3241 35.1719 23.7216 34.7253 23.275C34.2787 22.8284 33.6762 22.5726 33.0447 22.5614C32.4132 22.5503 31.8021 22.7847 31.34 23.2152L20.7775 33.7777C20.321 34.2348 20.0646 34.8543 20.0646 35.5002C20.0646 36.1462 20.321 36.7657 20.7775 37.2227L31.34 47.7852C31.5631 48.0247 31.8322 48.2168 32.1312 48.35C32.4302 48.4832 32.753 48.5549 33.0803 48.5607C33.4076 48.5664 33.7327 48.5062 34.0362 48.3836C34.3397 48.261 34.6154 48.0786 34.8469 47.8471C35.0783 47.6156 35.2608 47.3399 35.3834 47.0364C35.506 46.7329 35.5662 46.4078 35.5604 46.0805C35.5546 45.7533 35.483 45.4305 35.3498 45.1315C35.2166 44.8325 35.0245 44.5634 34.785 44.3402L28.3825 37.9377L47.6875 37.9377C49.033 37.9377 50.125 36.8457 50.125 35.5002Z" fill="white"/>
</g>
<defs>
<clipPath id="clip0_2207_16">
<rect width="40" height="40" fill="white" transform="translate(16 15)"/>
</clipPath>
</defs>
</svg>
