<svg width="30" height="24" viewBox="0 0 30 24" fill="none" xmlns="http://www.w3.org/2000/svg">
<path fill-rule="evenodd" clip-rule="evenodd" d="M28.5317 1.34373C29.0701 1.8828 29.3725 2.61352 29.3725 3.3754C29.3725 4.13728 29.0701 4.868 28.5317 5.40707L11.2817 22.6571C10.7426 23.1955 10.0119 23.4979 9.25 23.4979C8.48812 23.4979 7.7574 23.1955 7.21833 22.6571L1.46833 16.9071C0.960495 16.3621 0.684023 15.6412 0.697164 14.8964C0.710306 14.1516 1.01204 13.4409 1.53878 12.9142C2.06553 12.3874 2.77618 12.0857 3.521 12.0726C4.26582 12.0594 4.98666 12.3359 5.53167 12.8437L9.25 16.5621L24.4683 1.34373C25.0074 0.80534 25.7381 0.50293 26.5 0.50293C27.2619 0.50293 27.9926 0.80534 28.5317 1.34373Z" fill="url(#paint0_linear_394_50)"/>
<defs>
<linearGradient id="paint0_linear_394_50" x1="3.10307" y1="0.502926" x2="30.1984" y2="3.10646" gradientUnits="userSpaceOnUse">
<stop stop-color="#7FCB28" stop-opacity="0.91"/>
<stop offset="1" stop-color="#5C9E32"/>
</linearGradient>
</defs>
</svg>
