<svg xmlns="http://www.w3.org/2000/svg" xmlns:xlink="http://www.w3.org/1999/xlink" width="450" zoomAndPan="magnify" viewBox="0 0 337.5 449.999984" height="600" preserveAspectRatio="xMidYMid meet" version="1.0"><defs><clipPath id="55530ea0b4"><path d="M 64 142 L 271 142 L 271 319.5 L 64 319.5 Z M 64 142 " clip-rule="nonzero"/></clipPath></defs><path fill="#514039" d="M 102.035156 258.847656 C 103.492188 261.332031 105.980469 264.035156 108.734375 263.1875 C 109.925781 262.820312 110.816406 261.84375 111.605469 260.882812 C 114.796875 256.992188 117.382812 252.605469 119.230469 247.925781 C 120.550781 244.585938 121.40625 240.503906 119.257812 237.625 C 117.398438 235.132812 114.019531 234.503906 111.070312 233.53125 C 108.609375 232.71875 106.277344 231.554688 103.792969 230.828125 C 97.542969 228.992188 91.226562 231.421875 93.964844 238.316406 C 96.707031 245.238281 98.199219 252.335938 102.035156 258.847656 Z M 102.035156 258.847656 " fill-opacity="1" fill-rule="nonzero"/><g clip-path="url(#55530ea0b4)"><path fill="#6d5b55" d="M 256.933594 220.949219 C 253.945312 214.5 250.382812 208.339844 246.289062 202.527344 C 241.867188 196.234375 236.75 190.140625 231.03125 184.765625 C 226.722656 178.972656 221.535156 173.871094 215.523438 169.835938 C 200.214844 159.5625 179.582031 156.878906 162.859375 164.636719 C 159.808594 166.070312 156.902344 167.808594 153.976562 169.507812 C 151.515625 170.9375 149.019531 172.339844 146.425781 173.511719 C 146.214844 170.964844 145.851562 168.4375 144.886719 166.070312 C 144.875 166.039062 144.859375 166.011719 144.84375 165.984375 C 146.816406 163.871094 147.875 160.90625 147.632812 158.011719 C 147.390625 155.183594 145.695312 152.253906 142.941406 151.554688 C 141.054688 151.078125 138.25 151.9375 135.640625 153.457031 C 132.496094 150.722656 128.925781 148.464844 125.132812 146.828125 C 111.132812 140.769531 93.53125 140.421875 81.167969 149.960938 C 79.59375 151.171875 78.148438 152.527344 76.78125 153.949219 C 73.628906 152.414062 70.007812 152.261719 67.210938 154.671875 C 64.984375 156.59375 63.953125 159.800781 64.640625 162.660156 C 65.152344 164.792969 66.546875 166.605469 68.300781 167.941406 C 67.476562 170.558594 66.960938 173.273438 66.867188 176.058594 C 66.832031 176.25 66.792969 176.441406 66.757812 176.632812 C 63.5625 195.199219 69.804688 214.726562 81.492188 229.523438 C 82.414062 230.691406 83.355469 231.816406 84.359375 232.921875 C 85.445312 234.171875 86.570312 235.359375 87.757812 236.523438 C 88.964844 237.773438 90.214844 238.941406 91.503906 240.085938 C 91.851562 240.394531 92.21875 240.699219 92.589844 241.007812 C 93.671875 241.96875 94.777344 242.871094 95.90625 243.710938 C 95.964844 243.75 96.027344 243.8125 96.066406 243.851562 C 105.503906 251.242188 116.414062 256.808594 127.773438 260.679688 C 135.121094 263.175781 142.65625 265 150.3125 266.308594 C 159.707031 267.90625 169.222656 268.742188 178.742188 269.09375 C 180.296875 269.152344 181.875 269.195312 183.429688 269.234375 C 194.320312 269.460938 205.371094 269.113281 215.769531 265.878906 C 222.15625 263.875 228.296875 260.640625 233.285156 256.222656 C 235.804688 258.722656 238.398438 261.175781 240.703125 263.8125 C 252.492188 277.300781 256.625 295.660156 260.042969 313.265625 C 260.207031 314.105469 260.394531 314.984375 260.679688 315.804688 C 260.882812 316.398438 261.148438 316.949219 261.519531 317.460938 C 262.398438 318.667969 264.015625 319.488281 265.40625 318.957031 C 267.023438 318.339844 267.578125 316.398438 267.90625 314.699219 C 273.800781 283.460938 270.382812 249.890625 256.933594 220.949219 Z M 256.933594 220.949219 " fill-opacity="1" fill-rule="nonzero"/></g><path fill="#d3beaf" d="M 179.050781 259.59375 C 172.886719 254.4375 165.152344 251.53125 157.394531 249.460938 C 154.589844 248.703125 151.765625 248.050781 148.9375 247.394531 C 145.070312 246.492188 141.222656 245.59375 137.4375 244.445312 C 136.308594 244.121094 135.183594 243.769531 134.058594 243.382812 C 126.445312 240.761719 119.074219 236.730469 114.140625 230.382812 C 110.273438 225.371094 108.105469 218.738281 109.105469 212.414062 C 109.222656 211.660156 109.410156 210.917969 109.621094 210.183594 C 115.429688 209.683594 121.195312 208.191406 126.730469 205.902344 C 133.300781 203.179688 139.378906 198.902344 143.1875 192.90625 C 144.335938 191.082031 145.253906 189.078125 145.867188 187.011719 C 145.828125 186.929688 145.765625 186.867188 145.726562 186.785156 C 143.824219 183.796875 139.808594 182.894531 136.269531 183.101562 C 132.726562 183.304688 129.207031 184.328125 125.667969 184.101562 C 120.078125 183.734375 114.960938 180.277344 109.371094 180.359375 C 105.21875 180.417969 101.371094 182.425781 97.296875 183.160156 C 96.21875 183.355469 95.136719 183.445312 94.054688 183.484375 C 91.660156 183.414062 89.273438 183.265625 86.898438 182.976562 C 82.539062 182.445312 78.199219 181.441406 74.125 179.785156 C 71.585938 178.742188 69.664062 177.246094 67.617188 175.773438 C 67.535156 175.730469 67.472656 175.671875 67.410156 175.648438 C 67.269531 175.527344 67.144531 175.445312 67.003906 175.34375 C 66.898438 175.773438 66.839844 176.203125 66.757812 176.632812 C 66.695312 176.9375 66.652344 177.246094 66.613281 177.574219 C 63.769531 195.851562 70.011719 214.972656 81.492188 229.523438 C 82.414062 230.691406 83.355469 231.816406 84.359375 232.921875 C 85.445312 234.171875 86.589844 235.378906 87.757812 236.523438 C 88.964844 237.773438 90.214844 238.941406 91.503906 240.085938 C 91.851562 240.394531 92.21875 240.699219 92.589844 241.007812 C 93.671875 241.910156 94.820312 242.789062 95.90625 243.710938 C 95.964844 243.75 96.027344 243.8125 96.066406 243.851562 C 105.503906 251.242188 116.414062 256.808594 127.773438 260.679688 C 135.121094 263.175781 142.65625 265 150.3125 266.308594 C 155.40625 267.167969 160.546875 267.824219 165.683594 268.273438 C 170.023438 268.664062 174.382812 268.929688 178.742188 269.09375 C 180.441406 268.128906 181.914062 266.839844 182.121094 264.976562 C 182.34375 262.847656 180.707031 260.984375 179.050781 259.59375 Z M 179.050781 259.59375 " fill-opacity="1" fill-rule="nonzero"/><path fill="#3a2b26" d="M 118.753906 189.132812 C 117.882812 189.75 116.976562 190.320312 115.945312 190.617188 C 114.992188 190.886719 114.027344 190.957031 113.042969 190.894531 C 112.054688 190.832031 111.144531 190.558594 110.304688 190.027344 C 110.144531 189.929688 110.003906 189.800781 109.859375 189.679688 C 108.71875 190.675781 107.285156 191.347656 105.789062 191.53125 C 103.308594 191.839844 101.160156 190.890625 99.101562 189.597656 C 98.648438 189.3125 98.941406 188.601562 99.464844 188.734375 C 100.769531 189.066406 102.148438 189.222656 103.5 189.160156 C 104.617188 189.109375 105.746094 189.007812 106.789062 188.558594 C 107.648438 188.191406 108.410156 187.601562 108.894531 186.796875 C 109.257812 186.191406 109.351562 185.53125 109.511719 184.878906 C 108.199219 184.550781 106.882812 183.527344 105.878906 182.953125 C 105.1875 182.558594 104.429688 182.285156 103.742188 181.886719 C 103.050781 181.488281 102.40625 180.933594 102.128906 180.1875 C 101.515625 178.523438 102.945312 177.554688 104.414062 177.566406 C 104.453125 177.566406 104.488281 177.566406 104.523438 177.566406 C 105.324219 177.601562 106.101562 177.820312 106.890625 177.941406 C 109.75 178.386719 112.667969 177.53125 115.546875 177.804688 C 116.417969 177.886719 117.441406 178.214844 117.660156 179.0625 C 117.851562 179.789062 117.316406 180.523438 116.679688 180.925781 C 116.046875 181.324219 115.296875 181.511719 114.65625 181.90625 C 113.992188 182.3125 113.476562 182.917969 112.941406 183.484375 C 112.632812 183.8125 112.292969 184.117188 111.929688 184.382812 C 111.953125 184.433594 111.976562 184.488281 111.996094 184.542969 C 112.308594 185.515625 111.953125 186.671875 111.507812 187.582031 C 111.539062 187.601562 111.566406 187.621094 111.59375 187.644531 C 111.65625 187.691406 111.683594 187.714844 111.707031 187.730469 C 111.71875 187.738281 111.8125 187.804688 111.824219 187.8125 C 112.117188 188.011719 112.425781 188.175781 112.746094 188.320312 C 113.113281 188.480469 113.152344 188.539062 113.542969 188.648438 C 114.273438 188.847656 115.097656 188.832031 115.84375 188.734375 C 116.707031 188.625 117.539062 188.496094 118.371094 188.226562 C 118.941406 188.046875 119.183594 188.832031 118.753906 189.132812 Z M 120.871094 171.277344 C 121.78125 172.457031 123.640625 172.765625 124.871094 171.925781 C 125.453125 171.527344 125.882812 170.90625 126.054688 170.21875 C 126.363281 168.972656 125.730469 167.554688 124.597656 166.941406 C 121.84375 165.453125 118.949219 168.785156 120.871094 171.277344 Z M 90.09375 166.648438 C 88.960938 167.261719 88.328125 168.675781 88.636719 169.925781 C 88.808594 170.613281 89.238281 171.234375 89.824219 171.632812 C 91.050781 172.472656 92.914062 172.164062 93.820312 170.984375 C 95.742188 168.492188 92.851562 165.160156 90.09375 166.648438 Z M 90.09375 166.648438 " fill-opacity="1" fill-rule="nonzero"/><path fill="#c1a999" d="M 174.527344 264.363281 C 173.890625 262.519531 170.082031 261.640625 168.734375 261.230469 C 163.492188 259.675781 157.414062 259.082031 153.359375 255.03125 C 151.273438 252.941406 150.023438 250.15625 148.941406 247.394531 C 145.070312 246.492188 141.222656 245.59375 137.4375 244.445312 C 134.652344 245.53125 131.910156 246.71875 129.042969 247.578125 C 125.074219 248.765625 120.710938 249.214844 116.699219 247.925781 C 113.261719 246.820312 109.925781 243.667969 107.101562 241.398438 C 100.777344 236.363281 95.023438 230.652344 89.703125 224.570312 C 87.984375 222.605469 86.285156 220.558594 85.21875 218.183594 C 84.277344 216.078125 83.417969 212.023438 84.605469 209.832031 C 85.132812 208.847656 86.1875 208.347656 87.382812 208.125 C 89.921875 209.355469 92.574219 210.324219 95.261719 210.925781 C 99.332031 211.84375 103.421875 211.90625 107.410156 210.546875 C 108.234375 210.265625 108.023438 209.199219 107.214844 209.101562 C 98.6875 208.042969 89.9375 207.46875 82.542969 202.59375 C 78.09375 199.660156 74.3125 195.71875 71.371094 191.246094 C 68.777344 186.5 67.355469 181.140625 67.617188 175.773438 C 67.617188 175.546875 67.617188 175.34375 67.636719 175.117188 C 67.554688 175.300781 67.472656 175.464844 67.410156 175.648438 C 67.125 176.285156 66.859375 176.917969 66.613281 177.574219 C 63.769531 195.851562 70.011719 214.972656 81.496094 229.523438 C 82.414062 230.691406 83.355469 231.816406 84.359375 232.921875 C 85.445312 234.171875 86.589844 235.378906 87.757812 236.523438 C 88.964844 237.773438 90.214844 238.941406 91.503906 240.085938 C 91.851562 240.394531 92.21875 240.699219 92.589844 241.007812 C 93.671875 241.910156 94.820312 242.789062 95.90625 243.710938 C 95.964844 243.75 96.027344 243.8125 96.066406 243.851562 C 105.503906 251.242188 116.414062 256.808594 127.773438 260.679688 C 135.125 263.175781 142.65625 265 150.3125 266.308594 C 155.40625 267.167969 160.546875 267.824219 165.683594 268.273438 C 167.523438 268.046875 174.035156 267.496094 174.566406 265.347656 C 174.648438 265 174.628906 264.671875 174.527344 264.363281 Z M 174.527344 264.363281 " fill-opacity="1" fill-rule="nonzero"/><path fill="#6d5b55" d="M 194.046875 271.910156 C 185.367188 272.292969 176.316406 271.890625 168.425781 275.523438 C 166.894531 276.226562 165.394531 277.085938 163.730469 277.351562 C 162.070312 277.613281 160.140625 277.121094 159.28125 275.671875 C 158.425781 274.21875 159.378906 271.890625 161.0625 271.910156 C 159.273438 272.527344 157.335938 273.148438 155.53125 272.585938 C 153.722656 272.023438 152.390625 269.695312 153.515625 268.175781 C 152.894531 269.929688 149.90625 269.589844 149.222656 267.859375 C 148.535156 266.132812 149.710938 264.121094 151.328125 263.203125 C 152.945312 262.289062 154.875 262.175781 156.730469 262.03125 C 175.25 260.589844 192.960938 253.742188 209.480469 245.25 C 213.195312 243.339844 217.441406 241.292969 221.375 242.707031 C 225.59375 244.222656 227.59375 249.527344 226.417969 253.855469 C 224.917969 259.359375 218.210938 264.304688 213.53125 267.167969 C 207.75 270.703125 200.6875 271.617188 194.046875 271.910156 Z M 89.125 268.753906 C 88.476562 268.894531 87.800781 268.957031 87.105469 268.921875 C 86.015625 268.867188 84.828125 268.871094 83.957031 269.53125 C 83.085938 270.191406 82.871094 271.753906 83.824219 272.292969 C 83.054688 272.949219 83.601562 274.335938 84.542969 274.707031 C 85.28125 274.992188 86.007812 274.828125 86.75 274.671875 C 87.582031 274.5 87.40625 274.515625 88.003906 274.917969 C 89.234375 275.75 90.644531 275.789062 92.082031 275.402344 C 93.542969 275.011719 94.886719 274.273438 96.339844 273.859375 C 99.289062 273.019531 102.441406 273.566406 105.503906 273.375 C 108.011719 273.222656 110.109375 272.3125 112.484375 271.753906 C 115.148438 271.128906 117.753906 270.371094 120.320312 269.410156 C 125.355469 267.527344 130.15625 265.085938 134.9375 262.648438 C 138.054688 261.058594 141.289062 259.371094 143.375 256.5625 C 145.042969 254.316406 145.824219 251.550781 146.507812 248.839844 C 147.917969 243.222656 149.046875 237.457031 148.753906 231.671875 C 148.460938 225.886719 146.632812 220.023438 142.746094 215.730469 C 139.128906 211.734375 134.042969 209.472656 128.820312 208.464844 C 124.199219 207.574219 117.441406 210.035156 113.5625 213.351562 C 111.410156 215.1875 110.210938 214.554688 109.746094 217.34375 C 108.742188 223.386719 109.140625 229.5625 108.761719 235.675781 C 108.425781 241.074219 107.242188 245.96875 104.734375 250.757812 C 103.746094 252.640625 103.339844 254.644531 102.222656 256.488281 C 100.824219 258.800781 99.191406 260.980469 97.34375 262.953125 C 95.09375 265.355469 92.386719 268.042969 89.125 268.753906 Z M 89.125 268.753906 " fill-opacity="1" fill-rule="nonzero"/><path fill="#514039" d="M 125.011719 180.273438 C 122.441406 180.9375 119.871094 181.589844 117.300781 182.246094 C 116.9375 182.339844 116.800781 181.8125 117.148438 181.691406 C 119.65625 180.808594 122.195312 180.050781 124.785156 179.453125 C 126.03125 179.167969 127.28125 178.898438 128.53125 178.644531 C 129.757812 178.398438 131.128906 177.96875 132.386719 178.058594 C 132.550781 178.070312 132.65625 178.316406 132.480469 178.402344 C 131.339844 178.945312 129.957031 179.078125 128.730469 179.359375 C 127.488281 179.648438 126.246094 179.953125 125.011719 180.273438 Z M 130.15625 182.53125 C 128.820312 182.59375 127.484375 182.722656 126.152344 182.859375 C 123.59375 183.117188 121.054688 183.453125 118.519531 183.878906 C 118.125 183.945312 118.210938 184.628906 118.613281 184.585938 C 121.222656 184.316406 123.835938 184.082031 126.449219 183.898438 C 127.734375 183.808594 129.019531 183.742188 130.304688 183.648438 C 131.449219 183.5625 132.808594 183.664062 133.863281 183.164062 C 134.101562 183.050781 133.996094 182.730469 133.796875 182.652344 C 132.703125 182.230469 131.304688 182.480469 130.15625 182.53125 Z M 103.082031 182.660156 C 100.476562 181.582031 97.746094 180.839844 94.988281 180.242188 C 93.636719 179.953125 92.277344 179.703125 90.90625 179.5 C 89.757812 179.332031 88.152344 178.863281 87.039062 179.277344 C 86.84375 179.351562 86.785156 179.617188 86.980469 179.730469 C 87.46875 180.023438 88.023438 180.0625 88.578125 180.125 C 89.324219 180.207031 90.066406 180.300781 90.808594 180.40625 C 92.179688 180.609375 93.542969 180.855469 94.894531 181.144531 C 97.601562 181.726562 100.246094 182.535156 102.894531 183.335938 C 103.339844 183.472656 103.488281 182.828125 103.082031 182.660156 Z M 101.261719 183.910156 C 98.648438 183.492188 96.027344 183.144531 93.390625 182.914062 C 92.101562 182.804688 90.804688 182.710938 89.511719 182.636719 C 88.863281 182.601562 88.214844 182.5625 87.570312 182.546875 C 87.019531 182.53125 86.414062 182.472656 85.917969 182.726562 C 85.75 182.8125 85.691406 183.089844 85.878906 183.195312 C 86.804688 183.722656 88.242188 183.496094 89.285156 183.539062 C 90.632812 183.589844 91.976562 183.660156 93.320312 183.753906 C 95.957031 183.933594 98.589844 184.160156 101.214844 184.46875 C 101.578125 184.511719 101.613281 183.96875 101.261719 183.910156 Z M 121.265625 163.902344 C 122.078125 163.773438 122.863281 163.84375 123.628906 164.019531 C 124.035156 164.113281 124.425781 164.257812 124.820312 164.398438 C 124.851562 164.410156 125.179688 164.539062 124.996094 164.464844 C 125.121094 164.515625 125.25 164.585938 125.382812 164.625 C 125.523438 164.671875 125.679688 164.671875 125.828125 164.6875 C 125.890625 164.695312 126.136719 164.722656 126.179688 164.722656 C 126.714844 164.738281 127.152344 164.0625 126.824219 163.59375 C 126.644531 163.339844 126.441406 163.117188 126.183594 162.9375 C 125.949219 162.773438 125.632812 162.6875 125.359375 162.609375 C 124.859375 162.464844 124.320312 162.421875 123.800781 162.425781 C 122.808594 162.429688 121.828125 162.703125 120.945312 163.144531 C 120.761719 163.234375 120.695312 163.484375 120.773438 163.664062 C 120.863281 163.867188 121.054688 163.9375 121.265625 163.902344 Z M 88.839844 163.9375 C 88.902344 163.925781 88.96875 163.914062 89.03125 163.902344 C 89.140625 163.886719 89.160156 163.882812 89.097656 163.890625 C 89.375 163.851562 89.628906 163.789062 89.898438 163.710938 C 90.328125 163.589844 90.835938 163.449219 91.214844 163.40625 C 91.707031 163.351562 92.199219 163.355469 92.691406 163.320312 C 93.183594 163.28125 93.640625 163.269531 94.125 163.386719 C 94.492188 163.472656 94.75 162.941406 94.390625 162.757812 C 93.90625 162.507812 93.417969 162.253906 92.910156 162.050781 C 92.382812 161.835938 91.734375 161.792969 91.167969 161.796875 C 90.59375 161.804688 89.980469 161.851562 89.425781 162.003906 C 89.136719 162.082031 88.835938 162.191406 88.585938 162.355469 C 88.453125 162.445312 88.316406 162.539062 88.191406 162.644531 C 87.988281 162.816406 87.929688 163.003906 87.894531 163.265625 C 87.867188 163.496094 88.046875 163.710938 88.222656 163.832031 C 88.417969 163.964844 88.609375 163.972656 88.839844 163.9375 Z M 76.820312 159.617188 C 75.765625 158.332031 74.277344 157.363281 72.632812 157.101562 C 71.296875 156.890625 69.863281 157.179688 68.75 157.957031 C 67.621094 158.742188 67.589844 160.402344 67.742188 161.660156 C 67.949219 163.386719 68.753906 165.894531 70.449219 166.722656 C 70.742188 166.863281 71.0625 166.9375 71.347656 167.097656 C 71.691406 167.292969 72.0625 167.753906 72.5 167.6875 C 73.476562 167.546875 72.429688 166.382812 72.820312 165.898438 C 73.007812 165.664062 73.394531 165.6875 73.597656 165.464844 C 73.835938 165.203125 73.691406 164.769531 73.835938 164.449219 C 74.074219 163.917969 74.921875 163.949219 75.210938 163.445312 C 75.320312 163.261719 75.332031 163.023438 75.472656 162.859375 C 75.738281 162.539062 76.253906 162.691406 76.664062 162.613281 C 77.253906 162.492188 77.617188 161.832031 77.582031 161.230469 C 77.550781 160.714844 77.296875 160.25 76.988281 159.832031 C 76.933594 159.757812 76.878906 159.6875 76.820312 159.617188 Z M 144.554688 164.722656 C 146.371094 164.855469 146.359375 158.609375 146.261719 157.433594 C 146.253906 157.300781 146.234375 157.152344 146.136719 157.058594 C 146.007812 156.933594 145.789062 156.960938 145.648438 157.066406 C 145.503906 157.171875 145.421875 157.339844 145.347656 157.5 C 144.902344 158.453125 142.511719 164.570312 144.554688 164.722656 Z M 148.351562 228.550781 C 147.5 223.347656 145.96875 218.378906 143.84375 213.558594 C 143.652344 213.125 142.949219 213.433594 143.085938 213.878906 C 144.589844 218.820312 145.695312 223.9375 146.371094 229.058594 C 146.703125 231.554688 146.941406 234.054688 147.035156 236.574219 C 147.125 239.042969 146.804688 241.632812 147.457031 244.046875 C 147.621094 244.660156 148.410156 244.566406 148.613281 244.046875 C 149.546875 241.648438 149.269531 238.855469 149.148438 236.335938 C 149.019531 233.734375 148.777344 231.125 148.351562 228.550781 Z M 199.871094 254.410156 C 197.425781 254.335938 194.976562 254.503906 192.542969 254.734375 C 191.421875 254.84375 190.300781 254.980469 189.1875 255.144531 C 185.222656 252.558594 181.640625 249.875 179.4375 245.527344 C 177.078125 240.867188 176.078125 235.355469 175.519531 230.207031 C 175.460938 229.660156 174.609375 229.632812 174.640625 230.207031 C 174.929688 235.933594 174.84375 241.648438 177.558594 246.875 C 179.46875 250.546875 182.828125 254.078125 186.84375 255.554688 C 184.097656 256.066406 181.386719 256.75 178.757812 257.691406 C 178.324219 257.84375 178.492188 258.5 178.949219 258.382812 C 183.484375 257.222656 188.09375 256.355469 192.777344 256.125 C 194.984375 256.015625 197.191406 256.078125 199.398438 256.191406 C 201.472656 256.296875 204.097656 256.886719 206.109375 256.277344 C 206.457031 256.171875 206.507812 255.710938 206.207031 255.519531 C 204.492188 254.421875 201.84375 254.472656 199.871094 254.410156 Z M 145.894531 175.867188 C 146.121094 177.375 146.09375 178.941406 145.980469 180.460938 C 145.925781 181.203125 145.871094 181.945312 145.792969 182.6875 C 145.726562 183.300781 145.660156 184.207031 146.078125 184.710938 C 146.171875 184.820312 146.351562 184.820312 146.464844 184.757812 C 147.105469 184.417969 147.304688 183.332031 147.363281 182.6875 C 147.433594 181.921875 147.46875 181.144531 147.40625 180.378906 C 147.285156 178.777344 146.914062 177.25 146.449219 175.714844 C 146.339844 175.351562 145.839844 175.507812 145.894531 175.867188 Z M 255.070312 256.769531 C 253.09375 250.445312 250.503906 244.304688 247.363281 238.464844 C 247.773438 235.714844 247.972656 232.929688 247.917969 230.15625 C 247.757812 221.8125 245.117188 214.164062 240.714844 207.132812 C 240.429688 206.675781 239.75 207.074219 239.996094 207.550781 C 243.539062 214.386719 245.035156 222.5 245.09375 230.15625 C 245.109375 231.734375 245.023438 233.308594 244.878906 234.878906 C 244.230469 238.953125 243.042969 242.910156 241.070312 246.554688 C 239.085938 250.242188 236.40625 253.460938 233.285156 256.222656 C 235.804688 258.722656 238.398438 261.175781 240.703125 263.8125 C 252.492188 277.300781 256.625 295.660156 260.042969 313.265625 C 260.207031 314.105469 260.394531 314.984375 260.679688 315.804688 C 260.699219 315.597656 260.699219 315.394531 260.71875 315.1875 C 261.949219 295.558594 260.945312 275.539062 255.070312 256.769531 Z M 255.070312 256.769531 " fill-opacity="1" fill-rule="nonzero"/></svg>