<svg xmlns="http://www.w3.org/2000/svg" xmlns:xlink="http://www.w3.org/1999/xlink" width="450" zoomAndPan="magnify" viewBox="0 0 337.5 449.999984" height="600" preserveAspectRatio="xMidYMid meet" version="1.0"><defs><clipPath id="d6804d61e7"><path d="M 63 153 L 287 153 L 287 281 L 63 281 Z M 63 153 " clip-rule="nonzero"/></clipPath><clipPath id="486c8a9a72"><path d="M 82.960938 123.394531 L 303.628906 187.921875 L 265.585938 318.023438 L 44.917969 253.496094 Z M 82.960938 123.394531 " clip-rule="nonzero"/></clipPath><clipPath id="ccaf5b5d82"><path d="M 82.960938 123.394531 L 303.628906 187.921875 L 265.585938 318.023438 L 44.917969 253.496094 Z M 82.960938 123.394531 " clip-rule="nonzero"/></clipPath><clipPath id="ebc9e2b6ac"><path d="M 82.960938 123.394531 L 303.628906 187.921875 L 265.585938 318.023438 L 44.917969 253.496094 Z M 82.960938 123.394531 " clip-rule="nonzero"/></clipPath><clipPath id="62f50abc85"><path d="M 78.234375 140.148438 L 298.585938 204.585938 L 265.390625 318.113281 L 45.035156 253.679688 Z M 78.234375 140.148438 " clip-rule="nonzero"/></clipPath><clipPath id="4bcb1a979b"><path d="M 78.234375 140.148438 L 298.585938 204.585938 L 265.421875 318.007812 L 45.066406 253.574219 Z M 78.234375 140.148438 " clip-rule="nonzero"/></clipPath><clipPath id="b135b8b212"><path d="M 141 144 L 159 144 L 159 159 L 141 159 Z M 141 144 " clip-rule="nonzero"/></clipPath><clipPath id="afee1fd787"><path d="M 82.960938 123.394531 L 303.628906 187.921875 L 265.585938 318.023438 L 44.917969 253.496094 Z M 82.960938 123.394531 " clip-rule="nonzero"/></clipPath><clipPath id="4c52420ec3"><path d="M 82.960938 123.394531 L 303.628906 187.921875 L 265.585938 318.023438 L 44.917969 253.496094 Z M 82.960938 123.394531 " clip-rule="nonzero"/></clipPath><clipPath id="cd2a407e9a"><path d="M 82.960938 123.394531 L 303.628906 187.921875 L 265.585938 318.023438 L 44.917969 253.496094 Z M 82.960938 123.394531 " clip-rule="nonzero"/></clipPath><clipPath id="cc67d344b2"><path d="M 142 159 L 158 159 L 158 167 L 142 167 Z M 142 159 " clip-rule="nonzero"/></clipPath><clipPath id="f712e8d189"><path d="M 82.960938 123.394531 L 303.628906 187.921875 L 265.585938 318.023438 L 44.917969 253.496094 Z M 82.960938 123.394531 " clip-rule="nonzero"/></clipPath><clipPath id="524d2882d4"><path d="M 82.960938 123.394531 L 303.628906 187.921875 L 265.585938 318.023438 L 44.917969 253.496094 Z M 82.960938 123.394531 " clip-rule="nonzero"/></clipPath><clipPath id="c961634354"><path d="M 82.960938 123.394531 L 303.628906 187.921875 L 265.585938 318.023438 L 44.917969 253.496094 Z M 82.960938 123.394531 " clip-rule="nonzero"/></clipPath><clipPath id="fe147289ad"><path d="M 134 144 L 143 144 L 143 157 L 134 157 Z M 134 144 " clip-rule="nonzero"/></clipPath><clipPath id="9c98ef1276"><path d="M 82.960938 123.394531 L 303.628906 187.921875 L 265.585938 318.023438 L 44.917969 253.496094 Z M 82.960938 123.394531 " clip-rule="nonzero"/></clipPath><clipPath id="40ac550f59"><path d="M 82.960938 123.394531 L 303.628906 187.921875 L 265.585938 318.023438 L 44.917969 253.496094 Z M 82.960938 123.394531 " clip-rule="nonzero"/></clipPath><clipPath id="e4ecc88825"><path d="M 82.960938 123.394531 L 303.628906 187.921875 L 265.585938 318.023438 L 44.917969 253.496094 Z M 82.960938 123.394531 " clip-rule="nonzero"/></clipPath><clipPath id="3f440fe8a4"><path d="M 107 183 L 116 183 L 116 193 L 107 193 Z M 107 183 " clip-rule="nonzero"/></clipPath><clipPath id="f6458deced"><path d="M 82.960938 123.394531 L 303.628906 187.921875 L 265.585938 318.023438 L 44.917969 253.496094 Z M 82.960938 123.394531 " clip-rule="nonzero"/></clipPath><clipPath id="fd4a237109"><path d="M 82.960938 123.394531 L 303.628906 187.921875 L 265.585938 318.023438 L 44.917969 253.496094 Z M 82.960938 123.394531 " clip-rule="nonzero"/></clipPath><clipPath id="832ff189c9"><path d="M 82.960938 123.394531 L 303.628906 187.921875 L 265.585938 318.023438 L 44.917969 253.496094 Z M 82.960938 123.394531 " clip-rule="nonzero"/></clipPath><clipPath id="f56c6673eb"><path d="M 153 203 L 186 203 L 186 234 L 153 234 Z M 153 203 " clip-rule="nonzero"/></clipPath><clipPath id="93495e1a77"><path d="M 82.960938 123.394531 L 303.628906 187.921875 L 265.585938 318.023438 L 44.917969 253.496094 Z M 82.960938 123.394531 " clip-rule="nonzero"/></clipPath><clipPath id="11d88d3645"><path d="M 82.960938 123.394531 L 303.628906 187.921875 L 265.585938 318.023438 L 44.917969 253.496094 Z M 82.960938 123.394531 " clip-rule="nonzero"/></clipPath><clipPath id="a32a15c220"><path d="M 82.960938 123.394531 L 303.628906 187.921875 L 265.585938 318.023438 L 44.917969 253.496094 Z M 82.960938 123.394531 " clip-rule="nonzero"/></clipPath><clipPath id="5501e4fc70"><path d="M 242 197 L 249 197 L 249 224 L 242 224 Z M 242 197 " clip-rule="nonzero"/></clipPath><clipPath id="8b316986cc"><path d="M 82.960938 123.394531 L 303.628906 187.921875 L 265.585938 318.023438 L 44.917969 253.496094 Z M 82.960938 123.394531 " clip-rule="nonzero"/></clipPath><clipPath id="fdcc8b6c16"><path d="M 82.960938 123.394531 L 303.628906 187.921875 L 265.585938 318.023438 L 44.917969 253.496094 Z M 82.960938 123.394531 " clip-rule="nonzero"/></clipPath><clipPath id="ceaebbe63c"><path d="M 82.960938 123.394531 L 303.628906 187.921875 L 265.585938 318.023438 L 44.917969 253.496094 Z M 82.960938 123.394531 " clip-rule="nonzero"/></clipPath><clipPath id="e66c1f25c6"><path d="M 250 231 L 276 231 L 276 244 L 250 244 Z M 250 231 " clip-rule="nonzero"/></clipPath><clipPath id="c1bb577356"><path d="M 82.960938 123.394531 L 303.628906 187.921875 L 265.585938 318.023438 L 44.917969 253.496094 Z M 82.960938 123.394531 " clip-rule="nonzero"/></clipPath><clipPath id="af10e1acc6"><path d="M 82.960938 123.394531 L 303.628906 187.921875 L 265.585938 318.023438 L 44.917969 253.496094 Z M 82.960938 123.394531 " clip-rule="nonzero"/></clipPath><clipPath id="d9ee22b4c1"><path d="M 82.960938 123.394531 L 303.628906 187.921875 L 265.585938 318.023438 L 44.917969 253.496094 Z M 82.960938 123.394531 " clip-rule="nonzero"/></clipPath><clipPath id="02e7bc199e"><path d="M 63 179 L 238 179 L 238 281 L 63 281 Z M 63 179 " clip-rule="nonzero"/></clipPath><clipPath id="7da7f3eb8a"><path d="M 82.960938 123.394531 L 303.628906 187.921875 L 265.585938 318.023438 L 44.917969 253.496094 Z M 82.960938 123.394531 " clip-rule="nonzero"/></clipPath><clipPath id="b1ff42747b"><path d="M 82.960938 123.394531 L 303.628906 187.921875 L 265.585938 318.023438 L 44.917969 253.496094 Z M 82.960938 123.394531 " clip-rule="nonzero"/></clipPath><clipPath id="3e891ab5a4"><path d="M 82.960938 123.394531 L 303.628906 187.921875 L 265.585938 318.023438 L 44.917969 253.496094 Z M 82.960938 123.394531 " clip-rule="nonzero"/></clipPath><clipPath id="5c6866752b"><path d="M 67.121094 178.144531 L 240.652344 228.886719 L 218.5625 304.421875 L 45.035156 253.679688 Z M 67.121094 178.144531 " clip-rule="nonzero"/></clipPath><clipPath id="ef9a075147"><path d="M 67.121094 178.144531 L 240.652344 228.886719 L 218.59375 304.316406 L 45.066406 253.574219 Z M 67.121094 178.144531 " clip-rule="nonzero"/></clipPath><clipPath id="6f7d8b5b84"><path d="M 70 180 L 234 180 L 234 274 L 70 274 Z M 70 180 " clip-rule="nonzero"/></clipPath><clipPath id="f96a3f4636"><path d="M 82.960938 123.394531 L 303.628906 187.921875 L 265.585938 318.023438 L 44.917969 253.496094 Z M 82.960938 123.394531 " clip-rule="nonzero"/></clipPath><clipPath id="1ab153bd81"><path d="M 82.960938 123.394531 L 303.628906 187.921875 L 265.585938 318.023438 L 44.917969 253.496094 Z M 82.960938 123.394531 " clip-rule="nonzero"/></clipPath><clipPath id="33f6864351"><path d="M 82.960938 123.394531 L 303.628906 187.921875 L 265.585938 318.023438 L 44.917969 253.496094 Z M 82.960938 123.394531 " clip-rule="nonzero"/></clipPath><clipPath id="b3ca1053ef"><path d="M 80 186 L 229 186 L 229 267 L 80 267 Z M 80 186 " clip-rule="nonzero"/></clipPath><clipPath id="a5cc67c483"><path d="M 82.960938 123.394531 L 303.628906 187.921875 L 265.585938 318.023438 L 44.917969 253.496094 Z M 82.960938 123.394531 " clip-rule="nonzero"/></clipPath><clipPath id="f33741c30d"><path d="M 82.960938 123.394531 L 303.628906 187.921875 L 265.585938 318.023438 L 44.917969 253.496094 Z M 82.960938 123.394531 " clip-rule="nonzero"/></clipPath><clipPath id="2d7e5a10ba"><path d="M 82.960938 123.394531 L 303.628906 187.921875 L 265.585938 318.023438 L 44.917969 253.496094 Z M 82.960938 123.394531 " clip-rule="nonzero"/></clipPath><clipPath id="7ef6ebafb6"><path d="M 89 195 L 238 195 L 238 264 L 89 264 Z M 89 195 " clip-rule="nonzero"/></clipPath><clipPath id="c4744d60e9"><path d="M 82.960938 123.394531 L 303.628906 187.921875 L 265.585938 318.023438 L 44.917969 253.496094 Z M 82.960938 123.394531 " clip-rule="nonzero"/></clipPath><clipPath id="186a8fb832"><path d="M 82.960938 123.394531 L 303.628906 187.921875 L 265.585938 318.023438 L 44.917969 253.496094 Z M 82.960938 123.394531 " clip-rule="nonzero"/></clipPath><clipPath id="c640d41326"><path d="M 82.960938 123.394531 L 303.628906 187.921875 L 265.585938 318.023438 L 44.917969 253.496094 Z M 82.960938 123.394531 " clip-rule="nonzero"/></clipPath><clipPath id="8467527eb3"><path d="M 72 168 L 118 168 L 118 207 L 72 207 Z M 72 168 " clip-rule="nonzero"/></clipPath><clipPath id="0e39b7873f"><path d="M 82.960938 123.394531 L 303.628906 187.921875 L 265.585938 318.023438 L 44.917969 253.496094 Z M 82.960938 123.394531 " clip-rule="nonzero"/></clipPath><clipPath id="1c891d2ecc"><path d="M 82.960938 123.394531 L 303.628906 187.921875 L 265.585938 318.023438 L 44.917969 253.496094 Z M 82.960938 123.394531 " clip-rule="nonzero"/></clipPath><clipPath id="7be1f5fd18"><path d="M 82.960938 123.394531 L 303.628906 187.921875 L 265.585938 318.023438 L 44.917969 253.496094 Z M 82.960938 123.394531 " clip-rule="nonzero"/></clipPath><clipPath id="b24e2129da"><path d="M 112 215 L 134 215 L 134 261 L 112 261 Z M 112 215 " clip-rule="nonzero"/></clipPath><clipPath id="b9cf8bb844"><path d="M 82.960938 123.394531 L 303.628906 187.921875 L 265.585938 318.023438 L 44.917969 253.496094 Z M 82.960938 123.394531 " clip-rule="nonzero"/></clipPath><clipPath id="fe80331801"><path d="M 82.960938 123.394531 L 303.628906 187.921875 L 265.585938 318.023438 L 44.917969 253.496094 Z M 82.960938 123.394531 " clip-rule="nonzero"/></clipPath><clipPath id="1fe71e26b9"><path d="M 82.960938 123.394531 L 303.628906 187.921875 L 265.585938 318.023438 L 44.917969 253.496094 Z M 82.960938 123.394531 " clip-rule="nonzero"/></clipPath><clipPath id="5e4a6252d7"><path d="M 125 230 L 130 230 L 130 254 L 125 254 Z M 125 230 " clip-rule="nonzero"/></clipPath><clipPath id="fdc9c40ebf"><path d="M 82.960938 123.394531 L 303.628906 187.921875 L 265.585938 318.023438 L 44.917969 253.496094 Z M 82.960938 123.394531 " clip-rule="nonzero"/></clipPath><clipPath id="04a3bb1350"><path d="M 82.960938 123.394531 L 303.628906 187.921875 L 265.585938 318.023438 L 44.917969 253.496094 Z M 82.960938 123.394531 " clip-rule="nonzero"/></clipPath><clipPath id="b1547f39a8"><path d="M 82.960938 123.394531 L 303.628906 187.921875 L 265.585938 318.023438 L 44.917969 253.496094 Z M 82.960938 123.394531 " clip-rule="nonzero"/></clipPath></defs><g clip-path="url(#d6804d61e7)"><g clip-path="url(#486c8a9a72)"><g clip-path="url(#ccaf5b5d82)"><g clip-path="url(#ebc9e2b6ac)"><g clip-path="url(#62f50abc85)"><g clip-path="url(#4bcb1a979b)"><path fill="#1a9cc7" d="M 155.535156 195.148438 C 156.316406 196.675781 157.121094 198.160156 157.960938 199.59375 C 165.441406 212.332031 176.523438 223.941406 190.519531 229.71875 C 203.445312 235.054688 222.578125 235.804688 234.199219 226.808594 C 234.199219 226.808594 225.726562 199.359375 245.160156 189.328125 C 245.160156 189.328125 265.742188 203.570312 249.066406 227.339844 C 249.066406 227.339844 265.074219 218.945312 286.894531 244.570312 C 286.894531 244.570312 251.835938 264.722656 237.988281 237.023438 C 238.265625 237.578125 229.445312 244.238281 228.851562 244.714844 C 222.898438 249.46875 216.832031 253.652344 210.257812 257.503906 C 200.566406 263.175781 190.554688 268.285156 180.273438 272.800781 C 162.691406 280.53125 143.746094 282.730469 125.222656 277.003906 C 89.960938 266.105469 60.273438 230.894531 63.855469 192.984375 C 65.050781 180.34375 69.902344 169.339844 80.429688 161.78125 C 89.75 155.082031 102.210938 151.652344 113.546875 154.484375 C 123.839844 157.058594 133.101562 161.660156 140.476562 169.367188 C 147.121094 176.3125 151.003906 186.332031 155.535156 195.148438 " fill-opacity="1" fill-rule="nonzero"/></g></g></g></g></g></g><g clip-path="url(#b135b8b212)"><g clip-path="url(#afee1fd787)"><g clip-path="url(#4c52420ec3)"><g clip-path="url(#cd2a407e9a)"><path fill="#87d0e8" d="M 149.066406 154.234375 C 150.230469 153.648438 151.523438 153.148438 152.773438 152.667969 C 155.011719 151.800781 156.78125 151.117188 157.441406 150.140625 C 158.542969 148.515625 158.835938 147.28125 158.339844 146.363281 C 157.777344 145.328125 156.3125 144.867188 153.734375 144.90625 C 149.3125 144.972656 142.367188 156.230469 141.460938 157.726562 C 141.335938 157.871094 141.335938 157.949219 141.335938 158.0625 L 141.335938 158.398438 L 141.632812 158.554688 L 141.949219 158.703125 L 142.324219 158.445312 L 142.339844 158.417969 C 142.8125 158.050781 145.523438 156.011719 149.066406 154.234375 " fill-opacity="1" fill-rule="nonzero"/></g></g></g></g><g clip-path="url(#cc67d344b2)"><g clip-path="url(#f712e8d189)"><g clip-path="url(#524d2882d4)"><g clip-path="url(#c961634354)"><path fill="#87d0e8" d="M 156 161.144531 C 153.441406 157.464844 145.488281 160 143.117188 160.863281 C 142.839844 160.960938 142.671875 161.246094 142.71875 161.535156 C 142.757812 161.769531 142.929688 161.960938 143.15625 162.027344 C 143.203125 162.039062 143.25 162.046875 143.304688 162.050781 C 144.675781 162.105469 147.429688 163.734375 149.644531 165.042969 C 150.734375 165.6875 151.671875 166.242188 152.386719 166.585938 C 152.582031 166.679688 152.78125 166.753906 152.980469 166.8125 C 154.285156 167.195312 155.6875 166.859375 156.484375 165.929688 C 156.957031 165.375 157.851562 163.800781 156 161.144531 " fill-opacity="1" fill-rule="nonzero"/></g></g></g></g><g clip-path="url(#fe147289ad)"><g clip-path="url(#9c98ef1276)"><g clip-path="url(#40ac550f59)"><g clip-path="url(#e4ecc88825)"><path fill="#87d0e8" d="M 138.203125 144.714844 C 136.601562 144.894531 135.097656 145.984375 134.777344 147.203125 C 134.570312 147.988281 134.871094 148.738281 135.597656 149.261719 C 136.109375 149.628906 136.648438 149.953125 137.167969 150.265625 C 139.160156 151.460938 140.628906 152.34375 139.929688 154.742188 C 139.886719 154.890625 139.832031 155.039062 139.777344 155.191406 C 139.660156 155.496094 139.796875 155.828125 140.09375 155.964844 C 140.121094 155.980469 140.152344 155.988281 140.183594 156 C 140.453125 156.078125 140.742188 155.964844 140.886719 155.714844 C 141.78125 154.140625 143.667969 150.117188 141.902344 146.742188 C 141.144531 145.277344 139.792969 144.539062 138.203125 144.714844 " fill-opacity="1" fill-rule="nonzero"/></g></g></g></g><g clip-path="url(#3f440fe8a4)"><g clip-path="url(#f6458deced)"><g clip-path="url(#fd4a237109)"><g clip-path="url(#832ff189c9)"><path fill="#000000" d="M 111.0625 192.039062 C 110.722656 191.9375 110.386719 191.792969 110.054688 191.597656 C 107.78125 190.265625 107.050781 188.488281 108.003906 186.59375 C 108.460938 185.695312 109.191406 184.808594 110.117188 184.035156 C 110.351562 183.839844 110.703125 183.871094 110.898438 184.105469 C 111.09375 184.339844 111.0625 184.6875 110.828125 184.882812 C 110.015625 185.5625 109.382812 186.324219 108.992188 187.09375 C 108.320312 188.425781 108.867188 189.621094 110.613281 190.644531 C 110.976562 190.859375 111.535156 191.105469 112.132812 191.078125 C 113 191.035156 113.777344 190.453125 114.632812 189.757812 C 114.871094 189.5625 115.21875 189.601562 115.414062 189.835938 C 115.605469 190.074219 115.570312 190.417969 115.335938 190.613281 C 114.554688 191.25 113.488281 192.117188 112.183594 192.179688 C 111.820312 192.199219 111.441406 192.148438 111.0625 192.039062 " fill-opacity="1" fill-rule="nonzero"/></g></g></g></g><g clip-path="url(#f56c6673eb)"><g clip-path="url(#93495e1a77)"><g clip-path="url(#11d88d3645)"><g clip-path="url(#a32a15c220)"><path fill="#87d0e8" d="M 184.898438 233.703125 C 184.894531 233.699219 184.886719 233.699219 184.882812 233.695312 C 173.398438 229.929688 165.371094 222.09375 160.660156 216.183594 C 155.5625 209.785156 153.132812 204.1875 153.109375 204.132812 C 152.988281 203.847656 153.117188 203.527344 153.398438 203.40625 C 153.679688 203.285156 154.003906 203.417969 154.125 203.695312 C 154.148438 203.753906 156.53125 209.234375 161.546875 215.523438 C 166.164062 221.304688 174.015625 228.96875 185.226562 232.648438 C 185.515625 232.742188 185.675781 233.054688 185.578125 233.34375 C 185.488281 233.628906 185.183594 233.785156 184.898438 233.703125 " fill-opacity="1" fill-rule="nonzero"/></g></g></g></g><g clip-path="url(#5501e4fc70)"><g clip-path="url(#8b316986cc)"><g clip-path="url(#fdcc8b6c16)"><g clip-path="url(#ceaebbe63c)"><path fill="#87d0e8" d="M 242.898438 223.25 C 242.84375 223.230469 242.792969 223.203125 242.746094 223.164062 C 242.570312 223.011719 242.550781 222.75 242.703125 222.578125 C 247.113281 217.519531 248.792969 211.820312 247.691406 205.648438 C 246.867188 201.023438 244.707031 197.855469 244.683594 197.820312 C 244.554688 197.632812 244.601562 197.375 244.792969 197.246094 C 244.980469 197.117188 245.238281 197.164062 245.367188 197.351562 C 245.460938 197.484375 247.644531 200.679688 248.503906 205.46875 C 249.300781 209.898438 249.050781 216.558594 243.332031 223.121094 C 243.21875 223.25 243.050781 223.292969 242.898438 223.25 " fill-opacity="1" fill-rule="nonzero"/></g></g></g></g><g clip-path="url(#e66c1f25c6)"><g clip-path="url(#c1bb577356)"><g clip-path="url(#af10e1acc6)"><g clip-path="url(#d9ee22b4c1)"><path fill="#87d0e8" d="M 274.582031 243.601562 C 274.492188 243.578125 274.410156 243.519531 274.351562 243.433594 C 269.382812 235.914062 263.394531 233.570312 259.242188 232.929688 C 254.734375 232.234375 251.347656 233.332031 251.316406 233.34375 C 251.097656 233.417969 250.863281 233.300781 250.792969 233.082031 C 250.71875 232.863281 250.835938 232.628906 251.050781 232.558594 C 251.195312 232.511719 254.628906 231.390625 259.328125 232.105469 C 263.65625 232.765625 269.898438 235.1875 275.046875 242.976562 C 275.171875 243.167969 275.121094 243.425781 274.925781 243.550781 C 274.824219 243.621094 274.695312 243.636719 274.582031 243.601562 " fill-opacity="1" fill-rule="nonzero"/></g></g></g></g><g clip-path="url(#02e7bc199e)"><g clip-path="url(#7da7f3eb8a)"><g clip-path="url(#b1ff42747b)"><g clip-path="url(#3e891ab5a4)"><g clip-path="url(#5c6866752b)"><g clip-path="url(#ef9a075147)"><path fill="#87d0e8" d="M 237.984375 237.097656 L 237.988281 237.023438 C 225.839844 247.140625 183.347656 258.648438 177.421875 259.269531 C 171.496094 259.882812 156.226562 261.394531 142.136719 253.160156 C 128.046875 244.925781 112.386719 227.617188 108.921875 224.351562 C 105.457031 221.085938 93.378906 199.929688 90.597656 195.003906 C 87.816406 190.074219 81.058594 182.617188 71.992188 180.042969 C 70.136719 179.519531 68.425781 179.378906 66.875 179.476562 C 65.277344 183.683594 64.304688 188.214844 63.855469 192.984375 C 60.273438 230.894531 89.960938 266.105469 125.222656 277.003906 C 143.746094 282.730469 162.691406 280.53125 180.273438 272.800781 C 190.554688 268.285156 200.566406 263.175781 210.257812 257.503906 C 216.832031 253.652344 222.898438 249.46875 228.851562 244.714844 C 229.425781 244.253906 237.6875 238.015625 237.984375 237.097656 " fill-opacity="1" fill-rule="nonzero"/></g></g></g></g></g></g><g clip-path="url(#6f7d8b5b84)"><g clip-path="url(#f96a3f4636)"><g clip-path="url(#1ab153bd81)"><g clip-path="url(#33f6864351)"><path fill="#ffffff" d="M 233.421875 240.621094 C 232.40625 241.214844 231.378906 241.785156 230.339844 242.34375 C 228.808594 243.527344 227.234375 244.71875 225.632812 245.796875 C 221.371094 248.664062 216.941406 251.394531 212.460938 253.910156 C 203.261719 259.082031 193.800781 263.367188 184.351562 266.65625 C 184.027344 266.769531 183.703125 266.878906 183.378906 266.988281 C 170.214844 271.476562 159.339844 273.265625 149.15625 272.625 C 137.164062 271.867188 124.027344 268.476562 115.683594 263.984375 C 106.53125 259.058594 93.058594 248.492188 87.414062 241.8125 C 81.90625 235.304688 77.019531 225.460938 74.332031 215.480469 C 72.394531 208.285156 71.347656 200.820312 71.3125 193.898438 C 71.277344 187.488281 72.757812 182.964844 73.773438 180.625 C 73.601562 180.5625 73.425781 180.5 73.25 180.441406 C 72.210938 182.855469 70.722656 187.445312 70.757812 193.898438 C 70.796875 200.871094 71.847656 208.382812 73.796875 215.625 C 76.503906 225.675781 81.433594 235.601562 86.988281 242.171875 C 92.671875 248.890625 106.222656 259.519531 115.421875 264.472656 C 118.929688 266.363281 123.28125 268.058594 128.035156 269.445312 C 134.671875 271.386719 142.09375 272.730469 149.121094 273.175781 C 159.382812 273.824219 170.320312 272.023438 183.558594 267.511719 C 183.882812 267.398438 184.207031 267.289062 184.53125 267.175781 C 194.015625 263.878906 203.503906 259.578125 212.734375 254.394531 C 217.226562 251.867188 221.667969 249.128906 225.941406 246.253906 C 227.828125 244.984375 229.671875 243.5625 231.453125 242.1875 C 232.214844 241.597656 232.984375 241.003906 233.765625 240.417969 C 233.730469 240.4375 233.695312 240.457031 233.660156 240.480469 L 233.421875 240.621094 " fill-opacity="1" fill-rule="nonzero"/></g></g></g></g><g clip-path="url(#b3ca1053ef)"><g clip-path="url(#a5cc67c483)"><g clip-path="url(#f33741c30d)"><g clip-path="url(#2d7e5a10ba)"><path fill="#ffffff" d="M 191.84375 260.597656 C 191.457031 260.730469 191.074219 260.859375 190.6875 260.984375 C 172.335938 266.964844 154.152344 267.535156 137.636719 262.703125 C 135.28125 262.015625 132.953125 261.214844 130.667969 260.304688 C 123.265625 257.359375 117.105469 252.550781 112.566406 248.691406 C 96.492188 235.023438 81.601562 219.597656 81.5 199.429688 C 81.480469 195.476562 81.792969 190.730469 83.988281 186.941406 C 83.847656 186.816406 83.707031 186.691406 83.566406 186.566406 C 81.253906 190.476562 80.925781 195.367188 80.945312 199.433594 C 80.996094 208.9375 84.292969 218.082031 91.027344 227.394531 C 97.167969 235.882812 105.179688 243.136719 112.207031 249.113281 C 116.777344 253 122.984375 257.839844 130.464844 260.820312 C 148.882812 268.144531 169.769531 268.386719 190.859375 261.507812 C 191.25 261.382812 191.636719 261.253906 192.023438 261.121094 C 205.070312 256.71875 217.390625 250.109375 228.953125 243.085938 C 226.980469 244.109375 224.976562 245.070312 222.972656 245.996094 C 213.109375 251.707031 202.726562 256.925781 191.84375 260.597656 " fill-opacity="1" fill-rule="nonzero"/></g></g></g></g><g clip-path="url(#7ef6ebafb6)"><g clip-path="url(#c4744d60e9)"><g clip-path="url(#186a8fb832)"><g clip-path="url(#c640d41326)"><path fill="#ffffff" d="M 237.984375 237.097656 L 237.988281 237.023438 C 235.511719 239.085938 231.777344 241.203125 227.351562 243.277344 C 223.316406 245.304688 219.179688 247.113281 215.128906 248.871094 C 212.730469 249.914062 210.25 250.996094 207.828125 252.109375 C 185.640625 262.273438 167.808594 265.199219 151.707031 261.300781 C 141.625 258.863281 131.886719 254.078125 123.546875 247.472656 C 111.605469 238.003906 95.140625 223.066406 90.058594 202.730469 C 89.375 199.988281 90.085938 197.523438 90.992188 195.695312 C 90.871094 195.484375 90.761719 195.289062 90.660156 195.113281 C 89.640625 197.054688 88.753906 199.78125 89.523438 202.863281 C 91.714844 211.636719 95.988281 219.886719 102.582031 228.078125 C 107.789062 234.546875 114.53125 241.027344 123.203125 247.902344 C 130.726562 253.863281 139.375 258.351562 148.398438 260.988281 C 149.453125 261.296875 150.515625 261.582031 151.578125 261.839844 C 160.425781 263.976562 170.160156 264.023438 180.511719 261.96875 C 188.96875 260.289062 197.980469 257.226562 208.058594 252.609375 C 210.476562 251.5 212.953125 250.421875 215.351562 249.378906 C 217.871094 248.28125 220.425781 247.167969 222.972656 245.996094 C 224.976562 245.070312 226.980469 244.109375 228.953125 243.085938 C 229.417969 242.84375 229.878906 242.59375 230.339844 242.34375 C 231.378906 241.785156 232.40625 241.214844 233.421875 240.621094 L 233.660156 240.480469 C 233.695312 240.457031 233.730469 240.4375 233.765625 240.417969 C 234.566406 239.945312 235.375 239.464844 236.144531 238.929688 C 237.164062 238.058594 237.898438 237.363281 237.984375 237.097656 " fill-opacity="1" fill-rule="nonzero"/></g></g></g></g><g clip-path="url(#8467527eb3)"><g clip-path="url(#0e39b7873f)"><g clip-path="url(#1c891d2ecc)"><g clip-path="url(#7be1f5fd18)"><path fill="#000000" d="M 97.476562 188.90625 C 97.632812 189.320312 97.796875 189.742188 97.964844 190.183594 C 98.691406 192.0625 99.25 193.769531 99.742188 195.277344 C 100.96875 199.019531 101.851562 201.726562 104.074219 203.328125 C 104.949219 203.957031 105.828125 204.40625 106.730469 204.667969 C 109.539062 205.492188 112.582031 204.503906 116.542969 201.617188 C 116.613281 201.800781 116.679688 201.988281 116.726562 202.179688 C 117.070312 203.515625 116.757812 204.898438 115.796875 206.296875 C 115.710938 206.421875 115.742188 206.59375 115.867188 206.679688 C 115.890625 206.695312 115.917969 206.707031 115.945312 206.714844 C 116.058594 206.75 116.183594 206.710938 116.253906 206.609375 C 117.308594 205.074219 117.648438 203.539062 117.265625 202.042969 C 116.496094 199.050781 113.117188 197.320312 112.972656 197.246094 C 112.835938 197.179688 112.671875 197.234375 112.601562 197.367188 C 112.535156 197.503906 112.589844 197.671875 112.722656 197.738281 C 112.753906 197.753906 115.183594 199.003906 116.304688 201.109375 C 111.191406 204.863281 107.839844 205.355469 104.398438 202.878906 C 102.324219 201.382812 101.460938 198.75 100.269531 195.105469 C 99.773438 193.589844 99.210938 191.875 98.484375 189.984375 C 98.3125 189.546875 98.152344 189.121094 97.996094 188.710938 C 95.804688 182.957031 94.480469 179.484375 85.980469 173.5 C 82.042969 170.730469 77.140625 169.46875 72.851562 168.933594 C 72.714844 169.101562 72.589844 169.269531 72.457031 169.4375 C 76.75 169.941406 81.707031 171.167969 85.660156 173.953125 C 94.023438 179.839844 95.324219 183.253906 97.476562 188.90625 " fill-opacity="1" fill-rule="nonzero"/></g></g></g></g><g clip-path="url(#b24e2129da)"><g clip-path="url(#b9cf8bb844)"><g clip-path="url(#fe80331801)"><g clip-path="url(#1fe71e26b9)"><path fill="#0d8fba" d="M 117.972656 215.738281 C 117.972656 215.738281 98.714844 244.113281 129.695312 260.183594 C 129.695312 260.183594 142.429688 235.375 117.972656 215.738281 " fill-opacity="1" fill-rule="nonzero"/></g></g></g></g><g clip-path="url(#5e4a6252d7)"><g clip-path="url(#fdc9c40ebf)"><g clip-path="url(#04a3bb1350)"><g clip-path="url(#b1547f39a8)"><path fill="#87d0e8" d="M 127.121094 253.210938 C 127.074219 253.199219 127.03125 253.179688 126.988281 253.15625 C 126.726562 252.996094 126.644531 252.65625 126.804688 252.394531 C 131.683594 244.390625 125.652344 231.84375 125.589844 231.71875 C 125.457031 231.441406 125.570312 231.113281 125.84375 230.980469 C 126.121094 230.847656 126.449219 230.960938 126.585938 231.234375 C 126.847656 231.769531 132.941406 244.460938 127.75 252.972656 C 127.617188 253.1875 127.355469 253.28125 127.121094 253.210938 " fill-opacity="1" fill-rule="nonzero"/></g></g></g></g></svg>