<svg width="578" height="218" viewBox="0 0 578 218" fill="none" xmlns="http://www.w3.org/2000/svg">
<g clip-path="url(#clip0_404_4)">
<path d="M80.976 44.2232C81.387 42.7137 82.1866 41.3384 83.2951 40.2344C84.4035 39.1304 85.7821 38.3363 87.2932 37.9314C88.8043 37.5265 90.3952 37.5249 91.9072 37.9268C93.4191 38.3286 94.7993 39.1199 95.91 40.2216L124.123 68.2165L163.83 66.2915C165.392 66.2167 166.947 66.5527 168.338 67.266C169.73 67.9793 170.911 69.0449 171.762 70.3567C172.614 71.6685 173.107 73.1806 173.192 74.7422C173.277 76.3038 172.951 77.8605 172.247 79.2569L154.337 114.742L168.444 151.903C169 153.367 169.162 154.95 168.914 156.496C168.667 158.041 168.018 159.495 167.033 160.711C166.048 161.927 164.761 162.864 163.301 163.428C161.841 163.991 160.258 164.162 158.711 163.922L119.425 157.85L88.4388 182.752C87.2189 183.733 85.7631 184.376 84.2167 184.618C82.6703 184.86 81.0875 184.693 79.6262 184.132C78.165 183.571 76.8764 182.636 75.8892 181.422C74.9021 180.207 74.2508 178.755 74.0005 177.21L67.6369 137.973L34.3859 116.204C33.0761 115.347 32.014 114.162 31.3056 112.766C30.5971 111.371 30.2671 109.814 30.3486 108.251C30.43 106.688 30.92 105.174 31.7696 103.859C32.6192 102.545 33.7987 101.476 35.1904 100.76L70.5403 82.5739L80.976 44.2232Z" fill="url(#paint0_linear_404_4)"/>
</g>
<g clip-path="url(#clip1_404_4)">
<path d="M281.163 20.5283C281.951 19.1766 283.079 18.0551 284.435 17.2756C285.792 16.4961 287.329 16.0859 288.893 16.0859C290.458 16.0859 291.995 16.4961 293.351 17.2756C294.708 18.0551 295.836 19.1766 296.624 20.5283L316.63 54.8713L355.482 63.2888C357.01 63.6209 358.425 64.3478 359.585 65.397C360.744 66.4462 361.609 67.7811 362.092 69.2686C362.575 70.7561 362.66 72.3442 362.338 73.8746C362.015 75.405 361.298 76.8242 360.256 77.9909L333.772 107.631L337.781 147.178C337.939 148.735 337.686 150.307 337.047 151.735C336.408 153.164 335.405 154.4 334.138 155.32C332.872 156.24 331.387 156.812 329.83 156.978C328.274 157.145 326.701 156.9 325.269 156.268L288.893 140.235L252.518 156.268C251.085 156.9 249.513 157.145 247.956 156.978C246.4 156.812 244.914 156.24 243.648 155.32C242.382 154.4 241.379 153.164 240.74 151.735C240.101 150.307 239.848 148.735 240.006 147.178L244.014 107.631L217.53 77.998C216.487 76.8315 215.768 75.4117 215.445 73.8803C215.122 72.3489 215.206 70.7596 215.689 69.271C216.172 67.7823 217.037 66.4465 218.198 65.3968C219.359 64.3471 220.775 63.6202 222.305 63.2888L261.157 54.8713L281.163 20.5283Z" fill="url(#paint1_linear_404_4)"/>
</g>
<path d="M481.648 47.059C482.759 45.9572 484.139 45.166 485.651 44.7641C487.163 44.3623 488.754 44.3639 490.265 44.7688C491.776 45.1737 493.154 45.9677 494.263 47.0717C495.371 48.1757 496.171 49.5511 496.582 51.0605L507.018 89.4112L542.368 107.598C543.758 108.314 544.936 109.382 545.785 110.696C546.633 112.009 547.123 113.523 547.204 115.084C547.286 116.646 546.957 118.202 546.25 119.597C545.542 120.992 544.482 122.177 543.174 123.034L509.921 144.81L503.557 184.047C503.307 185.592 502.656 187.044 501.669 188.259C500.682 189.474 499.393 190.408 497.932 190.969C496.47 191.53 494.888 191.698 493.341 191.456C491.795 191.214 490.339 190.57 489.119 189.589L458.133 164.687L418.847 170.76C417.3 170.999 415.717 170.829 414.257 170.265C412.797 169.702 411.51 168.765 410.525 167.548C409.54 166.332 408.891 164.879 408.644 163.333C408.396 161.787 408.558 160.204 409.114 158.741L423.221 121.579L405.309 86.1012C404.603 84.7043 404.276 83.1468 404.361 81.5839C404.445 80.0211 404.938 78.5077 405.79 77.1949C406.641 75.882 407.823 74.8156 409.216 74.1021C410.609 73.3887 412.165 73.053 413.728 73.1288L453.435 75.0538L481.648 47.059Z" fill="url(#paint2_linear_404_4)"/>
<defs>
<linearGradient id="paint0_linear_404_4" x1="28.0989" y1="53.7925" x2="165.793" y2="28.529" gradientUnits="userSpaceOnUse">
<stop stop-color="#7FCB28" stop-opacity="0.91"/>
<stop offset="1" stop-color="#5C9E32"/>
</linearGradient>
<linearGradient id="paint1_linear_404_4" x1="227.611" y1="16.0859" x2="367.151" y2="27.3211" gradientUnits="userSpaceOnUse">
<stop stop-color="#7FCB28" stop-opacity="0.91"/>
<stop offset="1" stop-color="#5C9E32"/>
</linearGradient>
<linearGradient id="paint2_linear_404_4" x1="431.07" y1="28.9077" x2="562.948" y2="75.8758" gradientUnits="userSpaceOnUse">
<stop stop-color="#7FCB28" stop-opacity="0.91"/>
<stop offset="1" stop-color="#5C9E32"/>
</linearGradient>
<clipPath id="clip0_404_4">
<rect width="171.786" height="171.786" fill="white" transform="translate(0.16333 44.624) rotate(-15)"/>
</clipPath>
<clipPath id="clip1_404_4">
<rect width="171.786" height="171.786" fill="white" transform="translate(203)"/>
</clipPath>
</defs>
</svg>
