<svg width="100" height="101" viewBox="0 0 100 101" fill="none" xmlns="http://www.w3.org/2000/svg">
<mask id="mask0_137_2470" style="mask-type:luminance" maskUnits="userSpaceOnUse" x="0" y="0" width="100" height="101">
<path d="M61.0975 100.266L-6.64839e-06 63.5197L38.2024 0.000417152L99.2999 36.7463L61.0975 100.266Z" fill="white"/>
</mask>
<g mask="url(#mask0_137_2470)">
<path d="M22.1665 76.1594C36.7996 83.7867 55.7325 83.7061 69.9767 75.3955C83.9537 67.2399 93.5244 49.2073 92.1993 32.9491C83.8197 47.5951 65.6685 53.5882 50.2047 57.3131C34.0189 61.0812 17.2159 62.5521 0.606437 62.537C7.52571 67.4754 14.7481 71.9972 22.1665 76.1594Z" fill="#71EC20"/>
</g>
<mask id="mask1_137_2470" style="mask-type:luminance" maskUnits="userSpaceOnUse" x="0" y="0" width="93" height="96">
<path d="M54.7085 95.3877L0.457398 62.7594L38.2023 0.000826147L92.4534 32.6291L54.7085 95.3877Z" fill="white"/>
</mask>
<g mask="url(#mask1_137_2470)">
<path d="M19.6889 47.2717C13.6115 52.7007 7.24605 57.8148 0.606236 62.5374C17.2157 62.5524 34.0187 61.0816 50.2045 57.3135C65.6684 53.5886 83.8195 47.5954 92.1991 32.9495C79.9763 38.3768 69.8454 32.6358 57.4247 32.263C43.7712 31.8609 29.8832 38.5769 19.6889 47.2717Z" fill="#55C50C"/>
</g>
<path d="M25.2599 53.8347C26.8349 55.8178 28.82 57.4892 30.97 58.9198C24.6409 60.0175 18.338 61.0581 12.177 62.2731C17.9864 62.8941 24.4521 63.0966 31.1301 62.7509C29.4898 64.5969 27.9951 66.5708 26.8553 68.7016C30.9454 67.6129 34.4972 65.0511 37.6954 62.2363C42.0882 61.7747 46.5127 61.0651 50.8454 60.0777C48.0088 63.4823 45.244 66.9624 42.8965 70.6773C48.768 67.6494 53.8686 63.0977 58.2287 58.0886C62.5695 56.7176 66.7436 55.0319 70.6099 52.9832C67.8624 58.776 64.6744 64.3526 62.0861 70.217C68.7239 64.5828 73.8324 57.0779 77.0747 49.0092C80.2533 46.745 83.1105 44.154 85.5464 41.2206C82.4769 43.2226 79.2977 44.9766 76.0325 46.5372C68.296 45.0768 60.9357 42.2241 53.247 40.5498C57.926 44.4564 63.6419 47.453 69.5499 49.3432C65.7715 50.8218 61.9012 52.0832 57.9686 53.1857C51.623 51.2226 45.341 48.7635 38.7864 47.7469C42.2912 50.7935 46.4229 53.1611 50.7264 55.0413C46.3997 56.0524 42.026 56.9262 37.6424 57.7292C33.6742 55.9374 29.6072 54.1752 25.2599 53.8347Z" fill="#3A8C03"/>
</svg>
