<svg width="75" height="72" viewBox="0 0 75 72" fill="none" xmlns="http://www.w3.org/2000/svg">
<mask id="mask0_380_2" style="mask-type:luminance" maskUnits="userSpaceOnUse" x="0" y="0" width="75" height="72">
<path d="M74.1224 0L74.1224 71.2963L3.50305e-05 71.2963L3.8147e-05 -3.23999e-06L74.1224 0Z" fill="white"/>
</mask>
<g mask="url(#mask0_380_2)">
<path d="M73.5294 45.7863C72.5238 29.3154 62.6968 13.1324 48.2336 5.20902C34.0409 -2.56523 13.6552 -1.47295 0.405693 8.04201C17.2753 7.67445 31.7662 20.1403 42.9283 31.4723C54.4995 43.4006 64.4202 57.042 72.9677 71.2832C73.6335 62.8085 73.786 54.2888 73.5294 45.7863Z" fill="#71EC20"/>
</g>
<mask id="mask1_380_2" style="mask-type:luminance" maskUnits="userSpaceOnUse" x="0" y="7" width="74" height="65">
<path d="M73.235 7.98926L73.235 71.2964L0.00027952 71.2964L0.000282288 7.98925L73.235 7.98926Z" fill="white"/>
</mask>
<g mask="url(#mask1_380_2)">
<path d="M50.0509 62.7982C57.8356 65.2082 65.4988 68.0273 72.968 71.2833C64.4204 57.0421 54.4998 43.4007 42.9285 31.4724C31.7665 20.1404 17.2756 7.67455 0.405952 8.04211C11.3565 15.7193 11.6582 27.3598 17.7402 38.196C24.4326 50.1035 37.3458 58.5436 50.0509 62.7982Z" fill="#55C50C"/>
</g>
<path d="M52.8039 54.6419C53.6916 52.2701 54.1008 49.7075 54.2187 47.1277C58.4213 51.9857 62.5616 56.8507 66.7781 61.5042C64.3162 56.2057 61.1572 50.5606 57.4192 45.0159C59.8465 45.4702 62.3085 45.7337 64.7219 45.6124C61.6808 42.6684 57.655 40.945 53.5945 39.6551C50.9349 36.1286 48.0464 32.7027 44.9672 29.4986C49.3468 30.1748 53.754 30.7504 58.1474 30.8475C52.5265 27.3765 45.9971 25.3515 39.4573 24.1968C36.0452 21.1835 32.4494 18.4753 28.7009 16.2179C35.0812 15.5868 41.5031 15.4447 47.8626 14.6402C39.6133 11.8557 30.5491 11.346 21.9635 12.7261C18.385 11.1692 14.692 10.0561 10.9228 9.48047C14.2204 11.079 17.362 12.8995 20.3823 14.8933C23.1182 22.2757 24.4671 30.0535 26.9949 37.5052C27.9311 31.4821 27.5532 25.0394 26.128 19.0024C29.3424 21.4782 32.4182 24.1447 35.3899 26.9465C36.978 33.3962 38.1084 40.0469 40.6155 46.188C41.4199 41.6143 41.3194 36.8533 40.7125 32.1964C43.8091 35.3831 46.812 38.6807 49.7594 42.0234C50.2691 46.3475 50.8551 50.7409 52.8039 54.6419Z" fill="#3A8C03"/>
</svg>
