<svg width="450" height="600" viewBox="0 0 450 600" fill="none" xmlns="http://www.w3.org/2000/svg">
<path d="M255.516 353.672C255.516 353.672 264.631 385.802 262.558 395.151C260.485 404.5 254.714 444.818 254.714 444.818C254.714 444.818 242.287 442.995 237.563 445.729C232.839 448.458 233.766 449.792 233.766 449.792C233.766 449.792 244.677 446.948 243.433 446.948C243.089 446.948 232.735 452.229 235.146 453.047C235.813 453.265 249.355 448.515 255.86 449.385C263.454 450.401 272.776 451.62 272.776 451.62C272.776 451.62 263.11 445.323 259.662 445.729C259.662 445.729 266.407 405.594 268.771 395.151C270.151 389.057 260.052 349.401 260.052 349.401L255.516 353.672Z" fill="#603C2F"/>
<mask id="mask0_2439_4575" style="mask-type:luminance" maskUnits="userSpaceOnUse" x="215" y="356" width="41" height="105">
<path d="M215.406 356.078H255.359V460.521H215.406V356.078Z" fill="white"/>
</mask>
<g mask="url(#mask0_2439_4575)">
<path d="M239.348 357.099C239.348 357.099 248.885 391.89 246.807 401.245C244.739 410.588 236.729 452.281 236.729 452.281C236.729 452.281 224.302 450.463 219.578 453.198C214.859 455.927 215.781 457.26 215.781 457.26C215.781 457.26 226.692 454.411 225.447 454.411C225.104 454.411 214.744 459.698 217.161 460.51C217.828 460.734 231.369 455.984 237.88 456.854C245.468 457.87 254.791 459.088 254.791 459.088C254.791 459.088 245.13 452.786 241.677 453.198C241.677 453.198 249.442 412.432 252.385 402.146C254.843 393.542 244.432 356.198 244.432 356.198L239.348 357.099Z" fill="#865F4B"/>
</g>
<mask id="mask1_2439_4575" style="mask-type:luminance" maskUnits="userSpaceOnUse" x="153" y="145" width="180" height="210">
<path d="M153.786 145.672H332.552V354.047H153.786V145.672Z" fill="white"/>
</mask>
<g mask="url(#mask1_2439_4575)">
<path d="M185.557 171.13C185.146 170.719 184.599 170.453 184.067 170.162C177.166 166.365 157.156 164.818 157.156 164.818L153.88 157.578C153.88 157.578 170.724 145.011 181.994 145.86C189.5 146.427 202.724 147.922 203.567 168.13C203.583 168.469 203.588 168.813 203.599 169.162V169.182C203.635 171.083 203.567 173.141 203.38 175.375C203.156 178.037 202.765 180.943 202.177 184.12C195.619 219.615 188.396 247.985 203.739 262.401C210.505 268.766 214.984 267.875 222.198 268.037C226.896 266.521 234.567 265.229 241.088 269.646C241.088 269.646 234.916 267.901 226.937 268.328C235.567 269.271 248.057 273.011 269.614 288.198L273.828 290.776C274.932 291.552 276.057 292.365 277.208 293.198C302.583 311.604 313.927 327.38 323.041 338.162C325.088 340.578 326.812 342.771 328.255 344.703C329.63 346.537 330.744 348.141 331.64 349.5L331.708 349.604C332.76 351.198 331.057 353.172 329.317 352.38L329.255 352.354C327.703 351.641 325.984 351.38 324.286 351.594L324.119 351.615C325.333 352.714 324.625 353.406 321.505 353.49C318.432 353.573 313.021 353.068 304.807 351.787C292.364 349.844 277.911 347.229 263.406 343.052C258.338 341.589 253.26 339.938 248.26 338.052C247.25 337.672 246.239 337.281 245.239 336.88C244.333 336.521 243.427 336.156 242.531 335.776C227.771 329.589 213.984 321.208 203.416 309.594C201.448 307.432 199.599 305.167 197.869 302.781C195.989 300.188 194.255 297.453 192.692 294.573C189.151 288.057 186.385 281.761 184.265 275.735C182.234 277.724 178.89 278.891 178.89 278.891C183.364 276.485 181.036 264.917 181.026 264.875C180.51 262.771 180.073 260.708 179.708 258.688C180.521 263.641 172.682 268.896 172.682 268.896C177.672 265.089 178.067 247.438 178.073 242.255C177.859 227.88 181.375 217.182 183.38 211.172C189.088 194.052 194.406 180.104 185.557 171.13Z" fill="#99A0A4"/>
</g>
<path d="M239.333 328.912C239.333 328.912 240.567 332.568 242.526 337.485C242.651 337.787 242.771 338.094 242.896 338.406C244.265 341.792 245.942 345.667 247.776 349.323L247.797 349.38C248.255 350.281 248.718 351.172 249.187 352.037C252.703 358.511 256.416 361.974 259.76 361.115C261.656 360.63 262.864 360.016 263.333 357.078C263.838 353.891 263.718 349.875 263.422 346.375C263.047 341.917 262.385 338.307 262.385 338.307L239.333 328.912Z" fill="#788389"/>
<path d="M153.88 157.578L157.156 164.818C157.156 164.818 177.166 166.365 184.067 170.162C184.599 170.453 185.093 170.776 185.557 171.13C185.557 171.13 194.567 175.401 194.448 180.156C194.448 180.156 196.422 175.36 195.26 173.724C195.38 173.818 199.276 176.849 199.364 180.156C199.364 180.156 202.26 176.287 199.927 174.417C199.927 174.417 201.948 174.13 203.38 175.375C203.765 175.708 204.109 176.156 204.359 176.75C204.359 176.75 203.771 171.511 203.599 169.182V169.162C203.562 168.641 203.547 168.271 203.567 168.136V168.13C202.724 147.922 189.5 146.427 181.994 145.86C170.724 145.011 153.88 157.578 153.88 157.578Z" fill="#D3D7D4"/>
<path d="M225.177 334C225.177 334 226.114 336.094 227.547 339.115C231.359 347.141 235.859 362.057 241.328 361.068C245.104 360.385 246.786 352.188 247.599 345.688C247.661 345.177 247.718 344.677 247.776 344.188C248.093 341.255 248.218 338.792 248.265 337.688C248.281 337.286 248.286 337.068 248.286 337.068L245.239 336.661L242.896 336.354L225.177 334Z" fill="#99A0A4"/>
<path d="M207.058 162.61C207.417 162.86 207.797 163.104 208.198 163.328C211.662 165.276 216.896 163.328 216.896 163.328C211.703 163.229 205.891 160.021 203.787 158.75C203.183 157.828 202.667 156.87 202.282 155.875C198.328 145.729 178.74 140.516 166.495 149.943C166.495 149.943 180.146 155.672 189.235 154.787C198.328 153.901 203.006 168.735 213.808 171.458C222.724 173.708 223.032 172.37 223.032 172.37C223.032 172.37 213.453 168.75 207.058 162.61Z" fill="#222A32"/>
<mask id="mask2_2439_4575" style="mask-type:luminance" maskUnits="userSpaceOnUse" x="117" y="153" width="51" height="17">
<path d="M117.661 153.333H168V169.333H117.661V153.333Z" fill="white"/>
</mask>
<g mask="url(#mask2_2439_4575)">
<path d="M167.443 159.63L163.495 164.276C163.344 164.458 163.136 164.573 162.901 164.589L118.703 168.156C118.24 168.193 117.953 167.818 117.906 167.422C117.854 167.057 118.005 166.672 118.417 166.547L159.886 153.703C160.125 153.63 160.386 153.661 160.61 153.802L167.198 157.99L167.401 158.167C167.761 158.562 167.792 159.208 167.443 159.63Z" fill="#F68428"/>
</g>
<mask id="mask3_2439_4575" style="mask-type:luminance" maskUnits="userSpaceOnUse" x="117" y="157" width="51" height="13">
<path d="M117.661 157.333H168V169.333H117.661V157.333Z" fill="white"/>
</mask>
<g mask="url(#mask3_2439_4575)">
<path d="M118.646 168.156C118.214 168.156 117.948 167.802 117.906 167.422L167.198 157.99L167.401 158.167C167.589 158.375 167.688 158.651 167.688 158.927C167.688 159.177 167.609 159.427 167.443 159.63L163.495 164.276C163.344 164.458 163.135 164.573 162.901 164.589L158.578 164.938L118.703 168.156C118.682 168.156 118.661 168.156 118.646 168.156Z" fill="#F47025"/>
</g>
<path d="M179.031 156.661C178.942 158.193 177.27 159.338 175.291 159.224C173.317 159.114 171.786 157.786 171.869 156.26C171.958 154.734 173.625 153.583 175.604 153.698C177.583 153.807 179.114 155.135 179.031 156.661Z" fill="#887666"/>
<path d="M177.683 156.479C177.724 157.563 176.62 158.485 175.219 158.537C173.818 158.594 172.652 157.755 172.605 156.672C172.563 155.594 173.667 154.672 175.068 154.62C176.469 154.563 177.641 155.396 177.683 156.479Z" fill="#040606"/>
<path d="M175.849 154.745C176.036 155.25 175.781 155.813 175.276 156.005C174.771 156.193 174.208 155.943 174.016 155.432C173.828 154.927 174.083 154.365 174.589 154.177C175.094 153.984 175.656 154.24 175.849 154.745Z" fill="white"/>
<mask id="mask4_2439_4575" style="mask-type:luminance" maskUnits="userSpaceOnUse" x="201" y="277" width="132" height="93">
<path d="M201.864 277.333H332.552V369.333H201.864V277.333Z" fill="white"/>
</mask>
<g mask="url(#mask4_2439_4575)">
<path d="M207.926 285.391L207.932 285.385C209.713 283.312 212.629 281.677 215.838 280.401C225.853 276.422 236.968 276.656 246.932 280.792C257.333 285.104 266.192 290.833 266.78 291.219L266.807 291.24C267.869 292.021 268.942 292.823 270.046 293.661C294.353 312.083 309.182 327.531 317.911 338.318C319.874 341.088 321.671 343.365 322.984 344.88C324.786 346.969 325.083 348.25 325.739 350.401H325.744C325.744 350.401 328.817 359.948 332.551 361.583C332.551 361.583 329.807 361.917 327.338 361.588C327.937 366.12 328.176 369.719 326.437 369.026C325.567 368.682 319.348 361.094 312.968 360.057L312.906 360.047C310.067 359.568 252.234 349.125 225.077 334.344C224.379 336.828 225.176 337.687 225.176 337.687C222.077 336.203 219.65 332.396 218.02 329.849C217.734 329.63 217.452 329.411 217.182 329.187C216.676 328.776 216.182 328.354 215.708 327.937C215.176 330.932 217.577 334 217.577 334C212.989 330.526 207.624 319.776 205.458 315.146C205.098 314.427 204.77 313.708 204.478 312.995L204.468 312.984H204.473C204.02 311.885 203.64 310.802 203.333 309.729C200.296 299.036 204.171 289.745 207.926 285.391Z" fill="#5C6873"/>
</g>
<path d="M240.802 281.328C240.802 281.328 255.369 284.276 258.734 296.141C258.734 296.141 252.067 286.333 240.802 281.328Z" fill="#99A0A4"/>
<path d="M243.781 282.385C243.781 282.385 253.036 287.771 251.75 297.875C251.75 297.875 250.104 288.708 243.781 282.385Z" fill="#99A0A4"/>
<path d="M322.563 358.901C322.563 358.901 309.276 360.458 308.995 348.047C308.995 348.047 314.365 356.005 322.563 358.901Z" fill="#222A32"/>
<path d="M225.281 330.25C225.281 330.25 212.37 326.755 216.724 315.13C216.724 315.13 218.745 324.511 225.281 330.25Z" fill="#222A32"/>
<path d="M312.969 360.057L312.907 360.047C310.73 359.682 276.068 353.427 247.808 343.844C239.453 341.005 231.646 337.88 225.417 334.526C225.302 334.469 225.188 334.406 225.078 334.344C224.865 335.099 224.792 335.708 224.792 336.182C224.792 337.271 225.177 337.688 225.177 337.688C222.078 336.203 219.651 332.396 218.021 329.849C217.735 329.63 217.453 329.411 217.183 329.188C216.677 328.776 216.183 328.354 215.709 327.938C215.657 328.24 215.631 328.536 215.631 328.833C215.631 331.51 217.578 334 217.578 334C212.99 330.526 207.625 319.776 205.459 315.146C205.099 314.427 204.771 313.708 204.479 312.995L204.469 312.984H204.474C204.021 311.885 203.641 310.802 203.334 309.729C202.568 307.036 202.245 304.427 202.245 301.969C202.24 294.667 205.12 288.646 207.927 285.391C207.532 286.005 184.943 322.224 312.969 360.057ZM225.282 330.25C218.745 324.51 216.724 315.13 216.724 315.13C212.37 326.755 225.282 330.25 225.282 330.25Z" fill="#4B5460"/>
<path d="M225.281 330.25C225.281 330.25 212.37 326.755 216.724 315.13C216.724 315.13 218.745 324.511 225.281 330.25Z" fill="#222A32"/>
</svg>
