<svg xmlns="http://www.w3.org/2000/svg" xmlns:xlink="http://www.w3.org/1999/xlink" width="450" zoomAndPan="magnify" viewBox="0 0 337.5 449.999984" height="600" preserveAspectRatio="xMidYMid meet" version="1.0"><defs><clipPath id="1b925c7ab9"><path d="M 113 300 L 131 300 L 131 327.1875 L 113 327.1875 Z M 113 300 " clip-rule="nonzero"/></clipPath><clipPath id="2d66683955"><path d="M 75.144531 263 L 260 263 L 260 319 L 75.144531 319 Z M 75.144531 263 " clip-rule="nonzero"/></clipPath></defs><g clip-path="url(#1b925c7ab9)"><path fill="#7d4428" d="M 113.105469 300.964844 C 113.105469 300.964844 113.25 324.871094 119.320312 327.042969 L 118.597656 316.46875 C 118.597656 316.46875 120.128906 323.714844 124.492188 324.871094 L 123.65625 316.613281 C 123.65625 316.613281 128.714844 323.566406 130.59375 324.144531 L 125.914062 302.425781 Z M 113.105469 300.964844 " fill-opacity="1" fill-rule="nonzero"/></g><g clip-path="url(#2d66683955)"><path fill="#dba76f" d="M 75.394531 305.707031 C 75.394531 305.707031 134.328125 310.488281 184.789062 295.679688 C 235.253906 280.875 257.121094 262.867188 259.039062 263.199219 C 260.957031 263.53125 250.949219 292.234375 180.816406 307.828125 C 110.683594 323.421875 75.128906 320.277344 75.394531 305.707031 Z M 75.394531 305.707031 " fill-opacity="1" fill-rule="nonzero"/></g><path fill="#e8672e" d="M 167.535156 282.132812 C 167.535156 282.132812 167.183594 295.75 173.40625 296.765625 C 179.632812 297.777344 184.253906 287.636719 183.246094 282.855469 Z M 167.535156 282.132812 " fill-opacity="1" fill-rule="nonzero"/><path fill="#bf4b1d" d="M 167.535156 282.132812 C 167.535156 282.132812 167.394531 287.667969 168.90625 291.945312 C 171.457031 292.113281 173.949219 292.132812 176.347656 292.089844 C 177.992188 292.054688 179.625 291.902344 181.246094 291.621094 C 182.914062 288.683594 183.730469 285.152344 183.246094 282.855469 Z M 167.535156 282.132812 " fill-opacity="1" fill-rule="nonzero"/><path fill="#e8672e" d="M 147.6875 204.335938 C 147.6875 204.335938 120.804688 196.367188 109.820312 209.40625 C 98.835938 222.445312 98.546875 301.402344 113.867188 305.746094 C 129.1875 310.09375 130.34375 291.839844 130.34375 291.839844 L 136.414062 292.273438 C 136.414062 292.273438 142.582031 301.109375 146.074219 303.429688 C 146.074219 303.429688 154.464844 304.007812 157.148438 298.648438 C 159.828125 293.289062 156.703125 284.914062 156.703125 284.914062 Z M 147.6875 204.335938 " fill-opacity="1" fill-rule="nonzero"/><path fill="#bf4b1d" d="M 136.667969 292.632812 L 127.835938 278.898438 C 127.835938 278.898438 127.835938 281.730469 123.847656 281.179688 C 116.269531 280.136719 115.65625 281.984375 118.097656 285.492188 C 120.535156 288.996094 130.320312 292.089844 130.320312 292.089844 C 130.335938 291.929688 130.34375 291.839844 130.34375 291.839844 L 136.414062 292.273438 C 136.414062 292.273438 136.503906 292.402344 136.667969 292.632812 Z M 136.667969 292.632812 " fill-opacity="1" fill-rule="nonzero"/><path fill="#bf4b1d" d="M 124.269531 252.757812 C 133.019531 277.101562 145.570312 286.589844 157.984375 290.128906 C 157.722656 288.351562 157.292969 286.609375 156.703125 284.914062 L 149.464844 220.210938 L 137.574219 207.464844 C 137.574219 207.464844 111.054688 215.992188 124.269531 252.757812 Z M 124.269531 252.757812 " fill-opacity="1" fill-rule="nonzero"/><path fill="#e8672e" d="M 129.042969 204.917969 C 129.042969 204.917969 207.671875 173.765625 195.964844 138.5625 C 195.964844 138.5625 189.664062 109.007812 166.796875 115.671875 C 166.796875 115.671875 150 121.613281 158.382812 132.480469 C 158.382812 132.480469 157.226562 138.277344 146.242188 136.101562 C 135.257812 133.925781 147.253906 94.378906 176.160156 100.605469 C 205.070312 106.835938 218.804688 138.851562 207.746094 162.179688 C 196.6875 185.503906 180.601562 196.804688 180.601562 196.804688 Z M 129.042969 204.917969 " fill-opacity="1" fill-rule="nonzero"/><path fill="#bf4b1d" d="M 161.6875 188.292969 C 152.402344 193.976562 142.769531 198.992188 132.789062 203.339844 L 131.605469 204.515625 L 180.605469 196.800781 C 180.605469 196.800781 186.953125 192.335938 194.414062 183.238281 C 184.570312 186.277344 171.53125 187.660156 161.6875 188.292969 Z M 161.6875 188.292969 " fill-opacity="1" fill-rule="nonzero"/><path fill="#f07549" d="M 169.335938 198.394531 C 169.335938 198.394531 156.214844 184.488281 135.90625 201.800781 C 138.507812 201.042969 141.109375 201.042969 143.714844 201.800781 C 143.714844 201.800781 122.464844 210.277344 126.296875 234.324219 C 127.21875 233.476562 128.269531 232.839844 129.445312 232.414062 C 130.625 231.984375 131.839844 231.800781 133.089844 231.859375 C 133.089844 231.859375 124.921875 239.539062 130.996094 255.910156 C 131.707031 254.664062 132.695312 253.695312 133.957031 253.011719 C 133.957031 253.011719 136.050781 287.5625 174.066406 288.214844 L 172.261719 284.882812 C 172.261719 284.882812 175.222656 284.957031 175.875 287.058594 C 176.523438 289.15625 190.835938 286.042969 195.820312 279.015625 C 200.808594 271.992188 205.144531 257.285156 205.144531 257.285156 C 205.144531 257.285156 207.3125 259.53125 207.09375 261.488281 C 207.09375 261.488281 218.152344 238.453125 204.203125 221.863281 C 204.203125 221.863281 207.816406 221.71875 208.320312 224.253906 C 208.320312 224.253906 209.191406 211.144531 203.261719 205.277344 C 197.335938 199.410156 185.339844 199.261719 185.339844 199.261719 C 185.339844 199.261719 186.425781 195.933594 189.894531 195.640625 C 189.894531 195.640625 181.230469 189.484375 169.335938 198.394531 Z M 169.335938 198.394531 " fill-opacity="1" fill-rule="nonzero"/><path fill="#c65532" d="M 126.460938 223.566406 C 126.414062 223.613281 126.355469 223.636719 126.289062 223.636719 C 126.175781 223.636719 126.101562 223.585938 126.058594 223.480469 C 126.015625 223.375 126.035156 223.285156 126.113281 223.207031 C 141.46875 208.222656 157.042969 211.160156 157.195312 211.1875 C 157.265625 211.203125 157.316406 211.238281 157.355469 211.296875 C 157.394531 211.351562 157.40625 211.417969 157.390625 211.484375 C 157.378906 211.550781 157.34375 211.605469 157.285156 211.640625 C 157.226562 211.679688 157.164062 211.691406 157.097656 211.679688 C 156.945312 211.648438 141.617188 208.773438 126.460938 223.566406 Z M 142.984375 202.382812 C 159.929688 201.15625 166.230469 212.878906 166.292969 213 C 166.339844 213.089844 166.414062 213.132812 166.511719 213.132812 C 166.554688 213.132812 166.59375 213.125 166.628906 213.105469 C 166.6875 213.074219 166.730469 213.023438 166.75 212.957031 C 166.769531 212.890625 166.765625 212.828125 166.734375 212.765625 C 166.671875 212.644531 160.226562 200.628906 142.945312 201.886719 C 142.878906 201.890625 142.820312 201.917969 142.777344 201.972656 C 142.730469 202.023438 142.710938 202.085938 142.714844 202.152344 C 142.730469 202.316406 142.820312 202.394531 142.984375 202.382812 Z M 168.542969 214.644531 C 168.574219 214.644531 168.605469 214.640625 168.636719 214.628906 C 168.699219 214.601562 168.746094 214.558594 168.773438 214.492188 C 168.800781 214.429688 168.800781 214.367188 168.773438 214.300781 C 168.726562 214.1875 164.199219 202.617188 170.039062 198.191406 C 170.09375 198.148438 170.125 198.09375 170.136719 198.027344 C 170.144531 197.957031 170.128906 197.898438 170.089844 197.84375 C 170.046875 197.785156 169.992188 197.753906 169.925781 197.746094 C 169.855469 197.734375 169.796875 197.75 169.738281 197.792969 C 163.601562 202.445312 168.117188 213.996094 168.3125 214.488281 C 168.355469 214.589844 168.429688 214.644531 168.542969 214.644531 Z M 175.292969 210.796875 C 175.308594 210.800781 175.328125 210.804688 175.347656 210.804688 C 175.480469 210.804688 175.5625 210.738281 175.589844 210.609375 C 175.613281 210.515625 177.929688 201.085938 185.90625 199.527344 C 185.972656 199.511719 186.027344 199.476562 186.066406 199.421875 C 186.105469 199.363281 186.117188 199.300781 186.105469 199.234375 C 186.089844 199.164062 186.054688 199.113281 186 199.074219 C 185.941406 199.035156 185.878906 199.023438 185.8125 199.035156 C 177.523438 200.65625 175.128906 210.398438 175.105469 210.496094 C 175.089844 210.5625 175.101562 210.625 175.136719 210.683594 C 175.171875 210.742188 175.222656 210.78125 175.292969 210.796875 Z M 179.324219 211.070312 C 179.296875 211.132812 179.296875 211.195312 179.324219 211.261719 C 179.347656 211.324219 179.394531 211.371094 179.457031 211.398438 C 179.519531 211.425781 179.582031 211.425781 179.648438 211.398438 C 179.710938 211.375 179.757812 211.328125 179.78125 211.265625 C 179.824219 211.164062 184.210938 201.109375 194.464844 200.894531 C 194.535156 200.894531 194.589844 200.867188 194.640625 200.816406 C 194.6875 200.769531 194.710938 200.707031 194.707031 200.640625 C 194.699219 200.480469 194.613281 200.398438 194.453125 200.394531 C 183.875 200.617188 179.367188 210.964844 179.324219 211.070312 Z M 184.226562 216.113281 C 184.261719 216.175781 184.3125 216.214844 184.378906 216.230469 C 184.445312 216.25 184.507812 216.242188 184.566406 216.207031 C 184.730469 216.113281 200.867188 206.980469 207.53125 218.441406 C 207.5625 218.507812 207.613281 218.550781 207.683594 218.570312 C 207.75 218.589844 207.816406 218.582031 207.878906 218.546875 C 207.941406 218.511719 207.980469 218.457031 207.996094 218.386719 C 208.011719 218.316406 208 218.253906 207.960938 218.191406 C 201.050781 206.308594 184.484375 215.679688 184.320312 215.773438 C 184.175781 215.859375 184.144531 215.972656 184.226562 216.113281 Z M 211.480469 239.296875 C 206.972656 228.582031 192.546875 225.539062 187.578125 224.796875 C 188.148438 222.90625 186.632812 217.578125 184.226562 216.113281 C 179.914062 213.492188 174.9375 216.144531 168.785156 215.992188 C 162.449219 215.835938 159.46875 212.171875 154.738281 214.644531 C 152.554688 215.996094 150.847656 217.800781 149.617188 220.058594 C 146.652344 220.324219 140.320312 222.136719 132.890625 231.707031 C 132.792969 231.839844 132.804688 231.957031 132.9375 232.058594 C 133.066406 232.160156 133.183594 232.144531 133.285156 232.015625 C 140.292969 222.980469 146.382812 221 149.367188 220.617188 C 148.578125 222.558594 148.59375 224.933594 150.445312 227.675781 C 150.636719 227.960938 150.824219 228.230469 151.007812 228.496094 C 146.578125 232.574219 137.976562 242.179688 138.191406 255.117188 C 138.195312 255.28125 138.277344 255.363281 138.441406 255.363281 L 138.445312 255.363281 C 138.515625 255.363281 138.574219 255.335938 138.621094 255.285156 C 138.667969 255.238281 138.691406 255.179688 138.691406 255.109375 C 138.480469 242.40625 146.917969 232.953125 151.292969 228.910156 C 152.519531 230.671875 153.554688 232.035156 154.414062 233.089844 C 150.113281 242.683594 140.839844 265.078125 143.050781 275.324219 C 143.078125 275.457031 143.160156 275.523438 143.292969 275.523438 C 143.3125 275.523438 143.328125 275.523438 143.347656 275.519531 C 143.414062 275.503906 143.464844 275.46875 143.503906 275.410156 C 143.539062 275.351562 143.550781 275.289062 143.539062 275.222656 C 141.40625 265.335938 150.480469 243.210938 154.777344 233.53125 C 157.054688 236.238281 157.988281 236.609375 157.988281 236.609375 C 157.894531 237.617188 157.863281 238.628906 157.894531 239.644531 C 154.195312 246.457031 147.28125 261.792969 151.480469 274.964844 C 151.519531 275.078125 151.597656 275.136719 151.71875 275.136719 C 151.746094 275.136719 151.769531 275.132812 151.792969 275.125 C 151.859375 275.105469 151.910156 275.0625 151.941406 275.003906 C 151.972656 274.941406 151.976562 274.878906 151.957031 274.8125 C 147.957031 262.261719 154.203125 247.679688 157.9375 240.617188 C 158.113281 243.464844 158.800781 247.214844 160.984375 249.792969 C 159.566406 251.667969 158.507812 253.730469 157.808594 255.976562 C 157.109375 258.222656 156.808594 260.523438 156.910156 262.875 C 156.914062 263.035156 157 263.117188 157.160156 263.117188 L 157.164062 263.117188 C 157.230469 263.113281 157.289062 263.089844 157.335938 263.039062 C 157.382812 262.988281 157.40625 262.929688 157.40625 262.859375 C 157.304688 260.582031 157.589844 258.355469 158.261719 256.175781 C 158.933594 254 159.949219 251.996094 161.3125 250.175781 C 162.492188 251.414062 163.917969 252.203125 165.59375 252.539062 C 164.21875 259.574219 161.214844 278.601562 166.859375 287.808594 C 166.894531 287.867188 166.945312 287.902344 167.015625 287.921875 C 167.082031 287.9375 167.144531 287.925781 167.203125 287.890625 C 167.261719 287.855469 167.296875 287.800781 167.316406 287.734375 C 167.332031 287.667969 167.320312 287.605469 167.285156 287.546875 C 161.722656 278.476562 164.71875 259.585938 166.085938 252.617188 C 166.566406 252.699219 167.046875 252.746094 167.527344 252.757812 C 168.9375 252.804688 170.277344 252.523438 171.546875 251.914062 C 173.035156 257.492188 176.945312 273.679688 174.550781 281.410156 C 174.53125 281.476562 174.539062 281.539062 174.570312 281.601562 C 174.601562 281.660156 174.652344 281.703125 174.714844 281.722656 C 174.742188 281.730469 174.765625 281.734375 174.789062 281.734375 C 174.914062 281.734375 174.992188 281.675781 175.027344 281.558594 C 177.511719 273.542969 173.5 257.195312 172.003906 251.671875 C 173.273438 250.9375 174.34375 249.976562 175.21875 248.796875 C 177.335938 253.871094 183.839844 269.894531 184.082031 275.699219 C 184.085938 275.859375 184.171875 275.9375 184.328125 275.9375 L 184.339844 275.9375 C 184.410156 275.933594 184.464844 275.90625 184.511719 275.855469 C 184.558594 275.804688 184.582031 275.746094 184.578125 275.675781 C 184.328125 269.597656 177.574219 253.105469 175.566406 248.328125 C 176.949219 246.246094 177.976562 244 178.640625 241.589844 C 182.34375 245.511719 193.527344 258.769531 196.113281 278.253906 C 196.132812 278.398438 196.21875 278.472656 196.363281 278.46875 C 196.375 278.46875 196.386719 278.46875 196.398438 278.46875 C 196.464844 278.460938 196.519531 278.429688 196.5625 278.375 C 196.605469 278.320312 196.621094 278.257812 196.609375 278.1875 C 193.957031 258.210938 182.332031 244.726562 178.800781 241.035156 C 179.234375 239.46875 179.570312 237.882812 179.8125 236.277344 C 184.847656 238.746094 196.78125 245.449219 201.230469 255.398438 C 201.273438 255.5 201.351562 255.550781 201.460938 255.550781 C 201.496094 255.550781 201.527344 255.542969 201.5625 255.527344 C 201.625 255.5 201.667969 255.453125 201.691406 255.390625 C 201.714844 255.324219 201.714844 255.261719 201.6875 255.199219 C 197.132812 245.011719 184.890625 238.199219 179.886719 235.757812 C 180.0625 234.496094 180.113281 233.703125 180.113281 233.703125 C 180.113281 233.703125 180.5 233.410156 181.09375 232.902344 C 188.179688 234.472656 206.6875 239.757812 209.09375 252.554688 C 209.105469 252.625 209.140625 252.679688 209.195312 252.71875 C 209.253906 252.761719 209.316406 252.773438 209.386719 252.761719 C 209.457031 252.75 209.511719 252.710938 209.546875 252.652344 C 209.585938 252.59375 209.597656 252.53125 209.582031 252.460938 C 207.167969 239.597656 188.988281 234.1875 181.566406 232.496094 C 183.378906 230.914062 186.363281 228.011719 187.414062 225.28125 C 192.210938 225.980469 206.582031 228.933594 211.023438 239.496094 C 211.066406 239.597656 211.144531 239.648438 211.253906 239.648438 C 211.289062 239.648438 211.320312 239.640625 211.351562 239.628906 C 211.414062 239.601562 211.460938 239.554688 211.484375 239.492188 C 211.511719 239.425781 211.507812 239.363281 211.480469 239.296875 Z M 211.480469 239.296875 " fill-opacity="1" fill-rule="nonzero"/><path fill="#7d4428" d="M 148.554688 299.953125 C 148.554688 299.953125 145.230469 310.382812 147.542969 316.902344 L 149.898438 308.425781 C 149.898438 308.425781 149.898438 319.222656 154.792969 320.957031 L 153.710938 308.5 C 153.710938 308.5 157.808594 316.179688 159.6875 316.46875 L 154.792969 299.226562 Z M 148.554688 299.953125 " fill-opacity="1" fill-rule="nonzero"/><path fill="#7d4428" d="M 172.621094 294.445312 C 171.59375 296.824219 170.992188 299.308594 170.816406 301.894531 C 170.644531 304.476562 170.90625 307.019531 171.601562 309.515625 L 173.632812 301.980469 C 173.632812 301.980469 174.574219 310.816406 177.609375 314.003906 L 177.609375 299.953125 C 177.609375 299.953125 179.195312 304.734375 181.945312 307.046875 C 181.945312 307.046875 181.328125 293.429688 178.382812 292.851562 C 175.4375 292.273438 172.621094 294.445312 172.621094 294.445312 Z M 172.621094 294.445312 " fill-opacity="1" fill-rule="nonzero"/><path fill="#211f1f" d="M 137.324219 293.792969 C 137.269531 293.792969 137.21875 293.777344 137.175781 293.746094 C 131.3125 289.375 118.652344 261.542969 118.117188 260.359375 C 118.089844 260.296875 118.085938 260.234375 118.113281 260.171875 C 118.136719 260.105469 118.179688 260.058594 118.242188 260.03125 C 118.304688 260 118.367188 260 118.433594 260.023438 C 118.496094 260.046875 118.542969 260.09375 118.570312 260.15625 C 118.703125 260.441406 131.710938 289.054688 137.472656 293.34375 C 137.570312 293.417969 137.597656 293.511719 137.558594 293.625 C 137.523438 293.738281 137.445312 293.792969 137.324219 293.792969 Z M 130.59375 291.859375 C 130.597656 291.792969 130.578125 291.730469 130.535156 291.679688 C 130.488281 291.625 130.433594 291.597656 130.363281 291.589844 C 122.195312 290.882812 115.722656 282.074219 115.65625 281.984375 C 115.617188 281.929688 115.5625 281.898438 115.492188 281.886719 C 115.425781 281.875 115.363281 281.890625 115.308594 281.929688 C 115.253906 281.972656 115.21875 282.027344 115.207031 282.09375 C 115.199219 282.160156 115.210938 282.222656 115.253906 282.28125 C 115.320312 282.371094 121.921875 291.363281 130.320312 292.085938 L 130.34375 292.085938 C 130.496094 292.089844 130.578125 292.011719 130.59375 291.859375 Z M 130.59375 291.859375 " fill-opacity="1" fill-rule="nonzero"/><path fill="#84702c" d="M 230.363281 279.277344 C 230.363281 279.277344 227.039062 229.730469 232.53125 242.988281 C 238.023438 256.246094 237.300781 277.828125 230.363281 279.277344 Z M 230.363281 279.277344 " fill-opacity="1" fill-rule="nonzero"/><path fill="#84702c" d="M 237.300781 278.554688 C 237.300781 278.554688 239.902344 252.402344 250.742188 247.078125 C 261.582031 241.757812 248.71875 273.773438 237.300781 278.554688 Z M 237.300781 278.554688 " fill-opacity="1" fill-rule="nonzero"/><path fill="#e0ae77" d="M 186.269531 220.613281 C 185.132812 214.476562 178.011719 206.535156 171.851562 212.574219 C 171.210938 213.203125 170.796875 214.199219 168.785156 214.433594 C 166.777344 214.199219 166.359375 213.203125 165.71875 212.574219 C 159.558594 206.535156 152.441406 214.472656 151.300781 220.613281 C 150.164062 226.757812 159.917969 230.285156 159.917969 230.285156 C 159.175781 250.707031 166.617188 249.898438 168.785156 249.898438 C 170.953125 249.898438 178.398438 250.707031 177.652344 230.285156 C 177.65625 230.285156 187.410156 226.753906 186.269531 220.613281 Z M 186.269531 220.613281 " fill-opacity="1" fill-rule="nonzero"/><path fill="#2c2b26" d="M 163.480469 221.105469 C 163.480469 221.304688 163.441406 221.5 163.363281 221.6875 C 163.285156 221.871094 163.175781 222.035156 163.035156 222.179688 C 162.890625 222.324219 162.726562 222.433594 162.542969 222.507812 C 162.355469 222.585938 162.164062 222.625 161.960938 222.625 C 161.761719 222.625 161.566406 222.585938 161.378906 222.507812 C 161.195312 222.433594 161.03125 222.324219 160.886719 222.179688 C 160.746094 222.039062 160.636719 221.871094 160.558594 221.6875 C 160.480469 221.5 160.445312 221.304688 160.445312 221.105469 C 160.445312 220.902344 160.480469 220.707031 160.558594 220.523438 C 160.636719 220.335938 160.746094 220.171875 160.886719 220.027344 C 161.03125 219.886719 161.195312 219.777344 161.382812 219.699219 C 161.566406 219.621094 161.761719 219.582031 161.960938 219.582031 C 162.164062 219.582031 162.355469 219.621094 162.542969 219.699219 C 162.730469 219.777344 162.894531 219.886719 163.035156 220.027344 C 163.175781 220.171875 163.285156 220.335938 163.363281 220.523438 C 163.441406 220.707031 163.480469 220.902344 163.480469 221.105469 Z M 176.867188 219.582031 C 176.664062 219.582031 176.472656 219.621094 176.285156 219.699219 C 176.097656 219.777344 175.933594 219.886719 175.792969 220.027344 C 175.652344 220.171875 175.542969 220.335938 175.464844 220.523438 C 175.386719 220.707031 175.347656 220.902344 175.347656 221.105469 C 175.347656 221.304688 175.386719 221.5 175.464844 221.6875 C 175.542969 221.871094 175.652344 222.039062 175.792969 222.179688 C 175.9375 222.324219 176.101562 222.433594 176.285156 222.507812 C 176.472656 222.585938 176.664062 222.625 176.867188 222.625 C 177.066406 222.625 177.261719 222.585938 177.449219 222.507812 C 177.632812 222.433594 177.796875 222.320312 177.941406 222.179688 C 178.082031 222.035156 178.191406 221.871094 178.269531 221.6875 C 178.347656 221.5 178.382812 221.304688 178.382812 221.105469 C 178.382812 220.902344 178.347656 220.707031 178.269531 220.523438 C 178.191406 220.335938 178.082031 220.171875 177.941406 220.027344 C 177.796875 219.886719 177.632812 219.777344 177.445312 219.699219 C 177.261719 219.621094 177.066406 219.582031 176.867188 219.582031 Z M 168.464844 232.511719 C 168.464844 232.511719 168.972656 230.519531 167.5625 230.339844 C 166.152344 230.160156 165.898438 233.164062 168.464844 232.511719 Z M 170.667969 232.511719 C 173.234375 233.164062 172.980469 230.160156 171.574219 230.339844 C 170.164062 230.519531 170.667969 232.511719 170.667969 232.511719 Z M 170.667969 232.511719 " fill-opacity="1" fill-rule="nonzero"/><path fill="#211f1f" d="M 173.117188 238.476562 C 171.023438 238.476562 169.871094 236.746094 169.378906 235.75 C 168.355469 238.605469 165.042969 238.171875 165.007812 238.167969 C 164.941406 238.15625 164.886719 238.125 164.84375 238.070312 C 164.804688 238.015625 164.789062 237.953125 164.796875 237.882812 C 164.824219 237.722656 164.917969 237.652344 165.078125 237.671875 C 165.214844 237.691406 168.484375 238.109375 169.082031 234.9375 C 169.105469 234.8125 169.179688 234.742188 169.3125 234.734375 C 169.441406 234.726562 169.523438 234.785156 169.5625 234.910156 C 169.609375 235.050781 170.679688 238.34375 173.601562 237.941406 C 173.671875 237.933594 173.734375 237.949219 173.789062 237.992188 C 173.84375 238.03125 173.875 238.085938 173.882812 238.15625 C 173.894531 238.226562 173.878906 238.285156 173.835938 238.339844 C 173.792969 238.398438 173.738281 238.429688 173.671875 238.4375 C 173.488281 238.464844 173.300781 238.476562 173.117188 238.476562 Z M 173.117188 238.476562 " fill-opacity="1" fill-rule="nonzero"/></svg>