<svg width="34" height="34" viewBox="0 0 34 34" fill="none" xmlns="http://www.w3.org/2000/svg">
<path d="M12.75 4.25033V1.41699H21.25V4.25033H12.75ZM15.5833 19.8337H18.4167V11.3337H15.5833V19.8337ZM17 31.167C15.2528 31.167 13.6057 30.8303 12.0587 30.1569C10.5117 29.4835 9.16017 28.5688 8.00417 27.4128C6.84722 26.2559 5.93206 24.9039 5.25867 23.3569C4.58528 21.8099 4.24906 20.1633 4.25 18.417C4.25 16.6698 4.5867 15.0227 5.26009 13.4757C5.93347 11.9287 6.84817 10.5772 8.00417 9.42116C9.16111 8.26421 10.5131 7.34905 12.0601 6.67566C13.6071 6.00227 15.2537 5.66605 17 5.66699C18.4639 5.66699 19.8688 5.9031 21.2146 6.37533C22.5604 6.84755 23.8236 7.53227 25.0042 8.42949L26.9875 6.44616L28.9708 8.42949L26.9875 10.4128C27.8847 11.5934 28.5694 12.8566 29.0417 14.2024C29.5139 15.5482 29.75 16.9531 29.75 18.417C29.75 20.1642 29.4133 21.8113 28.7399 23.3583C28.0665 24.9053 27.1518 26.2568 25.9958 27.4128C24.8389 28.5698 23.4869 29.4849 21.9399 30.1583C20.3929 30.8317 18.7463 31.1679 17 31.167Z" fill="url(#paint0_linear_394_47)"/>
<defs>
<linearGradient id="paint0_linear_394_47" x1="6.38986" y1="1.41699" x2="30.6013" y2="3.01603" gradientUnits="userSpaceOnUse">
<stop stop-color="#7FCB28" stop-opacity="0.91"/>
<stop offset="1" stop-color="#5C9E32"/>
</linearGradient>
</defs>
</svg>
