<svg xmlns="http://www.w3.org/2000/svg" xmlns:xlink="http://www.w3.org/1999/xlink" width="450" zoomAndPan="magnify" viewBox="0 0 337.5 449.999984" height="600" preserveAspectRatio="xMidYMid meet" version="1.0"><defs><clipPath id="452c51271c"><path d="M 53.085938 128.628906 L 283.742188 128.628906 L 283.742188 315 L 53.085938 315 Z M 53.085938 128.628906 " clip-rule="nonzero"/></clipPath></defs><g clip-path="url(#452c51271c)"><path fill="#61af56" d="M 101.222656 206.613281 C 101.222656 206.613281 59.316406 155.121094 131.292969 130.261719 C 133.507812 129.492188 135.625 131.609375 134.855469 133.820312 L 125.761719 160.792969 C 125.28125 162.234375 125.230469 163.820312 125.570312 165.3125 L 128.070312 175.21875 Z M 128.695312 248.730469 C 128.695312 248.730469 107.046875 287.773438 141.492188 306.378906 C 168.773438 321.09375 196.96875 311.234375 207.601562 306.429688 C 209.574219 305.5625 209.765625 302.820312 207.9375 301.667969 L 161.171875 272.097656 C 159.824219 271.234375 159.152344 269.648438 159.488281 268.058594 L 161.363281 259.359375 Z M 105.503906 218.199219 L 100.40625 222.671875 C 99.011719 223.921875 97.132812 224.5 95.257812 224.355469 L 75.769531 222.625 C 68.3125 221.949219 61.289062 226.039062 58.113281 232.816406 L 56.527344 236.328125 C 54.3125 241.136719 53.15625 245.460938 53.445312 250.125 C 53.6875 254.210938 56.140625 257.867188 59.796875 259.742188 C 63.984375 261.859375 70.285156 264.164062 77.117188 263.539062 L 82.699219 263.15625 C 91.3125 262.53125 99.683594 260.078125 107.285156 256.039062 L 124.125 247 L 125.039062 219.835938 Z M 235.507812 154.15625 L 245.324219 149.0625 C 248.113281 147.621094 250.421875 145.503906 252.15625 142.859375 C 254.367188 139.445312 253.117188 134.878906 249.507812 133.050781 L 248.546875 132.570312 C 243.636719 130.023438 238.152344 128.628906 232.621094 128.628906 C 204.378906 128.722656 190.039062 150.214844 190.039062 150.214844 Z M 236.757812 227.960938 L 249.84375 229.210938 C 255.523438 229.738281 261.152344 227.914062 265.433594 224.113281 L 277.75 213.152344 C 281.550781 209.785156 283.667969 204.835938 283.476562 199.785156 L 283.140625 190.21875 C 283.042969 187.09375 279.675781 185.074219 276.882812 186.515625 C 267.839844 191.082031 254.800781 194.691406 254.800781 194.691406 Z M 236.757812 227.960938 " fill-opacity="1" fill-rule="nonzero"/></g><path fill="#3e7f33" d="M 96.554688 208.296875 L 97.757812 202.191406 C 99.492188 193.390625 104.542969 185.652344 111.90625 180.554688 C 130.667969 167.523438 169.59375 144.878906 209.285156 148.386719 C 264.519531 153.246094 259.035156 175.84375 259.035156 175.84375 C 257.640625 179.015625 257.109375 182.523438 257.542969 185.988281 L 257.542969 186.035156 C 258.3125 192.1875 256.53125 198.390625 252.683594 203.246094 L 249.75 206.949219 C 248.015625 209.160156 246.667969 211.660156 245.851562 214.355469 L 242.53125 225.363281 C 240.945312 230.558594 237.289062 234.835938 232.429688 237.191406 L 222.566406 241.953125 C 221.21875 242.625 219.964844 243.394531 218.8125 244.355469 L 207.457031 253.730469 C 205.628906 255.269531 203.464844 256.328125 201.15625 256.953125 L 185.46875 260.992188 C 184.84375 261.136719 184.21875 261.375 183.640625 261.664062 L 175.222656 265.558594 C 170.601562 267.722656 165.359375 268.15625 160.402344 266.859375 L 154.4375 265.269531 C 152.753906 264.839844 150.972656 264.839844 149.289062 265.269531 L 147.507812 265.753906 C 141.492188 267.339844 135.09375 265.609375 130.667969 261.234375 L 121.140625 251.855469 C 119.265625 250.03125 118.015625 247.675781 117.484375 245.078125 L 115.5625 235.507812 C 114.40625 229.644531 110.507812 224.644531 105.121094 222 L 102.761719 220.84375 C 98.097656 218.585938 95.546875 213.441406 96.554688 208.296875 Z M 96.554688 208.296875 " fill-opacity="1" fill-rule="nonzero"/><path fill="#492f2e" d="M 77.359375 237.480469 C 77.359375 238.921875 76.203125 240.078125 74.761719 240.078125 C 73.316406 240.078125 72.164062 238.921875 72.164062 237.480469 C 72.164062 236.039062 73.316406 234.882812 74.761719 234.882812 C 76.203125 234.882812 77.359375 236.039062 77.359375 237.480469 Z M 60.761719 260.558594 C 61.242188 260.511719 72.164062 259.40625 79.667969 252.722656 C 80.054688 252.386719 80.101562 251.761719 79.765625 251.375 C 79.429688 250.992188 78.800781 250.945312 78.417969 251.28125 C 71.441406 257.53125 60.710938 258.636719 60.617188 258.636719 C 60.085938 258.683594 59.703125 259.164062 59.75 259.695312 C 59.796875 260.175781 60.230469 260.558594 60.710938 260.558594 C 60.664062 260.558594 60.710938 260.558594 60.761719 260.558594 Z M 60.761719 260.558594 " fill-opacity="1" fill-rule="nonzero"/><path fill="#61af56" d="M 249.410156 174.640625 C 247.96875 164.589844 241.617188 156.226562 230.648438 149.832031 C 230.167969 149.542969 229.589844 149.734375 229.347656 150.167969 C 229.109375 150.601562 229.253906 151.226562 229.6875 151.464844 C 240.125 157.570312 246.140625 165.457031 247.488281 174.929688 C 248.304688 180.507812 247.535156 186.5625 245.226562 193.007812 L 219.101562 185.890625 L 216.019531 169.734375 L 226.125 149.398438 C 226.367188 148.917969 226.171875 148.339844 225.691406 148.101562 C 225.210938 147.859375 224.632812 148.050781 224.394531 148.53125 L 214.578125 168.390625 L 195.042969 161.128906 L 190.90625 148.964844 C 190.714844 148.484375 190.183594 148.195312 189.703125 148.339844 C 189.222656 148.53125 188.933594 149.0625 189.078125 149.542969 L 193.214844 161.707031 L 184.121094 176.128906 L 165.40625 169.253906 L 161.992188 155.890625 C 161.847656 155.359375 161.316406 155.070312 160.835938 155.214844 C 160.304688 155.359375 160.019531 155.890625 160.160156 156.371094 L 163.578125 169.734375 L 147.988281 187.285156 L 125.375 183.246094 L 123.402344 173.34375 C 123.308594 172.8125 122.777344 172.476562 122.25 172.574219 C 121.71875 172.667969 121.382812 173.199219 121.480469 173.726562 L 123.5 183.917969 L 110.027344 211.035156 L 107.671875 209.835938 C 105.84375 208.921875 104.496094 207.238281 104.015625 205.21875 L 101.222656 193.679688 C 101.078125 193.152344 100.597656 192.863281 100.070312 192.957031 C 99.539062 193.101562 99.25 193.582031 99.347656 194.113281 L 102.136719 205.652344 C 102.761719 208.199219 104.445312 210.363281 106.804688 211.519531 L 118.0625 217.191406 C 119.410156 217.863281 120.46875 218.96875 121.046875 220.363281 L 129.707031 240.75 C 130.523438 242.671875 131.773438 244.355469 133.363281 245.65625 C 134.855469 246.855469 136.921875 248.300781 139.570312 249.691406 C 139.761719 249.980469 140.050781 250.175781 140.386719 250.175781 C 140.4375 250.175781 140.4375 250.175781 140.484375 250.175781 C 145.488281 252.625 152.367188 254.789062 161.21875 254.789062 C 161.894531 254.789062 162.617188 254.789062 163.289062 254.742188 C 164.636719 254.695312 166.03125 254.597656 167.378906 254.453125 C 167.425781 254.453125 167.476562 254.453125 167.523438 254.453125 C 167.667969 254.453125 167.765625 254.40625 167.90625 254.355469 C 186 252.289062 206.015625 241.953125 227.570312 223.585938 C 228.050781 223.199219 228.484375 222.769531 228.867188 222.335938 C 230.601562 220.507812 236.566406 213.875 241.664062 204.980469 C 248.160156 193.96875 250.757812 183.726562 249.410156 174.640625 Z M 212.703125 226.230469 L 219.339844 227.960938 C 215.25 231.132812 211.210938 234.066406 207.265625 236.664062 Z M 204.042969 238.730469 C 199.613281 241.472656 195.238281 243.828125 191.003906 245.75 L 177.097656 238.730469 L 174.546875 217.289062 L 190.089844 199.59375 L 208.273438 206.277344 L 211.210938 224.933594 Z M 176.570312 240.605469 L 188.691406 246.761719 C 182.054688 249.597656 175.65625 251.472656 169.449219 252.335938 Z M 152.464844 206.566406 L 149.382812 188.632812 L 164.925781 171.179688 L 183.785156 178.101562 L 188.835938 198.246094 L 173.34375 215.84375 Z M 208.707031 204.402344 L 190.664062 197.765625 L 185.613281 177.523438 L 194.753906 163.101562 L 214.289062 170.359375 L 217.367188 186.613281 Z M 118.976562 215.554688 L 111.808594 211.949219 L 125.085938 185.167969 L 147.507812 189.207031 L 150.585938 207 L 135.816406 227.289062 L 126.722656 228.730469 L 122.875 219.691406 C 122.105469 217.863281 120.710938 216.421875 118.976562 215.554688 Z M 131.488281 240.078125 L 127.445312 230.558594 L 135.527344 229.257812 L 139.039062 247.289062 C 137.210938 246.230469 135.71875 245.125 134.566406 244.210938 C 133.265625 243.15625 132.207031 241.710938 131.488281 240.078125 Z M 163.289062 252.914062 C 153.714844 253.25 146.402344 251.039062 141.253906 248.492188 L 137.355469 228.394531 L 151.933594 208.441406 L 172.71875 217.671875 L 175.269531 239.164062 L 167.136719 252.675781 C 165.792969 252.769531 164.539062 252.867188 163.289062 252.914062 Z M 240.078125 204.160156 C 235.074219 212.863281 229.203125 219.402344 227.519531 221.183594 C 227.183594 221.566406 226.796875 221.949219 226.367188 222.289062 C 224.632812 223.777344 222.949219 225.171875 221.21875 226.519531 L 213.039062 224.355469 L 210.152344 205.75 L 218.8125 187.8125 L 244.550781 194.832031 C 243.398438 197.863281 241.90625 200.988281 240.078125 204.160156 Z M 240.078125 204.160156 " fill-opacity="1" fill-rule="nonzero"/><path fill="#8dd880" d="M 99.730469 236.132812 C 98.867188 236.472656 97.855469 236.472656 96.941406 236.375 C 95.835938 236.230469 94.679688 235.992188 93.8125 235.269531 C 92.949219 234.546875 92.464844 233.25 92.949219 232.238281 C 94.390625 229.210938 101.414062 230.652344 101.367188 234.019531 C 101.367188 234.933594 100.597656 235.75 99.730469 236.132812 Z M 102.570312 225.941406 C 102.234375 225.84375 101.65625 225.988281 101.175781 226.566406 C 100.789062 227.046875 100.597656 227.769531 100.933594 228.296875 C 102.859375 231.085938 106.613281 226.328125 102.570312 225.941406 M 110.847656 236.664062 C 112.53125 234.308594 107.09375 229.402344 105.890625 232.671875 C 105.554688 233.632812 106.082031 234.691406 106.707031 235.507812 C 107.1875 236.183594 107.765625 236.855469 108.585938 237.144531 C 109.304688 237.480469 110.316406 237.386719 110.847656 236.664062 Z M 105.84375 242.433594 C 104.589844 239.980469 99.441406 240.941406 98.191406 242.625 C 97.953125 242.960938 97.710938 243.296875 97.757812 243.683594 C 97.808594 244.308594 98.480469 244.691406 99.058594 244.886719 C 100.597656 245.367188 102.234375 245.460938 103.773438 245.03125 C 104.398438 244.886719 105.023438 244.644531 105.457031 244.164062 C 105.890625 243.683594 106.128906 243.011719 105.84375 242.433594 Z M 101.222656 183.582031 C 103.195312 182.382812 106.804688 178.003906 103.675781 175.988281 C 102.28125 175.074219 98.816406 176.515625 97.808594 177.621094 C 96.554688 178.96875 96.125 180.9375 96.605469 182.667969 C 96.75 183.148438 96.941406 183.632812 97.324219 183.96875 C 98.382812 184.882812 100.019531 184.304688 101.222656 183.582031 Z M 111.710938 170.265625 C 111.183594 171.226562 111.277344 172.621094 112.242188 173.246094 C 113.105469 173.824219 114.308594 173.4375 115.222656 173.003906 C 116.425781 172.429688 117.582031 171.707031 118.398438 170.648438 C 120.757812 167.621094 113.347656 167.378906 111.710938 170.265625 Z M 105.84375 169.832031 C 108.96875 169.207031 109.066406 163.582031 105.792969 164.929688 C 104.589844 165.410156 103.773438 167.1875 103.917969 168.390625 C 103.964844 168.679688 104.015625 168.964844 104.207031 169.207031 C 104.496094 169.734375 105.214844 169.929688 105.84375 169.832031 Z M 118.6875 160.695312 C 124.511719 155.503906 112.625 152.28125 113.300781 159.542969 C 113.347656 160.214844 113.589844 160.890625 114.070312 161.371094 C 114.695312 161.996094 115.65625 162.140625 116.476562 161.945312 C 117.292969 161.753906 118.0625 161.273438 118.6875 160.695312 Z M 207.792969 143.628906 C 207.699219 144.398438 208.132812 145.214844 208.804688 145.648438 C 209.429688 146.082031 210.246094 146.273438 211.019531 146.367188 C 211.980469 146.464844 212.894531 146.417969 213.855469 146.226562 C 214.820312 146.03125 215.878906 145.601562 216.308594 144.734375 C 217.800781 141.707031 210.632812 141.175781 209.09375 141.992188 C 208.46875 142.332031 207.890625 142.90625 207.792969 143.628906 Z M 228.144531 144.976562 C 227.664062 143.964844 224.488281 140.792969 223.335938 141.847656 C 222.566406 142.570312 223.816406 145.070312 224.394531 145.648438 C 225.355469 146.511719 229.253906 147.28125 228.144531 144.976562 Z M 233.726562 137.761719 C 232.523438 136.320312 228.097656 135.070312 229.15625 138.4375 C 229.589844 139.832031 232.8125 140.984375 233.96875 139.878906 C 234.546875 139.300781 234.257812 138.339844 233.726562 137.761719 Z M 265.289062 203.871094 C 265.675781 203.054688 265.722656 202.140625 265.433594 201.277344 C 264.710938 198.679688 260.863281 196.804688 259.515625 200.074219 C 258.265625 203.152344 263.414062 207.574219 265.289062 203.871094 Z M 258.074219 208.441406 C 255.90625 207.238281 253.933594 209.929688 253.839844 211.804688 C 253.597656 216.085938 257.785156 213.921875 258.84375 211.519531 C 259.324219 210.460938 259.082031 209.015625 258.074219 208.441406 Z M 254.800781 223.058594 C 255.28125 222.625 255.136719 221.902344 254.898438 221.324219 C 254.511719 220.363281 253.933594 219.449219 253.261719 218.730469 C 252.347656 217.769531 250.664062 217.144531 250.183594 218.679688 C 249.699219 220.21875 253.308594 224.402344 254.800781 223.058594 Z M 260.332031 216.421875 C 259.035156 217.625 260.476562 220.125 261.96875 218.96875 C 263.414062 217.816406 262.113281 214.789062 260.332031 216.421875 Z M 132.402344 274.792969 C 131.96875 275.03125 131.292969 275.992188 130.714844 277.050781 C 130.1875 277.964844 129.851562 279.023438 129.898438 280.078125 C 129.945312 281.136719 130.523438 282.195312 131.488281 282.628906 C 132.402344 283.0625 133.460938 282.867188 134.421875 282.582031 C 135.191406 282.292969 135.960938 281.957031 136.539062 281.378906 C 139.28125 278.636719 136.007812 273.300781 132.402344 274.792969 C 132.6875 274.792969 132.976562 274.792969 133.265625 274.792969 M 139.089844 287.773438 C 139.859375 289.9375 141.976562 291.042969 144.1875 291.667969 C 145.199219 291.957031 146.449219 291.957031 147.074219 291.089844 C 147.796875 290.082031 147.125 288.6875 146.257812 287.820312 C 144.8125 286.332031 142.890625 285.320312 140.867188 284.984375 C 140.148438 284.886719 139.234375 284.886719 138.800781 285.464844 C 137.066406 287.53125 143.035156 291.042969 144.71875 291.378906 M 149.625 280.753906 C 153.042969 278.445312 146.929688 277.722656 145.871094 277.578125 C 143.753906 277.339844 144.042969 280.03125 145.390625 280.800781 C 146.113281 281.234375 146.980469 281.28125 147.796875 281.234375 C 148.421875 281.234375 149.097656 281.089844 149.625 280.753906 Z M 157.371094 287.195312 C 156.167969 286.28125 151.839844 285.082031 152.65625 287.917969 C 152.992188 289.070312 155.398438 290.128906 156.457031 290.226562 C 157.128906 290.273438 157.902344 290.128906 158.238281 289.601562 C 158.71875 288.78125 158.09375 287.773438 157.371094 287.195312 Z M 152.992188 300.226562 C 153.523438 299.023438 154.050781 296.714844 153.472656 295.464844 C 151.886719 292.050781 149.816406 295.945312 149.289062 297.484375 C 148.953125 298.542969 148.902344 299.746094 149.480469 300.660156 C 150.105469 301.570312 151.5 301.957031 152.320312 301.234375 C 152.65625 300.945312 152.847656 300.609375 152.992188 300.226562 Z M 152.992188 300.226562 " fill-opacity="1" fill-rule="nonzero"/></svg>